<svg width="26" height="26" viewBox="0 0 26 26" fill="none" xmlns="http://www.w3.org/2000/svg">
<path d="M13 3.35837C15.8708 4.17087 19.0125 5.14587 20.5833 5.68754V14.1917C20.5833 16.0334 18.5792 19.2834 13 22.5334C7.42083 19.2292 5.41667 16.0334 5.41667 14.1917V5.68754C6.9875 5.09171 10.1292 4.17087 13 3.35837ZM13 1.08337C13 1.08337 3.25 3.84587 3.25 4.33337V14.1917C3.25 19.175 10.4542 23.5625 12.4583 24.7542C12.6187 24.8613 12.8072 24.9185 13 24.9185C13.1928 24.9185 13.3813 24.8613 13.5417 24.7542C15.6 23.6167 22.75 19.175 22.75 14.1917V4.33337C22.75 3.84587 13 1.08337 13 1.08337Z" fill="#5928E5"/>
<path d="M10.6167 15.9251L7.90841 13.2709C7.72073 13.0791 7.60692 12.8271 7.58709 12.5594C7.56727 12.2918 7.64271 12.0258 7.80007 11.8084C7.88775 11.6779 8.00417 11.5691 8.14041 11.4906C8.27665 11.4121 8.42907 11.3658 8.58598 11.3553C8.74288 11.3449 8.9001 11.3705 9.04556 11.4302C9.19102 11.49 9.32084 11.5823 9.42507 11.7001L11.3751 13.6501L16.5751 8.45007C16.7837 8.2936 17.0417 8.21764 17.3019 8.23613C17.562 8.25461 17.8067 8.36631 17.9911 8.5507C18.1755 8.7351 18.2872 8.97982 18.3057 9.23994C18.3242 9.50006 18.2482 9.75811 18.0917 9.96673L12.1334 15.9251C12.037 16.0301 11.9198 16.114 11.7893 16.1714C11.6587 16.2288 11.5177 16.2584 11.3751 16.2584C11.2325 16.2584 11.0914 16.2288 10.9609 16.1714C10.8303 16.114 10.7131 16.0301 10.6167 15.9251Z" fill="#5928E5"/>
</svg>
