<svg width="578" height="319" viewBox="0 0 578 319" fill="none" xmlns="http://www.w3.org/2000/svg">
<path opacity="0.5" d="M40.5782 317.724C40.5782 317.724 -29.6912 242.187 28.6948 160.409C80.4989 87.849 140.896 92.8084 185.211 122.255C204.084 134.796 258.499 123.799 304.812 49.968C367.973 -50.7205 586.906 10.3463 546.987 165.258C527.67 240.223 605.779 242.948 565.979 317.884L40.5782 317.724Z" fill="#FFD2D5"/>
<path d="M97.3566 215.398L47.6257 261.222L93.3959 311.011L143.127 265.187L97.3566 215.398Z" fill="#FFD2D5"/>
<path d="M97.3562 215.398L47.6254 261.222L56.8431 271.249L106.574 225.425L97.3562 215.398Z" fill="#FCB5BA"/>
<path d="M242.591 19.2647L276.692 24.1345L254.062 8.69112L252.913 13.6423L244.619 15.1453L242.591 19.2647Z" fill="#9EC3F6"/>
<path d="M276.692 24.1345L248.315 9.48534L220.502 8.08651L276.692 24.1345Z" fill="#CDE0FB"/>
<path d="M254.062 8.69108L276.692 24.1345L259.174 0L254.062 8.69108Z" fill="#CDE0FB"/>
<path d="M433.276 86.6149L424.699 92.7772L416.077 86.6816C417.988 83.9902 421.143 82.2099 424.699 82.2099C428.233 82.2099 431.367 83.9464 433.276 86.6149Z" fill="#5928E5"/>
<path d="M424.699 67.1938C416.077 67.1938 408.456 71.4883 403.833 78.0509L409.278 81.8763C412.7 77.0273 418.344 73.8669 424.699 73.8669C431.011 73.8669 436.61 76.9814 440.031 81.7637L445.453 77.8695C440.81 71.3986 433.233 67.1938 424.699 67.1938Z" fill="#5928E5"/>
<path d="M424.699 38.6503C406.457 38.6503 390.324 47.727 380.548 61.609L385.993 65.4344C394.569 53.2869 408.724 45.3234 424.702 45.3234C440.545 45.3234 454.611 53.1535 463.21 65.1446L468.61 61.2504C458.809 47.5727 442.788 38.6503 424.699 38.6503Z" fill="#5928E5"/>
<path d="M424.7 54.2688C411.723 54.2688 400.212 60.6979 393.212 70.5544L398.655 74.3798C404.454 66.2599 413.966 60.9418 424.698 60.9418C435.342 60.9418 444.785 66.1703 450.607 74.1796L456.006 70.3084C448.987 60.5875 437.566 54.2688 424.7 54.2688Z" fill="#5928E5"/>
<path d="M246.785 124.008L238.922 123.827C241.448 127.106 242.016 130.124 240.442 132.68C238.87 135.288 235.105 137.429 229.485 139.055C233.739 127.723 235.88 115.771 235.88 103.511C235.88 76.9939 225.575 51.0395 206.127 31.6227C187.301 12.7771 161.854 1.83663 134.323 1.83663C118.862 1.83663 103.924 5.26803 90.3375 11.8265C90.3334 11.8286 90.3292 11.8306 90.3251 11.8327C85.9565 10.4985 81.7025 9.40406 77.5984 8.57227C56.878 4.36328 42.1733 7.27142 36.1993 16.7651C30.5148 25.7939 33.609 39.384 44.8885 55.236C44.8864 55.2381 44.8864 55.2402 44.8843 55.2444C42.3648 59.9057 39.939 65.4364 38.1545 70.7315C16.9615 71.9949 5.61746 75.7285 1.49254 82.4913C-3.30286 90.3652 3.24579 100.93 24.2077 111.204C27.0958 112.623 30.19 114.018 33.4383 115.411C35.9494 137.5 46.0004 158.912 62.4938 175.425C71.8264 184.743 82.6812 192.073 94.7727 197.21C131.816 212.853 175.974 205.53 206.127 175.425C215.201 166.34 222.395 155.756 227.474 144.038C237.812 141.895 244.619 138.54 247.326 134.1C249.208 131.027 248.977 127.621 246.785 124.008ZM222.524 140.656C215.641 141.895 207.055 142.618 197.025 142.722C181.463 142.912 163.589 141.682 144.753 139.197C146.337 135.743 147.891 132.192 149.407 128.563C155.251 130.521 160.923 132.072 166.333 133.17C172.53 134.429 178.187 135.051 183.235 135.051C195.068 135.051 203.545 131.63 207.732 124.975C208.421 123.879 208.984 122.717 209.417 121.49H203.384C203.285 121.673 203.178 121.854 203.068 122.032C199.957 126.974 193.009 129.528 183.249 129.526C178.583 129.526 173.269 128.942 167.428 127.756C162.339 126.722 157 125.271 151.497 123.441C152.951 119.803 154.362 116.094 155.726 112.332C159.403 102.181 162.552 92.1205 165.096 82.4579C185.731 85.5037 207.291 85.5954 228.001 84.0319C229.31 90.3923 229.973 96.9028 229.973 103.513C229.975 116.393 227.474 128.886 222.524 140.656ZM96.8529 191.062C93.919 189.997 92.4302 185.782 91.6973 182.431C90.5395 177.138 90.3292 169.704 91.0913 160.934C91.4765 156.498 92.095 151.782 92.9299 146.848C104.955 150.056 116.863 154.182 128.459 159.156C125.848 163.665 123.206 167.845 120.565 171.635C115.535 178.856 110.614 184.426 106.335 187.745C103.628 189.849 99.7868 192.127 96.8529 191.062ZM131.114 154.438C118.977 149.201 106.498 144.874 93.8961 141.534C94.3396 139.245 94.8269 136.914 95.3558 134.548C98.8602 135.347 102.415 136.118 106.013 136.862C116.545 139.018 127.05 140.85 137.334 142.33C135.299 146.55 133.219 150.594 131.114 154.438ZM108.334 133.041C104.266 132.203 100.255 131.327 96.3136 130.418C98.1689 122.688 100.449 114.631 103.108 106.421C116.938 114.933 131.006 121.859 144.322 126.772C142.652 130.766 140.934 134.661 139.183 138.428C129.069 136.975 118.718 135.174 108.334 133.041ZM74.5542 28.7104C82.2418 44.479 97.059 57.4729 113.003 66.091C109.14 74.5173 105.461 83.5107 102.077 92.8501C101.446 94.5908 100.834 96.3295 100.234 98.0639C80.0284 84.897 62.9228 69.7872 51.6995 55.1631C51.6974 55.161 51.6974 55.1589 51.6953 55.1568C57.6172 45.0419 65.334 36.1111 74.5542 28.7104ZM160.953 14.1196C163.886 15.1849 165.375 19.4002 166.108 22.7503C167.266 28.0433 167.476 35.4773 166.714 44.2476C165.879 53.8476 163.959 64.7526 161.102 76.3644C147.052 73.944 133.009 69.9539 120.08 63.6707C125.59 52.1653 131.416 41.9065 137.242 33.5448C142.273 26.3234 147.193 20.7531 151.472 17.4343C153.704 15.7019 156.707 13.8486 159.337 13.8486C159.895 13.8486 160.436 13.932 160.953 14.1196ZM159.764 81.5949C157.284 90.9385 154.229 100.67 150.668 110.495C149.296 114.283 147.876 118.01 146.414 121.665C133.044 116.749 118.852 109.719 104.901 101.037C105.621 98.927 106.367 96.8089 107.135 94.6867C110.442 85.5579 114.031 76.773 117.794 68.5447C130.962 74.9343 145.227 79.0599 159.764 81.5949ZM201.95 35.7796C214.356 48.2002 222.587 63.1203 226.749 78.7201C204.698 80.3336 184.492 79.827 166.431 77.2108C169.298 65.4864 171.226 54.4563 172.074 44.7146C173.009 33.9555 172.894 21.2138 168.538 14.0425C181.159 18.8957 192.432 26.2234 201.95 35.7796ZM134.323 7.72172C140.951 7.72172 147.468 8.38882 153.84 9.71468C146.325 12.9897 138.652 22.1061 132.828 30.4636C126.866 39.0192 120.915 49.4885 115.293 61.2066C100.12 52.9533 85.7899 40.2992 78.9394 25.3937C94.9331 14.0029 114.169 7.72172 134.323 7.72172ZM40.8635 19.7066C43.9744 14.7638 50.9228 12.2121 60.6823 12.2121C65.3507 12.2121 70.6625 12.7959 76.5032 13.982C78.7207 14.4323 80.9841 14.9598 83.2871 15.5685C83.2892 15.5685 83.2912 15.5685 83.2933 15.5706C69.3611 23.6383 57.0883 35.3126 47.9515 49.9492C47.9494 49.9513 47.9473 49.9534 47.9473 49.9576C39.3248 37.1388 36.7324 26.2692 40.8635 19.7066ZM48.8281 60.4561C48.8281 60.454 48.8302 60.4519 48.8302 60.4519C60.6469 75.2386 78.0628 90.3547 98.4146 103.465C95.5286 112.259 93.0674 120.9 91.0809 129.18C74.2085 125.094 54.598 119.313 39.1103 112.753C37.8255 99.8943 39.2248 86.8796 43.0811 74.6007C44.5762 69.8414 46.5626 64.934 48.8281 60.4561ZM28.899 108.158C10.619 99.2272 2.26505 90.6049 6.00476 84.4884C9.02192 79.5331 20.0037 76.1768 36.8157 74.9384C33.4279 86.3897 32.2472 98.2953 32.9489 110.07C31.5538 109.448 30.2129 108.804 28.899 108.158ZM90.1189 133.326C89.5984 135.655 89.1174 137.95 88.6759 140.208C87.5036 139.922 86.3292 139.645 85.1549 139.376C65.3111 134.855 50.421 133.935 43.5184 133.779C41.8089 128.623 40.5512 123.349 39.7558 117.966C53.2716 123.174 68.4907 128.167 90.1189 133.326ZM45.5153 139.245C52.876 139.541 66.5251 140.658 83.9596 144.63C85.2069 144.913 86.4542 145.211 87.6993 145.516C86.8019 150.755 86.1398 155.762 85.7316 160.467C84.957 169.383 84.9029 179.663 87.387 187.005C79.8264 182.744 72.8925 177.472 66.6708 171.243C57.3944 161.958 50.2586 151.086 45.5153 139.245ZM105.313 194.821C112.391 191.108 119.501 182.577 124.978 174.718C127.801 170.665 130.625 166.179 133.411 161.336C149.477 168.62 164.925 177.57 179.437 187.995C155.516 200.793 128.58 202.242 105.313 194.821ZM201.95 171.245C196.661 176.555 190.839 181.168 184.548 185.054C169.304 173.901 153.019 164.353 136.051 156.625C138.383 152.345 140.682 147.826 142.927 143.108C158.458 145.17 173.39 146.406 187.02 146.725C190.579 146.827 194.033 146.827 197.386 146.802C206.075 146.7 213.808 146.183 220.436 145.253C215.795 154.88 209.581 163.605 201.95 171.245Z" fill="#5928E5"/>
<path d="M199.78 139.874L185.735 307.062C185.735 307.062 184.263 317.196 191.793 317.215C204.174 317.244 253.412 317.215 253.412 317.215C253.412 317.215 244.094 315.105 244.207 310.358C244.34 304.763 260.621 138.292 260.621 138.292L199.78 139.874Z" fill="#BA733E"/>
<path d="M257.408 314.182C254.974 314.188 207.942 314.336 195.886 314.182C190.633 314.117 189.71 309.504 189.667 306.52C189.646 305.09 189.827 304.031 189.827 304.031L190.191 299.687L191.122 288.611L191.945 278.825L193 266.251L193.889 255.637L203.867 136.839L264.713 135.259C264.713 135.259 257.856 204.925 253.004 255.637C252.463 261.287 251.948 266.705 251.472 271.762C251.318 273.378 251.17 274.956 251.024 276.493C250.574 281.292 250.164 285.697 249.806 289.587C249.616 291.638 249.444 293.541 249.285 295.288C248.667 302.126 248.305 306.493 248.298 307.325C248.296 307.809 248.338 308.259 248.417 308.678C249.419 314.009 256.494 314.182 257.408 314.182Z" fill="#F99746"/>
<path d="M52.018 48.8985L86.2271 186.474L90.9101 205.315L106.843 269.392H402.857L344.129 48.8985H52.018Z" fill="#F99746"/>
<path d="M52.0159 48.8985L47.2747 50.4808L100.54 274.179L106.843 269.392L52.0159 48.8985Z" fill="#EE9849"/>
<path d="M100.541 274.179H394.732L402.855 269.392H106.843L100.541 274.179Z" fill="#BA733E"/>
<path d="M203.852 317.28H267.547V314.249H203.852V317.28Z" fill="#F1A34F"/>
<path d="M388.516 228.764L340.483 51.8129H51.5433V48.8985H344.129L392 228.37L388.516 228.764Z" fill="#F1A34F"/>
<path d="M251.357 274.176L251.028 276.495L191.124 288.611L191.947 278.825L192.338 274.176H251.357Z" fill="#BA733E"/>
<path opacity="0.4" d="M257.408 314.182C254.974 314.188 207.942 314.336 195.886 314.182C190.633 314.117 189.71 309.504 189.667 306.52L249.287 295.29C248.669 302.128 248.307 306.495 248.3 307.327C248.298 307.811 248.34 308.261 248.419 308.68C249.419 314.009 256.494 314.182 257.408 314.182Z" fill="#BA733E"/>
<path opacity="0.4" d="M236.877 224.757L106.843 269.392L90.9102 205.315L236.877 224.757Z" fill="#BA733E"/>
<path d="M52.0161 48.8985H344.129L391.525 226.106H94.577L52.0161 48.8985Z" fill="#699DEE"/>
<path d="M262.697 248.508C261.854 244.161 257.65 240.638 253.31 240.638C248.969 240.638 246.135 244.161 246.978 248.508C247.821 252.854 252.025 256.377 256.365 256.377C260.706 256.377 263.54 252.854 262.697 248.508Z" fill="#BA733E"/>
<path d="M377.749 218.428H104.243L73.2674 94.891L70.8957 85.4181L68.8676 77.3379L67.2476 70.8691L64.118 58.3901H333.681L333.87 59.076L337.114 70.8691L338.897 77.3379L341.123 85.4181L343.732 94.891L377.749 218.428Z" fill="#E9F3FE"/>
<path d="M377.749 218.849H104.243L73.2674 95.3141L70.8957 85.8412L68.8676 77.761L67.2476 71.2901L64.118 58.8132H333.681L333.87 59.4991L337.114 71.2901L338.897 77.761L341.123 85.8412L343.732 95.3141L377.749 218.849Z" fill="#E9F3FE"/>
<path d="M337.114 70.8691H67.2476L64.118 58.3901H333.579L333.87 59.076L337.114 70.8691Z" fill="#AFCDFB"/>
<path d="M71.6161 64.6297C71.2912 63.3225 72.0846 62.2614 73.3922 62.2614C74.6999 62.2614 76.0221 63.3225 76.3469 64.6297C76.6718 65.9368 75.8784 66.9979 74.5708 66.9979C73.2631 66.9979 71.9409 65.9368 71.6161 64.6297Z" fill="#E9F3FE"/>
<path d="M83.8514 66.4118C84.615 65.5463 84.3348 64.0495 83.2255 63.0685C82.1162 62.0876 80.5979 61.994 79.8344 62.8595C79.0708 63.7251 79.351 65.2219 80.4603 66.2028C81.5696 67.1838 83.0879 67.2773 83.8514 66.4118Z" fill="#E9F3FE"/>
<path d="M87.9408 64.6297C87.616 63.3225 88.4093 62.2614 89.717 62.2614C91.0246 62.2614 92.3469 63.3225 92.6717 64.6297C92.9965 65.9368 92.2032 66.9979 90.8955 66.9979C89.5879 66.9979 88.2678 65.9368 87.9408 64.6297Z" fill="#E9F3FE"/>
<path d="M189.442 218.849H162.398C162.137 216.733 161.91 214.496 161.704 212.163C161.342 207.977 161.063 203.476 160.859 198.792C160.809 197.712 160.767 196.622 160.728 195.525C160.676 194.128 160.632 192.715 160.59 191.295C160.524 188.883 160.472 186.444 160.434 183.991C160.432 183.989 160.432 183.984 160.432 183.982C160.384 180.853 160.361 177.703 160.355 174.566C160.355 174.564 160.355 174.564 160.355 174.564C160.353 173.78 160.353 172.998 160.353 172.216V172.214C160.353 171.478 160.355 170.747 160.357 170.015C160.38 163.26 160.482 156.635 160.626 150.475C160.936 136.845 161.442 125.488 161.711 120.028V120.026C161.819 117.785 161.89 116.538 161.89 116.538C161.892 116.538 161.894 116.54 161.896 116.54C161.956 116.549 162.366 116.626 163.012 116.78C163.485 116.895 164.086 117.053 164.769 117.264H164.771C165.388 117.449 166.071 117.681 166.787 117.952C166.789 117.952 166.791 117.952 166.793 117.954C168.011 118.423 169.325 119.023 170.56 119.776C170.579 119.786 170.598 119.795 170.616 119.805C172.636 121.06 174.46 122.724 175.291 124.921C176.005 126.787 177.675 136.816 179.695 150.137C179.751 150.517 179.807 150.9 179.868 151.286C180.936 158.359 182.089 166.296 183.249 174.401C184.478 182.99 185.704 191.76 186.833 199.888C187.799 206.86 188.692 213.354 189.442 218.849Z" fill="#5337A3"/>
<path d="M181.869 218.849H150.389C149.786 216.249 149.221 213.741 148.719 211.388C147.337 204.904 146.427 199.59 146.477 196.736C146.5 195.398 147.006 194.352 147.872 193.547C148.465 192.994 149.23 192.557 150.127 192.215C152.782 191.206 156.599 191.039 160.592 191.295C161.95 191.381 163.326 191.512 164.684 191.677C172.165 192.586 179.112 194.439 179.112 194.439C179.112 194.439 179.576 196.319 180.126 199.607C180.538 202.073 180.998 205.334 181.34 209.184C181.538 211.421 181.698 213.858 181.787 216.456C181.81 217.235 181.837 218.036 181.869 218.849Z" fill="#2B4069"/>
<path d="M167.33 196.776L167.016 199.053L165.492 210.108L165.232 211.994L164.286 218.849H131.483C131.229 214.319 130.993 209.906 130.947 206.057C130.943 205.63 130.941 205.213 130.941 204.802C130.941 199.007 131.449 194.71 133.109 193.626C134.989 192.396 141.227 192.734 147.87 193.549C148.532 193.628 149.198 193.716 149.867 193.805C153.738 194.327 157.613 194.971 160.728 195.525C162.343 195.813 163.755 196.078 164.855 196.288C166.404 196.584 167.33 196.776 167.33 196.776Z" fill="#C65447"/>
<path d="M130.941 122.238C130.941 122.238 148.963 110.57 161.892 116.538C163.951 117.489 166.302 120.143 167.984 121.998C172.657 127.154 181.787 209.038 181.787 209.038C181.787 209.038 155.87 217.827 130.943 206.055V122.238H130.941Z" fill="white"/>
<path d="M162.916 116.24C162.916 116.24 181.161 123.726 183.632 129.478C186.104 135.23 194.135 170.553 194.135 174.695C194.135 178.837 180.151 175.621 177.9 168.941C176.03 163.394 169.725 146.352 166.4 135.574L162.916 116.24Z" fill="#5337A3"/>
<path d="M159.127 121.946C155.143 122.728 149.292 121.894 145.009 119.067C146.943 114.443 147.737 110.791 148.018 108.427C148.034 108.302 148.047 108.179 148.059 108.062C148.186 106.836 148.168 106.007 148.109 105.625H158.406C158.406 105.625 161.221 106.913 161.221 107.804C161.221 108.279 161.225 108.735 161.234 109.171C161.255 110.357 161.303 111.391 161.363 112.281C161.559 115.175 161.89 116.536 161.89 116.536C161.89 116.536 163.149 121.156 159.127 121.946Z" fill="#FFB27D"/>
<path d="M161.363 112.281C153.561 113.791 149.032 109.523 148.018 108.427C147.874 108.27 147.799 108.177 147.799 108.177C147.882 108.135 147.968 108.097 148.059 108.062C150.964 106.884 157.554 107.82 161.234 109.171C161.255 110.357 161.3 111.393 161.363 112.281Z" fill="#E2915A"/>
<path d="M145.469 103.93C146.862 111.441 156.545 111.195 160.728 110.722C161.904 110.591 162.645 110.441 162.645 110.441C163.974 110.086 164.713 107.991 165.059 105.25C165.742 99.8234 164.88 91.8557 163.964 89.819C162.585 86.7524 159.989 83.4377 150.24 85.8289C140.488 88.2263 143.68 94.3073 145.469 103.93Z" fill="#FFB27D"/>
<path d="M164.326 85.6308C162.993 83.7837 160.168 81.526 157.602 80.1376C152.089 77.1523 145.034 80.2314 145.005 80.2439C137.042 83.7483 134.962 89.8481 139.183 99.3501C143.647 109.398 147.899 108.266 147.899 108.266C147.899 108.266 146.997 107.703 147.079 104.572C147.083 104.395 147.091 104.245 147.1 104.118C147.141 103.476 146.914 102.832 146.435 102.404C145.446 101.52 144.963 98.8477 145.792 98.1035C146.791 97.205 148.195 98.2953 148.645 99.1354C149.036 99.7275 149.738 99.9359 150.392 99.5211C152.869 97.9534 151.26 94.8138 153.627 92.8959C155.995 90.9759 160.801 92.5874 164.355 91.0593C169.005 89.3248 165.332 87.0213 164.326 85.6308Z" fill="#2B4069"/>
<path d="M165.606 218.849H126.365C126.646 210.702 127.006 200.975 127.385 191.127C127.481 188.573 127.583 186.009 127.683 183.465C127.728 182.388 127.768 181.316 127.81 180.245C128.676 158.374 129.538 138.624 129.719 137.558C130.131 135.153 130.521 133.101 130.941 131.323C132.174 126.143 133.707 123.301 137.046 120.858C137.371 120.61 140.045 119.263 142.398 118.087C144.322 117.133 146.031 116.297 146.083 116.274V116.272H146.085C146.475 116.461 146.904 117.003 147.356 117.808C147.807 118.613 148.284 119.684 148.772 120.935C150.564 125.548 152.503 132.607 153.848 137.879C153.85 137.886 153.852 137.892 153.852 137.896C153.854 137.9 153.854 137.902 153.854 137.907C153.854 137.909 153.854 137.909 153.854 137.909C154.721 141.313 155.343 143.963 155.52 144.726C155.822 146.01 156.218 148.493 156.686 151.857V151.866C157.319 156.454 158.077 162.681 158.879 169.748V169.75C158.962 170.478 159.043 171.212 159.127 171.952C159.22 172.798 159.318 173.655 159.414 174.52V174.522C159.445 174.799 159.474 175.079 159.503 175.358V175.36C159.812 178.158 160.124 181.043 160.432 183.98C160.432 183.982 160.432 183.987 160.434 183.989C160.699 186.409 164.365 188.162 164.619 190.628C164.638 190.808 164.657 191.17 164.68 191.675C164.728 192.717 164.784 194.372 164.853 196.286C164.882 197.137 164.911 198.042 164.944 198.963C165.088 203.064 165.265 207.556 165.465 209.718C165.475 209.82 165.484 209.949 165.49 210.108C165.513 210.539 165.531 211.175 165.548 211.971C165.584 213.666 165.6 216.089 165.606 218.849Z" fill="#5337A3"/>
<path d="M138.837 146.377C138.825 146.427 138.212 168.493 154.791 171.172C171.37 173.853 160.355 174.562 160.355 174.562C160.355 174.562 129.161 173.234 128.647 172.41C128.13 171.585 138.837 146.377 138.837 146.377Z" fill="#2B4069"/>
<path d="M152.844 180.645C152.844 180.645 152.534 180.866 151.936 181.251C151.926 181.256 151.916 181.264 151.905 181.27C149.375 182.886 141.869 187.293 130.939 190.247C129.792 190.557 128.605 190.853 127.385 191.124C127.481 188.573 127.583 186.009 127.68 183.465C126.237 183.353 124.855 183.169 123.572 182.896C123.616 182.561 123.662 182.225 123.703 181.887C125.094 181.316 126.475 180.766 127.807 180.244C128.892 179.819 129.944 179.415 130.937 179.04C135.426 177.332 138.754 176.175 138.754 176.175L152.043 180.39L152.844 180.645Z" fill="#2B4069"/>
<path d="M156.361 180.276C156.361 180.276 154.654 180.703 151.936 181.251C151.926 181.251 151.918 181.253 151.907 181.258C146.895 182.267 138.466 183.68 130.939 183.603C129.829 183.59 128.738 183.547 127.68 183.465C126.237 183.353 124.855 183.169 123.572 182.896C120.822 182.315 118.517 181.331 117.009 179.792C105.811 168.374 123.12 127.391 126.758 123.403C131.006 118.748 138.76 117.114 143.043 116.553C143.222 116.53 143.393 116.507 143.56 116.486C145.065 116.307 146.031 116.269 146.085 116.267C146.087 116.267 146.087 116.267 146.087 116.267C146.087 116.267 145.752 117.347 145.19 119.182C144.971 119.891 144.717 120.714 144.44 121.631C141.811 130.254 136.736 147.2 134.5 156.758C133.679 160.256 133.242 162.762 133.442 163.511C134.314 166.775 143.362 168.453 149.094 169.196C151.485 169.504 153.3 169.652 153.706 169.681C153.736 169.681 153.763 169.683 153.792 169.688L154.123 171.049L154.916 174.313L155.697 177.52L156.361 180.276Z" fill="#5337A3"/>
<path d="M187.593 199.922L149.136 198.298L156.938 150.317L195.395 151.939L187.593 199.922Z" fill="#F99746"/>
<path d="M153.788 169.692C153.788 169.692 161.273 169.168 161.648 170.915C162.523 174.987 155.212 178.331 152.844 178.103C150.477 177.874 152.066 169.419 153.788 169.692Z" fill="#FFB27D"/>
<path d="M193.292 161.683C193.292 161.683 186.129 159.441 185.361 161.053C183.568 164.812 189.908 169.759 192.265 170.084C194.622 170.411 195.031 161.818 193.292 161.683Z" fill="#FFB27D"/>
<path d="M146.864 113.862C146.864 113.862 143.716 115.365 142.135 117.633C142.135 117.633 153.908 138.096 153.854 137.904C153.802 137.713 149.875 116.482 146.864 113.862Z" fill="#2B4069"/>
<path d="M161.525 114.149C162.562 114.541 164.551 116.58 164.998 117.708L166.398 135.572C166.398 135.572 163.41 122.461 161.89 116.534C161.504 115.031 161.575 114.573 161.525 114.149Z" fill="#2B4069"/>
<path d="M169.685 150.854C169.685 150.854 169.989 149.522 171.741 149.679C173.492 149.833 183.326 150.317 183.326 150.317C183.326 150.317 185.223 150.285 185.046 151.503L169.685 150.854Z" fill="#C65447"/>
<path d="M158.406 105.625C158.406 105.625 159.682 106.79 161.742 106.43C162.964 106.215 163.647 104.626 163.647 104.626C163.647 104.626 161.3 104.203 158.406 105.625Z" fill="white"/>
<path d="M340.629 120.558L312.223 120.662L303.011 85.3554L331.417 85.2491L340.629 120.558Z" fill="white"/>
<path d="M324.373 89.8896L312.463 89.9334L312.325 89.4101L324.236 89.3663L324.373 89.8896Z" fill="#ADCBF9"/>
<path d="M326.274 91.3404L311.319 91.3946L311.184 90.8735L326.139 90.8172L326.274 91.3404Z" fill="#ADCBF9"/>
<path d="M330.386 98.5265L310.961 98.5973L310.826 98.0762L330.249 98.0032L330.386 98.5265Z" fill="#ADCBF9"/>
<path d="M330.836 100.248L311.411 100.319L311.276 99.7959L330.699 99.725L330.836 100.248Z" fill="#ADCBF9"/>
<path d="M331.284 101.968L311.861 102.041L311.723 101.518L331.149 101.447L331.284 101.968Z" fill="#ADCBF9"/>
<path d="M331.734 103.69L312.311 103.763L312.173 103.24L331.596 103.169L331.734 103.69Z" fill="#ADCBF9"/>
<path d="M332.183 105.412L312.758 105.483L312.623 104.962L332.046 104.889L332.183 105.412Z" fill="#ADCBF9"/>
<path d="M333.275 109.6L313.851 109.673L313.716 109.15L333.139 109.079L333.275 109.6Z" fill="#ADCBF9"/>
<path d="M333.724 111.322L314.301 111.395L314.164 110.872L333.589 110.801L333.724 111.322Z" fill="#ADCBF9"/>
<path d="M334.174 113.044L314.751 113.115L314.614 112.594L334.037 112.521L334.174 113.044Z" fill="#ADCBF9"/>
<path d="M334.624 114.766L315.199 114.837L315.063 114.316L334.487 114.243L334.624 114.766Z" fill="#ADCBF9"/>
<path d="M335.071 116.488L315.648 116.559L315.513 116.036L334.936 115.965L335.071 116.488Z" fill="#ADCBF9"/>
<path d="M352.075 164.43L323.669 164.536L314.457 129.228L342.863 129.124L352.075 164.43Z" fill="white"/>
<path d="M335.819 133.762L323.909 133.806L323.771 133.285L335.684 133.241L335.819 133.762Z" fill="#ADCBF9"/>
<path d="M337.72 135.213L322.768 135.269L322.63 134.746L337.585 134.692L337.72 135.213Z" fill="#ADCBF9"/>
<path d="M341.833 142.399L322.409 142.472L322.272 141.948L341.697 141.878L341.833 142.399Z" fill="#ADCBF9"/>
<path d="M342.282 144.121L322.857 144.192L322.722 143.671L342.145 143.598L342.282 144.121Z" fill="#ADCBF9"/>
<path d="M342.73 145.843L323.307 145.914L323.172 145.392L342.595 145.319L342.73 145.843Z" fill="#ADCBF9"/>
<path d="M343.18 147.565L323.757 147.636L323.619 147.112L343.045 147.041L343.18 147.565Z" fill="#ADCBF9"/>
<path d="M343.63 149.285L324.204 149.357L324.069 148.834L343.492 148.763L343.63 149.285Z" fill="#ADCBF9"/>
<path d="M344.723 153.475L325.298 153.546L325.162 153.025L344.585 152.952L344.723 153.475Z" fill="#ADCBF9"/>
<path d="M345.17 155.197L325.747 155.268L325.612 154.747L345.035 154.674L345.17 155.197Z" fill="#ADCBF9"/>
<path d="M345.62 156.919L326.197 156.99L326.06 156.466L345.485 156.395L345.62 156.919Z" fill="#ADCBF9"/>
<path d="M346.07 158.639L326.645 158.712L326.509 158.188L345.933 158.117L346.07 158.639Z" fill="#ADCBF9"/>
<path d="M346.518 160.361L327.094 160.434L326.959 159.91L346.382 159.839L346.518 160.361Z" fill="#ADCBF9"/>
<path d="M363.6 208.598L335.192 208.705L325.981 173.396L354.389 173.292L363.6 208.598Z" fill="white"/>
<path d="M347.342 177.93L335.432 177.974L335.294 177.453L347.207 177.409L347.342 177.93Z" fill="#ADCBF9"/>
<path d="M349.243 179.381L334.291 179.438L334.153 178.914L349.108 178.86L349.243 179.381Z" fill="#ADCBF9"/>
<path d="M353.356 186.567L333.933 186.64L333.795 186.117L353.22 186.046L353.356 186.567Z" fill="#ADCBF9"/>
<path d="M353.805 188.289L334.38 188.36L334.245 187.839L353.668 187.766L353.805 188.289Z" fill="#ADCBF9"/>
<path d="M354.255 190.011L334.83 190.082L334.695 189.561L354.118 189.488L354.255 190.011Z" fill="#ADCBF9"/>
<path d="M354.703 191.733L335.28 191.804L335.142 191.281L354.568 191.21L354.703 191.733Z" fill="#ADCBF9"/>
<path d="M355.153 193.453L335.729 193.526L335.592 193.003L355.015 192.932L355.153 193.453Z" fill="#ADCBF9"/>
<path d="M356.246 197.643L336.823 197.714L336.685 197.193L356.108 197.12L356.246 197.643Z" fill="#ADCBF9"/>
<path d="M356.696 199.365L337.27 199.436L337.135 198.915L356.558 198.842L356.696 199.365Z" fill="#ADCBF9"/>
<path d="M357.143 201.087L337.72 201.158L337.583 200.635L357.008 200.564L357.143 201.087Z" fill="#ADCBF9"/>
<path d="M357.593 202.807L338.17 202.88L338.032 202.357L357.456 202.286L357.593 202.807Z" fill="#ADCBF9"/>
<path d="M358.043 204.529L338.617 204.602L338.482 204.079L357.905 204.008L358.043 204.529Z" fill="#ADCBF9"/>
<path d="M326.249 208.896L226.897 209.263L198.304 99.6668L211.245 85.714L294.031 85.4075L326.249 208.896Z" fill="white"/>
<path d="M266.664 103.928L231.649 104.057L231.247 102.523L266.262 102.394L266.664 103.928Z" fill="#ADCBF9"/>
<path d="M272.255 108.195L228.292 108.358L227.893 106.822L271.853 106.659L272.255 108.195Z" fill="#ADCBF9"/>
<path d="M284.34 129.319L227.241 129.53L226.839 127.994L283.94 127.783L284.34 129.319Z" fill="#ADCBF9"/>
<path d="M285.662 134.379L228.561 134.589L228.159 133.055L285.26 132.842L285.662 134.379Z" fill="#ADCBF9"/>
<path d="M286.982 139.441L229.881 139.651L229.479 138.115L286.58 137.904L286.982 139.441Z" fill="#ADCBF9"/>
<path d="M288.302 144.5L231.201 144.713L230.801 143.176L287.9 142.966L288.302 144.5Z" fill="#ADCBF9"/>
<path d="M289.622 149.562L232.521 149.772L232.121 148.238L289.221 148.025L289.622 149.562Z" fill="#ADCBF9"/>
<path d="M292.835 161.878L235.734 162.089L235.334 160.552L292.436 160.342L292.835 161.878Z" fill="#ADCBF9"/>
<path d="M294.156 166.938L237.054 167.148L236.655 165.614L293.756 165.401L294.156 166.938Z" fill="#ADCBF9"/>
<path d="M295.476 171.999L238.374 172.21L237.975 170.674L295.076 170.463L295.476 171.999Z" fill="#ADCBF9"/>
<path d="M296.796 177.059L239.695 177.272L239.295 175.735L296.396 175.525L296.796 177.059Z" fill="#ADCBF9"/>
<path d="M298.116 182.121L241.017 182.331L240.615 180.795L297.716 180.584L298.116 182.121Z" fill="#ADCBF9"/>
<path d="M198.304 99.6668L214.87 99.6043L211.245 85.714L198.304 99.6668Z" fill="#ADCBF9"/>
<path d="M437.601 294.851H356.718V266.251H437.859C444.168 266.251 449.282 271.371 449.282 277.687V283.157C449.282 289.616 444.052 294.851 437.601 294.851Z" fill="#FCECDB"/>
<path d="M518.317 278.019V282.321C518.317 284.621 517.698 286.774 516.62 288.624C514.452 292.347 510.419 294.85 505.801 294.85H354.238C353.235 294.85 352.423 294.037 352.423 293.035V292.391C352.423 291.388 353.235 290.575 354.238 290.575H446.63C447.123 289.972 447.558 289.32 447.927 288.624C448.793 286.991 449.28 285.132 449.28 283.155V277.685C449.28 276.678 449.151 275.703 448.905 274.775C448.491 273.201 447.752 271.758 446.763 270.528H354.238C353.235 270.528 352.423 269.715 352.423 268.711V268.068C352.423 267.064 353.235 266.251 354.238 266.251H506.563C511.931 266.251 516.457 269.853 517.863 274.775C518.161 275.807 518.317 276.895 518.317 278.019Z" fill="#699DEE"/>
<path d="M517.865 274.775H448.908C448.493 273.201 447.754 271.758 446.765 270.528H354.241C353.237 270.528 352.425 269.715 352.425 268.71V268.068C352.425 267.064 353.237 266.251 354.241 266.251H506.565C511.933 266.251 516.46 269.853 517.865 274.775Z" fill="#548EE2"/>
<path d="M356.718 280.552L367.942 281.031L356.718 281.321V280.552Z" fill="#F4D2B8"/>
<path d="M356.718 285.038L383.417 285.519L356.718 285.809V285.038Z" fill="#F4D2B8"/>
<path d="M376.008 317.038H462.109V294.792H375.309C369.366 294.792 364.547 299.616 364.547 305.566C364.55 311.901 369.678 317.038 376.008 317.038Z" fill="#2B478B"/>
<path d="M457.166 317.038H555.156V294.792H456.916C450.873 294.792 445.976 299.695 445.976 305.745V305.835C445.978 312.022 450.988 317.038 457.166 317.038Z" fill="#FCECDB"/>
<path d="M439.435 317.038H558.56C559.478 317.038 560.222 316.294 560.222 315.374C560.222 314.455 559.478 313.711 558.56 313.711H439.435C438.517 313.711 437.774 314.455 437.774 315.374C437.774 316.292 438.517 317.038 439.435 317.038Z" fill="#2B478B"/>
<path d="M439.435 298.117H558.56C559.478 298.117 560.222 297.373 560.222 296.454C560.222 295.534 559.478 294.79 558.56 294.79H439.435C438.517 294.79 437.774 295.534 437.774 296.454C437.774 297.373 438.517 298.117 439.435 298.117Z" fill="#2B478B"/>
<path d="M555.158 305.914L541.921 306.287L555.158 306.514V305.914Z" fill="#F4D2B8"/>
<path d="M555.158 300.794L523.666 301.169L555.158 301.394V300.794Z" fill="#F4D2B8"/>
<path d="M523.991 301.094C523.991 301.094 525.34 302.049 525.788 303.621C525.867 303.896 525.917 304.19 525.927 304.5C526.002 306.587 525.927 311.311 525.927 311.311L529.913 308.949L533.886 311.311V304.909C533.886 303.698 533.544 302.52 532.911 301.749C532.605 301.376 532.232 301.094 531.81 301.094H523.991Z" fill="#699DEE"/>
<path d="M523.991 301.094C523.991 301.094 525.34 302.049 525.788 303.621L533.773 303.715C533.773 303.715 533.461 301.465 531.812 301.094H523.991Z" fill="#568CDB"/>
<path d="M447.146 266.311H535.116V233.627H446.857C439.812 233.627 434.101 239.346 434.101 246.398V253.25C434.101 260.463 439.941 266.311 447.146 266.311Z" fill="#FCECDB"/>
<path d="M436.17 246.309V253.342C436.191 256.346 437.853 258.952 440.293 260.347C441.495 261.031 442.884 261.423 444.36 261.423H539.893C541.013 261.423 541.921 262.332 541.921 263.453V264.283C541.921 265.404 541.013 266.313 539.893 266.313H374.857C370.122 266.313 365.936 263.958 363.409 260.349C361.816 258.077 360.879 255.308 360.879 252.319V246.769C360.879 244.722 361.347 242.783 362.182 241.055C364.304 236.661 368.8 233.629 374.003 233.629H539.893C541.013 233.629 541.921 234.536 541.921 235.658V236.488C541.921 237.609 541.013 238.518 539.893 238.518H444.066C441.776 238.518 439.704 239.494 438.255 241.055C436.974 242.437 436.183 244.278 436.17 246.309Z" fill="#B5453C"/>
<path d="M535.116 249.969L522.869 250.519L535.116 250.849V249.969Z" fill="#F4D2B8"/>
<path d="M535.116 242.447L505.98 242.998L535.116 243.327V242.447Z" fill="#F4D2B8"/>
<path d="M506.28 242.887C506.28 242.887 508.201 243.923 508.839 245.627C508.951 245.925 509.024 246.244 509.039 246.579C509.145 248.843 509.039 253.965 509.039 253.965L514.715 251.403L520.376 253.965V247.023C520.376 245.71 519.891 244.434 518.987 243.598C518.55 243.194 518.019 242.887 517.42 242.887H506.28Z" fill="#F99746"/>
<path d="M506.28 242.887C506.28 242.887 508.201 243.923 508.839 245.627L520.216 245.729C520.216 245.729 519.77 243.29 517.422 242.887H506.28Z" fill="#ED7D2B"/>
<path d="M448.677 221.509C453.711 230.283 460.045 233.669 460.045 233.669H486.394C486.392 233.669 444.835 214.815 448.677 221.509Z" fill="#233862"/>
<path d="M468.912 289.395C469.599 290.183 469.686 291.063 469.347 292.003C469.347 292.007 469.345 292.013 469.341 292.015C468.712 293.754 466.636 295.695 464.224 297.633C463.916 297.882 463.641 298.109 463.404 298.319C463.342 298.374 463.279 298.43 463.221 298.484C463.173 298.526 463.125 298.572 463.079 298.611C460.83 300.688 461.676 301.163 457.636 305.374C453.03 310.173 449.857 310.258 448.955 309.823C448.191 309.45 449.742 306.904 451.46 304.044C451.544 303.906 451.625 303.767 451.71 303.627C451.939 303.248 452.166 302.86 452.393 302.478C454.407 299.034 453.89 297.421 453.411 292.297C453.024 288.134 446.942 269.036 446.942 269.036L455.771 267.514C455.771 267.514 458.43 282.722 461.359 285.063C462.925 286.312 464.678 286.326 466.184 287.252C466.29 287.316 466.394 287.381 466.496 287.45C467.352 288.019 468.222 288.605 468.912 289.395Z" fill="#FFB27D"/>
<path d="M468.912 289.395C469.599 290.183 469.686 291.063 469.347 292.003C469.347 292.007 469.345 292.013 469.341 292.015C468.57 293.752 466.546 295.684 464.216 297.617C463.912 297.869 463.644 298.103 463.404 298.319C463.342 298.374 463.279 298.43 463.221 298.484C463.173 298.526 463.125 298.572 463.079 298.611C460.831 300.688 461.676 301.163 457.636 305.374C453.031 310.173 449.857 310.258 448.956 309.823C448.191 309.45 449.743 306.904 451.461 304.044C452.358 303.715 456.522 302.022 459.673 297.986C462.446 294.442 464.298 289.889 466.186 287.252C466.292 287.316 466.396 287.381 466.498 287.45C467.352 288.019 468.223 288.605 468.912 289.395Z" fill="#233862"/>
<path d="M397.726 283.875C397.181 286.603 393.297 286.147 388.958 285.086C384.618 284.025 385.649 285.286 379.473 284.602C373.297 283.918 371.425 281.613 371.238 280.693C371.069 279.878 374.122 279.591 377.395 279.213C377.807 279.167 378.22 279.115 378.634 279.065C382.33 278.6 385.037 276.213 388.394 274.252C391.573 272.394 396.319 264.827 396.319 264.827L404.789 265.498C404.789 265.498 400.344 272.257 398.626 275.196C397.614 276.924 397.668 279.209 397.795 280.975C397.857 281.934 397.92 282.914 397.726 283.875Z" fill="#FFB27D"/>
<path d="M388.958 285.086C384.618 284.025 385.649 285.286 379.473 284.602C373.297 283.918 371.425 281.613 371.238 280.693C371.069 279.878 374.122 279.591 377.395 279.213L377.426 279.276C377.426 279.276 381.131 281.905 386.272 282.028C390.461 282.13 394.901 280.927 397.795 280.975C397.862 281.934 397.924 282.916 397.73 283.877C397.181 286.603 393.297 286.149 388.958 285.086Z" fill="#233862"/>
<path d="M430.186 229.65L438.105 250.982L448.443 278.836C448.443 278.836 451.248 279.107 453.936 278.333C456.41 277.618 459.248 275.744 459.248 275.744C459.248 275.744 456.377 245.837 451.023 228.67C449.651 224.263 448.112 220.698 446.415 218.693C438.113 208.872 430.186 229.65 430.186 229.65Z" fill="#233862"/>
<path d="M438.238 195.771C443.425 194.095 458.222 196.247 473.085 199.159L476.198 194.02L508.299 191.51C508.299 191.51 518.894 215.03 513.093 230.017C512.241 232.22 510.546 233.631 507.66 233.679C507.66 233.681 507.194 233.677 507.192 233.679C507.192 233.679 488.085 233.669 481.88 233.669C465.915 233.669 448.091 222.683 445.786 222.22C442.013 221.465 440.504 229.02 436.729 236.954C432.956 244.889 401.256 272.092 401.256 272.092C401.256 272.092 396.383 272.14 394.372 271.385C392.208 270.572 391.415 269.517 391.415 269.517C391.415 269.517 426.538 199.551 438.238 195.771Z" fill="#5337A3"/>
<path d="M476.383 149.76C487.814 156.062 511.006 169.127 511.127 169.041C511.127 169.041 519.652 172.258 524.487 169.041C532.547 163.682 536.87 149.26 522.13 136.848C514.779 130.658 509.555 129.151 508.762 119.265C508.331 113.903 501.009 96.2044 488.845 97.8429C487.829 97.9805 481.572 98.2724 477.459 100.434C466.979 105.944 459.246 147.321 476.383 149.76Z" fill="#233862"/>
<path d="M485.965 144.396C485.915 144.429 491.589 146.368 495.385 144.686C498.954 143.106 501.659 137.227 501.607 137.223C499.983 137.148 498.2 135.726 496.826 126.399L496.135 126.647L484.508 130.835C484.508 130.835 485.351 134.571 485.894 138.125C486.355 141.113 486.6 143.973 485.965 144.396Z" fill="#FFB27D"/>
<path d="M484.508 130.835C484.508 130.835 485.351 134.571 485.894 138.125C492.572 136.923 495.194 130.26 496.133 126.645L484.508 130.835Z" fill="#ED975D"/>
<path d="M482.777 134.544C482.777 134.544 498.684 132.407 497.203 122.509C495.72 112.611 496.776 105.671 486.557 106.615C476.337 107.562 474.933 111.633 474.627 115.058C474.317 118.481 478.6 134.844 482.777 134.544Z" fill="#FFB27D"/>
<path d="M475.204 109.632C475.204 109.632 485.386 118.417 492.314 119.126C499.24 119.834 501.863 117.608 501.863 117.608C501.863 117.608 497.78 114.214 495.323 108.738C494.598 107.124 493.07 106.015 491.308 105.863C486.363 105.435 476.987 105.242 475.204 109.632Z" fill="#233862"/>
<path d="M481.57 108.846C481.57 108.846 478.163 112.144 477.091 114.589C476.056 116.949 475.746 122.594 476.57 124.838C476.57 124.838 471.263 114.504 474.267 109.484C477.453 104.162 481.57 108.846 481.57 108.846Z" fill="#233862"/>
<path d="M472.57 167.855C473.051 200.093 472.701 193.357 476.225 196.415C477.074 197.151 479.46 197.591 482.6 197.798C492.474 198.454 509.83 196.826 510.49 194.998C512.768 188.677 511.16 186.713 513.059 177.036C513.257 176.006 513.503 174.893 513.79 173.68C515.375 167.034 516.916 164.772 511.296 154.094C506.198 144.421 500.903 136.57 500.426 136.854C486.979 144.846 485.894 138.127 485.894 138.127C485.894 138.127 472.335 152.13 472.57 167.855Z" fill="white"/>
<path d="M438.105 250.982L448.443 278.836C448.443 278.836 451.248 279.107 453.936 278.333C456.41 277.618 459.248 275.744 459.248 275.744C459.248 275.744 456.377 245.837 451.023 228.67L438.105 250.982Z" fill="#5337A3"/>
<path d="M485.894 138.127C485.894 138.127 472.058 140.477 470.432 146.441C468.806 152.405 459.244 187.472 459.244 187.472C459.244 187.472 466.278 188.737 469.528 185.483C472.778 182.229 480.835 155.299 480.835 155.299L485.894 138.127Z" fill="white"/>
<path d="M482.6 197.8C492.474 198.456 509.83 196.828 510.49 195C512.768 188.679 511.16 186.715 513.059 177.038L508.297 163.613C508.297 163.613 509.084 178.564 504.68 182.496C500.281 186.428 486.65 190.086 484.508 193.372C483.477 194.948 482.798 196.53 482.6 197.8Z" fill="#EBF3FF"/>
<path d="M493.913 191.512C493.913 191.512 484.173 189.34 482.6 190.207C481.028 191.072 477.187 194.224 476.706 195.321C476.225 196.417 480.204 194.489 481.499 194.141C482.338 193.916 484.545 194.683 485.636 195.048C490.234 196.582 493.051 195.792 493.051 195.792L493.913 191.512Z" fill="#FFB27D"/>
<path d="M500.437 136.848C500.437 136.848 513.517 137.654 518.044 143.977C524.418 152.877 537.061 190.808 529.815 195.867C521.655 201.565 492.674 197.358 492.674 197.358C492.674 197.358 491.71 192.844 493.051 190.662C494.392 188.479 516.197 184.952 517.205 183.945C518.211 182.938 504.626 164.297 504.626 161.274C504.626 158.251 500.437 136.848 500.437 136.848Z" fill="white"/>
<path d="M482.128 192.92C482.128 192.92 480.087 195.555 479.419 195.869C478.75 196.184 478.317 196.105 478.317 196.105L479.694 193.626L482.128 192.92Z" fill="#FFB27D"/>
<path d="M482.6 190.205L476.666 193.09C476.666 193.09 476.918 193.503 477.649 193.47C478.38 193.436 480.222 192.761 480.222 192.761L482.6 190.205Z" fill="#FFB27D"/>
<path d="M479.419 199.907H432.477L418.357 164.753H465.226L479.419 199.907Z" fill="#F99746"/>
<path d="M431.927 198.538H493.913V199.907H432.477L431.927 198.538Z" fill="#ED7D2B"/>
<path d="M444.327 182.331C443.973 181.095 444.687 180.094 445.922 180.094C447.157 180.094 448.443 181.097 448.797 182.331C449.151 183.568 448.437 184.568 447.202 184.568C445.968 184.568 444.681 183.565 444.327 182.331Z" fill="white"/>
<path d="M52.853 213.714L51.8535 214.408C50.7874 215.148 49.3173 214.882 48.5761 213.814L42.7624 205.417C42.0233 204.35 42.2898 202.876 43.3559 202.136L44.7885 201.141C44.9967 200.995 45.284 201.048 45.4298 201.258C45.5756 201.467 45.5235 201.754 45.3132 201.9L43.8806 202.895C43.231 203.345 43.0685 204.241 43.5183 204.892L49.3319 213.289C49.7817 213.939 50.677 214.102 51.3267 213.652L52.3262 212.957C52.9758 212.507 53.1382 211.611 52.6885 210.96L48.828 205.386C48.6823 205.177 48.7343 204.89 48.9446 204.744C49.1528 204.598 49.4402 204.65 49.5859 204.86L53.4464 210.435C54.1877 211.502 53.9212 212.974 52.853 213.714Z" fill="#FCB5BA"/>
<path d="M59.2268 221.997L57.434 223.241C55.7703 224.396 53.4111 223.883 52.1764 222.099L43.4351 209.474C43.2894 209.266 43.3414 208.978 43.5517 208.832C43.76 208.686 44.0473 208.738 44.1931 208.949L52.9343 221.574C53.8796 222.941 55.6641 223.35 56.9093 222.485L58.7021 221.24C59.9494 220.375 60.193 218.559 59.2456 217.194L49.2904 202.811C48.345 201.444 46.5606 201.037 45.3133 201.9C45.1051 202.046 44.8177 201.994 44.672 201.784C44.5262 201.575 44.5783 201.287 44.7886 201.142C46.4523 199.987 48.8115 200.499 50.0462 202.284L60.0014 216.666C61.2383 218.451 60.8905 220.842 59.2268 221.997Z" fill="#FCB5BA"/>
<path d="M71.2516 287.94L71.4681 289.718C71.6972 291.617 70.3416 293.349 68.4468 293.579L53.5421 295.39C51.6452 295.622 49.9149 294.263 49.6858 292.366L49.3777 289.818C49.3318 289.445 49.5963 289.107 49.969 289.063C50.3396 289.017 50.6791 289.282 50.7228 289.655L51.031 292.203C51.1705 293.358 52.2241 294.185 53.3776 294.044L68.2823 292.232C69.4359 292.092 70.2625 291.038 70.1209 289.883L69.9044 288.104C69.7649 286.949 68.7113 286.122 67.5577 286.264L57.6629 287.466C57.2902 287.512 56.9528 287.246 56.9091 286.874C56.8633 286.501 57.1298 286.164 57.5005 286.12L67.3953 284.917C69.2901 284.686 71.0205 286.043 71.2516 287.94Z" fill="#FCB5BA"/>
<path d="M86.3895 285.321L86.7768 288.509C87.1349 291.469 84.8507 294.19 81.6816 294.575L59.2725 297.298C58.8998 297.344 58.5625 297.077 58.5187 296.706C58.4729 296.333 58.7394 295.995 59.1101 295.951L81.5191 293.229C83.945 292.935 85.7003 290.89 85.4317 288.673L85.0444 285.486C84.7758 283.268 82.5832 281.704 80.1574 282L54.6312 285.102C52.2054 285.396 50.45 287.441 50.7187 289.657C50.7645 290.031 50.4979 290.368 50.1273 290.412C49.7546 290.458 49.4172 290.193 49.3735 289.82C49.0154 286.86 51.2996 284.139 54.4688 283.754L79.9949 280.652C83.162 280.266 86.0314 282.361 86.3895 285.321Z" fill="#FCB5BA"/>
<path d="M329.33 77.26C329.592 76.1485 328.904 75.0347 327.794 74.7722C326.684 74.5098 325.571 75.198 325.309 76.3096C325.047 77.4211 325.735 78.5349 326.845 78.7974C327.955 79.0599 329.068 78.3716 329.33 77.26Z" fill="#F99746"/>
<path d="M571.432 319H40.8004C40.4685 319 40.1971 318.703 40.1971 318.339V318.115C40.1971 317.751 40.4685 317.454 40.8004 317.454H571.432C571.764 317.454 572.036 317.751 572.036 318.115V318.339C572.036 318.703 571.764 319 571.432 319Z" fill="black"/>
</svg>
