<svg width="28" height="23" viewBox="0 0 28 23" fill="none" xmlns="http://www.w3.org/2000/svg">
<path d="M3.57981 22.4725H24.4202C25.6058 22.4725 26.4989 22.1789 27.0993 21.5917C27.6998 21.0046 28 20.1238 28 18.9494V7.05045C28 5.88367 27.6998 5.00668 27.0993 4.4195C26.4989 3.83232 25.6058 3.53873 24.4202 3.53873H21.1596C20.8556 3.53873 20.6124 3.516 20.4299 3.47053C20.2475 3.42508 20.086 3.34742 19.9455 3.23756C19.8048 3.1277 19.6471 2.97806 19.4723 2.78864L18.5602 1.76581C18.279 1.45518 17.9674 1.21652 17.6254 1.04983C17.2834 0.883147 16.8197 0.799805 16.2345 0.799805H11.6857C11.1004 0.799805 10.6387 0.883147 10.3005 1.04983C9.96226 1.21652 9.64874 1.45518 9.35993 1.76581L8.44788 2.78864C8.19706 3.06898 7.96524 3.26407 7.75243 3.37393C7.53962 3.4838 7.20901 3.53873 6.76058 3.53873H3.57981C2.38653 3.53873 1.49158 3.83232 0.894951 4.4195C0.298317 5.00668 0 5.88367 0 7.05045V18.9494C0 20.1238 0.298317 21.0046 0.894951 21.5917C1.49158 22.1789 2.38653 22.4725 3.57981 22.4725ZM3.6026 20.6428C3.04017 20.6428 2.60504 20.4931 2.29722 20.1938C1.98941 19.8946 1.83551 19.4495 1.83551 18.8585V7.15273C1.83551 6.56177 1.98941 6.11665 2.29722 5.81737C2.60504 5.5181 3.04017 5.36846 3.6026 5.36846H7.2166C7.73343 5.36846 8.14956 5.30974 8.46498 5.1923C8.78039 5.07487 9.08251 4.85705 9.37132 4.53883L10.2606 3.53873C10.5874 3.17506 10.8762 2.93261 11.127 2.81138C11.3778 2.69016 11.754 2.62955 12.2556 2.62955H15.6645C16.1661 2.62955 16.5423 2.69016 16.7932 2.81138C17.0439 2.93261 17.3328 3.17506 17.6596 3.53873L18.5489 4.53883C18.8377 4.85705 19.1398 5.07487 19.4551 5.1923C19.7706 5.30974 20.1867 5.36846 20.7036 5.36846H24.386C24.9484 5.36846 25.3854 5.5181 25.697 5.81737C26.0086 6.11665 26.1645 6.56177 26.1645 7.15273V18.8585C26.1645 19.4495 26.0086 19.8946 25.697 20.1938C25.3854 20.4931 24.9484 20.6428 24.386 20.6428H3.6026ZM14 19.0062C14.8588 19.0062 15.6645 18.8471 16.4169 18.5289C17.1694 18.2107 17.8306 17.7675 18.4006 17.1992C18.9706 16.631 19.4153 15.9719 19.7345 15.2218C20.0538 14.4717 20.2134 13.661 20.2134 12.7896C20.2134 11.638 19.936 10.5925 19.3811 9.65299C18.8263 8.7135 18.0776 7.96721 17.1351 7.41412C16.1927 6.86104 15.1477 6.58449 14 6.58449C13.1335 6.58449 12.3241 6.7436 11.5717 7.06182C10.8192 7.38004 10.1599 7.82327 9.59363 8.3915C9.0274 8.95974 8.58278 9.6189 8.25977 10.369C7.93675 11.1191 7.77524 11.9259 7.77524 12.7896C7.77524 13.661 7.93675 14.4717 8.25977 15.2218C8.58278 15.9719 9.0274 16.631 9.59363 17.1992C10.1599 17.7675 10.8192 18.2107 11.5717 18.5289C12.3241 18.8471 13.1335 19.0062 14 19.0062ZM14 17.2788C13.1715 17.2788 12.4172 17.0781 11.7369 16.6765C11.0567 16.2749 10.5133 15.7351 10.1067 15.057C9.70005 14.3789 9.49674 13.6231 9.49674 12.7896C9.49674 11.9638 9.70005 11.2119 10.1067 10.5338C10.5133 9.85567 11.0567 9.31394 11.7369 8.9086C12.4172 8.50325 13.1715 8.30058 14 8.30058C14.8284 8.30058 15.5828 8.50325 16.2631 8.9086C16.9433 9.31394 17.4848 9.85567 17.8876 10.5338C18.2904 11.2119 18.4918 11.9638 18.4918 12.7896C18.4918 13.6231 18.2904 14.3789 17.8876 15.057C17.4848 15.7351 16.9433 16.2749 16.2631 16.6765C15.5828 17.0781 14.8284 17.2788 14 17.2788ZM20.6807 8.60743C20.6807 9.00899 20.8213 9.34614 21.1026 9.6189C21.3838 9.89166 21.722 10.0242 22.1172 10.0167C22.4973 10.0167 22.8279 9.88029 23.1091 9.60754C23.3903 9.33478 23.5309 9.00141 23.5309 8.60743C23.5309 8.2286 23.3903 7.89903 23.1091 7.6187C22.8279 7.33837 22.4973 7.1982 22.1172 7.1982C21.722 7.1982 21.3838 7.33837 21.1026 7.6187C20.8213 7.89903 20.6807 8.2286 20.6807 8.60743Z" fill="black" fill-opacity="0.85"/>
</svg>
