<svg width="21" height="20" viewBox="0 0 21 20" fill="none" xmlns="http://www.w3.org/2000/svg">
<path d="M4.79977 3H19.5L17.5 10H5.87671M18.5 14H6.5L4.5 1H1.5M7.5 18C7.5 18.5523 7.05228 19 6.5 19C5.94772 19 5.5 18.5523 5.5 18C5.5 17.4477 5.94772 17 6.5 17C7.05228 17 7.5 17.4477 7.5 18ZM18.5 18C18.5 18.5523 18.0523 19 17.5 19C16.9477 19 16.5 18.5523 16.5 18C16.5 17.4477 16.9477 17 17.5 17C18.0523 17 18.5 17.4477 18.5 18Z" stroke="black" stroke-width="2" stroke-linecap="round" stroke-linejoin="round"/>
</svg>
