<svg width="20" height="26" viewBox="0 0 20 26" fill="none" xmlns="http://www.w3.org/2000/svg">
<path d="M20 9.48046C20.0031 7.84816 19.56 6.24285 18.7137 4.8205C17.8675 3.39815 16.6469 2.20713 15.1705 1.36315C13.6941 0.519171 12.0121 0.0509314 10.288 0.00392549C8.56384 -0.0430804 6.85617 0.332746 5.33088 1.09489C3.80559 1.85703 2.51454 2.97958 1.58317 4.35346C0.651799 5.72734 0.111777 7.30585 0.0155697 8.93561C-0.0806377 10.5654 0.270241 12.191 1.03412 13.6545C1.79799 15.118 2.94889 16.3696 4.37499 17.2878V24.7994C4.3716 25.0145 4.43022 25.2263 4.54454 25.4122C4.65886 25.598 4.82455 25.7509 5.02381 25.8543C5.22306 25.9577 5.44833 26.0077 5.67539 25.999C5.90245 25.9903 6.12271 25.9232 6.31249 25.8049L9.99999 23.0842L13.6875 25.8049C13.8773 25.9232 14.0975 25.9903 14.3246 25.999C14.5516 26.0077 14.7769 25.9577 14.9762 25.8543C15.1754 25.7509 15.3411 25.598 15.4554 25.4122C15.5698 25.2263 15.6284 25.0145 15.625 24.7994V17.2878C16.9705 16.4216 18.0722 15.2576 18.8346 13.8971C19.597 12.5365 19.9971 11.0205 20 9.48046ZM2.49999 9.48046C2.49999 8.07669 2.93985 6.70444 3.76396 5.53725C4.58807 4.37005 5.75941 3.46034 7.12986 2.92314C8.50031 2.38594 10.0083 2.24538 11.4632 2.51924C12.918 2.7931 14.2544 3.46908 15.3033 4.4617C16.3522 5.45432 17.0665 6.71899 17.3559 8.09579C17.6453 9.47258 17.4967 10.8997 16.9291 12.1966C16.3614 13.4935 15.4001 14.602 14.1668 15.3819C12.9334 16.1618 11.4833 16.5781 9.99999 16.5781C8.01086 16.5781 6.10321 15.8303 4.69668 14.4992C3.29016 13.1682 2.49999 11.3629 2.49999 9.48046Z" fill="#5928E5"/>
<path d="M7.74995 10.4859L7.43745 12.3195C7.4294 12.4291 7.45078 12.5388 7.49962 12.6384C7.54845 12.738 7.62314 12.8244 7.71673 12.8893C7.81032 12.9543 7.91976 12.9957 8.03485 13.0099C8.14995 13.024 8.26695 13.0103 8.37495 12.9701L9.99995 11.8463L11.625 12.9701C11.733 13.0103 11.85 13.024 11.965 13.0099C12.0801 12.9957 12.1896 12.9543 12.2832 12.8893C12.3768 12.8244 12.4515 12.738 12.5003 12.6384C12.5491 12.5388 12.5705 12.4291 12.5625 12.3195L12.25 10.4859L13.5625 9.30301C13.6413 9.21762 13.6952 9.11419 13.7189 9.00299C13.7425 8.89179 13.7349 8.77669 13.697 8.66909C13.6591 8.56149 13.5922 8.46513 13.5028 8.38958C13.4134 8.31403 13.3047 8.2619 13.1874 8.23837L11.375 8.00179L10.5624 6.28653C10.5113 6.18653 10.4314 6.1022 10.3319 6.04319C10.2324 5.98418 10.1174 5.95288 9.99995 5.95288C9.88254 5.95288 9.7675 5.98418 9.66802 6.04319C9.56854 6.1022 9.48863 6.18653 9.43745 6.28653L8.62495 8.00179L6.81245 8.23837C6.69521 8.2619 6.5865 8.31403 6.49711 8.38958C6.40772 8.46513 6.34076 8.56149 6.30286 8.66909C6.26496 8.77669 6.25744 8.89179 6.28105 9.00299C6.30466 9.11419 6.35857 9.21762 6.43745 9.30301L7.74995 10.4859Z" fill="#5928E5"/>
</svg>
