<svg width="165" height="140" viewBox="0 0 231 212" fill="none" xmlns="http://www.w3.org/2000/svg">
<path d="M230.693 156.075C230.693 172.538 225.584 185.879 215.365 196.097C205.147 206.316 191.806 211.425 175.343 211.425C159.448 211.425 146.107 205.748 135.321 194.394C124.535 182.473 119.142 165.726 119.142 144.154C119.142 122.581 126.238 96.4676 140.43 65.8123C155.19 35.157 177.046 3.3663 205.998 -29.5598L225.584 -12.529C206.282 10.1786 192.941 30.8993 185.561 49.6331C178.181 67.7992 173.924 84.5461 172.788 99.8737H175.343C191.806 99.8737 205.147 104.983 215.365 115.201C225.584 125.42 230.693 139.044 230.693 156.075ZM66.3464 156.075C66.3464 172.538 61.2372 185.879 51.0188 196.097C40.8003 206.316 27.4596 211.425 10.9966 211.425C-4.89875 211.425 -18.2395 205.748 -29.0256 194.394C-39.8117 182.473 -45.2048 165.726 -45.2048 144.154C-45.2048 122.581 -38.1086 96.4676 -23.9164 65.8123C-9.15642 35.157 12.6997 3.3663 41.6519 -29.5598L61.2372 -12.529C41.9357 10.1786 28.595 30.8993 21.215 49.6331C13.835 67.7992 9.57736 84.5461 8.44198 99.8737H10.9966C27.4596 99.8737 40.8003 104.983 51.0188 115.201C61.2372 125.42 66.3464 139.044 66.3464 156.075Z" fill="#FFD2D5" fill-opacity="0.4"/>
</svg>
