<svg width="576" height="328" viewBox="0 0 576 328" fill="none" xmlns="http://www.w3.org/2000/svg">
<path d="M459.65 128.297H551.43H576L557.048 141.975V168.88C557.048 171.983 554.533 174.498 551.43 174.498H459.65C456.547 174.498 454.032 171.983 454.032 168.88V133.915C454.024 130.812 456.547 128.297 459.65 128.297Z" fill="#F5F5F5"/>
<path d="M464.5 147.315C464.5 147.429 482.048 147.519 503.694 147.519C525.341 147.519 542.888 147.429 542.888 147.315C542.888 147.201 525.341 147.111 503.694 147.111C482.048 147.111 464.5 147.201 464.5 147.315Z" fill="#E0E0E0"/>
<path d="M464.5 157.644C464.5 157.758 482.048 157.848 503.694 157.848C525.341 157.848 542.888 157.758 542.888 157.644C542.888 157.53 525.341 157.44 503.694 157.44C482.048 157.44 464.5 157.53 464.5 157.644Z" fill="#E0E0E0"/>
<path d="M282.941 29.0051H277.495V47.2468H282.941V29.0051Z" fill="#A07FFF"/>
<path d="M237.46 26.3596H232.014V47.2387H237.46V26.3596Z" fill="#A07FFF"/>
<path d="M248.826 22.0073H243.38V47.2386H248.826V22.0073Z" fill="#A07FFF"/>
<path d="M260.201 23.3958H254.755V47.2471H260.201V23.3958Z" fill="#A07FFF"/>
<path d="M271.567 15.3281H266.121V47.2469H271.567V15.3281Z" fill="#A07FFF"/>
<path d="M294.308 15.4832H288.861V47.2468H294.308V15.4832Z" fill="#A07FFF"/>
<path d="M305.683 25.9104H300.236V47.2386H305.683V25.9104Z" fill="#A07FFF"/>
<path d="M317.049 16.8794H311.603V47.2468H317.049V16.8794Z" fill="#A07FFF"/>
<path d="M328.415 10.0369H322.969V47.2387H328.415V10.0369Z" fill="#A07FFF"/>
<path d="M339.789 16.7244H334.343V47.2469H339.789V16.7244Z" fill="#A07FFF"/>
<path d="M483.257 45.5565L528.289 38.673C532.062 63.3736 514.841 86.8084 490.14 90.5809C465.44 94.3533 442.005 77.1324 438.233 52.4318C434.46 27.7313 451.681 4.29644 476.382 0.523993C480.317 -0.0802512 484.31 -0.161906 488.262 0.279029L483.257 45.5565Z" fill="#FFD2D5"/>
<path d="M497.865 0.417969L492.395 35.3253L526.657 28.8909C526.657 28.8909 521.619 9.32649 497.865 0.417969Z" fill="#5928E5"/>
<path d="M23.4755 130.224C23.2796 117.861 33.1353 107.638 45.4406 107.434C57.7541 107.238 67.9283 117.135 68.1243 129.497C68.3203 141.86 58.4645 152.083 46.1592 152.287C33.8457 152.491 23.6715 142.594 23.4755 130.224ZM56.4722 129.693C56.3742 123.781 51.5157 119.045 45.6284 119.143C39.7411 119.241 35.0297 124.124 35.1276 130.036C35.2256 135.948 40.0841 140.684 45.9714 140.586C51.8505 140.496 56.562 135.605 56.4722 129.693Z" fill="#F5F5F5"/>
<path d="M23.4755 130.224C23.2796 117.862 33.1353 107.638 45.4406 107.434L45.6284 119.135C39.7411 119.233 35.0297 124.116 35.1276 130.028C35.2256 135.94 40.0841 140.676 45.9714 140.578L46.1592 152.279C33.8457 152.491 23.6715 142.595 23.4755 130.224Z" fill="#E0E0E0"/>
<path d="M43.4316 105.638C57.8355 105.409 69.3243 116.579 69.553 131.049L55.9248 131.269C55.8105 124.353 50.5519 119.993 43.6684 120.107L43.4316 105.638Z" fill="#EBEBEB"/>
<path d="M168.528 208.98H140.145V242.72H168.528V208.98Z" fill="#F5F5F5"/>
<path d="M141.124 206.775H12.8691V244.834H141.124V206.775Z" fill="#E0E0E0"/>
<path d="M169.385 209.976H137.687V206.775H169.385C170.267 206.775 170.985 207.494 170.985 208.376C170.985 209.257 170.267 209.976 169.385 209.976Z" fill="#E0E0E0"/>
<path d="M169.385 244.834H137.687V241.634H169.385C170.267 241.634 170.985 242.352 170.985 243.234C170.985 244.116 170.267 244.834 169.385 244.834Z" fill="#E0E0E0"/>
<path d="M131.04 206.775H115.885V244.834H131.04V206.775Z" fill="#EBEBEB"/>
<path d="M40.2235 207.2H25.0684V245.259H40.2235V207.2Z" fill="#EBEBEB"/>
<path d="M168.528 214.557C168.528 214.647 162.387 214.728 154.81 214.728C147.232 214.728 141.092 214.655 141.092 214.557C141.092 214.467 147.232 214.385 154.81 214.385C162.379 214.385 168.528 214.467 168.528 214.557Z" fill="#E0E0E0"/>
<path d="M168.528 219.619C168.528 219.709 162.387 219.791 154.81 219.791C147.232 219.791 141.092 219.717 141.092 219.619C141.092 219.53 147.232 219.448 154.81 219.448C162.379 219.448 168.528 219.521 168.528 219.619Z" fill="#E0E0E0"/>
<path d="M168.528 225.841C168.528 225.931 162.387 226.013 154.81 226.013C147.232 226.013 141.092 225.939 141.092 225.841C141.092 225.752 147.232 225.67 154.81 225.67C162.379 225.678 168.528 225.752 168.528 225.841Z" fill="#E0E0E0"/>
<path d="M168.528 232.072C168.528 232.162 162.387 232.243 154.81 232.243C147.232 232.243 141.092 232.17 141.092 232.072C141.092 231.982 147.232 231.9 154.81 231.9C162.379 231.909 168.528 231.982 168.528 232.072Z" fill="#E0E0E0"/>
<path d="M168.528 238.302C168.528 238.392 162.387 238.474 154.81 238.474C147.232 238.474 141.092 238.4 141.092 238.302C141.092 238.212 147.232 238.131 154.81 238.131C162.379 238.139 168.528 238.212 168.528 238.302Z" fill="#E0E0E0"/>
<path d="M107.735 222.42H50.0381V229.271H107.735V222.42Z" fill="#EBEBEB"/>
<path d="M168.242 245.586H139.426V266.146H168.242V245.586Z" fill="#FAFAFA"/>
<path d="M139.744 244.834H17.1152V266.881H139.744V244.834Z" fill="#F5F5F5"/>
<path d="M138.854 246.329H169.826C170.234 246.329 170.569 245.994 170.569 245.586C170.569 245.178 170.234 244.843 169.826 244.843H138.854V246.329Z" fill="#F5F5F5"/>
<path d="M138.854 266.881H170.226C170.414 266.881 170.569 266.726 170.569 266.538V265.73C170.569 265.542 170.414 265.387 170.226 265.387H138.854V266.881Z" fill="#F5F5F5"/>
<path d="M168.234 249.489C168.234 249.579 161.857 249.66 153.985 249.66C146.114 249.66 139.736 249.587 139.736 249.489C139.736 249.399 146.114 249.317 153.985 249.317C161.857 249.317 168.234 249.391 168.234 249.489Z" fill="#E0E0E0"/>
<path d="M168.234 253.376C168.234 253.465 161.857 253.547 153.985 253.547C146.114 253.547 139.736 253.474 139.736 253.376C139.736 253.286 146.114 253.204 153.985 253.204C161.857 253.204 168.234 253.286 168.234 253.376Z" fill="#E0E0E0"/>
<path d="M168.234 257.262C168.234 257.352 161.857 257.434 153.985 257.434C146.114 257.434 139.736 257.36 139.736 257.262C139.736 257.172 146.114 257.091 153.985 257.091C161.857 257.099 168.234 257.172 168.234 257.262Z" fill="#E0E0E0"/>
<path d="M168.234 261.157C168.234 261.247 161.857 261.329 153.985 261.329C146.114 261.329 139.736 261.255 139.736 261.157C139.736 261.067 146.114 260.986 153.985 260.986C161.857 260.986 168.234 261.059 168.234 261.157Z" fill="#E0E0E0"/>
<path d="M172.61 268.841H143.198V324.57H172.61V268.841Z" fill="#EBEBEB"/>
<path d="M143.198 266.881H5.14453V327.306H143.198V266.881Z" fill="#E0E0E0"/>
<path d="M174.904 327.306H139.417V323.386H174.904C175.99 323.386 176.864 324.26 176.864 325.346C176.864 326.432 175.99 327.306 174.904 327.306Z" fill="#E0E0E0"/>
<path d="M175.966 270.801H139.417V266.881H175.966C176.464 266.881 176.864 267.281 176.864 267.779V269.902C176.864 270.4 176.464 270.801 175.966 270.801Z" fill="#E0E0E0"/>
<path d="M172.61 276.312C172.61 276.402 166.029 276.484 157.904 276.484C149.78 276.484 143.198 276.41 143.198 276.312C143.198 276.223 149.78 276.141 157.904 276.141C166.021 276.149 172.61 276.223 172.61 276.312Z" fill="#E0E0E0"/>
<path d="M172.61 283.465C172.61 283.555 166.029 283.637 157.904 283.637C149.78 283.637 143.198 283.563 143.198 283.465C143.198 283.376 149.78 283.294 157.904 283.294C166.021 283.294 172.61 283.367 172.61 283.465Z" fill="#E0E0E0"/>
<path d="M172.61 290.61C172.61 290.7 166.029 290.781 157.904 290.781C149.78 290.781 143.198 290.708 143.198 290.61C143.198 290.52 149.78 290.438 157.904 290.438C166.021 290.438 172.61 290.512 172.61 290.61Z" fill="#E0E0E0"/>
<path d="M172.61 297.755C172.61 297.845 166.029 297.926 157.904 297.926C149.78 297.926 143.198 297.853 143.198 297.755C143.198 297.665 149.78 297.583 157.904 297.583C166.021 297.591 172.61 297.665 172.61 297.755Z" fill="#E0E0E0"/>
<path d="M172.61 304.899C172.61 304.989 166.029 305.071 157.904 305.071C149.78 305.071 143.198 304.997 143.198 304.899C143.198 304.81 149.78 304.728 157.904 304.728C166.021 304.736 172.61 304.81 172.61 304.899Z" fill="#E0E0E0"/>
<path d="M172.61 312.053C172.61 312.142 166.029 312.224 157.904 312.224C149.78 312.224 143.198 312.151 143.198 312.053C143.198 311.963 149.78 311.881 157.904 311.881C166.021 311.881 172.61 311.955 172.61 312.053Z" fill="#E0E0E0"/>
<path d="M172.61 319.197C172.61 319.287 166.029 319.369 157.904 319.369C149.78 319.369 143.198 319.295 143.198 319.197C143.198 319.108 149.78 319.026 157.904 319.026C166.021 319.026 172.61 319.108 172.61 319.197Z" fill="#E0E0E0"/>
<path d="M52.3816 300.4V303.765C52.3816 307.815 50.3566 310.125 46.4535 310.125C42.5504 310.125 40.5254 307.815 40.5254 303.765V290.602C40.5254 286.552 42.5504 284.241 46.4535 284.241C50.3566 284.241 52.3816 286.552 52.3816 290.602V293.06H48.6255V290.349C48.6255 288.544 47.8335 287.858 46.5678 287.858C45.3022 287.858 44.5101 288.544 44.5101 290.349V304.018C44.5101 305.822 45.3022 306.476 46.5678 306.476C47.8335 306.476 48.6255 305.822 48.6255 304.018V300.4H52.3816Z" fill="#EBEBEB"/>
<path d="M54.4805 290.602C54.4805 286.552 56.6117 284.241 60.5147 284.241C64.4178 284.241 66.549 286.552 66.549 290.602V303.765C66.549 307.815 64.4178 310.125 60.5147 310.125C56.6117 310.125 54.4805 307.815 54.4805 303.765V290.602ZM58.457 304.018C58.457 305.822 59.2491 306.508 60.5147 306.508C61.7804 306.508 62.5724 305.822 62.5724 304.018V290.349C62.5724 288.544 61.7804 287.858 60.5147 287.858C59.2491 287.858 58.457 288.544 58.457 290.349V304.018Z" fill="#EBEBEB"/>
<path d="M69.1123 284.535H73.0889V306.222H79.6294V309.84H69.1123V284.535Z" fill="#EBEBEB"/>
<path d="M81.042 290.602C81.042 286.552 83.1732 284.241 87.0763 284.241C90.9794 284.241 93.1105 286.552 93.1105 290.602V303.765C93.1105 307.815 90.9794 310.125 87.0763 310.125C83.1732 310.125 81.042 307.815 81.042 303.765V290.602ZM85.0186 304.018C85.0186 305.822 85.8106 306.508 87.0763 306.508C88.3419 306.508 89.134 305.822 89.134 304.018V290.349C89.134 288.544 88.3419 287.858 87.0763 287.858C85.8106 287.858 85.0186 288.544 85.0186 290.349V304.018Z" fill="#EBEBEB"/>
<path d="M99.472 284.535V304.059C99.472 305.863 100.264 306.516 101.53 306.516C102.795 306.516 103.587 305.863 103.587 304.059V284.535H107.344V303.805C107.344 307.855 105.319 310.166 101.415 310.166C97.5123 310.166 95.4873 307.855 95.4873 303.805V284.535H99.472Z" fill="#EBEBEB"/>
<path d="M118.375 309.84C118.154 309.186 118.016 308.795 118.016 306.729V302.752C118.016 300.4 117.224 299.535 115.411 299.535H114.039V309.84H110.062V284.535H116.064C120.188 284.535 121.96 286.454 121.96 290.357V292.341C121.96 294.946 121.127 296.644 119.355 297.477C121.347 298.31 121.992 300.221 121.992 302.866V306.769C121.992 308.002 122.025 308.901 122.425 309.84H118.375ZM114.039 288.144V295.918H115.591C117.077 295.918 117.975 295.264 117.975 293.239V290.749C117.975 288.944 117.362 288.144 115.95 288.144H114.039Z" fill="#EBEBEB"/>
<path d="M51.5247 253.523H48.626L48.7811 252.771H55.436L55.2727 253.523H52.3821L50.8878 260.986H50.0304L51.5247 253.523Z" fill="#E0E0E0"/>
<path d="M61.0129 254.813L56.5056 261.786C55.7462 262.962 55.1665 263.321 54.2764 263.321C53.7048 263.321 53.1169 263.125 52.8066 262.766L53.2557 262.153C53.5252 262.431 53.8763 262.603 54.3499 262.603C54.8807 262.603 55.2889 262.358 55.7707 261.606L56.2035 260.953L54.6684 254.813H55.5094L56.7914 260.071L60.1637 254.813H61.0129Z" fill="#E0E0E0"/>
<path d="M67.8806 257.368C67.8806 259.491 66.4027 261.043 64.3858 261.043C63.21 261.043 62.3934 260.561 62.0341 259.696L61.3319 263.264H60.499L62.1811 254.813H62.9813L62.7854 255.801C63.3733 255.147 64.198 254.772 65.1942 254.772C66.7619 254.764 67.8806 255.752 67.8806 257.368ZM67.0396 257.417C67.0396 256.209 66.2965 255.49 65.0064 255.49C63.4713 255.49 62.3444 256.699 62.3444 258.389C62.3444 259.598 63.0875 260.3 64.3776 260.3C65.9127 260.308 67.0396 259.099 67.0396 257.417Z" fill="#E0E0E0"/>
<path d="M68.8516 258.43C68.8516 256.331 70.3458 254.764 72.4199 254.764C74.1346 254.764 75.2288 255.776 75.2288 257.368C75.2288 259.483 73.7345 261.043 71.6605 261.043C69.9457 261.043 68.8516 260.014 68.8516 258.43ZM74.3959 257.417C74.3959 256.209 73.6529 255.49 72.3627 255.49C70.8276 255.49 69.6844 256.707 69.6844 258.389C69.6844 259.598 70.4275 260.3 71.7176 260.3C73.2527 260.308 74.3959 259.1 74.3959 257.417Z" fill="#E0E0E0"/>
<path d="M83.215 254.813L82.1372 260.235C81.7044 262.415 80.5531 263.321 78.5444 263.321C77.3849 263.321 76.4295 262.994 75.8008 262.39L76.2907 261.753C76.7806 262.26 77.6135 262.578 78.6015 262.578C80.1611 262.578 80.9858 261.859 81.2798 260.373L81.4186 259.687C80.8307 260.349 79.9978 260.749 78.9527 260.749C77.3196 260.749 76.2254 259.802 76.2254 258.258C76.2254 256.274 77.6952 254.764 79.7447 254.764C80.8797 254.764 81.8024 255.229 82.1535 256.168L82.4148 254.804H83.215V254.813ZM81.8106 257.287C81.8106 256.16 81.0512 255.49 79.7692 255.49C78.2096 255.49 77.0828 256.642 77.0828 258.209C77.0828 259.336 77.834 260.006 79.1241 260.006C80.6674 260.014 81.8106 258.863 81.8106 257.287Z" fill="#E0E0E0"/>
<path d="M88.6614 254.764L88.5063 255.572C88.4246 255.572 88.3674 255.556 88.2695 255.556C86.9548 255.556 86.073 256.307 85.7708 257.842L85.1503 260.978H84.3174L85.5422 254.804H86.3424L86.1301 255.931C86.6772 255.131 87.4856 254.764 88.6614 254.764Z" fill="#E0E0E0"/>
<path d="M95.7323 254.813L94.4993 260.986H93.6991L93.8951 260.014C93.3071 260.659 92.4906 261.043 91.4862 261.043C89.9021 261.043 88.7998 260.055 88.7998 258.43C88.7998 256.315 90.2778 254.764 92.2865 254.764C93.4623 254.764 94.2788 255.245 94.6299 256.103L94.8912 254.813H95.7323ZM94.3523 257.417C94.3523 256.209 93.6093 255.49 92.3191 255.49C90.784 255.49 89.6408 256.707 89.6408 258.389C89.6408 259.598 90.3839 260.3 91.674 260.3C93.2092 260.308 94.3523 259.1 94.3523 257.417Z" fill="#E0E0E0"/>
<path d="M103.751 257.368C103.751 259.491 102.273 261.043 100.256 261.043C99.0801 261.043 98.2635 260.561 97.9043 259.696L97.202 263.264H96.3691L98.0512 254.813H98.8514L98.6555 255.801C99.2434 255.147 100.068 254.772 101.064 254.772C102.632 254.764 103.751 255.752 103.751 257.368ZM102.902 257.417C102.902 256.209 102.158 255.49 100.868 255.49C99.3332 255.49 98.2064 256.699 98.2064 258.389C98.2064 259.598 98.9494 260.3 100.24 260.3C101.775 260.308 102.902 259.099 102.902 257.417Z" fill="#E0E0E0"/>
<path d="M111.223 256.772C111.223 256.993 111.198 257.23 111.149 257.475L110.447 260.986H109.614L110.316 257.467C110.349 257.271 110.374 257.083 110.374 256.903C110.374 256.021 109.843 255.515 108.781 255.515C107.467 255.515 106.56 256.234 106.266 257.671L105.613 260.978H104.78L106.52 252.265H107.352L106.658 255.727C107.246 255.058 108.071 254.756 109.018 254.756C110.414 254.764 111.223 255.515 111.223 256.772Z" fill="#E0E0E0"/>
<path d="M119.029 254.813L114.521 261.786C113.762 262.962 113.182 263.321 112.292 263.321C111.72 263.321 111.133 263.125 110.822 262.766L111.271 262.153C111.541 262.431 111.892 262.603 112.366 262.603C112.896 262.603 113.305 262.358 113.786 261.606L114.219 260.953L112.684 254.813H113.525L114.807 260.071L118.179 254.813H119.029Z" fill="#E0E0E0"/>
<path d="M137.629 1.04663H38.8268H12.3789L32.7844 15.769V44.7319C32.7844 48.0715 35.4953 50.7825 38.835 50.7825H137.629C140.969 50.7825 143.68 48.0715 143.68 44.7319V7.08907C143.671 3.7494 140.969 1.04663 137.629 1.04663Z" fill="#FCB5BA" fill-opacity="0.31"/>
<path d="M132.403 21.5173C132.403 21.6398 113.517 21.7378 90.2124 21.7378C66.9082 21.7378 48.0215 21.6398 48.0215 21.5173C48.0215 21.3949 66.9082 21.2969 90.2124 21.2969C113.509 21.2969 132.403 21.3949 132.403 21.5173Z" fill="#E0E0E0"/>
<path d="M132.403 32.6387C132.403 32.7612 113.517 32.8591 90.2124 32.8591C66.9082 32.8591 48.0215 32.7612 48.0215 32.6387C48.0215 32.5162 66.9082 32.4182 90.2124 32.4182C113.509 32.4182 132.403 32.5162 132.403 32.6387Z" fill="#E0E0E0"/>
<path d="M572.015 327.306C572.015 327.42 443.956 327.518 286.02 327.518C128.034 327.518 0 327.429 0 327.306C0 327.184 128.034 327.094 286.02 327.094C443.956 327.094 572.015 327.192 572.015 327.306Z" fill="#263238"/>
<path d="M518.278 285.629C518.278 285.629 496.632 260.716 488.466 235.804C480.301 210.891 484.179 213.749 484.179 213.749C484.179 213.749 495.203 237.951 503.58 249.636C511.95 261.329 526.86 278.476 526.86 278.476L518.278 285.629Z" fill="#1FE627"/>
<path d="M522.59 217.635C521.888 216.419 520.034 217.047 520.238 218.436C521.561 227.189 524.411 247.717 524.297 261.043C524.15 278.346 524.305 285.033 524.305 285.033H533.311C533.311 285.033 531.711 249.268 529.678 238.359C528.257 230.716 525.227 222.224 522.59 217.635Z" fill="#1FE627"/>
<path d="M527.497 282.126C527.497 282.126 533.164 270.205 534.911 255.229C535.654 248.86 534.332 240.254 532.364 228.765C531.408 223.204 531.196 218.967 531.229 216.035C531.253 213.814 534.176 213.096 535.262 215.031C536.348 216.974 539.5 223.596 540.292 227.753C542.473 239.094 544.947 244.761 543.052 255.523C541.166 266.285 534.185 282.853 534.185 282.853L527.497 282.126Z" fill="#1FE627"/>
<path d="M535.614 282.853C535.614 282.853 559.375 231.778 561.025 224.209C562.674 216.631 568.275 199.173 568.929 200.161C569.59 201.149 570.578 210.376 566.291 220.918C562.013 231.46 543.722 284.413 543.722 284.413H535.605" fill="#1FE627"/>
<path d="M524.901 280.567C524.893 280.583 524.664 280.42 524.231 280.109C523.807 279.791 523.17 279.342 522.394 278.705C520.81 277.464 518.589 275.569 516.009 273.071C510.824 268.09 504.365 260.406 498.771 250.942C493.162 241.479 489.389 232.227 487.005 225.45C485.813 222.061 484.939 219.285 484.376 217.35C484.082 216.386 483.886 215.635 483.747 215.121C483.608 214.606 483.543 214.337 483.559 214.337C483.575 214.328 483.673 214.59 483.845 215.096C484.025 215.643 484.261 216.378 484.563 217.293C485.184 219.203 486.107 221.955 487.348 225.327C489.814 232.056 493.627 241.258 499.212 250.681C504.789 260.104 511.167 267.788 516.27 272.81C518.809 275.341 520.99 277.26 522.533 278.55C523.292 279.211 523.913 279.685 524.313 280.028C524.697 280.363 524.909 280.55 524.901 280.567Z" fill="#263238"/>
<path d="M527.497 256.062C527.465 256.062 527.391 255.531 527.285 254.56C527.171 253.506 527.024 252.126 526.844 250.469C526.469 247.015 525.881 242.246 525.04 237.012C524.199 231.778 523.26 227.067 522.533 223.67C522.182 222.037 521.888 220.681 521.667 219.644C521.463 218.697 521.365 218.166 521.398 218.158C521.43 218.15 521.594 218.664 521.855 219.603C522.124 220.542 522.476 221.906 522.884 223.596C523.7 226.977 524.697 231.688 525.538 236.939C526.379 242.189 526.909 246.966 527.195 250.436C527.342 252.167 527.432 253.58 527.473 254.552C527.522 255.523 527.53 256.062 527.497 256.062Z" fill="#263238"/>
<path d="M533.066 214.623C533.083 214.614 533.181 214.843 533.344 215.268C533.523 215.749 533.76 216.378 534.054 217.162C534.373 217.987 534.732 218.999 535.075 220.2C535.426 221.4 535.883 222.747 536.226 224.29C536.414 225.058 536.61 225.858 536.814 226.691C537.01 227.524 537.157 228.414 537.337 229.32C537.729 231.133 537.966 233.101 538.251 235.167C538.717 239.307 538.97 243.888 538.823 248.705C538.627 253.515 538.047 258.071 537.288 262.17C536.855 264.211 536.471 266.155 535.957 267.935C535.712 268.825 535.508 269.699 535.246 270.523C534.985 271.34 534.732 272.124 534.487 272.875C534.03 274.386 533.483 275.7 533.042 276.868C532.609 278.044 532.176 279.032 531.809 279.824C531.458 280.583 531.18 281.196 530.96 281.661C530.764 282.077 530.649 282.298 530.633 282.29C530.617 282.282 530.698 282.053 530.87 281.62C531.058 281.147 531.311 280.518 531.629 279.742C531.972 278.934 532.38 277.938 532.78 276.762C533.189 275.586 533.719 274.263 534.152 272.752C534.381 272.001 534.626 271.217 534.879 270.401C535.124 269.584 535.32 268.711 535.557 267.821C536.055 266.04 536.414 264.105 536.839 262.072C537.574 257.989 538.137 253.457 538.325 248.681C538.472 243.896 538.235 239.339 537.802 235.216C537.525 233.158 537.304 231.207 536.937 229.394C536.765 228.487 536.635 227.606 536.447 226.773C536.251 225.94 536.071 225.14 535.891 224.372C535.573 222.837 535.14 221.482 534.814 220.281C534.495 219.073 534.16 218.052 533.883 217.219C533.621 216.419 533.417 215.782 533.262 215.292C533.115 214.867 533.05 214.631 533.066 214.623Z" fill="#263238"/>
<path d="M568.659 201.182C568.667 201.182 568.659 201.264 568.643 201.411C568.618 201.59 568.577 201.811 568.537 202.072C568.431 202.652 568.3 203.517 568.071 204.612C567.614 206.808 566.846 209.968 565.662 213.806C564.478 217.644 562.853 222.143 560.926 227.083C559.008 232.031 556.778 237.412 554.672 243.144C552.532 248.868 550.883 254.454 549.331 259.524C547.796 264.595 546.335 269.151 544.93 272.916C543.534 276.68 542.195 279.644 541.174 281.653C540.684 282.665 540.251 283.417 539.966 283.939C539.835 284.176 539.721 284.364 539.631 284.527C539.557 284.658 539.508 284.723 539.5 284.715C539.492 284.707 539.525 284.641 539.582 284.503C539.664 284.339 539.753 284.135 539.868 283.898C540.121 283.368 540.529 282.6 540.986 281.571C541.942 279.546 543.232 276.574 544.579 272.801C545.943 269.037 547.364 264.481 548.874 259.402C550.401 254.331 552.042 248.721 554.19 242.981C556.305 237.233 558.55 231.852 560.485 226.92C562.429 221.996 564.086 217.521 565.311 213.708C566.544 209.895 567.353 206.759 567.875 204.579C568.137 203.493 568.3 202.636 568.439 202.064C568.504 201.803 568.553 201.59 568.594 201.411C568.626 201.256 568.651 201.182 568.659 201.182Z" fill="#263238"/>
<path d="M495.382 189.897C493.888 188.411 491.398 189.963 492.018 191.988C492.647 194.037 493.602 196.683 495.007 199.663C498.273 206.604 507.867 231.517 512.367 245.202C516.858 258.879 523.186 284.404 523.186 284.404L532.78 282.845C532.78 282.845 524.002 240.907 515.429 225.793C508.529 213.659 501.637 196.111 495.382 189.897Z" fill="#1FE627"/>
<path d="M514.979 253.759C515.012 253.751 515.184 254.16 515.478 254.911C515.763 255.662 516.147 256.764 516.58 258.128C517.462 260.863 518.548 264.685 519.634 268.931C520.72 273.177 521.626 277.047 522.255 279.848C522.541 281.171 522.786 282.29 522.973 283.171C523.137 283.955 523.202 284.396 523.169 284.404C523.137 284.413 522.998 283.988 522.777 283.212C522.541 282.339 522.247 281.236 521.896 279.93C521.161 277.047 520.197 273.25 519.128 269.053C518.042 264.815 517.013 260.986 516.221 258.226C515.845 256.928 515.527 255.833 515.273 254.96C515.053 254.2 514.947 253.768 514.979 253.759Z" fill="#263238"/>
<path d="M527.996 283.629C527.988 283.629 527.971 283.539 527.939 283.376C527.906 283.18 527.873 282.927 527.832 282.616C527.734 281.955 527.645 280.967 527.44 279.709C527.089 277.186 526.461 273.561 525.432 269.127C524.411 264.693 522.917 259.484 520.941 253.8C518.973 248.117 516.507 241.977 513.706 235.624C508.064 222.927 502.421 211.667 498.723 203.338C496.853 199.182 495.399 195.793 494.444 193.433C493.954 192.257 493.611 191.326 493.366 190.706C493.26 190.412 493.17 190.183 493.097 189.987C493.039 189.824 493.015 189.742 493.023 189.734C493.031 189.734 493.072 189.808 493.146 189.963C493.227 190.151 493.333 190.379 493.456 190.657C493.742 191.31 494.125 192.208 494.623 193.343C495.636 195.679 497.13 199.043 499.041 203.174C502.83 211.454 508.513 222.69 514.163 235.404C516.964 241.764 519.422 247.929 521.374 253.637C523.325 259.345 524.787 264.579 525.775 269.037C526.763 273.487 527.342 277.137 527.628 279.677C527.8 280.942 527.857 281.93 527.93 282.6C527.955 282.91 527.971 283.163 527.988 283.359C528.004 283.539 528.004 283.629 527.996 283.629Z" fill="#263238"/>
<path d="M532.772 282.853C532.739 282.861 532.625 282.282 532.446 281.244C532.258 280.118 532.005 278.632 531.702 276.835C531.041 273.12 530.029 268 528.583 262.431C527.146 256.854 525.529 251.89 524.28 248.33C523.668 246.615 523.161 245.194 522.778 244.116C522.418 243.12 522.239 242.565 522.271 242.557C522.304 242.54 522.549 243.071 522.965 244.051C523.382 245.023 523.953 246.443 524.623 248.215C525.954 251.751 527.636 256.715 529.081 262.309C530.535 267.902 531.49 273.046 532.062 276.786C532.331 278.656 532.544 280.175 532.65 281.228C532.756 282.265 532.805 282.845 532.772 282.853Z" fill="#263238"/>
<path d="M552.46 281.473H515.013V327.093H552.46V281.473Z" fill="#5928E5"/>
<g opacity="0.3">
<path d="M552.46 281.473H515.013V327.093H552.46V281.473Z" fill="black"/>
</g>
<path d="M540.513 281.473H507.296V327.093H540.513V281.473Z" fill="#5928E5"/>
<path d="M53.72 265.607C47.3427 261.524 38.4995 261.443 32.2938 265.787C26.3983 269.91 23.4098 277.406 23.6711 284.592C23.9323 291.777 27.4108 300.555 33.9269 304.336L53.0341 304.262C59.1337 299.771 63.2654 292.545 63.5512 284.976C63.837 277.406 60.0972 269.698 53.72 265.607Z" fill="#1FE627"/>
<path d="M44.3133 305.022C44.2725 305.022 44.2316 304.434 44.1908 303.381C44.1582 302.205 44.1173 300.703 44.0602 298.898C43.9622 295.117 43.8152 289.891 43.5621 284.118C43.3089 278.345 42.9987 273.128 42.7619 269.355C42.6557 267.559 42.5659 266.056 42.4924 264.881C42.4352 263.819 42.4271 263.239 42.4679 263.231C42.5087 263.231 42.5985 263.811 42.7292 264.856C42.8598 265.909 43.015 267.436 43.1865 269.323C43.5294 273.095 43.9132 278.321 44.1663 284.094C44.4194 289.867 44.5011 295.101 44.4848 298.89C44.4766 300.784 44.4521 302.319 44.4194 303.373C44.395 304.442 44.3541 305.022 44.3133 305.022Z" fill="#263238"/>
<path d="M25.598 282.959C25.5816 283.13 24.5446 283.179 23.279 283.073C22.0133 282.967 20.9927 282.747 21.009 282.583C21.0253 282.412 22.0623 282.363 23.328 282.469C24.5936 282.575 25.6061 282.796 25.598 282.959Z" fill="#263238"/>
<path d="M25.9494 276.516C25.884 276.672 24.9858 276.427 23.9488 275.961C22.9118 275.504 22.1279 275.006 22.1933 274.851C22.2586 274.696 23.1568 274.941 24.1938 275.406C25.239 275.863 26.0229 276.361 25.9494 276.516Z" fill="#263238"/>
<path d="M29.2732 271.731C29.1833 271.87 28.179 271.397 27.1338 270.531C26.0886 269.666 25.4272 268.767 25.5497 268.653C25.6722 268.539 26.5051 269.225 27.5176 270.058C28.5301 270.899 29.363 271.585 29.2732 271.731Z" fill="#263238"/>
<path d="M32.6041 267.216C32.449 267.281 31.9672 266.53 31.5263 265.534C31.0853 264.538 30.8485 263.672 31.0037 263.607C31.1588 263.541 31.6406 264.293 32.0815 265.289C32.5306 266.285 32.7593 267.142 32.6041 267.216Z" fill="#263238"/>
<path d="M37.8386 264.007C37.6916 264.08 37.1691 263.272 36.8261 262.161C36.475 261.051 36.4505 260.096 36.6138 260.063C36.7853 260.03 37.0711 260.904 37.4059 261.974C37.7406 263.051 37.9938 263.942 37.8386 264.007Z" fill="#263238"/>
<path d="M46.5752 260.398C46.7303 260.455 46.6405 261.141 46.3547 261.925C46.0771 262.717 45.7178 263.305 45.5626 263.256C45.4075 263.199 45.4973 262.513 45.7831 261.729C46.0607 260.937 46.42 260.341 46.5752 260.398Z" fill="#263238"/>
<path d="M53.0594 263.182C53.1737 263.305 52.7573 263.876 52.1285 264.456C51.4998 265.036 50.9037 265.403 50.7894 265.281C50.6751 265.158 51.0915 264.587 51.7203 264.007C52.3408 263.427 52.9451 263.052 53.0594 263.182Z" fill="#263238"/>
<path d="M58.7589 266.865C58.8569 267.004 58.3424 267.51 57.6239 268C56.9053 268.49 56.2439 268.767 56.1459 268.629C56.0479 268.49 56.5542 267.983 57.2809 267.494C58.0076 267.004 58.669 266.726 58.7589 266.865Z" fill="#263238"/>
<path d="M62.8082 272.352C62.8735 272.507 62.0733 272.997 61.02 273.446C59.9666 273.895 59.0603 274.132 58.9949 273.977C58.9296 273.822 59.7298 273.332 60.775 272.883C61.8365 272.434 62.7429 272.197 62.8082 272.352Z" fill="#263238"/>
<path d="M64.4007 278.345C64.4252 278.509 63.6086 278.754 62.5879 278.876C61.5673 279.007 60.718 278.966 60.7017 278.803C60.6772 278.639 61.4938 278.394 62.5144 278.272C63.5351 278.141 64.3843 278.174 64.4007 278.345Z" fill="#263238"/>
<path d="M65.2339 285.719C65.1686 285.874 64.3031 285.645 63.2987 285.213C62.2943 284.78 61.5431 284.298 61.6084 284.143C61.6738 283.988 62.5393 284.216 63.5437 284.649C64.548 285.082 65.2992 285.564 65.2339 285.719Z" fill="#263238"/>
<path d="M64.5065 292.047C64.4493 292.202 63.3552 291.941 62.212 291.19C61.0607 290.447 60.3829 289.548 60.5054 289.434C60.6279 289.312 61.4608 289.973 62.5468 290.675C63.6246 291.386 64.5637 291.884 64.5065 292.047Z" fill="#263238"/>
<path d="M61.2081 297.803C61.1101 297.934 60.2364 297.42 59.4035 296.522C58.5624 295.623 58.1215 294.717 58.2522 294.627C58.391 294.529 59.0442 295.248 59.8444 296.113C60.6446 296.971 61.3142 297.673 61.2081 297.803Z" fill="#263238"/>
<path d="M29.9263 298.481C30.0079 298.628 29.0852 299.265 27.8849 299.886C26.6764 300.514 25.6394 300.898 25.5578 300.751C25.4761 300.604 26.3988 299.976 27.5991 299.347C28.8076 298.718 29.8528 298.334 29.9263 298.481Z" fill="#263238"/>
<path d="M27.0681 293.272C27.1415 293.427 26.4067 293.909 25.4268 294.35C24.4551 294.791 23.6059 295.027 23.5324 294.872C23.4589 294.717 24.1938 294.235 25.1737 293.794C26.1535 293.353 27.0027 293.117 27.0681 293.272Z" fill="#263238"/>
<path d="M24.9697 288.658C24.9942 288.822 24.0879 289.091 22.9529 289.255C21.8179 289.418 20.8707 289.41 20.8462 289.246C20.8217 289.083 21.7281 288.814 22.8631 288.65C24.0062 288.487 24.9453 288.487 24.9697 288.658Z" fill="#263238"/>
<path d="M31.8619 286.111C31.9109 286.266 31.029 286.682 29.8532 286.813C28.6774 286.952 27.7302 286.74 27.7383 286.576C27.7465 286.405 28.6692 286.331 29.7797 286.201C30.8984 286.086 31.8129 285.948 31.8619 286.111Z" fill="#263238"/>
<path d="M37.5855 280.419C37.6345 280.575 36.9323 280.934 35.9851 281.024C35.0379 281.122 34.2867 280.909 34.303 280.746C34.3193 280.574 35.0461 280.509 35.9279 280.419C36.8098 280.33 37.5365 280.256 37.5855 280.419Z" fill="#263238"/>
<path d="M38.6795 275.855C38.6223 276.018 37.863 275.896 36.9811 275.594C36.0992 275.292 35.4296 274.916 35.4868 274.753C35.544 274.598 36.3033 274.712 37.1852 275.014C38.0589 275.324 38.7285 275.7 38.6795 275.855Z" fill="#263238"/>
<path d="M40.7777 271.241C40.6634 271.356 40.1408 271.013 39.7652 270.368C39.3896 269.723 39.357 269.102 39.5121 269.053C39.6754 269.004 39.9612 269.486 40.2878 270.057C40.6226 270.637 40.9002 271.127 40.7777 271.241Z" fill="#263238"/>
<path d="M38.2471 290.128C38.288 290.292 37.6265 290.594 36.7773 290.798C36.2874 290.92 35.8383 290.978 35.5444 290.978L35.4219 290.618C35.6423 290.577 35.7812 290.586 35.8138 290.651C35.8383 290.716 35.7567 290.831 35.577 290.961L35.4545 290.602C35.7158 290.463 36.1404 290.316 36.6304 290.194C37.4877 290.006 38.2063 289.965 38.2471 290.128Z" fill="#263238"/>
<path d="M39.4222 298.22C39.4875 298.375 38.6465 298.857 37.5523 299.282C36.4581 299.714 35.5191 299.935 35.4538 299.78C35.3884 299.625 36.2295 299.143 37.3236 298.718C38.426 298.285 39.365 298.057 39.4222 298.22Z" fill="#263238"/>
<path d="M32.9632 294.627C33.0204 294.791 32.457 295.125 31.7139 295.37C30.9709 295.624 30.3258 295.697 30.2686 295.542C30.2115 295.379 30.7749 295.052 31.518 294.799C32.261 294.538 32.9061 294.464 32.9632 294.627Z" fill="#263238"/>
<path d="M33.4533 278.166C33.4125 278.329 32.4408 278.231 31.3139 277.831C30.1871 277.431 29.3706 276.892 29.444 276.745C29.5175 276.59 30.4239 276.867 31.5181 277.251C32.6122 277.643 33.4941 277.994 33.4533 278.166Z" fill="#263238"/>
<path d="M49.0988 276.369C49.1886 276.508 48.6415 277.039 47.8739 277.545C47.1064 278.051 46.4042 278.345 46.3143 278.206C46.2245 278.068 46.7716 277.537 47.5392 277.031C48.3067 276.533 49.0089 276.23 49.0988 276.369Z" fill="#263238"/>
<path d="M49.9482 284.494C49.9809 284.657 49.4093 284.919 48.6581 285.074C47.915 285.229 47.2863 285.221 47.2455 285.057C47.2128 284.894 47.7844 284.633 48.5356 284.478C49.2868 284.323 49.9156 284.331 49.9482 284.494Z" fill="#263238"/>
<path d="M50.9354 293.623C50.8619 293.778 50.0372 293.541 49.0819 293.1C48.1265 292.659 47.4161 292.178 47.4896 292.022C47.5631 291.867 48.3878 292.104 49.3432 292.545C50.2985 292.994 51.0089 293.476 50.9354 293.623Z" fill="#263238"/>
<path d="M48.8457 302.515C48.715 302.621 48.1761 302.18 47.6454 301.535C47.1146 300.882 46.788 300.27 46.9105 300.163C47.0411 300.057 47.58 300.498 48.1108 301.143C48.6497 301.797 48.9763 302.409 48.8457 302.515Z" fill="#263238"/>
<path d="M48.4212 270.392C48.5273 270.523 48.168 270.972 47.5556 271.274C46.9432 271.584 46.3716 271.601 46.3308 271.438C46.2818 271.274 46.7309 271.005 47.278 270.727C47.8333 270.458 48.315 270.262 48.4212 270.392Z" fill="#263238"/>
<path d="M56.0882 278.582C56.1454 278.737 55.435 279.129 54.4633 279.26C53.4916 279.399 52.7077 279.211 52.7159 279.048C52.724 278.876 53.4753 278.778 54.3816 278.656C55.2798 278.533 56.0311 278.419 56.0882 278.582Z" fill="#263238"/>
<path d="M54.5612 271.233C54.6347 271.38 53.9325 271.887 52.9282 272.205C51.9238 272.524 51.0583 272.524 51.0338 272.36C51.0093 272.189 51.785 271.928 52.7403 271.625C53.6957 271.315 54.4796 271.078 54.5612 271.233Z" fill="#263238"/>
<path d="M57.762 289.973C57.762 290.136 56.5535 290.243 55.1 289.981C53.6466 289.72 52.5524 289.197 52.6096 289.042C52.6667 288.879 53.8017 289.132 55.2062 289.377C56.6106 289.638 57.762 289.802 57.762 289.973Z" fill="#263238"/>
<path d="M54.9129 300.653C54.8149 300.784 53.9248 300.262 53.043 299.371C52.1529 298.481 51.6385 297.591 51.7692 297.493C51.908 297.387 52.6184 298.081 53.4757 298.939C54.3249 299.804 55.019 300.523 54.9129 300.653Z" fill="#263238"/>
<path d="M42.3871 262.537C42.4769 262.668 39.9538 263.688 37.0387 266.767C34.1236 269.772 31.1188 275.079 30.3757 281.489C30.0246 284.674 30.3267 287.76 30.7758 290.512C31.2494 293.264 31.8863 295.713 32.4661 297.755C33.054 299.796 33.5929 301.429 33.9522 302.556C34.3114 303.691 34.5074 304.32 34.4666 304.336C34.4258 304.352 34.1645 303.748 33.7317 302.638C33.2989 301.527 32.7028 299.91 32.0578 297.877C31.4209 295.844 30.7431 293.394 30.2287 290.61C29.7388 287.834 29.4122 284.698 29.7714 281.424C30.5308 274.867 33.6745 269.461 36.7284 266.473C38.2472 264.954 39.6762 263.942 40.7213 263.354C41.2276 263.035 41.6604 262.864 41.9462 262.717C42.2238 262.578 42.3708 262.521 42.3871 262.537Z" fill="#263238"/>
<path d="M50.6988 304.72C50.5682 304.655 52.0706 302.336 53.4424 298.171C54.8551 294.048 56.0227 287.948 55.0837 281.326C54.6428 278.019 53.6874 274.957 52.4871 272.344C51.2378 269.764 49.6292 267.649 48.0614 266.171C46.4365 264.734 44.836 263.909 43.7174 263.427C42.5905 262.954 41.9128 262.847 41.921 262.798C41.921 262.782 42.0924 262.79 42.4191 262.839C42.7375 262.896 43.2111 263.003 43.799 263.215C44.9667 263.639 46.6161 264.415 48.339 265.852C50.0129 267.347 51.6705 269.453 52.9933 272.107C54.2508 274.769 55.2388 277.88 55.6879 281.244C56.6433 287.997 55.3858 294.186 53.8507 298.318C53.5078 299.372 53.0587 300.278 52.732 301.086C52.3401 301.87 52.0135 302.556 51.7195 303.095C51.099 304.165 50.7397 304.744 50.6988 304.72Z" fill="#263238"/>
<path d="M27.0684 303.283H60.7019L60.906 310.011H27.0684V303.283Z" fill="#5928E5"/>
<path d="M29.9258 306.647L31.861 327.191H56.4472L58.4151 306.867L29.9258 306.647Z" fill="#5928E5"/>
<path d="M60.9063 310.093C60.9063 310.264 53.3369 310.395 43.9956 310.395C34.6543 310.395 27.085 310.256 27.085 310.093C27.085 309.929 34.6543 309.791 43.9956 309.791C53.3369 309.791 60.9063 309.921 60.9063 310.093Z" fill="#263238"/>
<path d="M57.4849 316.348C57.5175 316.364 57.2889 316.838 56.7663 317.63C56.2356 318.414 55.4027 319.524 54.1615 320.708L54.0064 320.855L53.8512 320.692C52.2345 318.993 50.0053 316.911 47.2617 314.927L47.6373 314.911C46.6983 315.735 45.7184 316.593 44.7141 317.474C43.5219 318.511 42.3624 319.524 41.2601 320.479L41.0723 320.643L40.8845 320.479C38.7941 318.716 36.8834 317.115 35.2666 315.76L35.5933 315.727C34.4338 317.14 33.4621 318.332 32.6864 319.271C31.9841 320.104 31.584 320.545 31.5432 320.52C31.5105 320.496 31.8453 319.989 32.4822 319.116C33.209 318.144 34.1316 316.911 35.2258 315.449L35.3646 315.262L35.5524 315.417C37.1937 316.748 39.1289 318.316 41.2519 320.038L40.8682 320.047C41.9705 319.083 43.1218 318.071 44.3058 317.025C45.3102 316.144 46.2982 315.294 47.2372 314.47L47.4169 314.314L47.6047 314.453C50.3728 316.486 52.5856 318.642 54.1615 320.406L53.8512 320.398C56.358 318.128 57.3951 316.274 57.4849 316.348Z" fill="#263238"/>
<path d="M461.528 321.549H105.579C99.0055 321.549 93.6816 316.226 93.6816 309.652V82.3258C93.6816 75.7526 99.0055 70.4287 105.579 70.4287H461.528C468.101 70.4287 473.425 75.7526 473.425 82.3258V309.652C473.425 316.226 468.101 321.549 461.528 321.549Z" fill="#455A64"/>
<path d="M478.137 327.306H95.7806C87.754 327.306 81.2461 320.798 81.2461 312.772V305.333H492.663V312.772C492.671 320.798 486.163 327.306 478.137 327.306Z" fill="#455A64"/>
<path d="M246.115 302.981L251.227 311.098H323.067L327.803 302.981H246.115Z" fill="#263238"/>
<path d="M470.158 302.981C470.158 303.12 385.875 303.226 281.928 303.226C177.949 303.226 93.6816 303.12 93.6816 302.981C93.6816 302.842 177.949 302.736 281.928 302.736C385.875 302.736 470.158 302.842 470.158 302.981Z" fill="#263238"/>
<path d="M458.393 296.343H107.229C105.751 296.343 104.559 295.142 104.559 293.673V87.5436C104.559 86.0657 105.759 84.8735 107.229 84.8735H458.393C459.871 84.8735 461.063 86.0739 461.063 87.5436V293.664C461.063 295.142 459.862 296.343 458.393 296.343Z" fill="#8461EA"/>
<path d="M460.679 296.653H104.175L104.559 100.682H460.679V296.653Z" fill="#5928E5" fill-opacity="0.29"/>
<path d="M133.799 93.039C133.799 94.6149 132.525 95.8887 130.949 95.8887C129.373 95.8887 128.1 94.6149 128.1 93.039C128.1 91.463 129.373 90.1892 130.949 90.1892C132.525 90.1892 133.799 91.4712 133.799 93.039Z" fill="#263238"/>
<path d="M116.537 93.039C116.537 94.6149 115.264 95.8887 113.688 95.8887C112.112 95.8887 110.838 94.6149 110.838 93.039C110.838 91.463 112.112 90.1892 113.688 90.1892C115.264 90.1974 116.537 91.4712 116.537 93.039Z" fill="#263238"/>
<path d="M124.825 93.039C124.825 94.6149 123.552 95.8887 121.976 95.8887C120.4 95.8887 119.126 94.6149 119.126 93.039C119.126 91.463 120.4 90.1892 121.976 90.1892C123.552 90.1974 124.825 91.4712 124.825 93.039Z" fill="#263238"/>
<path d="M461.063 277.726H104.175V296.653H461.063V277.726Z" fill="#263238"/>
<path d="M117.656 289.377V289.982H114.814V289.5L116.349 288.046C116.725 287.687 116.79 287.467 116.79 287.246C116.79 286.895 116.545 286.691 116.071 286.691C115.696 286.691 115.386 286.822 115.165 287.091L114.667 286.707C114.961 286.307 115.5 286.07 116.129 286.07C116.97 286.07 117.509 286.495 117.509 287.181C117.509 287.556 117.402 287.899 116.872 288.397L115.843 289.377H117.656Z" fill="white"/>
<path d="M118.048 287.467C118.048 287.189 118.252 287.009 118.497 287.009C118.742 287.009 118.946 287.189 118.946 287.467C118.946 287.728 118.742 287.924 118.497 287.924C118.252 287.924 118.048 287.728 118.048 287.467ZM118.048 289.565C118.048 289.287 118.252 289.108 118.497 289.108C118.742 289.108 118.946 289.287 118.946 289.565C118.946 289.826 118.742 290.022 118.497 290.022C118.252 290.022 118.048 289.826 118.048 289.565Z" fill="white"/>
<path d="M120.742 286.128V289.982H120.031V286.724H119.215V286.119H120.742V286.128Z" fill="white"/>
<path d="M124.947 289.108H124.261V289.982H123.567V289.108H121.452V288.61L123.355 286.127H124.114L122.326 288.504H123.591V287.728H124.261V288.504H124.947V289.108Z" fill="white"/>
<path d="M423.763 287.564H131.243V288.895H423.763V287.564Z" fill="white"/>
<path d="M222.435 286.128H131.022V289.688H222.435V286.128Z" fill="#FF8D95"/>
<path d="M225.391 288.234C225.391 290.692 223.398 292.684 220.94 292.684C218.483 292.684 216.49 290.692 216.49 288.234C216.49 285.776 218.483 283.784 220.94 283.784C223.39 283.784 225.391 285.776 225.391 288.234Z" fill="#FF725E"/>
<path d="M431.127 288.193C431.127 288.961 430.507 289.443 429.715 289.443C428.661 289.443 428.049 288.765 428.049 287.524C428.049 286.201 428.816 285.474 429.935 285.474C430.319 285.474 430.686 285.556 430.948 285.719L430.686 286.258C430.474 286.119 430.221 286.07 429.951 286.07C429.225 286.07 428.767 286.52 428.767 287.401V287.41C428.996 287.14 429.372 287.009 429.796 287.009C430.564 287.009 431.127 287.467 431.127 288.193ZM430.433 288.226C430.433 287.826 430.131 287.573 429.666 287.573C429.2 287.573 428.882 287.851 428.882 288.234C428.882 288.594 429.167 288.888 429.682 288.888C430.123 288.879 430.433 288.626 430.433 288.226Z" fill="white"/>
<path d="M431.479 286.871C431.479 286.593 431.683 286.414 431.928 286.414C432.173 286.414 432.377 286.593 432.377 286.871C432.377 287.132 432.173 287.328 431.928 287.328C431.683 287.328 431.479 287.132 431.479 286.871ZM431.479 288.969C431.479 288.692 431.683 288.512 431.928 288.512C432.173 288.512 432.377 288.692 432.377 288.969C432.377 289.231 432.173 289.427 431.928 289.427C431.683 289.427 431.479 289.231 431.479 288.969Z" fill="white"/>
<path d="M432.842 287.459C432.842 286.193 433.536 285.474 434.45 285.474C435.373 285.474 436.067 286.193 436.067 287.459C436.067 288.724 435.373 289.443 434.45 289.443C433.536 289.443 432.842 288.724 432.842 287.459ZM435.34 287.459C435.34 286.528 434.981 286.095 434.45 286.095C433.928 286.095 433.56 286.528 433.56 287.459C433.56 288.389 433.928 288.822 434.45 288.822C434.981 288.822 435.34 288.389 435.34 287.459Z" fill="white"/>
<path d="M436.541 287.459C436.541 286.193 437.235 285.474 438.15 285.474C439.072 285.474 439.766 286.193 439.766 287.459C439.766 288.724 439.072 289.443 438.15 289.443C437.235 289.443 436.541 288.724 436.541 287.459ZM439.04 287.459C439.04 286.528 438.68 286.095 438.15 286.095C437.627 286.095 437.26 286.528 437.26 287.459C437.26 288.389 437.627 288.822 438.15 288.822C438.68 288.822 439.04 288.389 439.04 287.459Z" fill="white"/>
<path d="M445.997 287.222H444.658V283.376H448.496V284.707H445.997V287.222Z" fill="white"/>
<path d="M448.504 292.235H444.658V288.397H445.989V290.904H448.504V292.235Z" fill="white"/>
<path d="M454.62 292.235H450.782V290.904H453.289V288.389H454.62V292.235Z" fill="white"/>
<path d="M454.628 287.213H453.297V284.707H450.782V283.376H454.628V287.213Z" fill="white"/>
<path d="M153.062 112.334H132.052L121.543 130.527L132.052 148.727H153.062L163.571 130.527L153.062 112.334Z" fill="#EBEBEB"/>
<path d="M133.767 134.087C132.828 133.05 131.881 131.997 131.195 130.772C130.509 129.547 130.101 128.126 130.329 126.738C130.46 125.93 130.803 125.162 130.86 124.346C130.934 123.219 130.46 122.043 130.86 120.99C131.481 119.34 133.702 119.087 135.049 117.952C136.094 117.062 136.609 115.625 137.76 114.882C138.764 114.229 140.063 114.245 141.247 114.416C142.431 114.588 143.631 114.882 144.815 114.727C145.664 114.612 146.456 114.269 147.289 114.065C148.122 113.861 149.045 113.804 149.78 114.237C150.514 114.669 150.931 115.715 150.449 116.417C151.829 115.78 153.577 116.858 153.952 118.319C154.328 119.789 153.577 121.373 152.409 122.345C151.241 123.317 149.731 123.766 148.244 124.043C144.031 124.835 139.45 124.386 135.817 122.108" fill="#263238"/>
<path d="M153.249 138.586C153.111 135.981 152.376 130.641 151.665 125.815C150.898 120.622 146.268 116.899 141.034 117.25L140.511 117.282C134.926 117.985 132.403 123.121 133.26 128.69L134.902 148.736H148.538C148.538 148.736 148.22 145.216 148.211 145.184C148.211 145.176 153.543 143.975 153.249 138.586Z" fill="#FFBE9D"/>
<path d="M148.212 145.094C148.212 145.094 144.823 145.6 141.051 143.567C141.051 143.567 142.97 147.331 148.318 146.49L148.212 145.094Z" fill="#EB996E"/>
<path d="M149.926 130.437C149.967 130.845 149.657 131.213 149.232 131.262C148.808 131.311 148.432 131.025 148.391 130.617C148.35 130.209 148.661 129.841 149.077 129.792C149.51 129.743 149.886 130.029 149.926 130.437Z" fill="#263238"/>
<path d="M150.678 128.526C150.588 128.633 149.976 128.241 149.151 128.298C148.326 128.347 147.747 128.812 147.649 128.714C147.6 128.673 147.689 128.486 147.934 128.273C148.179 128.061 148.612 127.849 149.127 127.816C149.641 127.783 150.09 127.947 150.351 128.126C150.629 128.298 150.727 128.477 150.678 128.526Z" fill="#263238"/>
<path d="M142.104 130.992C142.145 131.401 141.835 131.768 141.41 131.817C140.985 131.866 140.61 131.58 140.569 131.172C140.528 130.764 140.839 130.396 141.255 130.347C141.688 130.307 142.063 130.592 142.104 130.992Z" fill="#263238"/>
<path d="M142.545 129.22C142.455 129.327 141.843 128.935 141.018 128.992C140.193 129.041 139.614 129.506 139.516 129.408C139.467 129.367 139.557 129.18 139.81 128.967C140.055 128.755 140.487 128.543 141.002 128.51C141.516 128.477 141.965 128.641 142.227 128.82C142.496 129 142.594 129.171 142.545 129.22Z" fill="#263238"/>
<path d="M145.966 135.165C145.958 135.116 146.465 134.993 147.297 134.83C147.51 134.797 147.706 134.74 147.73 134.593C147.771 134.438 147.665 134.218 147.551 133.973C147.314 133.475 147.077 132.952 146.816 132.405C145.795 130.168 145.036 128.33 145.125 128.29C145.215 128.249 146.122 130.029 147.142 132.266C147.387 132.821 147.624 133.344 147.853 133.85C147.951 134.087 148.106 134.348 148.016 134.675C147.967 134.838 147.82 134.961 147.689 135.01C147.559 135.059 147.436 135.067 147.33 135.083C146.489 135.173 145.975 135.214 145.966 135.165Z" fill="#263238"/>
<path d="M142.545 125.962C142.48 126.191 141.647 126.142 140.683 126.322C139.712 126.485 138.952 126.82 138.805 126.632C138.74 126.542 138.862 126.322 139.164 126.077C139.467 125.84 139.948 125.595 140.528 125.497C141.108 125.391 141.647 125.448 142.014 125.57C142.382 125.693 142.569 125.856 142.545 125.962Z" fill="#263238"/>
<path d="M150.212 126.15C150.082 126.346 149.494 126.191 148.808 126.224C148.122 126.24 147.551 126.436 147.404 126.248C147.338 126.158 147.42 125.962 147.657 125.766C147.893 125.57 148.302 125.399 148.775 125.383C149.249 125.366 149.665 125.505 149.918 125.685C150.18 125.864 150.278 126.052 150.212 126.15Z" fill="#263238"/>
<path d="M133.971 132.642C133.873 132.609 130.191 131.792 130.558 135.475C130.925 139.149 134.91 137.957 134.902 137.851C134.894 137.737 133.971 132.642 133.971 132.642Z" fill="#FFBE9D"/>
<path d="M133.269 136.634C133.252 136.626 133.212 136.683 133.105 136.749C133.007 136.806 132.828 136.855 132.624 136.806C132.224 136.7 131.832 136.12 131.75 135.459C131.709 135.124 131.75 134.797 131.84 134.528C131.921 134.25 132.085 134.046 132.273 133.989C132.46 133.924 132.616 134.03 132.664 134.128C132.722 134.226 132.705 134.299 132.73 134.307C132.738 134.315 132.803 134.242 132.754 134.087C132.73 134.013 132.681 133.932 132.583 133.875C132.485 133.809 132.354 133.785 132.215 133.817C131.938 133.866 131.701 134.152 131.603 134.454C131.489 134.756 131.432 135.124 131.481 135.499C131.578 136.234 132.028 136.896 132.575 136.994C132.836 137.035 133.048 136.937 133.154 136.839C133.269 136.724 133.285 136.643 133.269 136.634Z" fill="#EB996E"/>
<path d="M151.388 120.777C151.134 122.239 148.17 123.578 145.704 123.513C143.434 123.447 142.316 122.32 140.666 121.52C139.621 121.014 139.621 121.014 138.209 121.243C137.065 121.43 136.469 122.778 135.824 123.741C137.049 126.411 136.551 129.514 136.037 132.405C135.979 132.723 135.906 133.066 135.661 133.287C135.245 133.654 134.575 133.434 134.175 133.058C133.522 132.462 133.228 131.58 133.015 130.723C132.525 128.771 132.346 126.73 132.648 124.746C132.958 122.761 133.775 120.826 135.138 119.348C136.837 117.495 139.311 116.425 141.826 116.294C144.333 116.164 146.856 116.939 148.954 118.319C149.926 118.964 150.841 119.748 151.388 120.777Z" fill="#263238"/>
<path d="M146.505 137.027C145.877 136.733 145.256 136.447 144.627 136.153C144.521 136.104 144.407 136.055 144.284 136.063C144.154 136.079 144.048 136.177 143.958 136.284C143.525 136.806 143.411 137.606 143.754 138.203C144.088 138.799 144.88 139.109 145.509 138.848C146.171 138.57 146.497 137.802 146.546 137.084L146.505 137.027Z" fill="#EB996E"/>
<path d="M145.575 138.986C145.607 139.019 145.183 139.288 144.472 139.084C144.129 138.978 143.737 138.717 143.501 138.292C143.256 137.876 143.166 137.288 143.378 136.757C143.476 136.496 143.639 136.259 143.835 136.079C143.933 135.99 144.031 135.908 144.154 135.843C144.276 135.753 144.529 135.745 144.644 135.81C145.068 136.047 145.362 136.251 145.648 136.439C146.195 136.806 146.522 137.051 146.489 137.108C146.456 137.157 146.081 137.002 145.493 136.7C145.15 136.52 144.823 136.349 144.489 136.177C144.407 136.153 144.415 136.153 144.342 136.194C144.268 136.243 144.178 136.308 144.113 136.382C143.966 136.529 143.843 136.708 143.77 136.912C143.607 137.321 143.664 137.77 143.843 138.113C144.023 138.456 144.301 138.684 144.578 138.807C145.15 139.043 145.566 138.913 145.575 138.986Z" fill="#263238"/>
<path d="M144.986 130.527C144.945 130.527 144.953 130.184 144.782 129.612C144.619 129.049 144.227 128.224 143.377 127.596C142.553 126.967 141.205 126.616 139.907 127.106C138.617 127.555 137.506 128.927 137.523 130.527C137.506 132.127 138.617 133.499 139.907 133.948C141.205 134.438 142.553 134.087 143.377 133.458C144.227 132.83 144.627 132.005 144.782 131.442C144.953 130.87 144.945 130.527 144.986 130.527C145.002 130.527 145.011 130.609 145.019 130.772C145.027 130.935 145.01 131.18 144.945 131.482C144.823 132.087 144.455 132.985 143.557 133.695C142.692 134.406 141.214 134.83 139.768 134.316C138.331 133.842 137.074 132.315 137.09 130.527C137.074 128.739 138.331 127.212 139.768 126.738C141.222 126.216 142.692 126.64 143.557 127.359C144.455 128.069 144.823 128.976 144.945 129.572C145.01 129.874 145.027 130.119 145.019 130.282C145.011 130.445 145.002 130.527 144.986 130.527Z" fill="#263238"/>
<path d="M154.156 130.168C154.115 130.168 154.115 129.833 153.96 129.277C153.805 128.73 153.421 127.93 152.588 127.318C151.788 126.705 150.473 126.371 149.208 126.844C147.95 127.277 146.872 128.616 146.889 130.176C146.872 131.735 147.958 133.066 149.208 133.507C150.473 133.981 151.788 133.646 152.588 133.034C153.421 132.421 153.805 131.621 153.96 131.074C154.123 130.502 154.115 130.168 154.156 130.168C154.172 130.168 154.18 130.249 154.189 130.412C154.197 130.568 154.18 130.804 154.123 131.107C154.009 131.694 153.65 132.568 152.776 133.27C151.935 133.964 150.498 134.381 149.077 133.875C147.673 133.409 146.448 131.923 146.464 130.176C146.448 128.428 147.673 126.942 149.077 126.477C150.49 125.97 151.927 126.387 152.776 127.081C153.65 127.775 154.009 128.657 154.123 129.245C154.189 129.539 154.197 129.776 154.189 129.939C154.18 130.086 154.172 130.168 154.156 130.168Z" fill="#263238"/>
<path d="M146.677 129.318C146.595 129.4 146.228 129.163 145.738 129.18C145.248 129.18 144.897 129.433 144.807 129.351C144.692 129.294 145.035 128.763 145.73 128.747C146.424 128.747 146.783 129.261 146.677 129.318Z" fill="#263238"/>
<path d="M137.54 129.98C137.613 130.078 136.894 130.723 135.947 131.433C135 132.144 134.167 132.642 134.102 132.544C134.028 132.446 134.747 131.801 135.694 131.09C136.641 130.388 137.466 129.89 137.54 129.98Z" fill="#263238"/>
<path d="M213.323 130.347C213.323 130.461 203.876 130.559 192.224 130.559C180.571 130.559 171.124 130.461 171.124 130.347C171.124 130.233 180.571 130.135 192.224 130.135C203.884 130.135 213.323 130.225 213.323 130.347Z" fill="#263238"/>
<path d="M193.815 134.756C193.815 134.871 188.802 134.969 182.612 134.969C176.423 134.969 171.409 134.871 171.409 134.756C171.409 134.642 176.423 134.544 182.612 134.544C188.793 134.544 193.815 134.642 193.815 134.756Z" fill="#263238"/>
<path d="M339.732 162.968C339.732 162.968 350.943 168.43 354.887 182.54C358.831 196.65 370.883 233.395 370.883 233.395C370.883 233.395 377.775 241.503 378.518 247.505C379.253 253.506 377.783 268.033 375.562 270.743C373.349 273.454 370.189 273.005 370.189 273.005L341.177 270.254L329.754 193.759L339.732 162.968Z" fill="#FFD2D5"/>
<path d="M243.797 161.629C243.797 161.629 223.056 168.136 217.888 173.795L234.872 252.812L234.602 277.741H332.947C332.947 276.508 333.829 194.968 333.829 194.968L339.733 162.968L304.776 156.811L297.885 151.397L258.993 153.365L253.081 159.277L243.797 161.629Z" fill="#FFD2D5"/>
<g opacity="0.3">
<path d="M251.676 230.178C251.374 229.508 250.941 228.781 250.223 228.634C249.039 228.389 248.247 229.794 247.847 230.929C244.654 239.976 240.424 248.297 234.929 256.152L234.676 268.286C240.408 263.46 246.058 258.291 249.717 251.751C253.367 245.218 254.763 237.012 251.676 230.178Z" fill="black"/>
</g>
<path d="M217.887 173.803C217.887 173.803 211.053 183.12 208.211 189.203C205.37 195.287 181.853 246.37 180.44 251.645C179.02 256.919 175.37 273.536 186.115 277.39H208.211L230.389 232.537L231.524 180.483L217.887 173.803Z" fill="#FFD2D5"/>
<path d="M209.632 244.99C209.599 245.022 209.142 244.557 208.122 243.977C207.109 243.406 205.525 242.744 203.484 242.295C202.463 242.075 201.328 241.895 200.103 241.822C198.878 241.748 197.564 241.764 196.224 242.075C193.546 242.671 190.884 244.369 188.786 246.745C186.654 249.122 185.348 251.93 184.572 254.576C183.788 257.23 183.454 259.72 183.241 261.803C183.037 263.893 182.956 265.591 182.882 266.767C182.849 267.314 182.817 267.763 182.8 268.123C182.776 268.433 182.76 268.596 182.743 268.596C182.727 268.596 182.719 268.433 182.719 268.123C182.719 267.763 182.719 267.314 182.727 266.767C182.751 265.591 182.784 263.885 182.947 261.778C183.119 259.679 183.429 257.165 184.197 254.462C184.956 251.775 186.287 248.893 188.467 246.46C190.615 244.026 193.358 242.287 196.143 241.691C197.531 241.381 198.886 241.373 200.128 241.471C201.369 241.56 202.52 241.756 203.549 242.001C205.615 242.491 207.199 243.202 208.203 243.83C208.701 244.149 209.069 244.435 209.297 244.647C209.526 244.859 209.64 244.982 209.632 244.99Z" fill="#263238"/>
<path d="M199.147 236.057C199.147 236.024 199.409 235.983 199.891 235.934C200.372 235.877 201.075 235.861 201.94 235.91C202.806 235.95 203.834 236.097 204.953 236.359C206.064 236.636 207.272 237.045 208.472 237.608C209.665 238.188 210.742 238.866 211.657 239.56C212.563 240.27 213.323 240.972 213.902 241.625C214.482 242.271 214.915 242.826 215.168 243.234C215.429 243.642 215.568 243.871 215.544 243.887C215.478 243.936 214.882 243.046 213.682 241.83C213.086 241.217 212.318 240.548 211.42 239.878C210.506 239.217 209.452 238.563 208.285 238C207.109 237.445 205.941 237.045 204.855 236.751C203.761 236.473 202.765 236.302 201.916 236.228C200.225 236.048 199.156 236.138 199.147 236.057Z" fill="#263238"/>
<path d="M219.128 233.599C219.12 233.631 218.761 233.599 218.108 233.517C217.454 233.435 216.507 233.337 215.34 233.248C213.004 233.068 209.754 233.027 206.194 233.452C202.642 233.885 199.49 234.693 197.261 235.411C196.143 235.771 195.244 236.089 194.632 236.326C194.02 236.555 193.668 236.669 193.66 236.644C193.652 236.62 193.971 236.449 194.575 236.171C195.171 235.885 196.053 235.526 197.171 235.126C199.392 234.325 202.561 233.46 206.153 233.027C209.738 232.603 213.029 232.692 215.372 232.946C216.548 233.068 217.495 233.215 218.14 233.346C218.777 233.484 219.137 233.574 219.128 233.599Z" fill="#263238"/>
<path d="M282.068 189.954C282.059 189.962 281.986 189.873 281.839 189.685C281.684 189.473 281.48 189.203 281.235 188.876C280.696 188.125 279.945 187.088 279.014 185.798C277.103 183.103 274.449 179.356 271.314 174.938L271.657 174.889C270.464 178.384 269.15 182.246 267.77 186.304L267.68 186.557L267.46 186.41C267.313 186.321 267.157 186.215 267.002 186.117C265.173 184.957 263.556 183.561 262.193 182.05C260.829 180.531 259.694 178.915 258.755 177.298C256.877 174.056 255.742 170.863 254.975 168.161C254.207 165.45 253.807 163.196 253.546 161.653C253.415 160.91 253.317 160.322 253.235 159.873C253.194 159.669 253.154 159.522 253.129 159.415C253.088 159.326 253.072 159.268 253.08 159.268C253.17 159.228 253.407 160.085 253.709 161.628C254.027 163.163 254.468 165.401 255.269 168.087C256.069 170.765 257.22 173.925 259.098 177.11C260.037 178.702 261.156 180.286 262.503 181.781C263.859 183.259 265.443 184.63 267.231 185.765C267.386 185.863 267.541 185.961 267.68 186.051L267.37 186.166C268.766 182.107 270.089 178.253 271.289 174.767L271.412 174.399L271.632 174.718C274.71 179.168 277.323 182.948 279.201 185.667C280.1 186.982 280.81 188.044 281.333 188.811C281.561 189.154 281.741 189.432 281.888 189.652C282.019 189.84 282.076 189.946 282.068 189.954Z" fill="#263238"/>
<g opacity="0.3">
<path d="M307.674 227.671C306.76 236.808 308.777 246.214 313.358 254.168C317.93 262.129 324.642 269.217 332.995 273.03C333.265 264.921 332.873 255.368 333.142 247.26L307.674 227.671Z" fill="black"/>
</g>
<path d="M306.752 216.999C306.752 216.999 303.184 217.987 305.862 225.311C308.54 232.627 309.43 232.186 311.218 239.037C313.007 245.88 315.089 252.135 318.216 256.005C321.344 259.875 332.955 267.763 332.955 267.763L343.374 257.94C343.374 257.94 341.659 250.616 342.067 245.643C342.476 240.67 343.521 228.463 343.374 226.381C343.227 224.298 340.99 219.236 340.99 219.236V215.774L335.633 199.288C335.633 199.288 332.653 197.949 331.616 202.709L329.827 197.655C329.827 197.655 327.002 197.205 326.259 203.011C325.516 208.817 326.855 216.852 326.855 216.852L325.369 226.969L323.14 233.811L321.205 234.105C321.205 234.105 318.29 233.313 316.697 227.826C315.081 222.355 310.769 215.806 306.752 216.999Z" fill="#FFBE9D"/>
<path d="M339.871 242.883C339.863 242.883 339.847 242.752 339.822 242.507C339.806 242.222 339.781 241.862 339.749 241.413C339.692 240.417 339.618 239.037 339.528 237.314C339.365 233.762 339.145 228.814 338.883 223.041L338.932 223.163C338.45 222.592 337.601 222.42 336.826 222.616C336.034 222.804 335.331 223.294 334.89 224.029C333.984 225.491 333.927 227.401 333.649 229.247C333.086 233.419 332.547 237.388 332.057 241.013C331.812 242.818 331.551 244.541 331.191 246.133C330.848 247.725 330.367 249.179 329.901 250.477C329.444 251.775 329.036 252.951 328.783 254.013C328.529 255.074 328.423 256.005 328.448 256.773C328.48 258.308 328.93 259.092 328.856 259.108C328.84 259.116 328.758 258.92 328.603 258.536C328.48 258.144 328.309 257.556 328.276 256.781C328.227 256.005 328.309 255.041 328.546 253.964C328.783 252.886 329.175 251.694 329.615 250.387C330.065 249.081 330.522 247.652 330.848 246.068C331.183 244.492 331.428 242.777 331.665 240.972C332.147 237.347 332.669 233.378 333.225 229.206C333.355 228.275 333.453 227.361 333.617 226.438C333.78 225.523 334.033 224.609 334.539 223.825C335.013 223.025 335.846 222.437 336.728 222.233C337.601 222.012 338.638 222.208 339.234 222.927L339.275 222.984V223.049C339.471 228.822 339.643 233.77 339.765 237.331C339.806 239.053 339.847 240.433 339.871 241.438C339.879 241.887 339.879 242.246 339.879 242.532C339.896 242.752 339.888 242.883 339.871 242.883Z" fill="#1E1E1E"/>
<path d="M334.18 224.127C334.155 224.135 333.992 223.808 333.739 223.196C333.494 222.584 333.167 221.677 332.865 220.526C332.563 219.383 332.277 217.986 332.114 216.427C332.032 215.643 331.975 214.81 332.073 213.945C332.163 213.079 332.416 212.164 332.971 211.397C333.445 210.727 334.115 210.188 334.874 209.968L335.037 209.919L335.119 210.066C336.629 212.728 337.936 215.08 338.859 216.77C339.283 217.562 339.634 218.223 339.928 218.77C340.173 219.244 340.296 219.505 340.271 219.522C340.247 219.538 340.083 219.293 339.798 218.844C339.479 218.321 339.087 217.676 338.622 216.909C337.634 215.251 336.278 212.932 334.751 210.278L334.996 210.376C334.343 210.572 333.747 211.038 333.322 211.65C332.824 212.352 332.579 213.185 332.49 214.002C332.4 214.826 332.441 215.635 332.514 216.402C332.653 217.946 332.898 219.326 333.167 220.469C333.429 221.612 333.706 222.526 333.902 223.155C334.09 223.768 334.204 224.119 334.18 224.127Z" fill="#1E1E1E"/>
<path d="M331.689 225.466C331.656 225.466 331.624 225.131 331.591 224.519C331.567 223.817 331.526 222.951 331.485 221.93C331.411 219.742 331.346 216.721 331.297 213.381C331.273 210.041 331.142 207.012 331.428 204.816C331.567 203.721 331.787 202.848 331.983 202.268C332.179 201.68 332.342 201.386 332.367 201.394C332.44 201.419 331.91 202.684 331.722 204.856C331.518 207.02 331.689 210.041 331.714 213.381C331.763 216.721 331.779 219.742 331.779 221.93C331.771 222.951 331.754 223.817 331.746 224.527C331.738 225.131 331.714 225.466 331.689 225.466Z" fill="#1E1E1E"/>
<path d="M322.879 252.91C322.821 252.861 323.466 252.094 324.275 250.697C324.683 250.003 325.1 249.138 325.483 248.158C325.851 247.162 326.186 246.043 326.414 244.843C326.626 243.634 326.7 242.475 326.7 241.413C326.684 240.352 326.594 239.396 326.455 238.612C326.186 237.028 325.843 236.081 325.916 236.057C325.941 236.048 326.047 236.277 326.21 236.702C326.381 237.126 326.569 237.763 326.749 238.555C326.929 239.355 327.051 240.327 327.092 241.405C327.116 242.491 327.043 243.683 326.831 244.916C326.602 246.149 326.251 247.292 325.851 248.297C325.434 249.293 324.977 250.167 324.528 250.852C324.087 251.538 323.687 252.069 323.377 252.404C323.074 252.755 322.903 252.935 322.879 252.91Z" fill="#1E1E1E"/>
<path d="M341.169 247.791L350.208 250.926C350.208 250.926 358.839 246.46 364.792 250.926C370.745 255.393 375.913 267.159 374.28 271.919C374.28 271.919 370.173 276.99 367.046 277.733C363.918 278.476 351.768 275.537 346.714 274.467C341.643 273.397 332.938 267.739 332.938 267.739L341.169 247.791Z" fill="#FFBE9D"/>
<path d="M342.28 261.117C342.247 261.117 342.214 260.831 342.182 260.316C342.149 259.704 342.1 258.977 342.051 258.136C341.953 256.291 341.83 253.743 341.79 250.918C341.749 248.093 341.83 245.537 342.002 243.692C342.084 242.769 342.182 242.026 342.271 241.511C342.361 240.997 342.427 240.719 342.459 240.727C342.525 240.736 342.386 241.871 342.296 243.708C342.206 245.545 342.173 248.093 342.214 250.91C342.263 253.67 342.312 256.168 342.345 258.128C342.353 259.051 342.353 259.802 342.337 260.316C342.329 260.831 342.304 261.117 342.28 261.117Z" fill="#1E1E1E"/>
<path d="M372.092 250.575C372.027 250.64 371.096 249.35 369.087 247.864C367.103 246.378 363.886 244.794 360.081 244.582C356.267 244.377 352.895 245.594 350.764 246.852C348.6 248.109 347.538 249.285 347.481 249.211C347.465 249.195 347.718 248.893 348.224 248.403C348.731 247.913 349.531 247.26 350.609 246.59C352.74 245.243 356.186 243.945 360.105 244.157C364.024 244.377 367.307 246.051 369.275 247.619C370.271 248.403 370.998 249.146 371.447 249.685C371.896 250.232 372.108 250.567 372.092 250.575Z" fill="#263238"/>
<path d="M370.933 243.038C370.876 243.128 369.667 241.903 367.169 240.964C364.711 240.001 360.897 239.56 356.986 240.662C355.035 241.209 353.246 241.985 351.72 242.85C350.193 243.724 348.919 244.679 347.906 245.545C346.894 246.41 346.118 247.17 345.587 247.692C345.057 248.223 344.763 248.509 344.738 248.493C344.722 248.476 344.975 248.15 345.473 247.578C345.971 247.015 346.714 246.223 347.718 245.316C348.715 244.41 349.988 243.414 351.532 242.507C353.075 241.609 354.888 240.801 356.88 240.246C360.889 239.119 364.801 239.625 367.283 240.678C368.54 241.193 369.471 241.789 370.067 242.246C370.378 242.467 370.582 242.679 370.729 242.809C370.868 242.948 370.941 243.03 370.933 243.038Z" fill="#263238"/>
<path d="M371.006 236.506C370.982 236.588 369.406 236.106 366.777 235.755C365.462 235.567 363.886 235.461 362.139 235.461C360.391 235.485 358.472 235.632 356.48 235.967C354.496 236.326 352.642 236.849 350.985 237.42C349.343 238.016 347.898 238.653 346.731 239.282C344.387 240.515 343.064 241.503 343.015 241.438C342.999 241.413 343.317 241.16 343.922 240.711C344.216 240.482 344.591 240.221 345.04 239.944C345.489 239.666 345.996 239.323 346.584 239.021C347.743 238.359 349.197 237.69 350.846 237.061C352.512 236.465 354.39 235.926 356.398 235.559C358.415 235.216 360.359 235.077 362.131 235.077C363.903 235.101 365.495 235.24 366.809 235.469C367.471 235.55 368.059 235.706 368.581 235.812C369.104 235.918 369.545 236.04 369.896 236.147C370.623 236.343 371.015 236.473 371.006 236.506Z" fill="#263238"/>
<path d="M301.73 156.542C301.73 156.542 302.147 157.325 302.359 158.942C302.58 160.551 302.547 162.968 302.016 165.956C301.747 167.451 301.388 169.092 300.849 170.847C300.285 172.603 299.436 174.399 298.472 176.277C296.529 180.034 294.071 184.124 291.238 188.493L290.903 189.007V188.395C290.895 185.513 290.895 182.483 290.887 179.331L291.205 179.486C288.772 181.446 286.216 183.512 283.579 185.643L283.644 185.545C281.88 191.147 280.713 197.385 280.255 203.877C279.512 213.814 280.108 223.319 280.582 231.941C280.982 240.572 281.243 248.354 281.513 254.878C281.774 261.411 282.011 266.685 282.207 270.335C282.313 272.14 282.395 273.553 282.452 274.532C282.484 274.998 282.509 275.357 282.525 275.627C282.542 275.872 282.533 276.002 282.533 276.002C282.533 276.002 282.509 275.88 282.476 275.635C282.452 275.373 282.411 275.006 282.362 274.549C282.272 273.593 282.158 272.173 282.035 270.352C281.79 266.702 281.505 261.427 281.211 254.895C280.917 248.362 280.574 240.589 280.182 231.966C279.692 223.351 279.079 213.822 279.823 203.852C280.288 197.336 281.456 191.065 283.244 185.431L283.26 185.374L283.309 185.333C285.947 183.21 288.511 181.152 290.944 179.192L291.262 178.939V179.348C291.254 182.491 291.254 185.521 291.246 188.411L290.911 188.313C296.521 179.617 301.085 172.056 301.788 165.94C302.351 162.976 302.416 160.583 302.229 158.975C302.147 158.166 301.992 157.57 301.894 157.162C301.788 156.754 301.73 156.542 301.73 156.542Z" fill="#263238"/>
<path d="M287.09 261.876L286.796 261.868C285.612 261.9 284.559 262.978 284.559 264.162C284.559 265.346 285.604 266.432 286.78 266.473C287.964 266.514 289.082 265.501 289.156 264.325C289.237 263.141 288.266 261.99 287.09 261.876Z" fill="white"/>
<path d="M287.089 230.406L286.795 230.398C285.611 230.431 284.558 231.508 284.558 232.692C284.558 233.876 285.603 234.962 286.779 235.003C287.963 235.044 289.081 234.032 289.155 232.856C289.236 231.672 288.265 230.52 287.089 230.406Z" fill="white"/>
<path d="M286.779 202.252C287.963 202.293 289.082 201.28 289.155 200.104C289.237 198.928 288.257 197.777 287.081 197.663L286.787 197.655C285.603 197.687 284.55 198.765 284.55 199.949C284.558 201.125 285.603 202.211 286.779 202.252Z" fill="white"/>
<path d="M251.529 119.666C248.663 116.498 245.781 113.289 243.69 109.565C241.6 105.842 240.359 101.49 241.053 97.2765C241.453 94.8105 242.506 92.467 242.67 89.9765C242.898 86.547 241.453 82.9624 242.67 79.7534C244.572 74.7316 251.333 73.9559 255.432 70.4856C258.625 67.7828 260.176 63.398 263.696 61.1198C266.766 59.1356 270.71 59.1764 274.327 59.6908C277.944 60.2053 281.586 61.1198 285.212 60.6299C287.792 60.2787 290.225 59.2417 292.757 58.613C295.288 57.9842 298.105 57.8209 300.359 59.1274C302.612 60.4339 303.878 63.6347 302.4 65.7823C306.597 63.8471 311.929 67.1214 313.08 71.5961C314.232 76.0708 311.929 80.9129 308.369 83.8606C304.809 86.8165 300.212 88.1883 295.672 89.0457C282.811 91.4708 268.864 90.099 257.784 83.142" fill="#263238"/>
<path d="M296.733 162.902C296.104 158.036 295.59 153.977 295.557 153.471C295.557 153.471 311.823 149.813 310.924 133.368C310.492 125.423 308.262 109.116 306.082 94.3941C303.739 78.5857 289.621 67.2357 273.674 68.2972L272.089 68.4034C255.056 70.5427 247.364 86.2123 249.977 103.172L259.164 160.061C259.164 160.061 263.083 172.644 271.477 174.824L282.06 189.946L283.807 183.438L291.695 176.571C291.695 176.571 293.507 174.612 295.582 170.782C297.304 167.646 296.945 164.429 296.733 162.902Z" fill="#FFBE9D"/>
<path d="M295.574 153.226C295.574 153.226 285.244 154.77 273.739 148.572C273.739 148.572 279.594 160.061 295.892 157.481L295.574 153.226Z" fill="#1E1E1E"/>
<path d="M300.807 108.529C300.938 109.762 299.991 110.889 298.701 111.052C297.411 111.207 296.267 110.333 296.137 109.1C296.014 107.867 296.953 106.732 298.235 106.577C299.534 106.414 300.677 107.288 300.807 108.529Z" fill="#263238"/>
<path d="M303.102 102.699C302.833 103.025 300.963 101.825 298.44 102.004C295.917 102.143 294.145 103.564 293.851 103.278C293.704 103.148 293.965 102.576 294.733 101.939C295.492 101.302 296.807 100.641 298.383 100.543C299.958 100.445 301.322 100.935 302.122 101.482C302.931 102.013 303.233 102.552 303.102 102.699Z" fill="#263238"/>
<path d="M276.948 110.235C277.079 111.468 276.131 112.595 274.841 112.758C273.551 112.914 272.408 112.04 272.277 110.807C272.155 109.574 273.094 108.439 274.376 108.284C275.674 108.12 276.817 108.994 276.948 110.235Z" fill="#263238"/>
<path d="M278.303 104.83C278.034 105.157 276.164 103.956 273.641 104.136C271.118 104.275 269.346 105.695 269.052 105.41C268.905 105.279 269.166 104.707 269.934 104.07C270.685 103.434 272.008 102.772 273.576 102.674C275.151 102.576 276.515 103.066 277.315 103.613C278.14 104.144 278.442 104.683 278.303 104.83Z" fill="#263238"/>
<path d="M288.722 122.949C288.698 122.81 290.249 122.426 292.772 121.936C293.409 121.83 294.014 121.659 294.095 121.21C294.218 120.736 293.899 120.058 293.54 119.324C292.83 117.805 292.087 116.212 291.303 114.539C288.183 107.72 285.881 102.103 286.158 101.98C286.436 101.858 289.188 107.279 292.299 114.098C293.05 115.78 293.769 117.38 294.455 118.915C294.748 119.634 295.222 120.434 294.961 121.422C294.822 121.912 294.373 122.296 293.965 122.435C293.556 122.59 293.197 122.622 292.879 122.663C290.331 122.973 288.747 123.088 288.722 122.949Z" fill="#263238"/>
<path d="M278.295 94.8841C278.091 95.5864 275.552 95.4312 272.612 95.9865C269.664 96.4846 267.329 97.5134 266.896 96.9173C266.7 96.6316 267.076 95.962 267.999 95.2271C268.913 94.5004 270.399 93.7655 272.163 93.447C273.927 93.1367 275.576 93.3082 276.687 93.6757C277.797 94.0513 278.377 94.5575 278.295 94.8841Z" fill="#263238"/>
<path d="M301.681 95.4475C301.273 96.0518 299.493 95.57 297.402 95.6843C295.304 95.7251 293.565 96.3294 293.116 95.7578C292.92 95.4802 293.156 94.8841 293.899 94.288C294.626 93.7001 295.875 93.1693 297.313 93.1122C298.75 93.0632 300.032 93.496 300.799 94.0349C301.575 94.582 301.861 95.1536 301.681 95.4475Z" fill="#263238"/>
<path d="M252.141 115.257C251.855 115.151 240.628 112.668 241.738 123.888C242.849 135.099 254.999 131.449 254.991 131.122C254.975 130.796 252.141 115.257 252.141 115.257Z" fill="#FFBE9D"/>
<path d="M250.019 127.44C249.97 127.407 249.839 127.595 249.52 127.783C249.21 127.962 248.671 128.117 248.067 127.954C246.842 127.636 245.658 125.855 245.405 123.839C245.274 122.818 245.397 121.83 245.675 120.989C245.936 120.131 246.409 119.511 246.997 119.348C247.577 119.152 248.034 119.47 248.206 119.772C248.385 120.074 248.336 120.303 248.402 120.311C248.434 120.336 248.622 120.099 248.492 119.642C248.426 119.421 248.263 119.168 247.977 118.98C247.683 118.784 247.283 118.719 246.867 118.8C246.009 118.947 245.307 119.821 244.997 120.744C244.638 121.675 244.482 122.793 244.629 123.937C244.923 126.19 246.287 128.191 247.961 128.493C248.769 128.624 249.406 128.321 249.716 128.019C250.019 127.709 250.059 127.456 250.019 127.44Z" fill="#1E1E1E"/>
<path d="M305.265 79.0757C304.498 83.5422 295.442 87.625 287.938 87.4127C281.022 87.2085 277.601 83.779 272.571 81.3376C269.386 79.7943 269.386 79.7943 265.075 80.4965C261.58 81.0681 259.776 85.1835 257.808 88.1312C261.539 96.2722 260.029 105.736 258.453 114.555C258.281 115.526 258.061 116.58 257.318 117.233C256.06 118.343 254.011 117.682 252.778 116.547C250.794 114.726 249.887 112.032 249.242 109.427C247.764 103.482 247.193 97.2521 248.132 91.1933C249.071 85.1345 251.578 79.2554 255.717 74.7317C260.886 69.0812 268.447 65.8232 276.098 65.4312C283.749 65.0393 291.433 67.4073 297.835 71.6043C300.807 73.5396 303.583 75.9402 305.265 79.0757Z" fill="#263238"/>
<path d="M290.372 128.624C288.469 127.734 286.559 126.844 284.656 125.962C284.33 125.807 283.978 125.652 283.619 125.701C283.211 125.758 282.892 126.06 282.631 126.37C281.308 127.979 280.974 130.396 281.994 132.208C283.023 134.021 285.432 134.977 287.359 134.176C289.384 133.335 290.372 130.984 290.527 128.795L290.372 128.624Z" fill="#1E1E1E"/>
<path d="M287.539 134.584C287.555 134.633 287.277 134.797 286.706 134.919C286.142 135.025 285.261 135.074 284.248 134.74C283.244 134.421 282.109 133.637 281.407 132.38C280.696 131.155 280.435 129.432 281.055 127.872C281.349 127.097 281.815 126.411 282.378 125.872C282.664 125.602 282.966 125.374 283.309 125.17C283.489 125.072 283.709 124.974 283.97 124.957C284.224 124.941 284.452 125.006 284.632 125.088C285.007 125.251 285.244 125.431 285.522 125.594C285.791 125.758 286.044 125.921 286.298 126.076C286.788 126.386 287.253 126.672 287.686 126.95C289.384 128.028 290.397 128.738 290.34 128.844C290.282 128.942 289.156 128.411 287.384 127.472C286.935 127.227 286.453 126.966 285.938 126.688C285.677 126.541 285.408 126.394 285.138 126.247C284.869 126.101 284.567 125.913 284.33 125.823C284.068 125.733 283.954 125.741 283.701 125.88C283.448 126.035 283.178 126.247 282.95 126.476C282.476 126.942 282.092 127.521 281.839 128.183C281.317 129.497 281.504 130.926 282.084 132.012C282.656 133.106 283.579 133.825 284.444 134.184C285.318 134.552 286.118 134.601 286.657 134.601C287.212 134.576 287.522 134.519 287.539 134.584Z" fill="#263238"/>
<path d="M285.743 108.806C285.677 108.814 285.751 107.761 285.293 105.965C284.844 104.209 283.669 101.621 281.023 99.6118C279.708 98.632 278.059 97.8073 276.156 97.4725C274.27 97.154 272.131 97.2112 270.106 97.9869C269.085 98.3462 268.097 98.8769 267.199 99.5547C266.284 100.216 265.451 101.041 264.765 101.996C263.353 103.882 262.553 106.299 262.528 108.79C262.553 111.28 263.345 113.705 264.765 115.592C265.451 116.547 266.284 117.372 267.199 118.041C268.105 118.719 269.085 119.258 270.106 119.609C272.131 120.385 274.27 120.442 276.156 120.123C278.059 119.789 279.708 118.964 281.023 117.984C283.669 115.984 284.844 113.395 285.293 111.631C285.751 109.851 285.669 108.806 285.743 108.806C285.751 108.806 285.751 108.871 285.751 108.994C285.751 109.149 285.743 109.329 285.743 109.549C285.743 109.794 285.726 110.096 285.669 110.456C285.62 110.815 285.579 111.223 285.449 111.68C285.261 112.595 284.844 113.681 284.183 114.84C283.513 115.992 282.542 117.2 281.203 118.229C279.872 119.25 278.181 120.115 276.222 120.475C274.278 120.818 272.074 120.769 269.975 119.985C268.914 119.625 267.893 119.07 266.954 118.368C266.007 117.682 265.141 116.833 264.431 115.845C262.961 113.893 262.128 111.386 262.104 108.798C262.128 106.21 262.961 103.703 264.431 101.751C265.141 100.763 266.007 99.9139 266.954 99.228C267.893 98.534 268.914 97.9787 269.975 97.6195C272.074 96.8274 274.278 96.7784 276.222 97.1295C278.181 97.4888 279.872 98.3625 281.203 99.375C282.542 100.404 283.513 101.612 284.183 102.764C284.844 103.923 285.261 105.009 285.449 105.924C285.579 106.373 285.62 106.789 285.669 107.149C285.726 107.508 285.743 107.81 285.743 108.055C285.743 108.275 285.751 108.463 285.751 108.61C285.751 108.741 285.743 108.806 285.743 108.806Z" fill="#263238"/>
<path d="M313.701 107.712C313.636 107.72 313.709 106.691 313.26 104.944C312.819 103.229 311.676 100.706 309.096 98.7627C307.822 97.8073 306.213 96.999 304.36 96.6805C302.523 96.3702 300.44 96.4274 298.464 97.1868C297.468 97.5297 296.513 98.0523 295.631 98.7137C294.741 99.3588 293.932 100.167 293.263 101.098C291.883 102.935 291.107 105.287 291.083 107.72C291.107 110.154 291.883 112.505 293.255 114.342C293.924 115.273 294.733 116.073 295.623 116.727C296.505 117.388 297.46 117.911 298.456 118.254C300.432 119.005 302.506 119.07 304.352 118.752C306.205 118.425 307.814 117.617 309.088 116.67C311.668 114.718 312.811 112.203 313.244 110.488C313.709 108.725 313.636 107.704 313.701 107.712C313.717 107.712 313.717 107.965 313.709 108.439C313.709 108.676 313.701 108.978 313.644 109.321C313.595 109.672 313.554 110.072 313.432 110.513C313.032 112.26 311.913 114.865 309.292 116.898C307.993 117.894 306.344 118.744 304.433 119.087C302.539 119.421 300.391 119.372 298.342 118.605C297.313 118.254 296.317 117.715 295.402 117.029C294.48 116.359 293.639 115.535 292.944 114.571C291.507 112.668 290.699 110.227 290.683 107.704C290.707 105.181 291.515 102.739 292.953 100.837C293.647 99.8732 294.488 99.0403 295.41 98.3789C296.325 97.7012 297.321 97.1623 298.35 96.8112C300.4 96.0436 302.547 95.9946 304.441 96.3294C306.352 96.6805 308.002 97.5297 309.3 98.5177C311.921 100.551 313.04 103.148 313.44 104.903C313.562 105.344 313.611 105.744 313.652 106.095C313.709 106.438 313.726 106.74 313.717 106.977C313.717 107.459 313.717 107.712 313.701 107.712Z" fill="#263238"/>
<path d="M290.887 105.124C290.838 105.173 290.568 104.944 290.078 104.707C289.588 104.47 288.853 104.242 288.02 104.258C287.196 104.266 286.461 104.527 285.979 104.781C285.489 105.034 285.236 105.271 285.187 105.23C285.146 105.197 285.334 104.87 285.824 104.527C286.306 104.185 287.09 103.85 288.012 103.833C288.927 103.817 289.727 104.119 290.225 104.446C290.715 104.781 290.919 105.091 290.887 105.124Z" fill="#263238"/>
<path d="M263.027 107.149C263.1 107.247 260.806 109.076 257.907 111.231C255.008 113.395 252.607 115.069 252.534 114.979C252.46 114.881 254.755 113.06 257.654 110.897C260.552 108.725 262.961 107.051 263.027 107.149Z" fill="#263238"/>
<g opacity="0.3">
<path d="M253.366 160.289C252.231 171.37 256.444 183.071 265.328 189.783C266.022 190.314 266.904 190.828 267.721 190.534C268.292 190.33 268.66 189.783 268.962 189.252C271.493 184.867 272.343 180.025 271.616 175.012C270.211 178.719 269.003 182.352 267.582 186.231C259.833 181.536 255.007 171.541 253.366 160.289Z" fill="black"/>
</g>
<path opacity="0.3" d="M283.456 185.488L289.98 183.104L291.058 194.135C291.058 194.135 298.097 181.307 301.012 175.452C303.927 169.598 302.424 159.269 302.424 159.269C302.424 159.269 303.47 168.267 296.415 179.739L291.091 188.395V179.331L283.456 185.488Z" fill="black"/>
<g opacity="0.3">
<path d="M207.583 241.552C204.676 240.18 201.328 239.993 198.135 240.368C194.763 240.76 191.374 241.797 188.729 243.928C186.083 246.06 184.295 249.424 184.621 252.804L184.948 252.853C187.226 246.696 191.75 242.214 197.588 241.667C203.426 241.128 209.118 243.724 213.127 248.003C212.735 244.802 210.49 242.924 207.583 241.552Z" fill="black"/>
</g>
<g opacity="0.3">
<path d="M372.516 247.848C370.328 245.488 367.258 244.059 364.09 243.504C358.529 242.532 352.56 244.263 348.371 248.052L349.612 247.039C352.772 245.186 356.414 244.092 360.08 244.198C363.738 244.304 367.405 245.659 370.059 248.182C372.5 250.51 373.962 253.645 375.358 256.707C375.905 253.539 374.697 250.208 372.516 247.848Z" fill="black"/>
</g>
<path d="M330.473 196.617C330.449 196.609 330.555 196.291 330.767 195.727C331.02 195.082 331.331 194.29 331.698 193.351C332.49 191.351 333.568 188.583 334.719 185.512C335.862 182.434 336.85 179.633 337.561 177.6C337.896 176.653 338.181 175.853 338.41 175.199C338.614 174.636 338.745 174.326 338.769 174.334C338.794 174.342 338.72 174.669 338.565 175.248C338.41 175.828 338.165 176.669 337.847 177.698C337.21 179.756 336.263 182.581 335.119 185.659C333.976 188.738 332.841 191.49 331.984 193.466C331.551 194.454 331.192 195.246 330.93 195.793C330.653 196.332 330.498 196.626 330.473 196.617Z" fill="#263238"/>
<path d="M227.531 197.418C227.417 197.442 226.527 193.556 225.547 188.738C224.567 183.92 223.865 180.001 223.979 179.976C224.093 179.952 224.983 183.839 225.963 188.656C226.943 193.474 227.645 197.393 227.531 197.418Z" fill="#263238"/>
<path d="M225.988 245.994C226.249 246.125 222.999 220.551 222.999 220.551C222.999 220.551 225.049 201.141 226.2 200.243L226.233 193.392C226.233 193.392 229.409 191.465 230.258 194.576C230.258 194.576 233.075 192.135 233.565 197.949C234.055 203.762 234.161 209.715 234.161 209.715L240.424 225.376L241.453 225.899C241.453 225.899 242.8 213.626 243.584 211.822C244.368 210.017 244.907 205.624 247.871 206.286C250.843 206.947 251.088 209.405 250.557 213.406C250.027 217.407 249.357 221.539 249.61 224.127C249.855 226.716 251.031 232.407 250.672 236.922C250.312 241.446 247.838 246.215 245.234 249.563C242.637 252.91 237.672 259.835 234.97 261.925C234.022 262.652 225.988 245.994 225.988 245.994Z" fill="#FFBE9D"/>
<path d="M229.147 225.181C229.114 225.181 229.123 224.789 229.163 224.086C229.221 223.302 229.286 222.306 229.368 221.114C229.555 218.607 229.849 215.145 230.2 211.324C230.38 209.421 230.552 207.6 230.707 205.943C230.788 205.118 230.837 204.342 230.731 203.632C230.633 202.921 230.356 202.309 229.947 201.868C229.123 200.97 228.053 200.741 227.391 200.749C226.697 200.741 226.338 200.929 226.322 200.888C226.314 200.872 226.403 200.831 226.575 200.758C226.755 200.692 227.024 200.611 227.383 200.586C228.086 200.537 229.229 200.717 230.168 201.672C230.633 202.146 230.96 202.832 231.074 203.583C231.205 204.342 231.156 205.151 231.09 205.984C230.943 207.649 230.78 209.462 230.617 211.373C230.266 215.194 229.923 218.648 229.661 221.147C229.523 222.331 229.408 223.327 229.319 224.103C229.245 224.797 229.18 225.181 229.147 225.181Z" fill="#1E1E1E"/>
<path d="M232.52 214.72C232.577 214.769 231.883 215.382 231.409 216.737C230.903 218.068 230.723 220.077 230.364 222.257C230.029 224.446 229.694 226.422 229.441 227.842C229.18 229.271 228.992 230.145 228.935 230.137C228.878 230.129 228.959 229.23 229.147 227.793C229.327 226.356 229.613 224.372 229.947 222.184C230.299 220.012 230.527 217.995 231.131 216.615C231.417 215.929 231.76 215.431 232.038 215.121C232.307 214.827 232.503 214.704 232.52 214.72Z" fill="#1E1E1E"/>
<path d="M230.217 194.233C230.249 194.225 230.323 194.511 230.437 195.042C230.551 195.564 230.69 196.324 230.845 197.271C231.156 199.157 231.499 201.778 231.719 204.693C231.931 207.608 231.98 210.254 231.948 212.165C231.931 213.12 231.907 213.896 231.866 214.427C231.833 214.957 231.801 215.251 231.768 215.251C231.703 215.251 231.695 214.067 231.646 212.165C231.597 210.254 231.507 207.625 231.294 204.726C231.082 201.827 230.788 199.206 230.551 197.312C230.315 195.417 230.151 194.25 230.217 194.233Z" fill="#1E1E1E"/>
<path d="M248.287 218.215C248.353 218.313 247.373 218.762 246.181 218.395C244.98 218.036 244.425 217.113 244.531 217.072C244.629 216.99 245.25 217.684 246.303 217.995C247.348 218.321 248.255 218.093 248.287 218.215Z" fill="#1E1E1E"/>
<path d="M226.339 242.81L209.787 249.767H199.923C199.923 249.767 190.174 252.813 188.671 261.95C187.169 271.095 186.956 275.798 191.243 276.925C195.53 278.052 207.64 278.183 213.641 276.19C219.643 274.198 235.361 261.509 235.361 261.509L236.88 252.331L226.339 242.81Z" fill="#FFBE9D"/>
<path d="M230.217 252.91C230.192 252.927 230.029 252.78 229.743 252.478C229.449 252.192 229.09 251.718 228.665 251.114C227.849 249.889 226.951 248.035 226.354 245.88C225.734 243.724 225.473 241.707 225.334 240.254C225.211 238.8 225.211 237.894 225.268 237.886C225.334 237.878 225.432 238.776 225.628 240.213C225.84 241.65 226.15 243.634 226.755 245.757C227.342 247.889 228.175 249.709 228.91 250.951C229.67 252.192 230.274 252.861 230.217 252.91Z" fill="#1E1E1E"/>
<path d="M237.42 255.817C237.33 255.784 238.073 254.527 238.359 252.265C238.497 251.146 238.481 249.783 238.163 248.321C237.844 246.86 237.15 245.357 236.138 243.953C235.133 242.54 233.998 241.315 233.051 240.131C232.088 238.947 231.32 237.796 230.814 236.751C230.307 235.706 230.071 234.783 229.981 234.138C229.899 233.493 229.932 233.133 229.956 233.133C230.038 233.117 230.013 234.595 231.083 236.612C231.606 237.616 232.39 238.727 233.353 239.878C234.317 241.038 235.46 242.262 236.489 243.7C237.526 245.129 238.252 246.713 238.555 248.223C238.865 249.734 238.84 251.146 238.661 252.29C238.481 253.441 238.163 254.331 237.901 254.919C237.779 255.213 237.656 255.433 237.567 255.58C237.485 255.752 237.436 255.825 237.42 255.817Z" fill="#1E1E1E"/>
<path d="M211.91 215.961C211.804 216.019 209.999 212.728 207.876 208.621C205.753 204.513 204.12 201.141 204.218 201.084C204.324 201.027 206.129 204.318 208.252 208.425C210.375 212.54 212.008 215.912 211.91 215.961Z" fill="white"/>
<path d="M238.676 186.174C238.57 186.125 239.688 183.39 241.166 180.058C242.653 176.727 243.943 174.065 244.049 174.114C244.155 174.163 243.036 176.898 241.558 180.23C240.072 183.553 238.782 186.215 238.676 186.174Z" fill="white"/>
<path d="M264.879 205.51C264.789 205.583 263.107 203.705 261.131 201.313C259.147 198.92 257.62 196.92 257.71 196.846C257.8 196.773 259.482 198.651 261.458 201.043C263.442 203.436 264.969 205.436 264.879 205.51Z" fill="white"/>
<path d="M258.853 232.105C258.755 232.039 260.021 230.129 261.678 227.842C263.336 225.556 264.757 223.759 264.846 223.833C264.944 223.898 263.679 225.809 262.021 228.095C260.364 230.374 258.951 232.17 258.853 232.105Z" fill="white"/>
<path d="M250.737 269.674C250.688 269.699 250.312 269.078 249.781 268.033C249.242 266.988 248.548 265.526 247.854 263.885C247.152 262.235 246.589 260.725 246.205 259.614C245.829 258.504 245.633 257.802 245.69 257.785C245.748 257.769 246.042 258.43 246.491 259.508C247.005 260.733 247.593 262.154 248.246 263.721C248.916 265.281 249.528 266.686 250.059 267.91C250.516 268.972 250.794 269.641 250.737 269.674Z" fill="white"/>
<path d="M273.796 253.702C273.772 253.817 271.551 253.482 268.84 252.959C266.121 252.437 263.941 251.914 263.965 251.8C263.99 251.685 266.211 252.02 268.921 252.543C271.632 253.065 273.821 253.588 273.796 253.702Z" fill="white"/>
<path d="M291.679 218.599C291.589 218.517 293.712 216.1 296.406 213.185C299.101 210.278 301.363 207.984 301.444 208.066C301.534 208.147 299.411 210.564 296.717 213.479C294.022 216.386 291.768 218.681 291.679 218.599Z" fill="white"/>
<path d="M309.675 265.412C309.585 265.485 306.947 262.431 303.779 258.585C300.611 254.739 298.121 251.563 298.21 251.49C298.3 251.416 300.938 254.47 304.106 258.316C307.274 262.162 309.765 265.338 309.675 265.412Z" fill="white"/>
<path d="M197.98 245.463C198.037 245.577 195.628 246.802 192.999 248.819C190.361 250.82 188.54 252.828 188.442 252.739C188.401 252.706 188.802 252.159 189.553 251.35C190.296 250.55 191.406 249.505 192.737 248.484C194.068 247.472 195.375 246.68 196.346 246.165C197.326 245.659 197.955 245.414 197.98 245.463Z" fill="white"/>
<path d="M204.708 227.418C204.806 227.483 203.949 228.945 202.789 230.684C201.63 232.423 200.617 233.779 200.519 233.713C200.421 233.648 201.279 232.186 202.438 230.447C203.598 228.708 204.61 227.352 204.708 227.418Z" fill="white"/>
<path d="M219.871 245.137C219.782 245.194 218.924 243.765 218.483 241.781C218.026 239.805 218.181 238.147 218.287 238.155C218.418 238.155 218.459 239.764 218.9 241.683C219.324 243.61 219.986 245.08 219.871 245.137Z" fill="white"/>
<path d="M222.117 188.86C222.133 188.975 220.728 189.277 218.973 189.522C217.217 189.775 215.78 189.881 215.764 189.759C215.747 189.644 217.152 189.342 218.908 189.097C220.663 188.852 222.1 188.738 222.117 188.86Z" fill="white"/>
<path d="M233.5 168.667C233.557 168.774 232.324 169.566 230.748 170.439C229.172 171.313 227.841 171.942 227.792 171.836C227.735 171.729 228.968 170.937 230.544 170.064C232.12 169.19 233.442 168.569 233.5 168.667Z" fill="white"/>
<path d="M265.516 177.2C265.426 177.274 264.014 175.575 262.364 173.411C260.715 171.248 259.457 169.443 259.555 169.369C259.645 169.296 261.058 170.994 262.707 173.158C264.348 175.314 265.606 177.127 265.516 177.2Z" fill="white"/>
<path d="M306.156 197.5C306.074 197.573 304.588 196.046 303.216 193.825C301.828 191.604 301.118 189.604 301.216 189.563C301.33 189.514 302.212 191.416 303.576 193.605C304.931 195.785 306.254 197.418 306.156 197.5Z" fill="white"/>
<path d="M321.67 202.611C321.777 202.66 321.025 204.554 319.988 206.832C318.951 209.119 318.029 210.931 317.914 210.882C317.808 210.833 318.559 208.939 319.596 206.661C320.633 204.375 321.564 202.562 321.67 202.611Z" fill="white"/>
<path d="M323.834 181.438C323.744 181.511 321.899 179.445 319.71 176.816C317.522 174.187 315.824 171.99 315.914 171.917C316.003 171.843 317.849 173.909 320.037 176.539C322.225 179.176 323.924 181.364 323.834 181.438Z" fill="white"/>
<path d="M300.146 164.242C300.031 164.25 299.86 162.478 299.778 160.281C299.688 158.093 299.721 156.313 299.835 156.305C299.95 156.297 300.121 158.068 300.203 160.265C300.284 162.453 300.26 164.233 300.146 164.242Z" fill="white"/>
<path d="M319.465 163.172C319.482 163.286 317.22 163.686 314.427 164.062C311.627 164.437 309.348 164.641 309.332 164.527C309.316 164.413 311.569 164.013 314.37 163.637C317.163 163.262 319.449 163.049 319.465 163.172Z" fill="white"/>
<path d="M349.89 185.521C349.784 185.57 348.429 182.981 346.853 179.74C345.285 176.498 344.093 173.82 344.199 173.771C344.305 173.722 345.661 176.31 347.237 179.552C348.804 182.794 349.996 185.464 349.89 185.521Z" fill="white"/>
<path d="M344.762 204.832C344.647 204.807 344.966 202.725 345.472 200.186C345.978 197.638 346.484 195.597 346.599 195.621C346.713 195.646 346.395 197.728 345.888 200.267C345.382 202.807 344.876 204.848 344.762 204.832Z" fill="white"/>
<path d="M358.872 220.053C358.757 220.093 357.68 217.285 356.447 213.782C355.222 210.279 354.315 207.404 354.43 207.363C354.544 207.323 355.622 210.132 356.855 213.635C358.08 217.146 358.986 220.012 358.872 220.053Z" fill="white"/>
<path d="M356.912 228.953C356.888 229.059 354.936 228.651 352.789 227.475C350.633 226.315 349.221 224.903 349.302 224.829C349.384 224.731 350.886 225.972 352.993 227.107C355.083 228.251 356.945 228.83 356.912 228.953Z" fill="white"/>
<path d="M374.991 249.26C374.884 249.309 374.231 248.068 373.529 246.492C372.827 244.916 372.345 243.602 372.451 243.553C372.557 243.504 373.211 244.745 373.913 246.321C374.615 247.897 375.097 249.211 374.991 249.26Z" fill="white"/>
<path d="M268.219 277.578C268.105 277.594 267.819 275.97 267.582 273.961C267.345 271.952 267.255 270.311 267.37 270.295C267.484 270.278 267.77 271.903 268.007 273.912C268.243 275.921 268.333 277.562 268.219 277.578Z" fill="white"/>
<path d="M323.687 276.174C323.573 276.149 323.809 274.565 324.218 272.638C324.626 270.711 325.051 269.168 325.165 269.192C325.279 269.217 325.042 270.801 324.634 272.728C324.226 274.655 323.801 276.198 323.687 276.174Z" fill="white"/>
<path d="M334.318 114.261L341.488 101.621C338.311 96.4682 336.482 90.4095 336.482 83.9179C336.482 65.2435 351.621 50.1047 370.295 50.1047C388.97 50.1047 404.109 65.2435 404.109 83.9179C404.109 102.592 388.97 117.731 370.295 117.731C362.497 117.731 355.32 115.085 349.604 110.652L349.612 110.668L334.318 114.261Z" fill="#FAFAFA"/>
<path d="M334.318 114.261C335.045 114.098 339.887 112.987 349.637 110.758L349.792 110.725L349.694 110.595L349.686 110.578L349.539 110.725C351.466 112.219 353.777 113.689 356.496 114.922C359.215 116.131 362.334 117.111 365.772 117.568C367.486 117.788 369.283 117.927 371.128 117.837C372.051 117.788 372.99 117.764 373.937 117.682C374.876 117.543 375.832 117.396 376.795 117.249C380.625 116.49 384.536 115.037 388.194 112.775C391.844 110.513 395.225 107.451 397.935 103.687C400.638 99.9223 402.688 95.4639 403.651 90.6218C404.599 85.7797 404.525 80.5946 403.251 75.5729C401.969 70.5674 399.577 65.6845 396 61.6671L394.62 60.1483C394.163 59.6339 393.624 59.2174 393.134 58.7438C392.62 58.3029 392.154 57.7966 391.599 57.4047L389.974 56.188C389.452 55.7634 388.872 55.4205 388.292 55.0775C387.72 54.7264 387.149 54.3835 386.577 54.0324C385.973 53.7384 385.377 53.4526 384.781 53.1587C384.177 52.881 383.597 52.5544 382.968 52.3503C378.053 50.3987 372.819 49.6557 367.805 50.0231C362.791 50.3824 357.998 51.8195 353.891 54.1385C349.767 56.433 346.289 59.5032 343.602 62.9246C340.908 66.354 339.013 70.1265 337.838 73.8908C336.67 77.6714 336.352 81.4193 336.368 84.8896C336.466 88.3681 337.103 91.5772 338.025 94.3861C338.948 97.2032 340.165 99.6283 341.414 101.662V101.564C336.882 109.68 334.669 113.64 334.318 114.261C334.678 113.64 336.939 109.713 341.577 101.67L341.61 101.621L341.577 101.572C340.344 99.5385 339.152 97.1215 338.246 94.3208C337.348 91.52 336.727 88.3436 336.646 84.8896C336.646 81.4438 336.972 77.7367 338.14 73.9969C339.316 70.2735 341.202 66.5419 343.872 63.1532C346.534 59.7727 349.98 56.7433 354.062 54.4815C358.129 52.1951 362.873 50.7825 367.821 50.4314C372.77 50.0803 377.946 50.8152 382.797 52.7422C383.417 52.9382 383.989 53.2648 384.585 53.5424C385.173 53.8282 385.769 54.114 386.357 54.408C386.92 54.7509 387.484 55.0939 388.047 55.4368C388.619 55.7798 389.19 56.1146 389.705 56.5392L391.305 57.7395C391.852 58.1233 392.309 58.6214 392.816 59.0623C393.298 59.5277 393.836 59.9442 394.286 60.4504L395.649 61.9529C399.185 65.9213 401.545 70.7471 402.81 75.6872C404.068 80.6436 404.149 85.7715 403.219 90.5565C402.271 95.3414 400.254 99.759 397.584 103.474C394.914 107.206 391.575 110.243 387.965 112.481C384.356 114.734 380.486 116.18 376.697 116.939C375.742 117.086 374.795 117.233 373.872 117.372C372.933 117.454 372.002 117.478 371.096 117.535C369.267 117.633 367.486 117.494 365.788 117.282C362.375 116.841 359.28 115.878 356.577 114.694C353.875 113.485 351.572 112.04 349.645 110.57L349.016 110.088L349.498 110.717L349.506 110.733L349.563 110.57C339.871 112.914 335.045 114.089 334.318 114.261Z" fill="#263238"/>
<path d="M379.424 82.5053C379.424 84.3262 380.902 85.8123 382.731 85.8123C384.56 85.8123 386.038 84.3343 386.038 82.5053C386.038 80.6844 384.56 79.1982 382.731 79.1982C380.902 79.1982 379.424 80.6762 379.424 82.5053Z" fill="#263238"/>
<path d="M366.204 82.5053C366.204 84.3262 367.682 85.8123 369.511 85.8123C371.34 85.8123 372.818 84.3343 372.818 82.5053C372.818 80.6844 371.34 79.1982 369.511 79.1982C367.682 79.1982 366.204 80.6762 366.204 82.5053Z" fill="#263238"/>
<path d="M353.009 80.8561C352.094 82.4402 352.641 84.4571 354.217 85.3716C355.801 86.2861 357.818 85.739 358.733 84.1631C359.647 82.579 359.1 80.5621 357.524 79.6476C355.948 78.7331 353.923 79.272 353.009 80.8561Z" fill="#263238"/>
</svg>
