<svg width="293" height="296" viewBox="0 0 293 296" fill="none" xmlns="http://www.w3.org/2000/svg">
<path d="M198.31 288.149C177.776 300.526 163.127 295.388 157.519 285.463C146.674 266.27 110.613 227.021 53.4671 213.755C-22.2192 196.186 -6.41321 149.535 40.1143 125.055C86.6417 100.575 121.431 66.7022 116.166 29.8716C110.9 -6.95902 163.07 -19.6557 186.271 51.1939C201.264 96.9797 228.132 109.246 245.265 112.194C261.413 114.973 279.076 118.46 287.69 132.398C298.142 149.31 294.495 166.417 250.734 178.151C188.721 194.778 244.336 260.406 198.31 288.149Z" fill="#5928E5" fill-opacity="0.05"/>
<path d="M251.662 207.901C250.793 207.403 240.985 203.251 192.191 225.998C192.333 226.192 192.394 226.283 192.394 226.283C192.394 226.283 243.12 243.366 253.058 222.321C256.026 216.056 255.176 211.742 251.747 207.949L251.662 207.901Z" fill="#9672FF"/>
<path d="M87.6631 216.509C98.264 225.421 114.889 231.889 130.93 223.288C128.395 221.668 125.777 220 123.106 218.274C106.997 207.923 92.8071 214.849 87.6631 216.509Z" fill="#9672FF"/>
<path d="M68.6742 106.9C57.8434 197.088 83.5824 213.456 86.4478 215.942C87.2773 216.662 87.6136 216.609 88.8678 216.286L88.8892 216.298C94.1976 214.891 106.996 207.923 123.106 218.272C125.776 219.998 128.395 221.666 130.93 223.286C147.363 233.709 160.634 241.054 170.196 236.791C178.305 232.654 185.617 229.073 192.191 225.998C240.985 203.251 250.793 207.403 251.662 207.9C250.654 207.351 241.404 202.224 228.949 193.207C228.907 193.183 228.864 193.159 228.855 193.125C212.208 181.061 189.913 162.048 173.888 137.591C162.979 120.96 152.306 78.7987 131.714 70.5262C89.3934 54.7385 70.4314 88.5556 68.6742 106.9Z" fill="#5928E5" fill-opacity="0.43"/>
<path d="M115.468 105.318C114.154 101.849 114.282 98.5852 115.754 98.0279C117.226 97.4705 119.483 99.8308 120.797 103.3C122.111 106.769 121.983 110.032 120.511 110.59C119.04 111.147 116.782 108.787 115.468 105.318Z" fill="white"/>
<path d="M88.5226 109.744C87.5916 106.153 88.0717 102.923 89.595 102.528C91.1182 102.133 93.1078 104.723 94.0388 108.314C94.9699 111.904 94.4898 115.135 92.9665 115.53C91.4432 115.925 89.4536 113.335 88.5226 109.744Z" fill="white"/>
<path d="M104.926 122.927C105.146 122.927 105.36 122.851 105.532 122.713C105.704 122.574 105.823 122.381 105.87 122.165C106.042 121.384 106.81 119.073 108.027 118.73C109.243 118.386 111.63 119.72 112.596 120.419C112.804 120.57 113.063 120.632 113.316 120.591C113.569 120.551 113.796 120.411 113.947 120.203C114.097 119.995 114.159 119.736 114.119 119.483C114.078 119.229 113.939 119.002 113.731 118.852C113.35 118.576 109.942 116.179 107.501 116.867C104.956 117.586 104.072 121.329 103.98 121.753C103.949 121.895 103.95 122.041 103.983 122.182C104.017 122.323 104.081 122.454 104.172 122.567C104.263 122.679 104.377 122.77 104.508 122.833C104.638 122.895 104.781 122.927 104.926 122.927H104.926Z" fill="white"/>
</svg>
