<svg width="31" height="21" viewBox="0 0 31 21" fill="none" xmlns="http://www.w3.org/2000/svg">
<path d="M15.3379 2.72674C20.6226 2.72674 25.3355 5.63073 27.6362 10.2253C25.3355 14.8199 20.6365 17.7238 15.3379 17.7238C10.0394 17.7238 5.34039 14.8199 3.0397 10.2253C5.34039 5.63073 10.0533 2.72674 15.3379 2.72674ZM15.3379 0C8.36615 0 2.41224 4.24009 0 10.2253C2.41224 16.2105 8.36615 20.4506 15.3379 20.4506C22.3097 20.4506 28.2636 16.2105 30.6759 10.2253C28.2636 4.24009 22.3097 0 15.3379 0ZM15.3379 6.81686C17.2621 6.81686 18.8238 8.34384 18.8238 10.2253C18.8238 12.1067 17.2621 13.6337 15.3379 13.6337C13.4137 13.6337 11.852 12.1067 11.852 10.2253C11.852 8.34384 13.4137 6.81686 15.3379 6.81686ZM15.3379 4.09012C11.8799 4.09012 9.06332 6.84413 9.06332 10.2253C9.06332 13.6065 11.8799 16.3605 15.3379 16.3605C18.7959 16.3605 21.6125 13.6065 21.6125 10.2253C21.6125 6.84413 18.7959 4.09012 15.3379 4.09012Z" fill="#6B6D7C"/>
</svg>
