
<svg width="22" height="24" viewBox="0 0 22 24" fill="none" xmlns="http://www.w3.org/2000/svg">
<path fill-rule="evenodd" clip-rule="evenodd" d="M0.5 3.375C0.5 2.47989 0.855579 1.62145 1.48851 0.988515C2.12145 0.355579 2.97989 0 3.875 0L11.0645 0C11.561 0 12.0395 0.198 12.3905 0.549L17.201 5.3595C17.315 5.4735 17.4125 5.601 17.4935 5.739C17.6053 5.79382 17.7071 5.86682 17.795 5.955L20.951 9.1095C21.302 9.462 21.5 9.939 21.5 10.4355V20.625C21.5 21.5201 21.1444 22.3785 20.5115 23.0115C19.8785 23.6444 19.0201 24 18.125 24H7.625C6.72989 24 5.87145 23.6444 5.23851 23.0115C4.60558 22.3785 4.25 21.5201 4.25 20.625V20.25H3.875C2.97989 20.25 2.12145 19.8944 1.48851 19.2615C0.855579 18.6285 0.5 17.7701 0.5 16.875V3.375ZM3.875 2.25C3.57663 2.25 3.29048 2.36853 3.0795 2.5795C2.86853 2.79048 2.75 3.07663 2.75 3.375V16.875C2.75 17.496 3.254 18 3.875 18H14.375C14.6734 18 14.9595 17.8815 15.1705 17.6705C15.3815 17.4595 15.5 17.1734 15.5 16.875V9H10.625C10.3266 9 10.0405 8.88147 9.8295 8.6705C9.61853 8.45952 9.5 8.17337 9.5 7.875V2.25H3.875ZM11.75 3.09V6.75H15.41L11.75 3.09ZM17.75 16.875V9.09L19.25 10.59V20.625C19.25 20.9234 19.1315 21.2095 18.9205 21.4205C18.7095 21.6315 18.4234 21.75 18.125 21.75H7.625C7.32663 21.75 7.04048 21.6315 6.8295 21.4205C6.61853 21.2095 6.5 20.9234 6.5 20.625V20.25H14.375C15.2701 20.25 16.1285 19.8944 16.7615 19.2615C17.3944 18.6285 17.75 17.7701 17.75 16.875Z" fill="#5928E5"/>
</svg>
