<svg width="23" height="20" viewBox="0 0 23 20" fill="none" xmlns="http://www.w3.org/2000/svg">
<path d="M8.625 2.5H1.4375C0.643641 2.5 0 3.05969 0 3.75V7.5C0 8.19031 0.643641 8.75 1.4375 8.75C2.23136 8.75 2.875 8.19031 2.875 7.5V5H8.625C9.41886 5 10.0625 4.44031 10.0625 3.75C10.0625 3.05969 9.41886 2.5 8.625 2.5Z" fill="white"/>
<path d="M21.5625 2.5H14.375C13.5811 2.5 12.9375 3.05969 12.9375 3.75C12.9375 4.44031 13.5811 5 14.375 5H20.125V7.5C20.125 8.19031 20.7686 8.75 21.5625 8.75C22.3564 8.75 23 8.19031 23 7.5V3.75C23 3.05969 22.3564 2.5 21.5625 2.5Z" fill="white"/>
<path d="M21.5625 11.25C20.7686 11.25 20.125 11.8097 20.125 12.5V15H14.375C13.5811 15 12.9375 15.5597 12.9375 16.25C12.9375 16.9403 13.5811 17.5 14.375 17.5H21.5625C22.3564 17.5 23 16.9403 23 16.25V12.5C23 11.8097 22.3564 11.25 21.5625 11.25Z" fill="white"/>
<path d="M8.625 15H2.875V12.5C2.875 11.8097 2.23136 11.25 1.4375 11.25C0.643641 11.25 0 11.8097 0 12.5V16.25C0 16.9403 0.643641 17.5 1.4375 17.5H8.625C9.41886 17.5 10.0625 16.9403 10.0625 16.25C10.0625 15.5597 9.41886 15 8.625 15Z" fill="white"/>
</svg>
