<svg width="128" height="40" viewBox="0 0 128 40" fill="none" xmlns="http://www.w3.org/2000/svg">
<g clip-path="url(#clip0_1737_50793)">
<path d="M123.259 39.9173H4.74074C2.08593 39.9173 0 37.6792 0 34.8307V4.31087C0 1.46236 2.08593 -0.775757 4.74074 -0.775757H123.259C125.914 -0.775757 128 1.46236 128 4.31087V34.8307C128 37.6792 125.914 39.9173 123.259 39.9173Z" fill="black"/>
<path d="M123.259 0.0381042C125.44 0.0381042 127.241 1.97102 127.241 4.31087V34.8307C127.241 37.1705 125.44 39.1034 123.259 39.1034H4.74074C2.56 39.1034 0.758519 37.1705 0.758519 34.8307V4.31087C0.758519 1.97102 2.56 0.0381042 4.74074 0.0381042H123.259ZM123.259 -0.775757H4.74074C2.08593 -0.775757 0 1.56409 0 4.31087V34.8307C0 37.6792 2.08593 39.9173 4.74074 39.9173H123.259C125.914 39.9173 128 37.6792 128 34.8307V4.31087C128 1.56409 125.914 -0.775757 123.259 -0.775757Z" fill="#A6A6A6"/>
<path d="M44.9428 9.60107C44.9428 10.4149 44.7532 11.1271 44.2791 11.6357C43.7102 12.2461 43.0465 12.5513 42.1932 12.5513C41.3398 12.5513 40.6761 12.2461 40.1072 11.6357C39.5383 11.0253 39.2539 10.3132 39.2539 9.39761C39.2539 8.48201 39.5383 7.76989 40.1072 7.15949C40.6761 6.54909 41.3398 6.2439 42.1932 6.2439C42.5724 6.2439 42.9517 6.34563 43.3309 6.54909C43.7102 6.75256 43.9946 6.95602 44.1843 7.26122L43.7102 7.76989C43.3309 7.26122 42.8569 7.05776 42.1932 7.05776C41.6243 7.05776 41.0554 7.26122 40.6761 7.76989C40.2021 8.17682 40.0124 8.78721 40.0124 9.49934C40.0124 10.2115 40.2021 10.8219 40.6761 11.2288C41.1502 11.6357 41.6243 11.9409 42.1932 11.9409C42.8569 11.9409 43.3309 11.7375 43.805 11.2288C44.0895 10.9236 44.2791 10.5167 44.2791 10.008H42.1932V9.19414H44.9428V9.60107ZM49.3043 7.05776H46.7443V8.99068H49.1146V9.70281H46.7443V11.6357H49.3043V12.4496H45.9858V6.34563H49.3043V7.05776ZM52.4332 12.4496H51.6746V7.05776H50.0628V6.34563H54.045V7.05776H52.4332V12.4496ZM56.7946 12.4496V6.34563H57.5532V12.4496H56.7946ZM60.7769 12.4496H60.0183V7.05776H58.4065V6.34563H62.2939V7.05776H60.6821V12.4496H60.7769ZM69.7843 11.6357C69.2154 12.2461 68.5517 12.5513 67.6984 12.5513C66.845 12.5513 66.1813 12.2461 65.6124 11.6357C65.0435 11.0253 64.7591 10.3132 64.7591 9.39761C64.7591 8.48201 65.0435 7.76989 65.6124 7.15949C66.1813 6.54909 66.845 6.2439 67.6984 6.2439C68.5517 6.2439 69.2154 6.54909 69.7843 7.15949C70.3532 7.76989 70.6376 8.48201 70.6376 9.39761C70.6376 10.3132 70.3532 11.0253 69.7843 11.6357ZM66.1813 11.1271C66.5606 11.534 67.1295 11.8392 67.6984 11.8392C68.2672 11.8392 68.8361 11.6357 69.2154 11.1271C69.5946 10.7201 69.8791 10.1097 69.8791 9.39761C69.8791 8.68548 69.6895 8.07508 69.2154 7.66815C68.8361 7.26122 68.2672 6.95602 67.6984 6.95602C67.1295 6.95602 66.5606 7.15949 66.1813 7.66815C65.8021 8.07508 65.5176 8.68548 65.5176 9.39761C65.5176 10.1097 65.7072 10.7201 66.1813 11.1271ZM71.6806 12.4496V6.34563H72.5339L75.2835 11.1271V6.34563H76.042V12.4496H75.2835L72.3443 7.46469V12.4496H71.6806Z" fill="white"/>
<path d="M64.5687 21.402C62.2932 21.402 60.4917 23.2332 60.4917 25.7765C60.4917 28.2181 62.2932 30.151 64.5687 30.151C66.8443 30.151 68.6458 28.3199 68.6458 25.7765C68.6458 23.1315 66.8443 21.402 64.5687 21.402ZM64.5687 28.3199C63.3362 28.3199 62.2932 27.2008 62.2932 25.6748C62.2932 24.1488 63.3362 23.0298 64.5687 23.0298C65.8013 23.0298 66.8443 24.0471 66.8443 25.6748C66.8443 27.2008 65.8013 28.3199 64.5687 28.3199ZM55.751 21.402C53.4754 21.402 51.6739 23.2332 51.6739 25.7765C51.6739 28.2181 53.4754 30.151 55.751 30.151C58.0265 30.151 59.828 28.3199 59.828 25.7765C59.828 23.1315 58.0265 21.402 55.751 21.402ZM55.751 28.3199C54.5184 28.3199 53.4754 27.2008 53.4754 25.6748C53.4754 24.1488 54.5184 23.0298 55.751 23.0298C56.9836 23.0298 58.0265 24.0471 58.0265 25.6748C58.0265 27.2008 56.9836 28.3199 55.751 28.3199ZM45.2265 22.7246V24.5557H49.3036C49.2088 25.5731 48.8295 26.3869 48.3554 26.8956C47.7865 27.506 46.8384 28.2181 45.2265 28.2181C42.6665 28.2181 40.7702 26.0817 40.7702 23.335C40.7702 20.5882 42.7613 18.4518 45.2265 18.4518C46.5539 18.4518 47.5969 19.0622 48.3554 19.7743L49.588 18.4518C48.545 17.4345 47.2176 16.6206 45.3213 16.6206C41.908 16.6206 38.9688 19.6726 38.9688 23.335C38.9688 26.9973 41.908 30.0493 45.3213 30.0493C47.2176 30.0493 48.545 29.4389 49.6828 28.1164C50.8206 26.8956 51.1999 25.1661 51.1999 23.8436C51.1999 23.4367 51.1999 23.0298 51.105 22.7246H45.2265ZM88.2724 24.1488C87.8932 23.1315 86.945 21.402 84.8591 21.402C82.7732 21.402 81.0665 23.1315 81.0665 25.7765C81.0665 28.2181 82.7732 30.151 85.0487 30.151C86.8502 30.151 87.988 28.9303 88.3673 28.2181L87.0399 27.2008C86.5658 27.9129 85.9969 28.4216 85.0487 28.4216C84.1006 28.4216 83.5317 28.0147 83.0576 27.0991L88.4621 24.6575L88.2724 24.1488ZM82.7732 25.5731C82.7732 23.9454 84.0058 23.0298 84.8591 23.0298C85.5228 23.0298 86.1865 23.4367 86.3762 23.9454L82.7732 25.5731ZM78.3169 29.7441H80.1184V17.0275H78.3169V29.7441ZM75.4725 22.3176C74.9984 21.809 74.2399 21.3003 73.2917 21.3003C71.3006 21.3003 69.4043 23.2332 69.4043 25.6748C69.4043 28.1164 71.2058 29.9476 73.2917 29.9476C74.2399 29.9476 74.9984 29.4389 75.3776 28.9303H75.4725V29.5406C75.4725 31.1684 74.6191 32.084 73.2917 32.084C72.2488 32.084 71.4902 31.2701 71.3006 30.558L69.7836 31.2701C70.2576 32.3892 71.3954 33.8134 73.3865 33.8134C75.4725 33.8134 77.1791 32.4909 77.1791 29.3372V21.6055H75.4725V22.3176ZM73.3865 28.3199C72.1539 28.3199 71.111 27.2008 71.111 25.6748C71.111 24.1488 72.1539 23.0298 73.3865 23.0298C74.6191 23.0298 75.5673 24.1488 75.5673 25.6748C75.5673 27.2008 74.6191 28.3199 73.3865 28.3199ZM96.5213 17.0275H92.2547V29.7441H94.0562V24.9627H96.5213C98.5125 24.9627 100.409 23.4367 100.409 20.9951C100.409 18.5535 98.5125 17.0275 96.5213 17.0275ZM96.6162 23.1315H94.0562V18.757H96.6162C97.9436 18.757 98.7021 19.9778 98.7021 20.8934C98.6073 22.0124 97.8487 23.1315 96.6162 23.1315ZM107.52 21.3003C106.192 21.3003 104.865 21.9107 104.391 23.2332L106.003 23.9454C106.382 23.2332 106.951 23.0298 107.615 23.0298C108.563 23.0298 109.416 23.6402 109.511 24.6575V24.7592C109.227 24.5557 108.468 24.2506 107.709 24.2506C106.003 24.2506 104.296 25.2679 104.296 27.0991C104.296 28.8285 105.718 29.9476 107.235 29.9476C108.468 29.9476 109.037 29.3372 109.511 28.7268H109.606V29.7441H111.312V24.8609C111.123 22.6228 109.511 21.3003 107.52 21.3003ZM107.33 28.3199C106.761 28.3199 105.908 28.0147 105.908 27.2008C105.908 26.1835 106.951 25.8783 107.804 25.8783C108.563 25.8783 108.942 26.0817 109.416 26.2852C109.227 27.506 108.278 28.3199 107.33 28.3199ZM117.286 21.6055L115.295 27.0991H115.2L113.114 21.6055H111.218L114.347 29.3372L112.545 33.61H114.347L119.182 21.6055H117.286ZM101.357 29.7441H103.158V17.0275H101.357V29.7441Z" fill="white"/>
<path d="M9.85973 6.85425C9.57528 7.15945 9.48047 7.66811 9.48047 8.2785V30.7614C9.48047 31.3718 9.6701 31.8805 9.95454 32.1857L10.0494 32.2874L21.8064 19.6726V19.4691L9.85973 6.85425Z" fill="url(#paint0_linear_1737_50793)"/>
<path d="M25.5983 23.9454L21.7109 19.7743V19.4691L25.5983 15.2981L25.6932 15.3998L30.3391 18.2483C31.6665 19.0622 31.6665 20.3847 30.3391 21.1986L25.5983 23.9454Z" fill="url(#paint1_linear_1737_50793)"/>
<path d="M25.6934 23.8436L21.7112 19.5708L9.85938 32.2874C10.3334 32.796 10.9972 32.796 11.8505 32.3891L25.6934 23.8436Z" fill="url(#paint2_linear_1737_50793)"/>
<path d="M25.6934 15.2981L11.8505 6.85432C10.9972 6.34566 10.3334 6.44739 9.85938 6.95605L21.7112 19.5709L25.6934 15.2981Z" fill="url(#paint3_linear_1737_50793)"/>
<path opacity="0.2" d="M25.5986 23.7419L11.8505 32.084C11.092 32.5927 10.4283 32.4909 9.95419 32.084L9.85938 32.1858L9.95419 32.2875C10.4283 32.6944 11.092 32.7961 11.8505 32.2875L25.5986 23.7419Z" fill="black"/>
<path opacity="0.12" d="M9.85973 32.0839C9.57528 31.7787 9.48047 31.2701 9.48047 30.6597V30.7614C9.48047 31.3718 9.6701 31.8805 9.95454 32.1856V32.0839H9.85973ZM30.3397 20.8933L25.599 23.7418L25.6938 23.8436L30.3397 20.9951C31.0034 20.5881 31.2879 20.0795 31.2879 19.5708C31.2879 20.0795 30.9086 20.4864 30.3397 20.8933Z" fill="black"/>
<path opacity="0.25" d="M11.8508 6.95602L30.3397 18.2483C30.9086 18.6553 31.2879 19.0622 31.2879 19.5709C31.2879 19.0622 31.0034 18.5535 30.3397 18.1466L11.8508 6.85428C10.5234 6.04042 9.48047 6.65082 9.48047 8.27854V8.38027C9.48047 6.85428 10.5234 6.14216 11.8508 6.95602Z" fill="white"/>
</g>
<defs>
<linearGradient id="paint0_linear_1737_50793" x1="20.6686" y1="8.08521" x2="3.63715" y2="23.9576" gradientUnits="userSpaceOnUse">
<stop stop-color="#00A0FF"/>
<stop offset="0.007" stop-color="#00A1FF"/>
<stop offset="0.26" stop-color="#00BEFF"/>
<stop offset="0.512" stop-color="#00D2FF"/>
<stop offset="0.76" stop-color="#00DFFF"/>
<stop offset="1" stop-color="#00E3FF"/>
</linearGradient>
<linearGradient id="paint1_linear_1737_50793" x1="32.078" y1="19.5719" x2="9.13565" y2="19.5719" gradientUnits="userSpaceOnUse">
<stop stop-color="#FFE000"/>
<stop offset="0.409" stop-color="#FFBD00"/>
<stop offset="0.775" stop-color="#FFA500"/>
<stop offset="1" stop-color="#FF9C00"/>
</linearGradient>
<linearGradient id="paint2_linear_1737_50793" x1="23.5383" y1="21.9066" x2="0.443288" y2="43.4311" gradientUnits="userSpaceOnUse">
<stop stop-color="#FF3A44"/>
<stop offset="1" stop-color="#C31162"/>
</linearGradient>
<linearGradient id="paint3_linear_1737_50793" x1="6.91727" y1="-0.596579" x2="17.2308" y2="9.01561" gradientUnits="userSpaceOnUse">
<stop stop-color="#32A071"/>
<stop offset="0.069" stop-color="#2DA771"/>
<stop offset="0.476" stop-color="#15CF74"/>
<stop offset="0.801" stop-color="#06E775"/>
<stop offset="1" stop-color="#00F076"/>
</linearGradient>
<clipPath id="clip0_1737_50793">
<rect width="128" height="40" fill="white"/>
</clipPath>
</defs>
</svg>
