<svg width="22" height="28" viewBox="0 0 22 28" fill="none" xmlns="http://www.w3.org/2000/svg">
<g clip-path="url(#clip0_1718_49629)">
<path d="M0 13.9942C0 15.6003 0.287581 17.1142 0.862744 18.536C1.43791 19.9576 2.23235 21.2083 3.24607 22.288C4.2598 23.3677 5.4299 24.2149 6.75636 24.8297C8.08283 25.4445 9.49737 25.7519 11 25.7519C12.5026 25.7519 13.9172 25.4445 15.2436 24.8297C16.5701 24.2149 17.7402 23.3677 18.7539 22.288C19.7676 21.2083 20.5621 19.9576 21.1372 18.536C21.7124 17.1142 22 15.6003 22 13.9942C22 12.5802 21.7735 11.2354 21.3205 9.95972C20.8676 8.68405 20.2367 7.52942 19.4279 6.49581C18.6191 5.46222 17.6736 4.59769 16.5916 3.90221C15.5096 3.20674 14.3395 2.72452 13.0814 2.45555V0.818701C13.0814 0.403724 12.9699 0.146285 12.7471 0.046383C12.5242 -0.0535188 12.2653 0.00795922 11.9705 0.230817L8.53038 2.80137C8.27875 2.9858 8.15293 3.20097 8.15293 3.44688C8.15293 3.6928 8.27875 3.91181 8.53038 4.10394L11.9598 6.68602C12.2546 6.91655 12.5152 6.97995 12.7417 6.87621C12.9681 6.77247 13.0814 6.51311 13.0814 6.09813V4.46128C14.1023 4.70719 15.0423 5.12217 15.9014 5.70621C16.7606 6.29025 17.5083 7.00493 18.1446 7.85025C18.7809 8.69557 19.2751 9.63888 19.6274 10.6802C19.9797 11.7214 20.1559 12.8261 20.1559 13.9942C20.1559 15.3544 19.9204 16.6282 19.4495 17.8155C18.9786 19.0028 18.3244 20.0441 17.4868 20.9393C16.6492 21.8346 15.6768 22.5339 14.5696 23.0372C13.4625 23.5406 12.2726 23.7923 11 23.7923C9.72744 23.7923 8.53577 23.5406 7.42499 23.0372C6.3142 22.5339 5.34002 21.8346 4.50245 20.9393C3.66486 20.0441 3.01061 19.0028 2.5397 17.8155C2.06879 16.6282 1.83334 15.3544 1.83334 13.9942C1.83334 12.903 1.9915 11.8636 2.30784 10.8761C2.62418 9.88864 3.06634 8.9876 3.63431 8.17301C4.20228 7.35843 4.86732 6.65911 5.62941 6.07508C5.85228 5.89833 5.99427 5.68315 6.05539 5.42955C6.1165 5.17596 6.07875 4.93005 5.94215 4.69182C5.80555 4.46127 5.60783 4.32103 5.34901 4.27108C5.09019 4.22113 4.84215 4.29221 4.60489 4.48433C3.67745 5.19901 2.86863 6.0501 2.17843 7.03759C1.48824 8.02508 0.952616 9.10863 0.571568 10.2882C0.190523 11.4679 0 12.7032 0 13.9942ZM8.04509 18.7088C8.25359 18.7088 8.42074 18.6377 8.54656 18.4956C8.67238 18.3534 8.73529 18.1593 8.73529 17.9134V10.6629C8.73529 10.3785 8.66878 10.1538 8.53577 9.98854C8.40277 9.82332 8.21404 9.74071 7.9696 9.74071C7.81862 9.74071 7.68202 9.76953 7.55979 9.82716C7.43757 9.88479 7.27581 9.98277 7.0745 10.1211L5.58626 11.1931C5.46405 11.2853 5.37418 11.3852 5.31666 11.4928C5.25914 11.6004 5.23039 11.7234 5.23039 11.8617C5.23039 12.0538 5.2915 12.219 5.41371 12.3574C5.53594 12.4957 5.68332 12.5649 5.85587 12.5649C5.95652 12.5649 6.041 12.5514 6.10931 12.5245C6.17761 12.4976 6.26568 12.4419 6.37352 12.3574L7.40881 11.5505H7.37646V17.9134C7.37646 18.1516 7.43757 18.3438 7.55979 18.4898C7.68202 18.6358 7.84378 18.7088 8.04509 18.7088ZM13.6637 18.8471C14.2604 18.8471 14.7817 18.6569 15.2275 18.2765C15.6732 17.8961 16.0183 17.364 16.2628 16.68C16.5072 15.9961 16.6294 15.1931 16.6294 14.2709C16.6294 13.341 16.5072 12.5302 16.2628 11.8386C16.0183 11.147 15.6732 10.6091 15.2275 10.2248C14.7817 9.8406 14.2604 9.64849 13.6637 9.64849C12.7722 9.64849 12.055 10.0692 11.5122 10.9107C10.9694 11.7522 10.698 12.8722 10.698 14.2709C10.698 15.6541 10.9694 16.7627 11.5122 17.5965C12.055 18.4302 12.7722 18.8471 13.6637 18.8471ZM13.6637 17.4524C13.1892 17.4524 12.8099 17.168 12.526 16.5993C12.242 16.0307 12.0999 15.2545 12.0999 14.2709C12.0999 13.2642 12.2402 12.4746 12.5206 11.902C12.801 11.3295 13.182 11.0433 13.6637 11.0433C14.1454 11.0433 14.5246 11.3276 14.8014 11.8963C15.0782 12.465 15.2167 13.2565 15.2167 14.2709C15.2167 15.2545 15.0764 16.0307 14.796 16.5993C14.5157 17.168 14.1382 17.4524 13.6637 17.4524Z" fill="white"/>
</g>
<defs>
<clipPath id="clip0_1718_49629">
<rect width="22" height="28" fill="white"/>
</clipPath>
</defs>
</svg>
