<svg width="22" height="28" viewBox="0 0 22 28" fill="none" xmlns="http://www.w3.org/2000/svg">
<g clip-path="url(#clip0_1718_49625)">
<path d="M0 13.9942C0 15.6008 0.287581 17.1152 0.862744 18.5372C1.43791 19.9593 2.23235 21.2103 3.24607 22.2903C4.2598 23.3704 5.4299 24.2178 6.75636 24.8328C8.08283 25.4477 9.49737 25.7552 11 25.7552C12.5026 25.7552 13.9172 25.4477 15.2436 24.8328C16.5701 24.2178 17.7402 23.3704 18.7539 22.2903C19.7676 21.2103 20.5621 19.9593 21.1372 18.5372C21.7124 17.1152 22 15.6008 22 13.9942C22 12.7028 21.8095 11.4672 21.4284 10.2873C21.0473 9.10732 20.5117 8.02347 19.8215 7.03569C19.1313 6.04793 18.3225 5.19661 17.3951 4.48173C17.1578 4.28956 16.9098 4.21845 16.6509 4.26841C16.3922 4.31838 16.1944 4.45867 16.0578 4.68927C15.9212 4.92756 15.8835 5.17354 15.9446 5.42722C16.0057 5.68088 16.1477 5.89611 16.3705 6.07291C17.1327 6.65711 17.7977 7.35663 18.3657 8.17144C18.9336 8.98625 19.3757 9.88754 19.6921 10.8753C20.0084 11.8631 20.1666 12.9027 20.1666 13.9942C20.1666 15.3549 19.9312 16.629 19.4603 17.8165C18.9893 19.0042 18.3351 20.0457 17.4975 20.9413C16.6599 21.8368 15.6857 22.5363 14.5749 23.0399C13.4642 23.5433 12.2726 23.795 11 23.795C9.72744 23.795 8.53757 23.5433 7.43039 23.0399C6.3232 22.5363 5.35081 21.8368 4.51322 20.9413C3.67565 20.0457 3.0214 19.0042 2.55049 17.8165C2.07957 16.629 1.84411 15.3549 1.84411 13.9942C1.84411 12.8259 2.02026 11.7209 2.37255 10.6793C2.72483 9.63771 3.21911 8.69415 3.85539 7.84859C4.49166 7.00303 5.24117 6.28814 6.10391 5.70394C6.96666 5.11974 7.90489 4.70465 8.91861 4.45867V6.1075C8.91861 6.51491 9.03185 6.7705 9.25832 6.87427C9.48479 6.97804 9.74542 6.91847 10.0402 6.69556L13.4803 4.11276C13.7248 3.93596 13.8488 3.72265 13.8524 3.47283C13.856 3.223 13.732 3.00584 13.4803 2.82136L10.051 0.238558C9.74901 0.00795187 9.48479 -0.0554649 9.25832 0.0483082C9.03185 0.152082 8.91861 0.411514 8.91861 0.826606V2.45239C7.66045 2.72142 6.49035 3.20377 5.40833 3.89944C4.3263 4.5951 3.38087 5.45988 2.57205 6.49377C1.76323 7.52766 1.13235 8.68262 0.679411 9.95864C0.22647 11.2347 0 12.5799 0 13.9942ZM7.99117 18.7102C8.19966 18.7102 8.36682 18.6391 8.49264 18.4968C8.61845 18.3547 8.68136 18.1606 8.68136 17.9146V10.662C8.68136 10.3776 8.61486 10.1527 8.48185 9.98746C8.34884 9.8222 8.16012 9.73956 7.91568 9.73956C7.7647 9.73956 7.6281 9.76838 7.50588 9.82604C7.38365 9.88369 7.22189 9.9817 7.02058 10.1201L5.53235 11.1924C5.41013 11.2846 5.32025 11.3846 5.26273 11.4922C5.20522 11.5998 5.17646 11.7228 5.17646 11.8611C5.17646 12.0533 5.23758 12.2185 5.3598 12.3569C5.48202 12.4953 5.62941 12.5645 5.80196 12.5645C5.9026 12.5645 5.98708 12.551 6.05539 12.5241C6.12368 12.4972 6.21176 12.4415 6.3196 12.3569L7.3549 11.5498H7.32254V17.9146C7.32254 18.1529 7.38365 18.345 7.50588 18.4911C7.6281 18.6371 7.78986 18.7102 7.99117 18.7102ZM13.6098 18.8486C14.2065 18.8486 14.7278 18.6583 15.1735 18.2778C15.6192 17.8973 15.9643 17.365 16.2088 16.6808C16.4533 15.9967 16.5755 15.1934 16.5755 14.271C16.5755 13.3409 16.4533 12.5299 16.2088 11.8381C15.9643 11.1463 15.6192 10.6082 15.1735 10.2238C14.7278 9.83949 14.2065 9.64732 13.6098 9.64732C12.7183 9.64732 12.0012 10.0682 11.4583 10.9099C10.9155 11.7516 10.6441 12.872 10.6441 14.271C10.6441 15.6546 10.9155 16.7634 11.4583 17.5975C12.0012 18.4315 12.7183 18.8486 13.6098 18.8486ZM13.6098 17.4533C13.1353 17.4533 12.756 17.1689 12.472 16.6002C12.188 16.0313 12.0461 15.2549 12.0461 14.271C12.0461 13.264 12.1863 12.4742 12.4667 11.9015C12.747 11.3288 13.1281 11.0425 13.6098 11.0425C14.0915 11.0425 14.4707 11.3269 14.7475 11.8957C15.0244 12.4646 15.1628 13.2564 15.1628 14.271C15.1628 15.2549 15.0225 16.0313 14.7421 16.6002C14.4618 17.1689 14.0843 17.4533 13.6098 17.4533Z" fill="white"/>
</g>
<defs>
<clipPath id="clip0_1718_49625">
<rect width="22" height="28" fill="white"/>
</clipPath>
</defs>
</svg>
