<svg width="20" height="18" viewBox="0 0 20 18" fill="none" xmlns="http://www.w3.org/2000/svg">
<rect width="18" height="16" transform="translate(1 1)" fill="white"/>
<path fill-rule="evenodd" clip-rule="evenodd" d="M10 2.97258C8.20061 0.871423 5.19377 0.222076 2.93923 2.1461C0.684679 4.07012 0.367269 7.28697 2.13778 9.56255C3.60984 11.4545 8.06481 15.4448 9.52491 16.7364C9.68821 16.8808 9.76991 16.9531 9.86521 16.9814C9.94831 17.0062 10.0393 17.0062 10.1225 16.9814C10.2178 16.9531 10.2994 16.8808 10.4628 16.7364C11.9229 15.4448 16.3778 11.4545 17.8499 9.56255C19.6204 7.28697 19.3417 4.04988 17.0484 2.1461C14.7551 0.242316 11.7994 0.871423 10 2.97258Z" fill="#5928E5" stroke="#5928E5" stroke-width="2" stroke-linecap="round" stroke-linejoin="round"/>
</svg>
