<svg width="32" height="33" viewBox="0 0 32 33" fill="none" xmlns="http://www.w3.org/2000/svg">
<g clip-path="url(#clip0_1464_1576)">
<path d="M16 3.384C20.272 3.384 20.7787 3.4 22.4667 3.47733C26.8027 3.67467 28.828 5.732 29.0253 10.036C29.1027 11.7227 29.1173 12.2293 29.1173 16.5013C29.1173 20.7747 29.1013 21.28 29.0253 22.9667C28.8267 27.2667 26.8067 29.328 22.4667 29.5253C20.7787 29.6027 20.2747 29.6187 16 29.6187C11.728 29.6187 11.2213 29.6027 9.53467 29.5253C5.188 29.3267 3.17333 27.26 2.976 22.9653C2.89867 21.2787 2.88267 20.7733 2.88267 16.5C2.88267 12.228 2.9 11.7227 2.976 10.0347C3.17467 5.732 5.19467 3.67333 9.53467 3.476C11.2227 3.4 11.728 3.384 16 3.384ZM16 0.5C11.6547 0.5 11.1107 0.518667 9.404 0.596C3.59333 0.862667 0.364 4.08667 0.0973333 9.90267C0.0186667 11.6107 0 12.1547 0 16.5C0 20.8453 0.0186667 21.3907 0.096 23.0973C0.362667 28.908 3.58667 32.1373 9.40267 32.404C11.1107 32.4813 11.6547 32.5 16 32.5C20.3453 32.5 20.8907 32.4813 22.5973 32.404C28.4027 32.1373 31.64 28.9133 31.9027 23.0973C31.9813 21.3907 32 20.8453 32 16.5C32 12.1547 31.9813 11.6107 31.904 9.904C31.6427 4.09867 28.4147 0.864 22.5987 0.597333C20.8907 0.518667 20.3453 0.5 16 0.5ZM16 8.284C11.4627 8.284 7.784 11.9627 7.784 16.5C7.784 21.0373 11.4627 24.7173 16 24.7173C20.5373 24.7173 24.216 21.0387 24.216 16.5C24.216 11.9627 20.5373 8.284 16 8.284ZM16 21.8333C13.0547 21.8333 10.6667 19.4467 10.6667 16.5C10.6667 13.5547 13.0547 11.1667 16 11.1667C18.9453 11.1667 21.3333 13.5547 21.3333 16.5C21.3333 19.4467 18.9453 21.8333 16 21.8333ZM24.5413 6.04C23.48 6.04 22.62 6.9 22.62 7.96C22.62 9.02 23.48 9.88 24.5413 9.88C25.6013 9.88 26.46 9.02 26.46 7.96C26.46 6.9 25.6013 6.04 24.5413 6.04Z" fill="white"/>
</g>
<defs>
<clipPath id="clip0_1464_1576">
<rect width="32" height="32" fill="white" transform="translate(0 0.5)"/>
</clipPath>
</defs>
</svg>
