<svg width="84" height="23" viewBox="0 0 84 23" fill="none" xmlns="http://www.w3.org/2000/svg">
<path d="M2.42 4.64C1.72933 4.64 1.15067 4.42533 0.684 3.996C0.236 3.548 0.012 2.99733 0.012 2.344C0.012 1.69067 0.236 1.14933 0.684 0.719999C1.15067 0.271999 1.72933 0.0479989 2.42 0.0479989C3.11067 0.0479989 3.68 0.271999 4.128 0.719999C4.59467 1.14933 4.828 1.69067 4.828 2.344C4.828 2.99733 4.59467 3.548 4.128 3.996C3.68 4.42533 3.11067 4.64 2.42 4.64ZM4.352 6.488V22H0.432V6.488H4.352Z" fill="#5928E5"/>
<path d="M12.145 18.892H18.585V22H8.22497V2.456H12.145V18.892ZM35.4965 13.908C35.4965 14.468 35.4592 14.972 35.3845 15.42H24.0445C24.1379 16.54 24.5299 17.4173 25.2205 18.052C25.9112 18.6867 26.7605 19.004 27.7685 19.004C29.2245 19.004 30.2605 18.3787 30.8765 17.128H35.1045C34.6565 18.6213 33.7979 19.8533 32.5285 20.824C31.2592 21.776 29.7005 22.252 27.8525 22.252C26.3592 22.252 25.0152 21.9253 23.8205 21.272C22.6445 20.6 21.7205 19.6573 21.0485 18.444C20.3952 17.2307 20.0685 15.8307 20.0685 14.244C20.0685 12.6387 20.3952 11.2293 21.0485 10.016C21.7019 8.80267 22.6165 7.86933 23.7925 7.216C24.9685 6.56267 26.3219 6.236 27.8525 6.236C29.3272 6.236 30.6432 6.55333 31.8005 7.188C32.9765 7.82267 33.8819 8.728 34.5165 9.904C35.1699 11.0613 35.4965 12.396 35.4965 13.908ZM31.4365 12.788C31.4179 11.78 31.0539 10.9773 30.3445 10.38C29.6352 9.764 28.7672 9.456 27.7405 9.456C26.7699 9.456 25.9485 9.75467 25.2765 10.352C24.6232 10.9307 24.2219 11.7427 24.0725 12.788H31.4365ZM37.3498 14.188C37.3498 12.62 37.6578 11.2293 38.2738 10.016C38.9084 8.80267 39.7578 7.86933 40.8218 7.216C41.9044 6.56267 43.1084 6.236 44.4338 6.236C45.5911 6.236 46.5991 6.46933 47.4578 6.936C48.3351 7.40267 49.0351 7.99067 49.5578 8.7V6.488H53.5058V22H49.5578V19.732C49.0538 20.46 48.3538 21.0667 47.4578 21.552C46.5804 22.0187 45.5631 22.252 44.4058 22.252C43.0991 22.252 41.9044 21.916 40.8218 21.244C39.7578 20.572 38.9084 19.6293 38.2738 18.416C37.6578 17.184 37.3498 15.7747 37.3498 14.188ZM49.5578 14.244C49.5578 13.292 49.3711 12.48 48.9978 11.808C48.6244 11.1173 48.1204 10.5947 47.4858 10.24C46.8511 9.86667 46.1698 9.68 45.4418 9.68C44.7138 9.68 44.0418 9.85733 43.4258 10.212C42.8098 10.5667 42.3058 11.0893 41.9138 11.78C41.5404 12.452 41.3538 13.2547 41.3538 14.188C41.3538 15.1213 41.5404 15.9427 41.9138 16.652C42.3058 17.3427 42.8098 17.8747 43.4258 18.248C44.0604 18.6213 44.7324 18.808 45.4418 18.808C46.1698 18.808 46.8511 18.6307 47.4858 18.276C48.1204 17.9027 48.6244 17.38 48.9978 16.708C49.3711 16.0173 49.5578 15.196 49.5578 14.244ZM61.2543 8.896C61.7583 8.07467 62.4117 7.43067 63.2143 6.964C64.0357 6.49733 64.969 6.264 66.0143 6.264V10.38H64.9783C63.7463 10.38 62.813 10.6693 62.1783 11.248C61.5623 11.8267 61.2543 12.8347 61.2543 14.272V22H57.3343V6.488H61.2543V8.896ZM77.2507 6.264C79.0987 6.264 80.592 6.852 81.7307 8.028C82.8693 9.18533 83.4387 10.8093 83.4387 12.9V22H79.5187V13.432C79.5187 12.2 79.2107 11.2573 78.5947 10.604C77.9787 9.932 77.1387 9.596 76.0747 9.596C74.992 9.596 74.1333 9.932 73.4987 10.604C72.8827 11.2573 72.5747 12.2 72.5747 13.432V22H68.6547V6.488H72.5747V8.42C73.0973 7.748 73.76 7.22533 74.5627 6.852C75.384 6.46 76.28 6.264 77.2507 6.264Z" fill="black"/>
</svg>
