<svg width="52" height="52" viewBox="0 0 52 52" fill="none" xmlns="http://www.w3.org/2000/svg">
<path d="M26 43.5484L38.6096 51.5285C40.9188 52.9909 43.7446 50.829 43.1369 48.0948L39.7946 33.0885L50.9458 22.9784C52.9816 21.1344 51.8877 17.6372 49.2139 17.4146L34.5381 16.1111L28.7954 1.93142C27.7623 -0.643808 24.2377 -0.643808 23.2046 1.93142L17.4619 16.0793L2.78614 17.3828C0.112294 17.6054 -0.981553 21.1026 1.05422 22.9466L12.2054 33.0567L8.86307 48.063C8.25538 50.7972 11.0811 52.9592 13.3904 51.4967L26 43.5484Z" fill="#F89D07"/>
<path d="M26 42.1985L37.6396 49.5647C39.7712 50.9147 42.3797 48.9191 41.8187 46.3952L38.7335 32.5433L49.0269 23.2108C50.906 21.5087 49.8963 18.2805 47.4282 18.075L33.8813 16.8718L28.5804 3.78285C27.6267 1.40572 24.3733 1.40572 23.4196 3.78285L18.1187 16.8424L4.57182 18.0457C2.10366 18.2511 1.09395 21.4793 2.97312 23.1815L13.2665 32.5139L10.1813 46.3659C9.62035 48.8898 12.2288 50.8854 14.3603 49.5354L26 42.1985Z" fill="white"/>
</svg>
