<svg width="17" height="20" viewBox="0 0 17 20" fill="none" xmlns="http://www.w3.org/2000/svg">
<path d="M8.5 20C9.6 20 10.5 19.0769 10.5 17.9487H6.5C6.5 19.0769 7.4 20 8.5 20ZM14.5 13.8462V8.71795C14.5 5.56923 12.87 2.93333 10 2.2359V1.53846C10 0.68718 9.33 0 8.5 0C7.67 0 7 0.68718 7 1.53846V2.2359C4.14 2.93333 2.5 5.55897 2.5 8.71795V13.8462L0.5 15.8974V16.9231H16.5V15.8974L14.5 13.8462ZM12.5 14.8718H4.5V8.71795C4.5 6.17436 6.01 4.10256 8.5 4.10256C10.99 4.10256 12.5 6.17436 12.5 8.71795V14.8718Z" fill="black"/>
</svg>
