<svg width="20" height="20" viewBox="0 0 20 20" fill="none" xmlns="http://www.w3.org/2000/svg">
<path d="M17.6127 5.22288L18.1375 5.22182L18.1382 5.22183C19.2237 5.22644 20.1059 6.1091 20.1059 7.1962V17.1924C20.1059 18.2814 19.2205 19.1674 18.1309 19.1674H1.87211C0.783131 19.1674 -0.102888 18.2814 -0.102888 17.1924V17.1924L-0.0928898 5.67464C-0.0976486 5.43447 -0.067873 5.03036 0.149162 4.63546C0.368515 4.23634 0.773973 3.8563 1.50196 3.66208L1.50191 3.66189L1.50811 3.66065L15.6181 0.836271L15.6278 0.834326H15.6377C16.7273 0.834326 17.6127 1.71972 17.6127 2.80933V5.22288ZM15.6966 2.28719L2.05407 5.0481C2.06276 5.05862 2.07263 5.06945 2.08379 5.0803C2.15327 5.14789 2.27963 5.22338 2.50399 5.22058H2.50524H16.1621V2.8087C16.1621 2.53948 15.9582 2.31665 15.6966 2.28719ZM1.60437 6.50524C1.50926 6.46362 1.41993 6.41151 1.34584 6.34807L1.34524 17.1918C1.34524 17.4816 1.58047 17.7168 1.87024 17.7168H18.1296C18.4194 17.7168 18.6546 17.4816 18.6546 17.1918V7.19495C18.6546 6.90518 18.4194 6.66995 18.1296 6.66995H2.50336C2.1871 6.66995 1.85816 6.61628 1.60437 6.50524ZM16.2534 10.8475C16.9986 10.8475 17.6034 11.4516 17.6034 12.1975C17.6034 12.9433 16.9986 13.5475 16.2534 13.5475C15.5082 13.5475 14.9034 12.9433 14.9034 12.1975C14.9034 11.4516 15.5082 10.8475 16.2534 10.8475Z" fill="black" stroke="black" stroke-width="0.2"/>
</svg>
