<svg width="148" height="25" viewBox="0 0 148 25" fill="none" xmlns="http://www.w3.org/2000/svg">
<g clip-path="url(#clip0_2629_6487)">
<path d="M130.732 14.7437C131.187 14.6854 131.187 14.666 130.979 14.3746C130.941 14.3163 130.865 14.2386 130.941 14.1609C130.998 14.1027 131.093 14.1221 131.168 14.1415C131.415 14.2386 131.604 14.4135 131.889 14.4329C132.078 14.4523 132.249 14.4912 132.343 14.2581C132.362 14.2192 132.4 14.2192 132.438 14.1804C132.609 14.4329 132.779 14.2775 132.95 14.1804C132.969 14.1609 133.045 14.1804 133.064 14.1998C133.177 14.5106 133.462 14.394 133.67 14.4329C133.765 14.4523 133.879 14.4717 133.898 14.5883C133.916 14.7048 133.784 14.6854 133.727 14.7437C133.367 15.0545 132.988 14.8214 132.609 14.8214C132.438 14.8214 132.249 14.802 132.078 14.7825C132.002 14.7825 131.908 14.7825 131.87 14.8797C131.794 15.0739 131.718 14.9962 131.661 14.8602C131.623 14.7825 131.585 14.7437 131.51 14.7243C131.434 14.7243 131.358 14.7243 131.339 14.802C131.301 14.8991 131.377 14.9574 131.453 14.9768C131.547 15.0156 131.699 15.0156 131.68 15.171C131.68 15.2487 131.604 15.2487 131.528 15.2487C131.396 15.2487 131.206 15.307 131.168 15.1322C131.13 14.9185 130.998 14.8797 130.827 14.8602C130.581 14.8408 130.429 14.6271 130.183 14.6271C129.974 14.6271 129.747 14.5494 129.538 14.666C129.482 14.7048 129.406 14.6854 129.33 14.6466C129.216 14.5883 129.178 14.5689 129.065 14.7048C128.913 14.8797 128.629 14.7631 128.42 14.7048C128.307 14.666 128.231 14.6854 128.136 14.7243C127.757 14.8602 127.378 14.7243 127.018 14.7048C126.62 14.6854 126.317 14.3552 125.9 14.3552C125.577 14.3552 125.255 14.2775 124.952 14.4717C124.914 14.4912 124.838 14.53 124.819 14.4912C124.687 14.1998 124.364 14.3358 124.137 14.0444C124.194 14.4329 124.023 14.4523 123.796 14.4135C122.791 14.2775 121.787 14.2775 120.782 14.2386C119.816 14.2192 118.868 14.0832 117.902 14.1027C117.409 14.1221 116.916 14.025 116.442 14.0444C115.57 14.1027 114.68 13.9278 113.808 14.0055C113.599 14.025 113.372 13.9473 113.145 13.9667C112.159 14.0055 111.173 13.889 110.207 13.889C109.961 13.889 109.733 13.9084 109.487 13.9278C109.127 13.9667 108.767 14.0444 108.387 13.9084C108.198 13.8307 107.971 13.8501 107.762 13.9278C107.326 14.0638 106.89 14.0638 106.454 13.9667C105.753 13.8113 105.071 14.025 104.37 14.025C103.896 14.025 103.422 14.0055 102.967 13.9861C102.645 13.9667 102.323 13.9861 102.019 14.0444C101.773 14.0832 101.527 14.0444 101.28 14.025C100.503 13.9667 99.7262 14.0444 98.9491 13.9278C98.7217 13.889 98.4753 14.0055 98.2479 14.0832C98.0205 14.1609 97.793 14.1609 97.5656 14.1221C97.0728 14.0444 96.5801 14.0832 96.0684 14.1804C96.2958 14.2386 96.5232 14.3358 96.7696 14.3358C97.2245 14.3163 97.6793 14.3746 98.1152 14.2775C98.5322 14.1804 98.9112 14.3746 99.3282 14.3163C99.5177 14.2969 99.7262 14.2969 99.8968 14.1804C100.067 14.0832 100.257 14.1027 100.408 14.1998C100.56 14.2969 100.731 14.3358 100.901 14.3163C101.773 14.2386 102.645 14.3358 103.517 14.2969C104.218 14.2581 104.938 14.2386 105.639 14.3163C105.753 14.3358 105.886 14.3163 105.886 14.4717C105.867 14.6271 105.753 14.6854 105.601 14.6854C104.711 14.7048 103.82 14.666 102.948 14.7048C102.228 14.7437 101.489 14.7048 100.769 14.7825C100.465 14.8214 100.2 14.8991 99.9347 14.666C99.8399 14.5883 99.7072 14.666 99.5935 14.6854C99.006 14.802 98.4185 14.8991 97.8309 14.7243C97.6225 14.666 97.4329 14.7437 97.2434 14.7825C96.8075 14.8602 96.3905 14.8408 95.9546 14.8991C95.1776 14.9962 94.4195 14.8991 93.6614 14.8602C93.1686 14.8408 92.6759 14.9185 92.1641 14.9768C91.9557 14.9962 91.7282 14.8797 91.5198 14.9962C91.6335 15.1128 91.9557 14.9379 91.8988 15.2682C91.9746 15.2682 92.0504 15.2876 92.1262 15.2876C92.8464 15.307 93.5477 15.2487 94.2679 15.3264C94.628 15.3653 95.026 15.443 95.405 15.307C95.424 15.307 95.4429 15.2876 95.4619 15.2876C95.8409 15.443 96.201 15.2293 96.5801 15.307C96.8075 15.3459 97.0539 15.307 97.2813 15.2487C97.4898 15.1905 97.6983 15.171 97.9067 15.2099C98.3995 15.3264 98.8923 15.2099 99.404 15.171C99.821 15.1322 100.238 15.2487 100.655 15.2293C101.394 15.2099 102.133 15.3459 102.872 15.2682C103.763 15.171 104.654 15.0933 105.545 15.2876C105.829 15.3459 106.132 15.2293 106.435 15.1905C106.72 15.1516 107.004 15.2099 107.288 15.2099C107.743 15.2293 108.198 15.3653 108.653 15.1905C108.842 15.1128 109.051 15.1128 109.24 15.2099C109.506 15.3459 109.771 15.3653 110.036 15.2682C110.529 15.1128 111.022 15.4236 111.515 15.3459C111.685 15.307 111.875 15.3653 112.045 15.2682C112.083 15.2487 112.159 15.2293 112.178 15.2487C112.424 15.443 112.728 15.3264 112.993 15.3847C113.182 15.4236 113.391 15.4236 113.543 15.2293C113.637 15.1128 113.808 15.1128 113.903 15.2293C114.13 15.5013 114.414 15.4818 114.699 15.4624C115.779 15.443 116.878 15.5401 117.958 15.5401C118.394 15.5401 118.811 15.5595 119.247 15.6372C119.399 15.6567 119.55 15.5984 119.702 15.5595C119.683 15.4041 119.456 15.5013 119.494 15.3264C119.513 15.2487 119.569 15.2099 119.645 15.1905C119.778 15.1516 119.816 15.2682 119.873 15.3459C120.043 15.5984 120.252 15.6761 120.574 15.6567C121.237 15.6372 121.901 15.7344 122.545 15.7538C123.606 15.8121 124.649 15.8509 125.71 15.8898C125.767 15.8898 125.824 15.8898 125.881 15.9092C125.994 15.9286 126.108 15.9675 126.108 16.1229C126.089 16.2783 125.956 16.2588 125.843 16.2588C125.028 16.356 124.232 16.1423 123.417 16.1811C122.602 16.22 121.787 16.0257 120.972 16.0452C120.384 16.0646 119.797 15.8703 119.209 15.8898C118.754 15.9092 118.3 15.6955 117.826 15.8898C117.523 16.0063 117.181 15.9092 116.878 15.8703C116.499 15.8121 116.12 15.8315 115.741 15.8121C114.907 15.7732 114.054 15.7732 113.22 15.7732C112.614 15.7732 112.007 15.6955 111.401 15.7149C110.889 15.7344 110.377 15.7344 109.885 15.7538C109.828 15.7538 109.733 15.7538 109.733 15.8121C109.771 16.1229 109.525 16.0452 109.373 16.084C108.88 16.2006 108.369 16.084 107.876 16.0452C107.762 16.0257 107.629 16.0257 107.516 16.0063C107.44 15.9869 107.307 16.0257 107.307 15.8898C107.307 15.7538 107.44 15.7538 107.535 15.7732C107.724 15.7926 107.914 15.8315 108.103 15.8509C108.16 15.8509 108.198 15.8898 108.274 15.8121C107.971 15.6955 107.667 15.6178 107.383 15.6761C106.947 15.7538 106.511 15.8121 106.075 15.7732C105.943 15.7538 105.791 15.7344 105.753 15.948C105.734 16.084 105.601 16.0646 105.507 16.0646C105.033 16.0646 104.578 16.1229 104.104 16.084C103.877 16.0646 103.63 16.1617 103.403 16.1811C103.27 16.2006 103.043 16.2588 103.043 16.0452C103.043 15.8703 103.232 15.8898 103.384 15.8703C103.422 15.8703 103.441 15.8509 103.46 15.8121C102.607 15.8509 101.735 15.7732 100.863 15.7732C100.92 15.8509 101.091 15.8703 101.015 16.0257C100.958 16.1617 100.844 16.1811 100.712 16.1811C100.01 16.2394 99.2903 16.2394 98.589 16.2394C98.3995 16.2394 98.21 16.2006 98.0205 16.3171C98.2289 16.3948 98.4564 16.3365 98.6648 16.3948C98.9112 16.4531 99.1955 16.4337 99.4609 16.3948C100.219 16.2783 100.977 16.2394 101.754 16.3365C102.361 16.4142 102.986 16.4725 103.592 16.356C104.123 16.2588 104.54 16.4337 104.995 16.6473C105.09 16.6862 105.185 16.7639 105.279 16.6862C105.393 16.5696 105.241 16.5502 105.203 16.4725C105.166 16.4142 105.185 16.356 105.241 16.3171C105.317 16.2783 105.412 16.2783 105.45 16.356C105.677 16.8222 106.113 16.8027 106.511 16.8416C106.663 16.861 106.814 16.8416 106.89 16.6668C106.966 16.5114 107.099 16.5502 107.231 16.5696C107.497 16.6085 107.762 16.6862 108.027 16.5696C108.122 16.5308 108.217 16.5696 108.274 16.6473C108.312 16.7056 108.312 16.7639 108.274 16.8222C108.217 16.9193 108.122 16.8999 108.027 16.8804C107.933 16.861 107.857 16.8222 107.743 16.8804C107.838 16.9776 107.952 16.9387 108.046 16.9581C108.122 16.9776 108.198 16.997 108.198 17.0747C108.217 17.1718 108.122 17.1912 108.065 17.1912C107.989 17.2107 107.914 17.2495 107.857 17.2107C107.535 17.0747 107.193 17.3272 106.871 17.133C106.814 17.0941 106.72 17.133 106.663 17.1524C106.587 17.1912 106.435 17.2107 106.454 17.3272C106.473 17.4243 106.606 17.3855 106.682 17.4243C107.156 17.5797 107.648 17.502 108.103 17.4438C108.577 17.3661 109.013 17.4826 109.449 17.5215C109.468 17.5215 109.468 17.5215 109.487 17.5215C109.79 17.502 110.055 17.3661 110.396 17.5603C110.643 17.6963 111.022 17.5797 111.344 17.6186C111.818 17.6963 112.292 17.6963 112.747 17.6574C113.41 17.5992 114.073 17.774 114.737 17.6963C115.21 17.638 115.684 17.7351 116.158 17.7546C116.272 17.7546 116.366 17.774 116.48 17.7157C116.461 17.6963 116.461 17.6769 116.442 17.6769C116.31 17.638 116.063 17.7351 116.063 17.5409C116.063 17.3272 116.31 17.4438 116.442 17.4049C116.689 17.3272 116.954 17.4243 117.219 17.4243C117.428 17.4243 117.428 17.3078 117.485 17.1912C117.56 17.0164 117.409 17.0553 117.333 17.0164C117.257 16.9776 117.162 16.9387 117.2 16.8222C117.238 16.7056 117.333 16.6862 117.428 16.7056C117.958 16.7833 118.489 16.7833 119.02 16.8416C119.456 16.8804 119.911 16.861 120.346 16.8804C121.18 16.9193 122.033 17.0358 122.867 17.0941C123.019 17.0941 123.151 17.1524 123.17 17.3272C123.189 17.4438 123.246 17.4826 123.341 17.502C123.455 17.5409 123.587 17.5992 123.493 17.7351C123.417 17.8517 123.284 17.9488 123.133 17.8323C123.076 17.7934 123.019 17.7546 123 17.6963C122.962 17.2884 122.64 17.3661 122.393 17.3272C122.242 17.3078 122.071 17.3078 121.92 17.3272C122.204 17.3855 122.469 17.4632 122.697 17.6574C122.753 17.6963 122.848 17.7351 122.81 17.8128C122.772 17.91 122.64 17.9488 122.583 17.8905C122.412 17.7351 122.261 17.8323 122.09 17.8517C121.673 17.8905 121.256 17.8711 120.839 17.7934C120.631 17.7546 120.631 17.5603 120.555 17.4243C120.46 17.2301 120.365 17.133 120.214 17.3661C120.138 17.502 120.024 17.4826 119.892 17.4826C119.494 17.502 119.096 17.4438 118.698 17.5409C118.622 17.5603 118.527 17.5603 118.47 17.6186C118.319 17.7351 118.186 17.7351 118.053 17.5603C117.996 17.4826 117.902 17.4826 117.807 17.4632C117.788 17.5603 117.921 17.5409 117.883 17.5992C117.693 18.0071 118.072 17.8517 118.148 17.8323C118.736 17.6963 119.304 17.8323 119.873 17.91C120.214 17.9488 120.574 17.8711 120.934 17.91C121.237 17.9488 121.541 17.9488 121.825 17.9682C121.939 17.9682 122.109 17.9488 122.09 18.1236C122.09 18.2985 121.939 18.2402 121.825 18.2402C121.029 18.2985 120.233 18.2013 119.437 18.1431C118.944 18.1236 118.47 18.0265 117.977 18.1431C117.788 18.1819 117.598 18.1625 117.409 18.1625C115.665 18.0459 113.903 18.1431 112.159 18.0848C111.723 18.0654 111.306 18.0071 110.87 18.0071C110.51 18.0071 110.15 18.0265 109.79 18.0459C109.032 18.0848 108.255 18.1042 107.497 18.0459C107.345 18.0265 107.175 18.0654 106.985 18.1042C107.099 18.2208 107.175 18.1819 107.269 18.1625C107.402 18.1236 107.535 18.1042 107.648 18.1819C107.781 18.2596 107.914 18.2402 108.046 18.2013C108.369 18.1236 108.691 18.3373 109.013 18.3179C109.07 18.3179 109.127 18.3762 109.108 18.4539C109.108 18.551 109.032 18.5898 108.937 18.5898C108.71 18.5898 108.501 18.6093 108.274 18.5898C107.857 18.5316 107.44 18.5316 107.023 18.551C106.682 18.5704 106.36 18.4927 106.037 18.4733C105.943 18.4733 105.81 18.4733 105.829 18.3179C105.848 18.1625 105.981 18.1431 106.113 18.1819C106.151 18.1819 106.189 18.2208 106.208 18.2402C106.246 18.2596 106.284 18.3179 106.341 18.279C106.36 18.2596 106.379 18.2208 106.379 18.2013C106.36 18.1236 106.303 18.1042 106.246 18.1236C105.943 18.1431 105.658 18.0459 105.355 18.1042C104.9 18.1819 104.445 18.1236 103.972 18.1236C103.915 18.1236 103.839 18.0848 103.782 18.1625C103.82 18.2596 103.877 18.2596 103.953 18.2208C104.028 18.1819 104.104 18.1819 104.104 18.2985C104.104 18.3956 104.066 18.4733 103.972 18.4733C103.782 18.4539 103.574 18.4927 103.422 18.3373C103.289 18.1819 103.1 18.1236 102.929 18.1625C102.588 18.2013 102.228 18.1819 101.868 18.2208C102.057 18.3762 102.266 18.3567 102.474 18.3373C102.569 18.3373 102.74 18.3373 102.721 18.4927C102.721 18.6481 102.569 18.6287 102.455 18.6093C102.266 18.5704 102.076 18.5704 101.887 18.5898C101.735 18.6093 101.565 18.6093 101.621 18.3567C101.64 18.279 101.584 18.2402 101.508 18.2402C101.072 18.2402 100.655 18.1042 100.162 18.1819C100.352 18.2985 100.503 18.3179 100.655 18.3373C100.731 18.3567 100.806 18.3762 100.806 18.4539C100.806 18.551 100.75 18.6093 100.655 18.6093C100.503 18.6287 100.371 18.6093 100.219 18.6481C100.427 18.7647 100.674 18.7647 100.882 18.7452C101.432 18.6481 101.982 18.7064 102.531 18.7064C103.119 18.7064 103.687 18.7452 104.275 18.7258C104.881 18.7258 105.469 18.687 106.075 18.7064C107.042 18.7258 107.989 18.7647 108.956 18.7452C109.316 18.7452 109.695 18.8035 110.036 18.5898C110.112 18.551 110.188 18.5704 110.264 18.6093C110.453 18.7064 110.681 18.7452 110.889 18.7064C111.306 18.6287 111.704 18.7647 112.102 18.7841C112.14 18.7841 112.197 18.7841 112.216 18.7647C112.595 18.4927 112.993 18.6287 113.391 18.7258C113.58 18.7647 113.751 18.687 113.922 18.687C114.225 18.687 114.547 18.7647 114.85 18.6675C114.983 18.6287 115.21 18.7452 115.135 18.4344C115.116 18.3762 115.21 18.3373 115.267 18.3567C115.362 18.3762 115.438 18.4344 115.381 18.5316C115.305 18.687 115.381 18.7064 115.495 18.7064C115.76 18.7452 116.025 18.8424 116.31 18.7258C116.404 18.687 116.499 18.687 116.499 18.5316C116.499 18.3956 116.632 18.3956 116.727 18.415C117.579 18.4344 118.432 18.415 119.266 18.5121C119.437 18.5316 119.607 18.551 119.778 18.5316C119.967 18.5316 120.119 18.5316 120.157 18.7841C120.309 18.551 120.991 18.415 121.161 18.5704C121.332 18.7452 121.067 18.7647 121.048 18.8618C121.067 18.8812 121.067 18.9006 121.086 18.9201C121.199 18.9783 121.408 18.9395 121.389 19.1143C121.37 19.3086 121.161 19.2114 121.029 19.2114C119.892 19.1532 118.773 19.192 117.636 19.2309C116.916 19.2503 116.196 19.1337 115.476 19.2114C115.078 19.2503 114.699 19.2503 114.32 19.192C113.637 19.0949 112.955 19.2309 112.273 19.0949C112.064 19.056 111.837 19.056 111.609 19.0949C111.041 19.2114 110.472 19.0755 109.923 19.0755C107.648 19.1337 105.374 19.1143 103.1 19.1143C101.963 19.1143 100.844 19.056 99.7072 19.056C98.1531 19.056 96.5801 19.1143 95.026 19.1143C94.0215 19.1143 93.017 19.1532 92.0125 19.192C91.425 19.2114 90.8375 19.192 90.2499 19.2309C89.037 19.2891 87.824 19.328 86.6111 19.3668C85.3792 19.4057 84.1283 19.4251 82.8964 19.4445C81.5697 19.4834 80.262 19.5028 78.9353 19.5611C78.2151 19.5999 77.476 19.6194 76.7558 19.6582C76.7368 19.6582 76.7179 19.6582 76.6989 19.6582C75.8461 19.4834 74.9932 19.6582 74.1403 19.6388C73.06 19.6388 71.9797 19.6194 70.8995 19.6776C70.3309 19.6971 69.7623 19.6971 69.1937 19.6776C68.6062 19.6582 68.0376 19.6582 67.4501 19.6776C66.9194 19.6971 66.3888 19.6776 65.8581 19.6776C65.3653 19.6776 64.8536 19.6776 64.3608 19.6971C64.1903 19.6971 64.0197 19.7165 63.8491 19.7165C61.101 19.6388 58.3339 19.6776 55.5858 19.6582C54.7519 19.6582 53.918 19.6194 53.1031 19.6194C52.1744 19.6194 51.2457 19.5611 50.317 19.5999C49.0851 19.6388 47.8532 19.6194 46.6024 19.5805C45.5979 19.5611 44.5934 19.6776 43.5889 19.6388C42.5086 19.5999 41.4094 19.6388 40.3291 19.6388C39.1161 19.6194 37.9032 19.6194 36.6902 19.6582C35.4014 19.7165 34.0937 19.6388 32.8049 19.6582C31.4025 19.6776 30 19.5417 28.6164 19.5028C27.8204 19.4834 27.0434 19.464 26.2474 19.4057C25.7357 19.3863 25.2239 19.3086 24.7122 19.2891C23.6509 19.2697 22.6085 19.0949 21.5472 19.0755C20.3532 19.0755 19.1592 18.9978 17.9841 18.9395C16.7143 19.0366 15.4066 19.0366 14.0988 18.9395C13.1891 18.8812 12.2604 18.9201 11.3318 18.9006C11.0096 18.9006 10.6874 18.9589 10.4979 19.192C10.3652 19.3474 10.2704 19.5999 10.1946 19.8136C10.0999 20.0273 9.77767 20.2604 9.53129 20.2215C9.30386 20.1827 9.247 19.9884 9.19014 19.7748C9.13328 19.5417 9.03852 19.3863 9.26595 19.1726C9.37967 19.056 9.26595 18.9201 9.11433 18.9006C8.83004 18.8424 8.56471 18.8229 8.28042 18.8424C7.65499 18.9006 7.02956 18.8424 6.40413 18.8424C5.4186 18.8424 4.47097 18.9201 3.59916 19.4445C3.33382 19.5999 3.04954 19.7165 2.76525 19.4834C2.72734 19.4445 2.65153 19.4057 2.63258 19.3668C2.49991 19.0366 2.32934 18.7258 2.00715 18.551L1.9882 18.5316C1.85553 18.3179 2.10191 18.2208 2.12086 18.0654C2.12086 17.9294 1.93134 17.7351 2.31039 17.7157C2.10191 17.5603 2.00715 17.3855 1.9882 17.1718C1.96924 16.9581 2.00715 16.8027 2.17772 16.6862C2.32934 16.5891 2.32934 16.4725 2.21563 16.3365C1.96924 16.084 1.87448 15.7926 2.04505 15.443C2.10191 15.3459 2.04505 15.2487 2.00715 15.1516C1.95029 14.9962 1.95029 14.8408 2.00715 14.666C2.10191 14.3163 1.85553 14.0444 1.49543 14.1221C1.21114 14.1804 0.983714 14.0832 0.888952 13.7919C0.699427 13.1897 0.585712 12.5681 1.00267 12.0048C1.13533 11.8494 1.15429 11.7134 0.945809 11.5774C0.585712 11.3443 0.528854 10.9364 0.547807 10.5479C0.566759 10.2759 0.509902 10.0428 0.377235 9.80973C0.0739947 9.30468 0.149805 8.7802 0.566759 8.3917C0.756284 8.21688 0.737332 8.13917 0.528854 8.0032C0.18771 7.78952 -0.0397202 7.47872 0.0550422 7.03195C0.0550422 6.9154 0.0171372 6.79885 -0.00181527 6.6823C-0.0207678 6.54632 -0.0207678 6.41035 0.0739947 6.2938C0.453045 5.8276 0.775237 5.34197 1.28695 4.99232C1.91239 4.56497 2.53782 4.1959 3.22011 3.8851C3.71287 3.652 4.22459 3.4966 4.77421 3.47717C4.92583 3.47717 5.0585 3.45775 5.03955 3.26349C5.03955 3.18579 5.11536 3.14694 5.17221 3.18579C5.49441 3.47717 5.87346 3.30234 6.2146 3.28292C6.74527 3.24407 7.29489 3.16637 7.80661 3.08867C8.58366 2.95269 9.34176 2.91384 10.1188 2.79729C10.8201 2.68074 11.5403 2.64189 12.2604 2.62247C12.6395 2.60304 13.0185 2.64189 13.3976 2.54477C13.7387 2.46707 14.1178 2.52534 14.4779 2.52534C15.6908 2.54477 16.9038 2.52534 18.0978 2.52534C19.1402 2.52534 20.2015 2.50592 21.2439 2.50592C22.5516 2.50592 23.8594 2.52534 25.1671 2.56419C26.0958 2.60304 27.0244 2.60304 27.9531 2.56419C28.408 2.54477 28.8439 2.62247 29.2987 2.60304C30.0758 2.54477 30.8339 2.60304 31.6109 2.56419C32.1227 2.54477 32.6533 2.52534 33.165 2.50592C33.7715 2.46707 34.397 2.52534 35.0034 2.42822C35.3446 2.36994 35.7236 2.36994 36.0837 2.38937C36.9176 2.40879 37.7326 2.33109 38.5665 2.27282C39.154 2.23397 39.7416 2.25339 40.3291 2.19512C41.959 2.05914 43.6079 2.05914 45.2378 1.90374C45.5031 1.88432 45.7495 1.98144 46.0148 1.88432C46.0906 1.86489 46.1854 1.90374 46.1854 2.00087C46.1854 2.09799 46.1285 2.15627 46.0338 2.15627C45.7305 2.15627 45.4652 2.29224 45.162 2.23397C44.7829 2.17569 44.4039 2.29224 44.0248 2.33109C43.7595 2.35052 43.4942 2.38937 43.2478 2.33109C42.9066 2.27282 42.5844 2.31167 42.2054 2.44764C42.736 2.52534 43.2099 2.40879 43.7026 2.40879C44.745 2.40879 45.7874 2.38937 46.8108 2.33109C47.6827 2.27282 48.5355 2.29224 49.4073 2.21454C50.0328 2.15627 50.6771 2.13684 51.3026 2.29224C51.7006 2.38937 52.1175 2.27282 52.5345 2.27282C53.1031 2.27282 53.6716 2.25339 54.2402 2.23397C54.316 2.23397 54.4297 2.25339 54.4676 2.21454C54.733 1.86489 55.0931 2.05914 55.4153 2.05914C55.6237 2.05914 55.8133 2.07857 56.0217 2.03972C56.2302 2.00087 56.4197 2.03972 56.6282 2.11742C56.9125 2.21454 57.2347 2.13684 57.5379 2.11742C58.0118 2.07857 58.4666 2.00087 58.9404 2.07857C59.3005 2.13684 59.6796 2.03972 60.0586 2.03972C60.703 2.03972 61.3284 2.00087 61.9728 2.03972C62.5035 2.07857 63.0342 1.96202 63.5648 1.94259C63.9628 1.94259 64.3608 1.90374 64.7588 2.05914C64.7778 2.07857 64.8157 2.07857 64.8536 2.07857C65.8012 1.90374 66.7489 1.96202 67.6965 1.96202C67.9618 1.96202 68.2461 1.92317 68.5304 1.92317C69.5349 1.86489 70.5394 1.88432 71.5628 1.84547C72.264 1.82604 72.9463 1.74834 73.6476 1.78719C74.2161 1.82604 74.8037 1.76777 75.3722 1.74834C76.0356 1.70949 76.7179 1.74834 77.3812 1.69007C78.6889 1.57352 80.0156 1.67064 81.3423 1.57352C82.4226 1.49582 83.5218 1.47639 84.6021 1.45697C85.8151 1.43754 87.028 1.37927 88.2599 1.35984C89.6624 1.35984 91.0649 1.30157 92.4863 1.24329C93.0549 1.22387 93.6045 1.24329 94.1542 1.24329C94.9691 1.22387 95.7651 1.18502 96.5801 1.14617C97.5088 1.12674 98.3995 1.16559 99.3092 1.16559C100.408 1.16559 101.508 1.18502 102.607 1.14617C103.327 1.12674 104.047 1.10732 104.768 1.04904C105.147 1.02962 105.507 1.04904 105.867 1.16559C105.962 1.20444 106.094 1.24329 106.075 1.37927C106.056 1.53467 105.905 1.51524 105.81 1.47639C105.336 1.35984 104.881 1.59294 104.407 1.57352C103.953 1.57352 103.517 1.61237 103.062 1.53467C102.796 1.47639 102.531 1.49582 102.266 1.53467C101.754 1.61237 101.242 1.69007 100.731 1.55409C100.503 1.49582 100.276 1.63179 100.029 1.63179C99.385 1.61237 98.7217 1.78719 98.0773 1.61237C97.9067 1.57352 97.6983 1.67064 97.5277 1.70949C96.997 1.80662 96.4853 1.69007 95.9546 1.70949C95.3671 1.72892 94.7985 1.82604 94.211 1.82604C93.5098 1.82604 92.7896 1.98144 92.0883 1.78719C92.0315 1.76777 91.9746 1.74834 91.9178 1.76777C91.4629 1.90374 90.9891 1.90374 90.5153 1.84547C90.4205 1.82604 90.3258 1.82604 90.2499 1.84547C89.9088 1.94259 89.5677 1.94259 89.2076 1.88432C88.7717 1.80662 88.3357 1.90374 87.8998 1.94259C87.0849 2.02029 86.2889 1.90374 85.4739 1.96202C85.038 2.00087 84.5832 2.07857 84.1662 2.03972C83.2944 1.96202 82.4605 2.19512 81.5887 2.13684C80.66 2.07857 79.7124 2.17569 78.7837 2.21454C78.1393 2.23397 77.4949 2.23397 76.8316 2.23397C75.2206 2.25339 73.6097 2.25339 71.9987 2.31167C71.4301 2.33109 70.8615 2.33109 70.293 2.31167C69.7244 2.31167 69.1748 2.29224 68.6062 2.44764C68.4167 2.50592 68.1703 2.42822 67.9618 2.40879C67.4501 2.35052 66.9384 2.42822 66.4456 2.46707C66.1234 2.48649 65.8202 2.35052 65.498 2.38937C64.9294 2.46707 64.3608 2.31167 63.8112 2.52534C63.7733 2.54477 63.7165 2.52534 63.6596 2.52534C62.8825 2.42822 62.0865 2.46707 61.3095 2.40879C60.5893 2.35052 59.907 2.48649 59.2058 2.46707C58.8267 2.44764 58.4666 2.46707 58.1065 2.56419C57.9928 2.58362 57.8791 2.60304 57.7843 2.58362C56.8557 2.46707 55.927 2.50592 54.9983 2.56419C54.1075 2.62247 53.2357 2.60304 52.345 2.68074C51.7385 2.73902 51.0941 2.73902 50.4876 2.64189C49.6348 2.50592 48.8388 2.71959 48.0238 2.79729C47.3984 2.85557 46.754 2.93327 46.1096 2.91384C45.7305 2.89442 45.3515 2.91384 44.9724 2.93327C44.8587 2.93327 44.745 2.93327 44.6123 3.04982C44.8019 3.12752 44.9535 3.10809 45.1051 3.08867C46.0148 3.01097 46.9435 3.12752 47.8532 3.03039C48.8767 2.93327 49.919 2.99154 50.9425 2.95269C51.8522 2.91384 52.7809 2.91384 53.6906 2.91384C54.1833 2.91384 54.6761 2.85557 55.1689 2.97212C55.3963 3.03039 55.6048 2.91384 55.8133 2.87499C56.306 2.77787 56.7609 2.83614 57.2347 2.91384C57.4621 2.95269 57.6896 2.97212 57.917 2.89442C58.1065 2.81672 58.315 2.81672 58.5424 2.85557C58.9973 2.91384 59.4332 2.83614 59.8881 2.79729C60.0586 2.77787 60.1913 2.85557 60.3619 2.83614C61.4422 2.77787 62.5035 2.79729 63.5838 2.75844C64.683 2.73902 65.7633 2.75844 66.8626 2.70017C67.7912 2.66132 68.7389 2.70017 69.6865 2.73902C69.8192 2.73902 69.9897 2.75844 70.0466 2.85557C70.274 3.16637 70.5962 3.12752 70.8805 3.12752C71.2975 3.10809 71.6954 3.12752 72.1882 3.10809C71.9229 2.97212 71.6955 2.93327 71.487 2.99154C71.2406 3.04982 70.9753 3.06924 70.7099 3.04982C70.5773 3.03039 70.4446 2.99154 70.4446 2.85557C70.4446 2.70017 70.5962 2.73902 70.672 2.73902C71.0511 2.70017 71.4301 2.64189 71.8092 2.64189C72.8326 2.62247 73.856 2.68074 74.8795 2.62247C76.3767 2.54477 77.8929 2.62247 79.4091 2.48649C79.6934 2.46707 79.9966 2.50592 80.2809 2.52534C80.4515 2.54477 80.6221 2.54477 80.7926 2.50592C81.1148 2.40879 81.4181 2.42822 81.7403 2.48649C81.8729 2.50592 82.0246 2.50592 82.1572 2.44764C82.2709 2.38937 82.3847 2.38937 82.5173 2.40879C83.048 2.48649 83.5787 2.44764 84.0904 2.38937C84.4126 2.35052 84.7158 2.42822 85.038 2.38937C86.1941 2.27282 87.3502 2.21454 88.5063 2.25339C89.7761 2.29224 91.0649 2.27282 92.3347 2.25339C92.9412 2.23397 93.5287 2.25339 94.1352 2.21454C94.2679 2.21454 94.4195 2.25339 94.5522 2.29224C94.628 2.31167 94.6848 2.35052 94.6659 2.44764C94.6469 2.52534 94.5901 2.56419 94.5143 2.58362C94.3247 2.58362 94.1542 2.58362 93.9646 2.58362C92.6948 2.60304 91.425 2.58362 90.1552 2.66132C89.416 2.70017 88.6769 2.62247 87.9377 2.75844C87.6155 2.81672 87.2744 2.70017 86.9522 2.71959C86.6111 2.73902 86.2699 2.73902 85.9288 2.75844C85.0949 2.79729 84.261 2.81672 83.427 2.83614C82.8395 2.83614 82.252 2.83614 81.6834 2.89442C80.6979 2.99154 79.7124 2.89442 78.7268 2.97212C77.3243 3.06924 75.9219 3.04982 74.5383 3.10809C73.9887 3.12752 73.458 3.03039 72.9084 3.04982C72.7947 3.04982 72.6999 3.06924 72.5294 3.08867C72.8326 3.22464 73.0979 3.26349 73.3822 3.26349C74.1782 3.28292 74.9742 3.3412 75.7702 3.32177C76.9642 3.28292 78.1393 3.26349 79.3333 3.26349C79.4091 3.26349 79.5039 3.26349 79.5607 3.20522C79.7124 3.04982 79.9019 3.04982 80.0725 3.10809C80.66 3.28292 81.2665 3.12752 81.854 3.12752C82.3847 3.12752 82.9153 3.10809 83.427 3.06924C84.242 3.01097 85.038 3.08867 85.853 3.04982C86.9333 2.99154 88.0325 2.93327 89.1317 2.99154C89.7193 3.03039 90.3068 2.87499 90.8943 2.97212C91.2544 3.03039 91.5766 2.79729 91.9557 2.83614C93.434 2.93327 94.9123 2.75844 96.4095 2.77787C96.6938 2.77787 96.997 2.83614 97.2813 2.75844C97.3382 2.73902 97.414 2.75844 97.4329 2.83614C97.4708 2.93327 97.395 2.95269 97.3192 2.99154C97.1676 3.06924 97.016 3.12752 96.8644 3.10809C96.2389 3.06924 95.6324 3.20522 95.026 3.26349C94.6848 3.30234 94.3437 3.22465 94.0025 3.24407C93.2255 3.30235 92.4484 3.24407 91.6714 3.28292C91.2165 3.30234 90.7617 3.32177 90.3068 3.38004C89.814 3.43832 89.3023 3.36062 88.8096 3.38004C87.7293 3.4189 86.63 3.4189 85.5497 3.47717C84.9811 3.4966 84.4126 3.51602 83.844 3.45775C83.2944 3.39947 82.7448 3.53544 82.1951 3.55487C81.456 3.5743 80.6979 3.59372 79.9587 3.67142C79.4091 3.7297 78.8595 3.69085 78.3099 3.652C78.0824 3.63257 77.855 3.652 77.6276 3.7297C77.3433 3.82682 77.0401 3.74912 76.7558 3.7297C76.282 3.67142 75.8271 3.78797 75.3533 3.76855C74.0077 3.7297 72.662 3.84625 71.3164 3.63257C70.8994 3.5743 70.4825 3.4966 70.0655 3.59372C69.895 3.63257 69.7244 3.51602 69.5917 3.43832C69.0611 3.12752 68.5114 3.32177 67.9808 3.4189C67.8291 3.45775 67.6965 3.53545 67.5638 3.39947C67.507 3.3412 67.4311 3.36062 67.3553 3.36062C66.9763 3.38004 66.6162 3.38004 66.2371 3.38004C66.0476 3.38004 65.8391 3.32177 65.7065 3.55487C65.6686 3.63257 65.5359 3.61315 65.4601 3.59372C65.3085 3.5743 65.1758 3.53545 65.0052 3.51602C65.0242 3.55487 65.0242 3.5743 65.0431 3.59372C65.1568 3.652 65.3464 3.59372 65.3274 3.78797C65.3085 3.98222 65.1379 3.9628 64.9673 3.9628C64.683 3.9628 64.3798 3.98222 64.0955 4.00165C64.0197 4.00165 63.906 4.02107 63.906 3.90452C63.887 3.8074 64.0007 3.82682 64.0576 3.78797C64.2471 3.67142 64.4746 3.67142 64.702 3.61315C64.3987 3.45775 64.0766 3.47717 63.7733 3.55487C63.5838 3.59372 63.4511 3.61315 63.2995 3.47717C63.11 3.32177 62.9205 3.45775 62.7309 3.47717C62.693 3.47717 62.6551 3.55487 62.6551 3.59372C62.6362 3.67142 62.693 3.69085 62.7499 3.67142C62.9205 3.652 63.091 3.8074 63.2805 3.71027C63.3753 3.67142 63.5269 3.69085 63.5459 3.82682C63.5648 3.9628 63.4132 3.9628 63.3185 3.9628C62.6172 4.02107 61.916 3.92395 61.2147 3.82682C61.0252 3.8074 61.0252 3.76855 61.0631 3.59372C61.0631 3.5743 61.0631 3.53545 61.0631 3.51602C61.0252 3.47717 60.9873 3.47717 60.9304 3.4966C60.2861 3.7297 59.6606 3.59372 59.0352 3.43832C58.9404 3.4189 58.8836 3.39947 58.8267 3.47717C58.8078 3.4966 58.7888 3.55487 58.7888 3.5743C58.8267 3.652 58.9025 3.652 58.9783 3.652C59.3195 3.69085 59.6796 3.67142 60.0207 3.69085C60.1913 3.71027 60.3619 3.78797 60.5514 3.76855C60.4187 3.90452 60.2861 3.92395 60.1155 3.9628C59.3005 4.09877 58.5045 3.92395 57.6896 4.00165C57.1399 4.05992 56.5903 4.0405 56.0407 4.0405C55.5479 4.0405 55.0362 4.0405 54.5434 4.07935C54.7898 4.15705 55.0173 4.1959 55.2636 4.15705C55.3584 4.13762 55.4721 4.13762 55.5669 4.13762C56.2492 4.13762 56.9504 4.1182 57.6327 4.09877C58.0876 4.09877 58.5424 4.09877 59.0162 4.1182C59.4711 4.13762 59.926 4.07935 60.3998 4.09877C61.0252 4.1182 61.6506 4.1182 62.2761 4.1182C63.1858 4.09877 64.1145 4.07935 65.0242 4.07935C66.0476 4.09877 67.09 4.05992 68.1134 4.09877C68.7389 4.1182 69.3832 4.15705 70.0276 4.07935C70.4067 4.0405 70.7857 4.05992 71.1458 4.1959C71.3164 4.2736 71.5059 4.25417 71.6765 4.23475C72.5104 4.15705 73.3633 4.21532 74.1972 4.17647C74.7279 4.15705 75.2585 4.1182 75.7892 4.1182C76.0735 4.1182 76.3767 4.29302 76.6421 4.02107C76.68 3.98222 76.7558 4.02107 76.7747 4.05992C76.9074 4.3513 77.1727 4.2736 77.3812 4.2736C77.855 4.29302 78.3288 4.29302 78.7837 4.23475C79.4281 4.13762 80.0725 4.09877 80.7168 4.09877C81.0201 4.09877 81.3233 4.07935 81.6076 4.07935C82.5363 4.1182 83.446 4.02107 84.3557 4.02107C85.0001 4.02107 85.6255 4.00165 86.2699 3.98222C87.3692 3.9628 88.4684 3.94337 89.5677 3.8851C90.0415 3.86567 90.5342 3.8851 91.008 3.8851C91.6145 3.86567 92.221 3.90452 92.8275 3.90452C93.7372 3.8851 94.6659 3.76855 95.5756 3.92395C95.8788 3.98222 96.201 3.98222 96.5232 3.90452C96.8454 3.82682 97.2055 3.82682 97.5277 3.84625C97.9636 3.8851 98.3995 3.84625 98.8354 3.86567C100.01 3.92395 101.186 3.94337 102.361 3.90452C102.778 3.8851 103.194 3.9628 103.63 3.9628C104.294 3.9628 104.957 3.9628 105.601 3.92395C106.227 3.8851 106.833 4.00165 107.459 4.0405C108.217 4.09877 108.975 4.17647 109.733 4.0405C110.017 4.00165 110.302 4.02107 110.567 4.0405C111.458 4.1182 112.349 4.02107 113.239 4.1182C114.395 4.23475 115.57 4.13762 116.727 4.2736C116.973 4.31245 117.219 4.31245 117.466 4.1182C117.598 4.00165 117.845 4.0405 118.015 4.13762C118.432 4.39015 118.887 4.37072 119.342 4.25417C119.475 4.21532 119.569 4.25417 119.664 4.33187C119.721 4.39015 119.797 4.46785 119.778 4.56497C119.74 4.68152 119.645 4.68152 119.55 4.68152C119.058 4.64267 118.546 4.70095 118.072 4.46785C117.921 4.39015 117.75 4.33187 117.617 4.52612C117.579 4.56497 117.504 4.60382 117.466 4.60382C117.125 4.54555 116.783 4.60382 116.442 4.5844C115.76 4.54555 115.078 4.5067 114.395 4.5067C113.524 4.48727 112.633 4.52612 111.761 4.429C111.534 4.39015 111.268 4.40957 111.041 4.46785C110.605 4.56497 110.169 4.39015 109.733 4.44842C109.335 4.48727 108.956 4.52612 108.539 4.48727C107.724 4.40957 106.909 4.54555 106.094 4.54555C105.564 4.54555 105.014 4.52612 104.483 4.54555C104.066 4.56497 103.668 4.70095 103.232 4.62325C102.55 4.52612 101.849 4.6621 101.148 4.60382C100.996 4.5844 100.825 4.62325 100.674 4.6621C100.181 4.79807 99.7072 4.64267 99.2334 4.6621C99.0628 4.6621 98.8923 4.6621 98.7217 4.72037C98.4943 4.79807 98.2479 4.79807 98.0205 4.72037C97.793 4.64267 97.5467 4.75922 97.3192 4.70095C97.2245 4.68152 97.0539 4.68152 97.0539 4.87577C97.0728 5.03117 97.2055 5.0506 97.3382 5.0506C97.4329 5.07002 97.5088 4.99232 97.5846 4.95347C97.8689 4.8175 98.1721 4.8952 98.2668 5.16715C98.3237 5.32255 98.3995 5.34197 98.5322 5.3614C99.1766 5.4391 99.802 5.40025 100.446 5.38082C101.015 5.3614 101.565 5.40025 102.133 5.41967C103.043 5.4391 103.953 5.57507 104.862 5.57507C105.734 5.57507 106.606 5.49737 107.459 5.47795C108.008 5.45852 108.558 5.45852 109.108 5.47795C109.449 5.49737 109.79 5.65277 110.15 5.57507C110.927 5.40025 111.704 5.49737 112.481 5.47795C113.239 5.45852 113.978 5.45852 114.737 5.47795C115.646 5.5168 116.556 5.55565 117.466 5.53622C118.186 5.53622 118.906 5.61392 119.607 5.71105C120.479 5.80817 121.37 5.80817 122.242 5.92472C123.114 6.04127 123.985 6.08012 124.857 6.15782C125.634 6.23552 126.392 6.3715 127.169 6.46862C127.34 6.48805 127.511 6.48805 127.681 6.50747C127.776 6.50747 127.909 6.48805 127.909 6.62402C127.909 6.76 127.776 6.74057 127.681 6.74057C127.15 6.77942 126.62 6.70172 126.089 6.66287C125.085 6.58517 124.08 6.50747 123.057 6.42977C122.716 6.41035 122.374 6.39092 122.052 6.27437C121.844 6.19667 121.654 6.31322 121.465 6.31322C120.65 6.25495 119.854 6.2161 119.039 6.15782C118.451 6.11897 117.883 6.0607 117.295 6.0607C117.011 6.0607 116.727 6.08012 116.442 6.04127C115.817 5.96357 115.191 6.0607 114.566 5.983C114.376 5.96357 114.187 6.00242 113.997 5.9053C113.96 5.88587 113.922 5.86645 113.884 5.88587C113.258 6.09955 112.652 5.88587 112.045 5.86645C111.723 5.84702 111.401 5.9053 111.079 5.9053C110.396 5.92472 109.714 5.86645 109.032 5.8276C108.823 5.80817 108.634 5.8276 108.444 5.8276C107.629 5.9053 106.795 5.983 105.981 6.00242C105.45 6.02185 104.938 6.04127 104.426 6.09955C103.934 6.15782 103.422 6.09955 102.929 6.09955C101.83 6.11897 100.731 6.15782 99.6314 6.17725C99.1576 6.19667 98.6838 6.17725 98.21 6.2161C98.3806 6.33265 98.5511 6.4492 98.7217 6.39092C99.5746 6.17725 100.427 6.27437 101.299 6.23552C101.584 6.2161 101.868 6.25495 102.133 6.19667C102.474 6.1384 102.796 6.2938 103.138 6.33265C103.991 6.39092 104.843 6.35207 105.696 6.31322C106.53 6.2938 107.383 6.2938 108.217 6.2938C109.525 6.2938 110.832 6.27437 112.14 6.27437C112.254 6.27437 112.386 6.25495 112.386 6.41035C112.405 6.56575 112.273 6.56575 112.159 6.58517C111.666 6.66287 111.173 6.58517 110.681 6.62402C110.662 6.62402 110.624 6.62402 110.624 6.62402C110.415 6.89597 110.188 6.70172 109.998 6.62402C109.676 6.48805 109.392 6.6046 109.089 6.62402C109.051 6.62402 108.994 6.64345 108.994 6.66287C108.937 6.76 108.956 6.9154 108.804 6.87655C108.615 6.8377 108.406 6.89597 108.274 6.74057C108.198 6.64345 108.179 6.6823 108.103 6.76C108.008 6.89597 107.857 6.89597 107.762 6.76C107.705 6.66287 107.61 6.66287 107.516 6.6823C107.269 6.70172 107.042 6.87655 106.795 6.74057C106.53 7.0708 106.151 6.79885 105.829 6.89597C105.601 6.97367 105.336 6.93482 105.109 6.76C104.919 6.62402 104.711 6.6823 104.483 6.72115C104.066 6.79885 103.668 7.05137 103.213 6.8377C103.005 6.74057 102.74 6.79885 102.512 6.77942C102.057 6.76 101.602 7.03195 101.129 6.81827C100.977 6.74057 100.825 6.87655 100.655 6.85712C100.617 6.97367 100.788 7.09022 100.636 7.16792C100.503 7.24562 100.408 7.1485 100.352 7.03195C100.314 6.97367 100.238 6.93482 100.162 6.95425C99.783 7.05137 99.4229 6.9154 99.0439 6.9154C98.6459 6.9154 98.2479 6.89597 97.8499 6.9154C97.6225 6.93482 97.3761 6.85712 97.2245 7.1485C97.1676 7.24562 97.016 7.2262 96.9212 7.18735C96.7317 7.09022 96.5043 7.09022 96.3147 7.03195C96.201 6.9931 96.0873 6.95425 96.0115 7.10965C95.9357 7.2262 95.8599 7.16792 95.7841 7.09022C95.6324 6.9154 95.405 6.87655 95.2155 6.87655C95.0828 6.87655 94.8175 6.8377 94.8744 7.1485C94.8933 7.2262 94.8554 7.28447 94.7606 7.3039C94.6659 7.32332 94.609 7.28447 94.5522 7.20677C94.4953 7.10965 94.5143 6.97367 94.3626 6.95425C94.0783 6.95425 93.813 6.8377 93.5287 6.95425C93.415 6.9931 93.434 7.05137 93.4908 7.12907C93.5477 7.2262 93.7941 7.24562 93.6803 7.3816C93.5666 7.49815 93.3961 7.63412 93.1686 7.57585C92.7896 7.4593 92.7706 7.40102 93.0739 6.97367C92.8275 6.9931 92.6001 7.01252 92.3726 7.01252C91.8419 6.97367 91.3113 7.09022 90.7617 6.97367C90.1362 6.8377 89.5108 6.9931 88.8854 7.01252C87.9377 7.0708 86.9901 7.12907 86.0425 7.2262C85.2086 7.3039 84.3747 7.4593 83.5218 7.40102C83.427 7.40102 83.3133 7.3816 83.2944 7.537C83.2754 7.67297 83.3133 7.7701 83.446 7.82837C83.6924 7.9255 83.9577 7.86722 84.2231 7.8478C84.1662 7.82837 84.1093 7.80895 84.0714 7.78952C83.9767 7.75067 83.9198 7.6924 83.9577 7.57585C83.9956 7.47872 84.0714 7.43987 84.1852 7.4593C84.3178 7.49815 84.4505 7.49815 84.5263 7.6147C84.6211 7.7701 84.6969 7.73125 84.7916 7.59527C84.9243 7.3816 85.1517 7.43987 85.3033 7.49815C85.5118 7.57585 85.2654 7.65355 85.2465 7.75067C85.4171 7.78953 85.5876 7.86722 85.5876 7.57585C85.5876 7.51757 85.6066 7.4593 85.6824 7.43987C85.7582 7.42045 85.7961 7.4593 85.8151 7.537C85.8909 7.71182 85.9477 7.6924 86.0046 7.537C86.0425 7.43987 86.1562 7.42045 86.1752 7.51757C86.251 7.8478 86.4973 7.6924 86.6679 7.75067C86.6679 7.65355 86.63 7.63412 86.5732 7.6147C86.4973 7.57585 86.3268 7.65355 86.3647 7.47872C86.3836 7.36217 86.5353 7.3816 86.63 7.42045C86.9522 7.537 87.2934 7.40102 87.5966 7.55642C87.6345 7.57585 87.7103 7.57585 87.7293 7.537C88.0135 7.26505 88.3736 7.47872 88.6769 7.40102C88.7148 7.40102 88.7716 7.42045 88.7906 7.43987C88.9043 7.82837 89.037 7.55642 89.1886 7.4593C89.3402 7.36217 89.5676 7.47872 89.7382 7.3816C89.7382 7.3816 89.7951 7.42045 89.814 7.4593C89.833 7.51757 89.7761 7.537 89.7382 7.57585C89.5297 7.78952 89.2644 7.86722 88.9612 7.78952C88.9612 7.80895 88.9612 7.8478 88.9612 7.86722C89.1507 7.88665 89.3402 7.9255 89.5487 7.9255C90.4774 7.90607 91.406 7.88665 92.3347 7.90608C93.2634 7.9255 94.1921 7.80895 95.1207 7.9255C95.3103 7.94492 95.5187 7.90607 95.7272 7.88665C96.5232 7.8478 97.3192 7.9255 98.1152 7.90608C98.6838 7.88665 99.2524 8.13917 99.8399 8.10033C99.9157 8.10033 100.01 8.13917 100.048 8.19745C100.333 8.68308 100.769 8.44998 101.148 8.4694C101.167 8.72193 101.129 8.79963 100.901 8.79963C100.446 8.81905 99.9915 8.79963 99.5556 8.79963C99.4419 8.79963 99.3471 8.76078 99.2903 8.6248C99.2524 8.52768 99.1955 8.48883 99.1008 8.52768C98.9491 8.58595 99.1008 8.6248 99.1197 8.68308C99.1197 8.83848 99.006 8.79963 98.9302 8.79963C98.608 8.79963 98.2858 8.79963 97.9636 8.79963C96.6369 8.76078 95.3292 8.83848 94.0025 8.8579C92.6569 8.87733 91.3302 8.91618 89.9846 8.9356C89.8709 8.9356 89.7572 8.91618 89.5677 9.03273C90.2878 9.05215 90.9512 9.05215 91.5956 9.05215C92.1831 9.07158 92.7706 8.89675 93.3771 9.0133C93.6235 9.05215 93.9267 8.99388 94.1921 9.0133C94.628 9.05215 95.026 8.97445 95.4619 8.97445C96.1063 8.99388 96.7506 8.99388 97.395 9.07158C97.7551 9.11043 98.1152 9.05215 98.4753 9.091C99.1576 9.1687 99.8589 9.11043 100.541 9.12985C101.356 9.14928 102.171 9.20755 102.986 9.14928C103.782 9.11043 104.559 9.12985 105.355 9.11043C106.454 9.07158 107.554 9.12985 108.653 9.07158C109.392 9.03273 110.131 9.12985 110.87 8.99388C110.908 8.99388 110.965 8.97445 110.984 8.99388C111.325 9.2464 111.704 9.07158 112.045 9.11043C112.159 9.12985 112.273 9.12985 112.292 9.28525C112.292 9.44065 112.197 9.46008 112.064 9.44065C111.742 9.42123 111.439 9.57663 111.098 9.57663C110.832 9.57663 110.567 9.61548 110.302 9.61548C109.828 9.59605 109.354 9.49893 108.861 9.49893C108.539 9.49893 108.236 9.65433 107.895 9.65433C107.781 9.65433 107.8 9.77088 107.762 9.82915C107.667 9.9457 107.535 9.98455 107.421 9.92628C107.288 9.84858 107.402 9.75145 107.421 9.67375C106.758 9.46008 106.075 9.61548 105.412 9.6349C105.279 9.6349 105.128 9.6349 104.995 9.6349C104.749 9.6349 104.521 9.6349 104.332 9.82915C104.18 9.98455 104.047 9.9457 104.009 9.73203C103.972 9.61548 103.877 9.65433 103.801 9.65433C103.403 9.65433 103.024 9.75145 102.645 9.7126C102.626 9.84858 102.815 9.88743 102.721 10.004C102.645 10.1205 102.512 10.1011 102.417 10.0428C102.057 9.868 101.773 10.1011 101.451 10.1594C101.337 10.1788 101.223 10.2565 101.11 10.2565C100.56 10.2565 99.9915 10.3925 99.4419 10.2177C99.2145 10.14 99.006 10.1788 98.7596 10.2371C98.4185 10.3148 98.0584 10.3342 97.7172 10.2371C97.1676 10.0817 96.6369 10.1788 96.0873 10.2954C95.803 10.3536 95.5187 10.4119 95.2344 10.3731C94.8364 10.3148 94.4384 10.3536 94.0404 10.3925C94.0404 10.4896 94.1162 10.4702 94.1542 10.4702C94.8554 10.4313 95.5756 10.509 96.2768 10.4313C96.8454 10.3731 97.414 10.509 97.9826 10.4508C98.7975 10.3731 99.6125 10.509 100.446 10.4508C100.788 10.4313 101.129 10.3342 101.489 10.2954C101.659 10.2759 101.944 10.2177 101.944 10.3536C101.944 10.5479 101.697 10.4313 101.546 10.4702C101.394 10.509 101.242 10.5673 101.015 10.6839C101.223 10.7421 101.337 10.8587 101.489 10.6839C101.527 10.645 101.584 10.6062 101.621 10.6062C101.963 10.7227 102.285 10.5479 102.626 10.5673C103.498 10.6062 104.351 10.5867 105.222 10.5479C105.639 10.5285 106.037 10.5673 106.454 10.5867C106.549 10.5867 106.625 10.6256 106.682 10.7033C106.739 10.781 106.89 10.8393 106.814 10.9752C106.739 11.0918 106.625 11.0141 106.511 11.0141C106.189 11.0141 105.886 10.9364 105.62 10.7616C105.545 10.8198 105.583 10.8587 105.601 10.917C105.62 10.9752 105.658 11.0335 105.601 11.0918C105.526 11.1306 105.469 11.0918 105.412 11.0529C105.052 10.8004 104.616 10.781 104.256 11.0141C104.161 11.0724 104.085 11.0335 104.009 10.9752C103.896 10.8587 103.744 10.8781 103.611 10.8975C103.517 10.8975 103.403 10.917 103.441 11.0724C103.46 11.1112 103.441 11.1695 103.403 11.1695C103.081 11.0335 102.796 11.6163 102.417 11.0918C102.55 11.558 102.91 11.6357 103.213 11.4803C103.574 11.286 104.009 11.2472 104.407 11.3055C104.654 11.3443 104.862 11.422 105.128 11.3055C105.336 11.2083 105.583 11.3055 105.677 11.5774C105.696 11.6357 105.715 11.7328 105.772 11.7134C106.075 11.6551 106.36 11.7911 106.663 11.694C106.739 11.6745 106.758 11.6163 106.72 11.5386C106.625 11.3637 106.739 11.3249 106.871 11.3249C107.364 11.3055 107.857 11.2666 108.35 11.2472C108.634 11.2278 108.937 11.2278 109.221 11.2278C109.316 11.2278 109.43 11.2472 109.449 11.3832C109.449 11.4997 109.354 11.5191 109.259 11.5386C109.07 11.5968 108.861 11.5968 108.672 11.5968C108.558 11.5968 108.425 11.558 108.293 11.694C108.748 11.7522 109.165 11.6745 109.581 11.6163C109.998 11.0529 110.567 11.286 111.098 11.286C111.344 11.286 111.59 11.2472 111.837 11.2278C111.932 11.2278 111.988 11.1695 111.988 11.0724C111.988 10.9752 111.913 10.9364 111.818 10.9364C111.685 10.9364 111.534 10.917 111.42 11.0141C111.306 11.0918 111.192 11.1695 111.117 10.9558C111.098 10.8975 111.022 10.8975 111.003 10.9558C110.794 11.3055 110.51 11.1306 110.264 11.0335C110.131 10.9947 110.036 11.0141 109.904 11.0529C109.43 11.1889 108.956 11.1889 108.482 11.0529C108.331 11.0141 108.217 10.917 108.065 11.0529C108.046 11.0724 107.989 11.0918 107.989 11.0724C107.724 10.8587 107.383 10.9947 107.099 10.8781C107.023 10.8393 106.928 10.8198 106.947 10.7227C106.947 10.645 107.042 10.6062 107.099 10.6062C107.61 10.5479 108.122 10.6062 108.615 10.6839C108.672 10.6839 108.729 10.781 108.767 10.7227C108.918 10.509 109.051 10.5479 109.202 10.7421C109.202 10.7616 109.24 10.7616 109.259 10.7616C109.695 10.4896 110.169 10.6256 110.643 10.6256C111.117 10.6256 111.571 10.5867 112.045 10.6256C112.557 10.645 113.069 10.6062 113.562 10.645C113.694 10.645 113.846 10.6062 113.884 10.781C113.922 10.9558 113.732 10.9947 113.637 11.0335C113.467 11.1112 113.258 11.1112 113.088 11.0141C112.917 10.9364 112.747 10.9364 112.557 10.9752C112.481 10.9947 112.405 11.0141 112.405 11.0918C112.405 11.1889 112.519 11.2083 112.576 11.2278C112.766 11.2278 112.955 11.2083 113.145 11.2083C113.903 11.2278 114.68 11.2666 115.438 11.2666C116.158 11.2666 116.859 11.3249 117.579 11.2666C118.508 11.1889 119.456 11.3249 120.384 11.4026C121.294 11.4609 122.223 11.4997 123.133 11.5774C124.611 11.7134 126.089 11.7911 127.567 11.9076C128.648 12.0048 129.728 12.1407 130.827 12.199C131.32 12.2184 131.813 12.335 132.306 12.3933C133.253 12.5098 134.22 12.6264 135.167 12.7429C135.433 12.7818 135.698 12.8595 135.963 12.8983C136.153 12.9177 136.342 12.9177 136.532 12.8789C136.399 12.84 136.267 12.7818 136.134 12.7818C135.717 12.8012 135.357 12.6069 134.959 12.6069C134.845 12.6069 134.731 12.5875 134.637 12.5487C133.916 12.2767 133.139 12.2961 132.4 12.1602C131.983 12.0825 131.491 12.1602 131.168 11.7522C131.149 11.7328 131.149 11.694 131.112 11.6551C131.339 11.558 131.547 11.6357 131.737 11.694C132.362 11.8494 133.007 11.8105 133.632 11.9659C134.296 12.1213 134.959 12.2379 135.641 12.3544C135.869 12.3933 136.115 12.4515 136.361 12.471C137.176 12.5292 137.972 12.7235 138.787 12.8789C139.678 13.0537 140.607 13.1314 141.479 13.4034C141.554 13.4228 141.649 13.4228 141.744 13.4228C142.123 13.4422 142.18 13.5588 142.009 13.889C142.104 13.9473 142.199 13.8307 142.293 13.8696C142.369 13.9084 142.445 13.9473 142.445 14.025C142.445 14.1415 142.35 14.1609 142.275 14.1415C141.971 14.0444 141.63 14.1221 141.346 13.9278C141.213 13.8307 141.081 13.8696 140.948 13.8501C140.853 13.8501 140.739 13.8501 140.739 13.7336C140.739 13.5976 140.872 13.5976 140.967 13.617C141.194 13.6753 141.422 13.753 141.668 13.753C141.706 13.753 141.744 13.753 141.801 13.7724C141.611 13.5393 141.346 13.5976 141.118 13.5393C140.834 13.4616 140.55 13.4616 140.247 13.4422C140.209 13.4422 140.171 13.4422 140.152 13.4616C139.773 13.8501 139.318 13.5782 138.901 13.5588C137.953 13.5199 137.025 13.3451 136.077 13.2285C134.997 13.0926 133.916 12.9566 132.836 12.8206C132.552 12.7818 132.268 12.8012 132.002 12.8012C131.832 12.8012 131.813 12.8789 131.908 13.0149C132.021 13.1897 132.173 13.3257 132.287 13.5005C132.362 13.6365 132.438 13.5393 132.457 13.4422C132.571 12.9954 132.722 12.9177 133.158 12.9954C133.367 13.0343 133.575 13.1314 133.803 13.1314C133.879 13.1314 133.954 13.1508 133.973 13.248C133.992 13.3451 133.916 13.3645 133.841 13.3839C133.803 13.4034 133.727 13.4034 133.727 13.4616C133.727 13.5393 133.784 13.5588 133.841 13.5782C133.935 13.6365 134.03 13.7336 134.144 13.7724C134.22 13.7919 134.485 13.9861 134.39 13.617C134.371 13.5199 134.447 13.5005 134.504 13.5393C134.731 13.753 135.035 13.7919 135.3 13.9084C135.395 13.9473 135.527 14.025 135.49 14.1415C135.452 14.2775 135.3 14.2581 135.205 14.1998C134.959 14.0638 134.712 14.1804 134.466 14.1609C133.689 14.0638 132.893 14.0055 132.116 13.8696C131.604 13.7919 131.093 13.7142 130.581 13.6365C130.297 13.5976 130.012 13.6947 129.709 13.7142C129.652 13.7142 129.595 13.753 129.538 13.7336C128.534 13.4811 127.492 13.6947 126.487 13.4616C126.127 13.3839 125.729 13.4034 125.35 13.3839C125.179 13.3645 125.009 13.4034 124.895 13.2285C124.876 13.1897 124.8 13.1508 124.762 13.1897C124.535 13.4422 124.383 13.248 124.194 13.1314C124.118 13.0926 124.023 13.0926 123.929 13.0926C123.095 13.0343 122.28 12.9566 121.446 12.9372C120.953 12.9372 120.46 12.9566 119.967 12.8789C119.967 12.9177 119.949 12.9372 119.949 12.976C120.214 13.0343 120.479 13.112 120.763 13.1508C121.408 13.2285 122.071 13.2674 122.716 13.3257C123.265 13.3839 123.815 13.4034 124.364 13.4422C125.217 13.5199 126.07 13.5976 126.923 13.6559C127.169 13.6753 127.397 13.7724 127.624 13.7919C128.288 13.8113 128.932 13.8696 129.595 13.9084C129.974 13.9473 130.334 14.0832 130.695 14.1609C130.751 14.2386 130.884 14.4135 130.732 14.7437ZM86.8574 14.7243C87.2934 14.6854 87.7103 14.8214 88.1462 14.7243C88.2599 14.7048 88.3926 14.7243 88.3926 14.8602C88.3926 15.0156 88.2599 15.0156 88.1462 15.0351C87.9756 15.0545 87.7861 15.0156 87.5397 15.171C88.3357 15.1322 89.0559 15.0351 89.814 15.0739C89.7382 14.9768 89.6056 15.0156 89.5866 14.8797C89.5866 14.7437 89.7193 14.7437 89.814 14.666C89.6435 14.666 89.5297 14.6271 89.4539 14.802C89.3971 14.9379 89.2644 14.9185 89.1886 14.8214C89.0559 14.6271 88.8664 14.6271 88.6769 14.6466C88.2978 14.6854 87.9377 14.6466 87.5587 14.666C87.3313 14.666 87.0849 14.6271 86.8574 14.7243C86.8006 14.7243 86.7437 14.7243 86.6869 14.7048C86.5921 14.6854 86.4594 14.666 86.4784 14.5494C86.4784 14.394 86.6111 14.4329 86.7058 14.4523C86.7816 14.4523 86.8574 14.5106 86.9143 14.394C86.6869 14.2775 86.232 14.2775 85.9288 14.3746C86.1941 14.8214 86.4784 14.9379 86.8574 14.7243ZM107.838 12.6264C107.686 12.6264 107.573 12.6264 107.478 12.6264C106.985 12.6458 106.511 12.7235 106.018 12.6846C105.545 12.6652 105.052 12.7235 104.578 12.7041C104.521 12.7041 104.464 12.7041 104.464 12.7818C104.464 12.84 104.521 12.8595 104.578 12.8595C104.635 12.8595 104.673 12.8595 104.73 12.8595C104.843 12.8595 104.976 12.8595 104.995 13.0149C104.995 13.1703 104.862 13.1897 104.749 13.1897C104.389 13.1897 104.028 13.1897 103.668 13.1703C103.536 13.1703 103.327 13.248 103.27 13.0537C103.232 12.8789 103.46 12.8789 103.555 12.8012C103.574 12.7818 103.592 12.7623 103.611 12.7235C100.162 12.8012 96.7317 12.8012 93.3202 13.0343C93.5856 13.0731 93.8699 13.0731 94.1352 13.0731C94.3626 13.0731 94.5901 12.9954 94.7606 13.2285C94.8364 13.3257 94.9123 13.2674 94.9881 13.2091C95.1965 12.9954 95.4998 13.0537 95.7462 13.0343C95.8409 13.0343 95.9357 13.0926 95.9167 13.2091C95.9167 13.3257 95.803 13.3451 95.7272 13.3645C95.5756 13.4034 95.4429 13.2868 95.2534 13.2285C95.3671 13.4034 95.4998 13.5393 95.6514 13.5005C95.9357 13.4034 96.201 13.5005 96.4853 13.4616C97.2245 13.3451 97.9826 13.3062 98.7217 13.3451C99.5367 13.3839 100.333 13.3062 101.148 13.3451C101.659 13.3645 102.171 13.2285 102.702 13.3062C103.308 13.3839 103.953 13.4811 104.54 13.4034C105.279 13.2868 105.999 13.4034 106.739 13.3451C106.833 13.3451 106.909 13.3645 107.004 13.3645C107.554 13.4228 108.103 13.5782 108.71 13.3451C108.217 13.3257 107.762 13.3062 107.307 13.1508C107.61 13.112 107.61 12.8012 107.838 12.6264ZM113.145 12.3156C118.451 12.335 123.72 12.6652 129.008 13.1897C128.875 13.112 128.761 13.0149 128.61 12.9954C127.927 12.9566 127.264 12.84 126.582 12.7623C125.672 12.6652 124.762 12.6846 123.853 12.5875C122.185 12.4321 120.498 12.335 118.83 12.3156C117.826 12.2961 116.84 12.2573 115.855 12.2184C114.926 12.1796 114.035 12.199 113.145 12.3156ZM74.1972 5.8276C76.5094 5.8276 78.8216 5.84702 81.1148 5.69162C80.4326 5.71105 79.7692 5.53622 79.0869 5.61392C78.6321 5.6722 78.1962 5.63335 77.7792 5.41967C77.6086 5.34197 77.4191 5.26427 77.2296 5.34197C77.1727 5.3614 77.078 5.38082 77.1159 5.47795C77.2106 5.65277 77.078 5.63335 76.9832 5.65277C76.8884 5.6722 76.7937 5.65277 76.7179 5.6722C76.4904 5.76932 76.3199 5.78875 76.1682 5.5168C76.0545 5.34197 75.9029 5.40025 75.8461 5.5945C75.8081 5.69162 75.7323 5.69162 75.6565 5.69162C75.4481 5.69162 75.2396 5.69162 75.0311 5.65277C74.7279 5.65277 74.4625 5.73047 74.1972 5.8276ZM113.77 12.7041C113.77 12.7429 113.77 12.7818 113.77 12.8012C114.452 12.7429 115.097 12.976 115.798 12.9566C116.935 12.9372 118.072 12.9566 119.19 13.1508C119.323 13.1703 119.456 13.1703 119.607 12.9954C119.38 12.9954 119.19 13.0731 119.039 12.976C118.641 12.6846 118.205 12.7429 117.769 12.7623C117.011 12.7818 116.253 12.7429 115.495 12.7041C114.926 12.6652 114.339 12.7041 113.77 12.7041ZM91.5577 5.47795C92.7327 5.47795 93.9078 5.47795 95.1207 5.47795C95.0828 5.34197 94.9123 5.34197 94.9502 5.206C94.9881 5.08945 95.0828 5.07002 95.1965 5.0506C95.3482 5.03117 95.5187 4.9729 95.6514 4.87577C95.3292 4.93405 94.9881 4.91462 94.6659 4.91462C94.5332 4.91462 94.4384 4.9729 94.4005 5.10887C94.3437 5.30312 94.23 5.38082 94.0404 5.30312C93.9836 5.2837 93.9267 5.24485 93.8699 5.2837C93.6803 5.40025 93.6235 5.26427 93.5856 5.1283C93.5666 5.0506 93.5666 4.93405 93.434 4.93405C92.8843 4.93405 92.3347 4.93405 91.7661 4.93405C92.0694 4.99232 92.3916 4.95347 92.6759 5.08945C92.7138 5.10887 92.7896 5.08945 92.8464 5.0506C93.0739 4.93405 93.1876 5.0506 93.3013 5.24485C92.6948 5.38082 92.1262 5.3614 91.5577 5.47795ZM82.4794 5.14772C82.3468 5.71105 81.8161 5.5168 81.456 5.78875C82.9722 5.61392 84.4126 5.7499 85.834 5.5945C85.5118 5.45852 85.1896 5.38082 84.8485 5.4391C84.6969 5.47795 84.5642 5.45852 84.4505 5.34197C84.2799 5.14772 84.0714 5.10887 83.9009 5.32255C83.7682 5.47795 83.6355 5.53622 83.446 5.49737C83.2375 5.45852 83.029 5.45852 82.8206 5.45852C82.65 5.47795 82.4415 5.5168 82.4794 5.14772ZM131.453 12.8789C128.458 12.4904 125.483 12.1796 122.412 12.063C123.038 12.2767 123.625 12.1796 124.213 12.2379C124.649 12.2767 125.066 12.335 125.502 12.3544C126.582 12.3738 127.662 12.471 128.705 12.7235C128.856 12.7623 129.008 12.7818 129.178 12.7623C129.728 12.7041 130.259 12.7235 130.808 12.9177C130.979 12.976 131.244 12.9372 131.453 12.8789ZM91.2734 5.4391C91.046 5.38082 90.8185 5.32255 90.5911 5.2837C90.5153 5.26427 90.4584 5.24485 90.4395 5.14772C90.4395 5.07002 90.4963 5.0506 90.5532 5.01175C90.5911 4.99232 90.6859 5.01175 90.7048 4.91462C90.2878 4.87577 89.9088 4.9729 89.435 4.99232C89.6624 5.1283 89.814 5.0506 89.9657 5.0506C90.0983 5.0506 90.1741 5.1283 90.1931 5.24485C90.212 5.40025 90.0983 5.40025 89.9846 5.40025C89.7003 5.41967 89.435 5.45852 89.1507 5.4391C88.7716 5.40025 88.3926 5.40025 88.0515 5.53622C89.1128 5.5945 90.1931 5.53622 91.2734 5.4391ZM95.8978 15.9675C96.1063 16.0452 96.3905 15.9286 96.5043 16.2006C96.5611 16.3365 96.4095 16.356 96.3526 16.4142C96.8454 16.4725 97.3192 16.5308 97.812 16.3754C97.6983 16.2394 97.5845 16.22 97.4329 16.2783C97.3571 16.2977 97.2624 16.2783 97.2434 16.1811C97.2434 16.0646 97.3382 16.0646 97.414 16.084C97.6035 16.1229 97.7551 16.0646 97.9446 15.9869C97.2245 15.8703 96.5611 16.0452 95.8978 15.9675ZM73.4201 5.41967C73.06 5.8276 72.9274 5.88587 72.5673 5.80817C72.4346 5.78875 72.3209 5.7499 72.1882 5.76932C72.0366 5.78875 71.885 5.8276 71.8281 5.61392C71.8092 5.53622 71.6955 5.5168 71.6575 5.57507C71.5059 5.7499 71.3164 5.7499 71.1269 5.7499C71.0132 5.7499 70.8805 5.8276 70.8047 5.96357C71.7902 5.88587 72.7568 5.96357 73.7992 5.88587C73.5907 5.73047 73.4201 5.65277 73.4201 5.41967ZM89.2265 13.0731C89.2265 13.112 89.2265 13.1508 89.2265 13.1897C89.4539 13.1897 89.6814 13.1897 89.9277 13.1897C90.0225 13.1897 90.1552 13.1897 90.1741 13.3062C90.1741 13.4616 90.0415 13.4034 89.9467 13.4228C89.7003 13.4616 89.435 13.3645 89.1696 13.4811C89.6435 13.6365 90.231 13.6365 91.0459 13.4422C90.9512 13.3062 90.9322 13.3257 90.4774 13.1314C90.0225 12.9566 89.6435 13.0731 89.2265 13.0731ZM91.6903 6.48805C93.0928 6.39092 94.5143 6.58517 95.9167 6.33265C94.5143 6.39092 93.1118 6.27437 91.6903 6.48805ZM95.405 5.3614C95.405 5.38082 95.405 5.41967 95.405 5.4391C96.22 5.49737 97.0539 5.49737 97.9446 5.40025C97.7172 5.2837 97.5467 5.30312 97.395 5.34197C97.1676 5.38082 96.9402 5.38082 96.7127 5.38082C96.618 5.38082 96.5232 5.38082 96.4664 5.2837C96.4095 5.16715 96.5043 5.10887 96.5611 5.0506C96.6369 4.9729 96.7127 4.8952 96.6559 4.77865C96.3905 4.95347 95.9925 4.95347 95.8788 5.34197C95.8788 5.3614 95.7651 5.3614 95.7083 5.3614C95.5945 5.3614 95.4998 5.3614 95.405 5.3614ZM85.1707 9.30468C84.261 9.30468 83.3323 9.30468 82.4226 9.30468C82.4226 9.34353 82.4226 9.38238 82.4226 9.42123C83.3512 9.44065 84.261 9.36295 85.1707 9.30468ZM79.3712 9.7126C79.8071 9.7126 80.243 9.7126 80.66 9.61548C80.7547 9.59605 80.9064 9.65433 80.9064 9.51835C80.9064 9.38238 80.7547 9.44065 80.66 9.42123C80.3378 9.38238 80.0156 9.5572 79.6745 9.44065C79.4849 9.38238 79.4281 9.5572 79.3712 9.7126Z" fill="#00FF84"/>
<path d="M118.376 8.70257C118.338 8.52774 118.224 8.50832 118.129 8.50832C117.504 8.43062 116.878 8.27522 116.234 8.35292C116.158 8.35292 116.082 8.35292 116.063 8.25579C116.044 8.15867 116.139 8.13924 116.196 8.11982C116.499 8.02269 116.821 7.96442 117.144 8.02269C117.276 8.04212 117.409 8.06154 117.542 7.98384C117.314 7.88672 117.106 7.82844 116.878 7.84787C116.329 7.84787 115.817 7.80902 115.305 7.57592C115.04 7.45937 114.68 7.47879 114.358 7.49822C114.054 7.51764 113.751 7.51764 113.467 7.51764C113.353 7.51764 113.202 7.51764 113.183 7.36224C113.183 7.18742 113.334 7.20684 113.467 7.14857C114.035 6.91546 114.623 7.10972 115.192 7.09029C115.969 7.07087 116.727 7.10971 117.504 7.10971C118.603 7.12914 119.702 7.20684 120.801 7.10971C121.105 7.09029 121.408 7.20684 121.711 7.09029C121.749 6.99317 121.503 6.93489 121.673 6.85719C121.825 6.77949 121.995 6.77949 122.109 6.93489C122.318 7.24569 122.81 7.38167 123.265 7.20684C123 7.16799 122.791 7.14857 122.583 7.12914C122.526 7.12914 122.412 7.14857 122.431 7.03202C122.431 6.95432 122.526 6.95431 122.583 6.95431C122.848 6.99317 123.095 7.05144 123.36 7.03202C123.398 7.03202 123.455 7.07087 123.455 7.09029C123.493 7.53707 123.815 7.36224 124.042 7.38167C124.251 7.38167 124.516 7.49822 124.592 7.14857C124.611 7.03202 124.781 7.07086 124.895 7.10971C124.99 7.12914 125.123 7.16799 125.085 7.30397C125.028 7.51764 125.161 7.51764 125.293 7.51764C125.464 7.53707 125.634 7.53707 125.824 7.55649C125.672 7.43994 125.54 7.47879 125.407 7.45937C125.312 7.43994 125.217 7.40109 125.236 7.28454C125.255 7.16799 125.35 7.16799 125.445 7.16799C126.222 7.20684 126.98 7.42052 127.757 7.40109C128.022 7.38167 128.269 7.57592 128.553 7.51764C128.648 7.49822 128.705 7.59534 128.724 7.69247C128.743 7.86729 128.894 7.84787 128.989 7.86729C129.16 7.90614 129.046 7.75074 129.065 7.69247C129.122 7.57592 129.216 7.59534 129.292 7.61477C129.595 7.65362 129.899 7.69247 130.221 7.75074C130.316 7.77017 130.448 7.75074 130.448 7.88672C130.467 8.02269 130.297 7.98384 130.24 8.06154C130.505 8.08097 130.752 8.10039 130.998 8.11982C131.093 8.11982 131.187 8.13924 131.225 8.02269C131.282 7.86729 131.377 7.84787 131.51 7.90614C131.661 7.98384 131.51 8.10039 131.529 8.17809C132.154 8.27522 132.779 8.39177 133.386 8.48889C133.556 8.52774 133.746 8.46947 133.917 8.56659C133.973 8.60544 134.068 8.62487 134.049 8.72199C134.03 8.81912 133.955 8.81912 133.879 8.81912C133.405 8.83854 132.912 8.81912 132.457 8.64429C132.287 8.58602 132.135 8.58602 131.964 8.60544C131.851 8.60544 131.794 8.62487 131.813 8.76084C131.832 8.87739 131.908 8.87739 131.983 8.85797C132.192 8.79969 132.4 8.87739 132.609 8.93567C132.685 8.95509 132.779 8.99394 132.742 9.11049C132.723 9.18819 132.647 9.20762 132.571 9.20762C132.287 9.20762 132.021 9.20762 131.737 9.18819C131.566 9.18819 131.529 9.07164 131.529 8.93567C131.415 8.91624 131.377 9.01337 131.32 9.03279C131.244 9.07164 131.168 9.07164 131.093 8.99394C131.036 8.93567 131.055 8.85797 131.112 8.79969C131.187 8.72199 131.244 8.64429 131.15 8.52774C131.074 8.45004 130.96 8.41119 130.846 8.45004C130.808 8.46947 130.752 8.48889 130.695 8.48889C130.581 8.46947 130.448 8.37234 130.391 8.54717C130.372 8.58602 130.581 8.68314 130.695 8.74142C130.789 8.78027 130.979 8.72199 130.922 8.93567C130.884 9.09107 130.733 9.03279 130.619 9.01337C130.012 8.93567 129.406 8.81912 128.799 8.81912C128.686 8.81912 128.534 8.83854 128.496 8.68314C128.458 8.54717 128.629 8.54717 128.667 8.48889C128.856 8.19752 129.084 8.27522 129.33 8.33349C129.463 8.35292 129.576 8.41119 129.747 8.35292C129.292 8.15867 128.856 8.15867 128.401 8.17809C128.364 8.17809 128.326 8.19752 128.326 8.25579C128.382 8.62487 128.117 8.54717 127.947 8.50832C127.53 8.43062 127.094 8.33349 126.677 8.35292C126.089 8.37234 125.54 8.17809 124.971 8.11982C124.914 8.11982 124.876 8.10039 124.819 8.10039C124.744 8.10039 124.668 8.08097 124.649 8.17809C124.63 8.27522 124.706 8.31407 124.8 8.33349C125.142 8.39177 125.464 8.43062 125.805 8.50832C126.355 8.62487 126.904 8.76084 127.454 8.78027C128.364 8.81912 129.216 9.07164 130.126 9.14934C130.941 9.22704 131.756 9.42129 132.59 9.51842C133.234 9.59612 133.879 9.71267 134.504 9.82922C135.016 9.92634 135.528 10.0429 136.02 10.1206C136.134 10.14 136.191 10.2177 136.172 10.3343C136.153 10.4314 136.153 10.5479 136.02 10.5868C135.907 10.6062 135.888 10.5285 135.85 10.4314C135.755 10.2566 135.565 10.3148 135.414 10.3731C135.3 10.4314 135.205 10.4508 135.111 10.3925C134.807 10.2177 134.485 10.14 134.144 10.0817C133.955 10.0429 133.727 9.88749 133.594 10.1983C133.538 10.3148 133.367 10.14 133.329 10.1789C133.045 10.412 133.064 10.2177 133.045 10.004C133.026 9.88749 132.912 9.86807 132.798 9.84864C132.362 9.75152 131.908 9.73209 131.453 9.65439C131.358 9.63497 131.263 9.61554 131.168 9.57669C131.017 9.51842 130.903 9.49899 130.77 9.67382C130.676 9.79037 130.524 9.86807 130.486 9.59612C130.467 9.49899 130.391 9.51842 130.354 9.51842C129.993 9.49899 129.633 9.38244 129.273 9.36302C128.629 9.30474 128.022 9.11049 127.378 9.01337C126.772 8.91624 126.146 8.95509 125.559 8.74142C125.369 8.66372 125.028 8.54717 124.838 8.85797C124.782 8.93567 124.687 8.87739 124.611 8.83854C124.421 8.76084 124.213 8.79969 124.023 8.78027C123.967 8.78027 123.891 8.79969 123.891 8.85797C123.891 8.93567 123.967 8.93567 124.023 8.95509C124.213 8.97452 124.402 8.99394 124.592 9.01337C124.857 9.03279 125.104 9.03279 125.35 9.16877C125.483 9.22704 125.634 9.22704 125.767 9.20762C125.976 9.18819 126.184 9.14934 126.355 9.32417C126.374 9.34359 126.411 9.36302 126.43 9.34359C126.809 9.24647 127.151 9.42129 127.53 9.44072C128.155 9.49899 128.78 9.57669 129.406 9.65439C129.463 9.65439 129.501 9.67382 129.558 9.69324C129.633 9.71267 129.728 9.73209 129.728 9.82922C129.709 9.94577 129.595 9.94577 129.52 9.94577C128.686 9.82922 127.833 9.94577 127.018 9.67382C126.772 9.59612 126.487 9.65439 126.203 9.61554C125.009 9.44072 123.796 9.36302 122.583 9.28532C122.242 9.26589 121.882 9.24647 121.541 9.18819C121.351 9.14934 121.351 9.09107 121.427 8.95509C121.465 8.89682 121.56 8.85797 121.484 8.78027C121.446 8.74142 121.389 8.74142 121.351 8.74142C121.275 8.74142 121.199 8.78027 121.218 8.87739C121.237 9.24647 120.972 9.22704 120.764 9.18819C119.38 9.05222 117.978 9.01337 116.594 8.93567C115.59 8.87739 114.566 8.95509 113.562 8.87739C112.69 8.79969 111.818 8.91624 110.965 8.85797C110.643 8.83854 110.302 8.79969 109.98 8.83854C109.866 8.85797 109.695 8.85797 109.695 8.68314C109.695 8.54717 109.847 8.54717 109.961 8.52774C110.453 8.50832 110.965 8.50832 111.458 8.48889C112.121 8.46947 112.785 8.54717 113.429 8.50832C113.941 8.46947 114.433 8.58602 114.945 8.58602C115.192 8.58602 115.419 8.60544 115.665 8.50832C115.874 8.43062 116.044 8.60544 116.253 8.58602C116.689 8.56659 117.125 8.56659 117.58 8.58602C117.807 8.62487 118.072 8.66372 118.376 8.70257Z" fill="#00FF84"/>
<path d="M127.396 17.9488C127.169 17.6574 126.733 17.8711 126.543 17.4437C127.263 17.3078 127.965 17.502 128.666 17.4632C127.946 17.2689 127.207 17.2883 126.486 17.2495C125.501 17.2106 124.515 17.0747 123.53 17.0747C123.473 17.0747 123.416 17.0747 123.359 17.0552C123.283 17.0358 123.227 16.997 123.227 16.9193C123.227 16.8027 123.321 16.8027 123.397 16.8027C123.644 16.8027 123.871 16.8221 124.117 16.8416C124.25 16.8416 124.345 16.861 124.421 16.6667C124.515 16.4336 124.762 16.5113 124.913 16.5696C125.084 16.6279 124.97 16.7639 124.894 16.8804C125.501 16.9387 126.088 16.9775 126.695 17.0358C126.846 17.0552 126.96 17.0358 126.998 16.8416C127.017 16.7444 127.112 16.7056 127.226 16.725C127.32 16.7444 127.377 16.8027 127.358 16.8998C127.339 16.9775 127.301 17.0552 127.415 17.0552C127.548 17.0552 127.756 17.1329 127.813 16.997C127.965 16.5502 128.173 16.8804 128.287 16.9775C128.438 17.1135 128.533 17.1524 128.704 16.997C129.026 16.725 129.917 16.8804 130.125 17.2495C130.182 17.0164 130.334 16.9775 130.504 17.0747C130.618 17.1329 130.713 17.1329 130.808 17.0747C130.883 17.0358 130.997 16.997 131.035 17.0552C131.168 17.2689 131.414 17.1912 131.566 17.2883C131.679 17.366 131.679 17.2689 131.717 17.2301C131.793 17.1524 131.888 17.1135 131.983 17.1718C132.115 17.2495 132.096 17.4243 132.134 17.5409C132.172 17.638 132.002 17.6186 131.926 17.6574C131.717 17.7351 131.528 17.638 131.338 17.638C130.959 17.638 130.599 17.5214 130.201 17.5603C130.049 17.5797 129.86 17.5409 129.765 17.3466C129.708 17.2106 129.576 17.2301 129.443 17.2106C129.803 17.7351 130.334 17.6963 130.827 17.7157C131.812 17.774 132.798 17.9294 133.783 18.0071C134.238 18.0459 134.693 18.1236 135.148 18.2207C135.223 18.2402 135.356 18.2402 135.356 18.3567C135.356 18.4927 135.223 18.5121 135.129 18.5121C134.712 18.4733 134.314 18.4344 133.897 18.3761C133.764 18.3567 133.631 18.2596 133.631 18.5121C133.631 18.5898 133.575 18.6481 133.499 18.6481C133.404 18.6481 133.366 18.5898 133.366 18.4927C133.366 18.4344 133.366 18.3567 133.328 18.3761C133.025 18.5315 132.684 18.2596 132.4 18.4538C132.248 18.551 132.115 18.4927 131.964 18.4927C131.395 18.4733 130.808 18.4344 130.239 18.415C130.125 18.415 129.993 18.3956 129.917 18.279C129.879 18.2402 129.841 18.2207 129.784 18.2207C128.855 18.4733 127.908 18.279 126.96 18.2402C126.828 18.2402 126.695 18.2402 126.562 18.2596C126.467 18.2596 126.373 18.2402 126.354 18.1236C126.335 18.0071 126.43 18.0071 126.505 17.9682C126.657 17.8905 126.828 17.8517 126.998 17.9294C127.15 17.9682 127.244 18.0265 127.396 17.9488Z" fill="#00FF84"/>
<path d="M137.537 8.21693C137.253 8.17808 136.95 8.21693 136.647 8.11981C135.794 7.86728 134.903 7.73131 134.031 7.63418C132.742 7.49821 131.454 7.22626 130.146 7.16798C129.577 7.14856 129.009 6.99316 128.421 6.93488C128.345 6.93488 128.27 6.87661 128.27 6.77948C128.27 6.68236 128.364 6.64351 128.44 6.64351C128.535 6.64351 128.649 6.64351 128.743 6.66293C128.971 6.70178 129.198 6.77948 129.426 6.60466C129.539 6.52696 129.71 6.60466 129.843 6.64351C130.601 6.76006 131.359 6.83776 132.136 6.91546C133.027 7.01258 133.898 7.26511 134.789 7.38166C135.566 7.49821 136.324 7.65361 137.082 7.84786C137.177 7.86728 137.272 7.88671 137.329 7.96441C137.424 8.10038 137.518 8.06153 137.67 8.02268C137.992 7.90613 138.333 8.02268 138.637 8.11981C139.167 8.27521 139.736 8.33348 140.266 8.54716C140.361 8.58601 140.494 8.54716 140.589 8.56658C140.702 8.58601 140.778 8.66371 140.74 8.79968C140.702 8.91623 140.608 8.91623 140.513 8.89681C139.831 8.62486 139.072 8.66371 138.39 8.39176C138.106 8.29463 137.859 8.13923 137.537 8.21693Z" fill="#00FF84"/>
<path d="M4.50976 23.0187C4.96462 22.941 5.19205 23.3295 5.32471 23.6597C5.36262 23.7569 5.36262 23.8734 5.45738 23.9705C5.49529 23.99 5.49529 24.1065 5.49529 24.1065C5.2489 24.2036 5.30576 24.5144 5.15414 24.6698C5.07833 24.7475 5.00252 24.8058 4.88881 24.8058C4.71823 24.8058 4.56661 24.8641 4.43395 24.9806C4.22547 25.136 3.75166 24.9418 3.60004 24.6504C3.25889 24.0482 3.42946 23.4849 4.01699 23.1158C4.14966 22.9799 4.32023 23.0381 4.50976 23.0187Z" fill="#00FF84"/>
<path d="M131.944 11.1112C131.868 11.1112 131.755 11.15 131.717 11.1112C131.262 10.781 130.75 10.9558 130.257 10.8781C130.182 10.8587 130.106 10.8587 130.087 10.781C130.049 10.6838 130.144 10.6256 130.219 10.6061C130.504 10.4702 130.807 10.5479 131.072 10.6256C131.413 10.7421 131.755 10.7421 132.096 10.8004C132.74 10.8975 133.403 10.9752 134.048 11.0918C134.825 11.2083 135.583 11.3637 136.341 11.4608C136.758 11.5191 137.175 11.5774 137.592 11.7328C137.933 11.8493 138.312 11.9076 138.672 11.9465C138.957 11.9853 139.222 12.0824 139.487 12.1601C139.563 12.1796 139.639 12.199 139.62 12.2961C139.601 12.3932 139.525 12.3932 139.449 12.3932C139.127 12.4127 138.843 12.2961 138.54 12.2378C137.781 12.1213 137.042 11.8688 136.284 11.7911C135.431 11.7134 134.616 11.4803 133.764 11.3637C133.157 11.286 132.551 11.2277 131.944 11.1112Z" fill="#00FF84"/>
<path d="M116.916 0.544007C116.424 0.524582 115.931 0.641132 115.457 0.427457C115.249 0.330332 115.059 0.505157 114.832 0.485732C114.339 0.427457 113.865 0.466307 113.372 0.408032C113.126 0.369182 112.823 0.466307 112.595 0.427457C111.913 0.291482 111.231 0.544007 110.567 0.408032C110.302 0.349757 110.037 0.369182 109.771 0.330332C109.658 0.310907 109.487 0.310906 109.525 0.136081C109.544 -0.0193188 109.695 0.0389563 109.79 0.0389563C110.586 0.0778063 111.382 0.0778063 112.197 0.0389563C112.235 0.0389563 112.273 0.0195312 112.292 0.0195312C112.69 0.349757 113.107 -0.0193188 113.524 0.0583813C113.903 0.136081 114.282 0.136081 114.661 0.136081C115.495 0.0972313 116.31 0.272056 117.144 0.213781C117.352 0.194356 117.561 0.252631 117.769 0.272056C117.845 0.272056 117.921 0.310907 117.921 0.388607C117.94 0.485732 117.864 0.524582 117.769 0.563432C117.485 0.621707 117.182 0.505157 116.916 0.544007Z" fill="#00FF84"/>
<path d="M18.2489 21.5036C18.2868 21.931 17.9836 22.3972 17.6614 22.4166C17.1876 22.4554 16.6948 21.9698 16.6569 21.4453C16.6379 21.0568 17.036 20.6295 17.415 20.6101C17.9267 20.5712 18.211 20.882 18.2489 21.5036Z" fill="#00FF84"/>
<path d="M137.819 14.2192C137.705 14.1609 137.535 14.1998 137.554 14.0638C137.573 13.9084 137.724 13.9667 137.838 13.9667C137.914 13.9667 138.027 14.0055 138.065 13.9667C138.236 13.8113 138.425 13.7724 138.596 13.9472C138.729 14.0832 138.956 14.0832 139.013 14.3163C139.051 14.4329 139.127 14.4523 139.221 14.3552C139.449 14.1415 139.752 14.3163 139.98 14.1609C140.036 14.1221 140.131 14.1998 140.15 14.2969C140.169 14.3746 140.112 14.394 140.055 14.4134C139.98 14.4329 139.923 14.4717 139.904 14.5688C140.15 14.666 140.34 14.6077 140.472 14.3163C140.586 14.53 140.529 14.7048 140.453 14.8408C140.378 14.9768 140.188 14.9379 140.074 14.8796C139.601 14.7048 139.108 14.7048 138.615 14.6854C138.274 14.6854 137.952 14.6077 137.629 14.5494C137.554 14.53 137.459 14.5494 137.44 14.4523C137.421 14.3357 137.516 14.2969 137.611 14.2775C137.667 14.2386 137.724 14.2192 137.819 14.2192Z" fill="#00FF84"/>
<path d="M26.0594 21.9115C26.1352 22.1057 25.9457 22.1252 25.9078 22.2417C25.832 22.436 25.7941 22.6691 25.6425 22.8245C25.5856 22.8827 25.5477 22.941 25.4529 22.9799C25.2634 23.0576 24.6001 22.5331 24.638 22.3194C24.6569 22.2029 24.6759 22.0863 24.638 21.9698C24.619 21.9309 24.6569 21.8726 24.6759 21.8338C24.8275 21.4841 25.5856 21.251 25.8888 21.4647C26.0784 21.5813 26.0215 21.7755 26.0594 21.9115Z" fill="#00FF84"/>
<path d="M119.72 0.330313C120.327 0.408013 120.933 0.349738 121.54 0.446863C122.222 0.543988 122.904 0.563413 123.587 0.660538C123.7 0.679963 123.833 0.679963 123.814 0.835363C123.795 0.990763 123.663 1.02961 123.549 1.02961C123.321 1.01019 123.094 0.990763 122.867 0.951913C122.336 0.874213 121.824 0.757663 121.275 0.835363C121.104 0.854788 120.914 0.815938 120.763 0.777088C120.479 0.718813 120.194 0.641113 119.91 0.718813C119.815 0.738238 119.701 0.718813 119.626 0.660538C119.55 0.602263 119.455 0.524563 119.493 0.408013C119.512 0.291463 119.626 0.330313 119.72 0.330313Z" fill="#00FF84"/>
<path d="M118.658 1.39871C118.033 1.26274 117.427 1.45699 116.82 1.45699C116.744 1.45699 116.668 1.41814 116.593 1.37929C116.536 1.34044 116.46 1.28216 116.403 1.34044C116.195 1.59296 115.91 1.43756 115.664 1.49584C115.55 1.51526 115.455 1.49584 115.436 1.35986C115.418 1.24331 115.493 1.16561 115.607 1.14619C115.929 1.08791 116.251 0.971361 116.574 1.01021C116.858 1.04906 117.142 0.990786 117.445 1.02964C117.502 1.02964 117.559 1.04906 117.597 1.01021C117.957 0.621711 118.393 1.04906 118.772 0.932511C118.886 0.893661 119 1.06849 118.962 1.22389C118.924 1.39871 118.772 1.39871 118.658 1.39871Z" fill="#00FF84"/>
<path d="M124.781 10.2953C124.099 10.2176 123.416 10.1399 122.715 10.0817C122.222 10.0428 121.749 9.9457 121.256 9.96512C121.199 9.96512 121.142 9.96512 121.085 9.9457C120.991 9.92627 120.858 9.88742 120.877 9.77087C120.896 9.65432 121.009 9.61547 121.123 9.6349C121.389 9.65432 121.635 9.69317 121.9 9.7126C122.393 9.75145 122.905 9.7903 123.398 9.82915C123.966 9.868 124.535 9.92627 125.103 9.98455C125.217 10.004 125.35 10.004 125.331 10.1594C125.331 10.2953 125.179 10.2759 125.084 10.2759C125.008 10.2953 124.895 10.2953 124.781 10.2953Z" fill="#00FF84"/>
<path d="M125.749 5.22547C125.048 5.0895 124.289 5.10892 123.55 4.95352C123.209 4.87582 122.849 4.87582 122.508 4.81755C122.413 4.79812 122.318 4.75927 122.224 4.73985C122.167 4.72042 122.129 4.68157 122.129 4.6233C122.129 4.5456 122.167 4.50675 122.243 4.48732C122.299 4.4679 122.356 4.4679 122.413 4.4679C123.133 4.56502 123.854 4.66215 124.574 4.73985C124.877 4.7787 125.161 4.79812 125.465 4.79812C125.692 4.79812 125.9 4.99237 126.147 5.0118C126.185 5.0118 126.204 5.07007 126.185 5.10892C126.166 5.14777 126.128 5.1672 126.09 5.1672C125.995 5.20605 125.881 5.20605 125.749 5.22547Z" fill="#00FF84"/>
<path d="M124.082 1.06847C124.328 0.738243 124.651 0.757668 124.935 0.815943C125.712 0.951918 126.489 0.893643 127.266 1.04904C127.437 1.08789 127.588 1.14617 127.759 1.18502C127.854 1.20444 127.967 1.30157 127.948 1.39869C127.91 1.53467 127.778 1.47639 127.702 1.45697C126.963 1.34042 126.205 1.30157 125.447 1.20444C124.973 1.12674 124.537 1.16559 124.082 1.06847Z" fill="#00FF84"/>
<path d="M108.976 14.7825C108.369 14.8214 107.838 14.666 107.27 14.666C107.023 14.666 106.796 14.7048 106.55 14.7242C106.398 14.7437 106.114 14.8019 106.095 14.5688C106.076 14.3552 106.322 14.3552 106.512 14.3357C106.891 14.2775 107.251 14.3163 107.63 14.4134C107.971 14.4911 108.35 14.4134 108.691 14.3746C109.013 14.3357 109.298 14.5106 109.601 14.4911C109.696 14.4911 109.772 14.5883 109.753 14.6854C109.734 14.8019 109.639 14.7825 109.563 14.7825C109.374 14.7825 109.146 14.7825 108.976 14.7825Z" fill="#00FF84"/>
<path d="M114.112 14.7049C113.771 14.6854 113.411 14.802 113.126 14.7243C112.747 14.6466 112.425 14.8214 112.103 14.7631C111.8 14.7049 111.496 14.6272 111.174 14.666C111.098 14.666 111.022 14.6854 110.947 14.7049C110.852 14.7437 110.776 14.7826 110.757 14.6272C110.757 14.5106 110.681 14.3552 110.871 14.3552C111.155 14.3552 111.42 14.2581 111.724 14.3358C112.33 14.5106 112.937 14.2969 113.562 14.3164C113.752 14.3164 113.941 14.3164 114.131 14.3746C114.263 14.4135 114.453 14.4135 114.434 14.6077C114.396 14.7826 114.207 14.6272 114.112 14.7049Z" fill="#00FF84"/>
<path d="M125.918 1.88438C125.482 1.80668 125.027 1.84553 124.591 1.7484C124.231 1.6707 123.871 1.69013 123.492 1.6707C123.189 1.65128 122.885 1.47645 122.563 1.57358C122.43 1.61243 122.393 1.45703 122.468 1.34048C122.525 1.26278 122.62 1.22393 122.715 1.24335C123.17 1.30163 123.624 1.32105 124.06 1.49588C124.212 1.55415 124.42 1.45703 124.591 1.45703C125.084 1.45703 125.577 1.57358 126.088 1.55415C126.183 1.55415 126.316 1.61243 126.278 1.7484C126.221 1.9038 126.05 1.86495 125.918 1.88438Z" fill="#00FF84"/>
<path d="M118.508 6.87659C117.484 6.83774 116.461 6.81831 115.438 6.77946C115.305 6.77946 115.153 6.76004 115.021 6.74061C114.926 6.72119 114.831 6.70176 114.85 6.56578C114.869 6.44923 114.964 6.42981 115.059 6.42981C115.589 6.44923 116.12 6.42981 116.651 6.48809C117.276 6.56579 117.901 6.50751 118.527 6.62406C118.641 6.64348 118.811 6.60464 118.811 6.77946C118.792 6.93486 118.622 6.87659 118.508 6.87659Z" fill="#00FF84"/>
<path d="M98.1341 2.5254C97.6792 2.56425 97.2812 2.40885 96.8832 2.48655C96.58 2.54483 96.2957 2.6031 95.9925 2.5254C95.8977 2.50598 95.7461 2.54483 95.7461 2.37C95.7461 2.23403 95.8977 2.17575 95.9925 2.19518C96.3526 2.23403 96.7127 2.09805 97.0728 2.15633C97.5845 2.23403 98.0962 2.09805 98.589 2.1369C98.6648 2.1369 98.7216 2.1369 98.7974 2.1369C98.8733 2.1369 98.968 2.17575 98.968 2.27288C98.968 2.37 98.9112 2.42828 98.8164 2.42828C98.57 2.48655 98.3426 2.54483 98.1341 2.5254Z" fill="#00FF84"/>
<path d="M104.994 5.28369C104.331 5.30312 103.819 5.20599 103.307 5.32254C103.099 5.36139 102.966 5.16714 102.795 5.10887C102.739 5.08944 102.739 5.01174 102.776 4.95347C102.814 4.87577 102.89 4.87577 102.966 4.89519C103.743 5.08944 104.52 4.95347 105.297 4.97289C105.506 4.97289 105.695 5.01174 105.885 5.03117C105.96 5.03117 106.036 5.08944 106.036 5.18657C106.036 5.30312 105.941 5.30312 105.866 5.32254C105.543 5.28369 105.202 5.28369 104.994 5.28369Z" fill="#00FF84"/>
<path d="M114.187 4.91467C114.888 5.07007 115.627 4.89525 116.347 5.05065C116.423 5.07007 116.48 5.07007 116.556 5.0895C116.65 5.12835 116.764 5.1672 116.745 5.30317C116.726 5.43915 116.613 5.43915 116.499 5.41972C115.627 5.36145 114.774 5.28375 113.902 5.30317C113.808 5.30317 113.713 5.28375 113.694 5.1672C113.675 5.05065 113.77 4.99237 113.864 4.97295C113.978 4.9341 114.073 4.9341 114.187 4.91467Z" fill="#00FF84"/>
<path d="M125.597 17.6769C125.293 17.6575 125.066 17.6381 124.838 17.6186C124.706 17.6186 124.592 17.5798 124.535 17.774C124.497 17.8906 124.327 17.8906 124.289 17.8129C124.175 17.5215 123.929 17.6186 123.739 17.5798C123.701 17.5798 123.663 17.5798 123.625 17.5604C123.512 17.5215 123.322 17.5409 123.341 17.3661C123.36 17.1913 123.531 17.2496 123.663 17.2301C124.327 17.1524 124.971 17.3273 125.634 17.3661C125.748 17.3661 125.938 17.3273 125.938 17.5215C125.938 17.6963 125.767 17.6769 125.634 17.6769C125.578 17.6769 125.559 17.6769 125.597 17.6769Z" fill="#00FF84"/>
<path d="M133.858 16.0646C134.2 15.9481 134.541 16.084 134.901 16.0452C134.996 16.0258 135.109 16.0452 135.128 16.1812C135.147 16.3366 135.034 16.3754 134.92 16.3754C134.541 16.3948 134.143 16.4531 133.783 16.356C133.423 16.2589 133.025 16.3948 132.683 16.1423C132.646 16.1035 132.551 16.1229 132.551 16.0452C132.551 15.9481 132.646 15.9286 132.702 15.9286C132.911 15.9286 133.1 15.9481 133.309 15.9481C133.404 15.9481 133.517 15.9481 133.574 15.8509C133.631 15.7538 133.707 15.715 133.821 15.7732C133.972 15.8509 133.821 15.9481 133.858 16.0646Z" fill="#00FF84"/>
<path d="M115.534 11.1112C115.231 11.15 114.946 11.0529 114.681 11.2083C114.586 11.2666 114.454 11.2277 114.378 11.15C114.283 11.0723 114.188 11.0529 114.075 11.0335C113.961 11.0335 113.828 11.0141 113.828 10.8781C113.828 10.7033 113.98 10.7227 114.093 10.7227C114.416 10.7227 114.738 10.781 115.079 10.7615C115.458 10.7421 115.856 10.7615 116.235 10.781C116.33 10.781 116.481 10.7615 116.481 10.9169C116.481 11.0529 116.33 11.0335 116.235 11.0335C116.008 11.0335 115.78 11.2083 115.534 11.1112Z" fill="#00FF84"/>
<path d="M121.75 1.51529C121.295 1.39874 120.783 1.51529 120.29 1.47644C120.12 1.45702 119.987 1.39874 119.854 1.30162C119.798 1.24334 119.703 1.20449 119.76 1.10737C119.798 1.01024 119.892 0.971393 119.987 0.990818C120.688 1.14622 121.39 1.12679 122.091 1.16564C122.186 1.16564 122.299 1.18507 122.318 1.32104C122.337 1.45702 122.224 1.47644 122.11 1.49587C121.996 1.49587 121.882 1.49587 121.75 1.51529Z" fill="#00FF84"/>
<path d="M124.669 15.035C124.631 14.8602 124.422 14.7825 124.574 14.6659C124.707 14.5688 124.782 14.6854 124.858 14.8019C125.029 15.0933 125.332 14.9767 125.578 15.0739C125.711 15.1321 125.976 15.035 125.939 15.2681C125.92 15.4818 125.673 15.4041 125.541 15.3847C124.896 15.2293 124.233 15.2098 123.588 15.2098C123.494 15.2098 123.38 15.2098 123.361 15.0933C123.342 14.9379 123.494 14.9379 123.569 14.9379C123.93 14.9573 124.271 14.8213 124.669 15.035Z" fill="#00FF84"/>
<path d="M134.485 17.0358C134.447 17.1135 134.409 17.2301 134.334 17.2884C134.22 17.3855 134.068 17.4243 133.992 17.5603C133.973 17.5992 133.898 17.5992 133.86 17.5603C133.803 17.5215 133.822 17.4826 133.841 17.4243C133.86 17.3855 134.011 17.3466 133.86 17.2884C133.784 17.2689 133.708 17.2884 133.689 17.3661C133.67 17.502 133.575 17.5603 133.481 17.6574C133.367 17.7546 133.291 17.8517 133.158 17.6963C133.064 17.5797 132.988 17.7157 132.893 17.7351C132.723 17.7546 132.552 17.7546 132.666 17.502C132.704 17.3855 132.666 17.2884 132.666 17.1718C132.666 17.0747 132.685 17.0164 132.779 16.9776C132.874 16.9387 132.95 16.9776 133.007 17.0747C133.177 17.3272 133.424 17.3466 133.651 17.1524C133.689 17.1135 133.746 17.0941 133.803 17.0747C133.992 17.0358 134.239 17.2495 134.39 16.9776C134.39 16.9387 134.466 16.9776 134.485 17.0358Z" fill="#00FF84"/>
<path d="M113.713 17.4827C113.504 17.4827 113.315 17.4827 113.106 17.4827C112.898 17.4632 112.5 17.0359 112.5 16.8416C112.5 16.7639 112.557 16.7251 112.614 16.7057C112.765 16.6668 112.917 16.6668 113.05 16.7251C113.144 16.7639 113.201 16.8416 113.144 16.9388C112.936 17.2301 113.201 17.1719 113.315 17.1719C113.618 17.2107 113.902 17.0942 114.206 17.1719C114.282 17.1913 114.338 17.1913 114.414 17.2301C114.49 17.2496 114.547 17.3078 114.528 17.3855C114.509 17.4827 114.433 17.4827 114.357 17.4827C114.13 17.4827 113.921 17.4827 113.694 17.4827C113.713 17.5021 113.713 17.4827 113.713 17.4827Z" fill="#00FF84"/>
<path d="M135.09 9.05216C134.844 9.01331 134.636 8.95504 134.427 8.91619C134.351 8.89676 134.275 8.83849 134.332 8.78021C134.446 8.66366 134.181 8.39171 134.503 8.37229C134.655 8.37229 134.73 8.33344 134.844 8.21689C134.996 8.06149 135.242 8.19746 135.413 8.29459C135.583 8.37229 135.432 8.50826 135.375 8.62481C135.337 8.70251 135.318 8.79964 135.299 8.89676C135.28 9.01331 135.185 9.05216 135.09 9.05216Z" fill="#00FF84"/>
<path d="M99.6863 2.15629C100.236 2.23399 100.767 2.11744 101.316 2.13686C101.43 2.13686 101.601 2.11744 101.582 2.29226C101.563 2.42824 101.43 2.40881 101.316 2.40881C100.805 2.42824 100.293 2.44766 99.8001 2.48651C99.6295 2.50594 99.4589 2.46709 99.2883 2.42824C99.2125 2.40881 99.1367 2.36996 99.1367 2.27284C99.1557 2.17571 99.2315 2.13686 99.3073 2.13686C99.4589 2.15629 99.5726 2.15629 99.6863 2.15629Z" fill="#00FF84"/>
<path d="M120.042 14.9573C119.815 14.8408 119.53 14.9962 119.265 15.0156C119.17 15.0156 119.076 15.0156 119 14.9962C118.886 14.9573 118.678 14.9573 118.697 14.8019C118.715 14.666 118.905 14.7437 119 14.7048C119.322 14.5883 119.682 14.6465 120.004 14.6077C120.232 14.5688 120.421 14.5106 120.649 14.5688C120.724 14.5883 120.857 14.53 120.838 14.6854C120.838 14.8019 120.762 14.8991 120.63 14.9185C120.478 14.9379 120.289 14.9379 120.042 14.9573Z" fill="#00FF84"/>
<path d="M81.229 1.20444C81.0205 1.20444 80.8121 1.20444 80.6036 1.20444C80.5088 1.20444 80.4141 1.16559 80.4141 1.04904C80.4141 0.93249 80.5278 0.913065 80.6225 0.913065C80.8689 0.913065 81.0964 0.85479 81.3427 0.89364C81.6081 0.93249 81.8734 0.85479 82.1387 0.81594C82.3283 0.77709 82.6315 0.679965 82.6694 0.97134C82.6884 1.20444 82.3851 1.14617 82.2145 1.16559C81.8734 1.18502 81.5512 1.24329 81.229 1.20444Z" fill="#00FF84"/>
<path d="M105.508 8.7219C104.75 8.89672 103.973 8.955 103.196 8.93557C103.139 8.93557 103.082 8.93557 103.025 8.93557C102.931 8.91615 102.836 8.89672 102.836 8.78017C102.836 8.66362 102.931 8.62477 103.025 8.62477C103.632 8.62477 104.219 8.60535 104.826 8.60535C105.053 8.60535 105.281 8.60535 105.508 8.7219Z" fill="#00FF84"/>
<path d="M113.486 6.72121C113.183 6.72121 112.861 6.72121 112.557 6.72121C112.444 6.72121 112.311 6.70179 112.33 6.54639C112.349 6.41041 112.463 6.35214 112.576 6.37156C113.183 6.52696 113.808 6.31329 114.415 6.39099C114.528 6.41041 114.661 6.39099 114.661 6.54639C114.661 6.72121 114.509 6.70179 114.396 6.70179C114.093 6.72121 113.789 6.70179 113.486 6.72121Z" fill="#00FF84"/>
<path d="M90.5919 0.854757C90.137 0.932457 89.6442 0.913032 89.1515 0.913032C89.0378 0.913032 88.8672 0.932457 88.8672 0.777056C88.8672 0.602231 89.0188 0.621656 89.1325 0.621656C89.739 0.582806 90.3455 0.563381 90.952 0.602231C91.0088 0.602231 91.0467 0.621656 91.0846 0.660506C91.1225 0.738206 91.0657 0.777056 91.0278 0.815906C90.8951 0.893607 90.7624 0.874182 90.5919 0.854757Z" fill="#00FF84"/>
<path d="M108.216 8.60542C108.102 8.78025 107.951 8.7414 107.799 8.76082C107.211 8.87737 106.624 8.87737 106.036 8.85795C105.923 8.85795 105.752 8.87737 105.771 8.68312C105.79 8.5083 105.942 8.54715 106.055 8.54715C106.529 8.586 106.984 8.4306 107.458 8.52772C107.704 8.586 107.932 8.76082 108.216 8.60542Z" fill="#00FF84"/>
<path d="M111.627 7.12903C111.911 7.12903 112.196 7.12903 112.461 7.12903C112.556 7.12903 112.689 7.14845 112.67 7.28443C112.67 7.4204 112.556 7.43983 112.442 7.43983C111.874 7.43983 111.305 7.43983 110.736 7.43983C110.642 7.43983 110.547 7.40098 110.547 7.28443C110.547 7.16788 110.642 7.12903 110.736 7.12903C111.059 7.12903 111.343 7.12903 111.627 7.12903Z" fill="#00FF84"/>
<path d="M117.976 14.8214C117.578 15.0156 117.161 14.7048 116.763 14.8796C116.706 14.8991 116.65 14.8796 116.593 14.8796C116.517 14.8602 116.441 14.8408 116.46 14.7437C116.46 14.666 116.536 14.6271 116.593 14.6465C116.801 14.6854 116.991 14.3357 117.218 14.6077C117.521 14.2969 117.862 14.5494 118.166 14.53C118.279 14.5106 118.431 14.4911 118.469 14.6465C118.507 14.8408 118.298 14.7825 118.204 14.8214C118.128 14.8408 118.052 14.8214 117.976 14.8214Z" fill="#00FF84"/>
<path d="M128.534 1.24329C129.008 1.30156 129.462 1.34041 129.917 1.39869C130.031 1.41811 130.164 1.43754 130.145 1.59294C130.107 1.76776 129.974 1.70949 129.86 1.70949C129.424 1.67064 128.989 1.65121 128.553 1.61236C128.42 1.59294 128.23 1.65121 128.23 1.43754C128.23 1.24329 128.401 1.24329 128.534 1.24329Z" fill="#00FF84"/>
<path d="M144.017 14.3163C144.169 14.3163 144.301 14.2775 144.434 14.3552C144.491 14.3746 144.548 14.4134 144.548 14.4911C144.548 14.5688 144.472 14.6077 144.415 14.5883C144.017 14.53 143.6 14.53 143.221 14.394C143.164 14.3746 143.107 14.2969 143.145 14.258C143.24 14.1221 143.221 13.9084 143.429 13.8695C143.657 13.8307 143.846 13.9472 144.036 14.0249C144.169 14.0832 144.017 14.1998 144.017 14.3163Z" fill="#00FF84"/>
<path d="M132.077 1.96203C132.058 1.96203 132.058 1.96203 132.039 1.96203C131.906 1.96203 131.755 1.98146 131.66 1.84548C131.641 1.80663 131.66 1.74836 131.698 1.74836C131.849 1.70951 132.02 1.57353 132.153 1.67066C132.361 1.82606 132.588 1.65123 132.816 1.78721C133.024 1.90376 133.271 1.94261 133.517 1.92318C133.612 1.92318 133.688 1.92318 133.782 1.94261C133.858 1.96203 133.934 2.00088 133.934 2.09801C133.934 2.19513 133.839 2.23398 133.764 2.23398C133.517 2.23398 133.29 2.17571 133.062 2.13686C132.74 2.05916 132.418 2.02031 132.096 1.96203C132.077 1.94261 132.077 1.94261 132.077 1.96203Z" fill="#00FF84"/>
<path d="M132.932 4.17654C132.515 4.07942 132.079 4.05999 131.643 4.04057C131.51 4.04057 131.34 3.98229 131.34 3.80747C131.359 3.59379 131.529 3.67149 131.681 3.67149C132.117 3.67149 132.534 3.86574 132.97 3.86574C133.065 3.86574 133.197 3.88517 133.178 4.02114C133.197 4.15712 133.065 4.17654 132.932 4.17654Z" fill="#00FF84"/>
<path d="M108.425 1.47647C108.122 1.41819 107.781 1.43762 107.421 1.47647C107.307 1.47647 107.156 1.49589 107.137 1.32107C107.137 1.14624 107.288 1.10739 107.421 1.12682C107.914 1.20452 108.407 1.18509 108.899 1.10739C108.994 1.08797 109.089 1.10739 109.108 1.22394C109.127 1.32107 109.051 1.35992 108.975 1.39877C108.823 1.49589 108.634 1.45704 108.425 1.47647Z" fill="#00FF84"/>
<path d="M40.9355 23.3296C41.1819 23.4267 41.5988 23.2519 41.6936 23.6792C41.7315 23.8541 41.3714 24.0483 41.106 24.0289C40.8786 24.0095 40.6133 23.7375 40.6133 23.5433C40.6322 23.3879 40.7459 23.3102 40.9355 23.3296Z" fill="#00FF84"/>
<path d="M105.318 0.543996C104.996 0.427445 104.655 0.602271 104.313 0.543996C104.219 0.52457 104.086 0.543995 104.086 0.40802C104.086 0.29147 104.219 0.310895 104.294 0.29147C104.787 0.21377 105.28 0.17492 105.792 0.17492C105.886 0.17492 106 0.155495 106.019 0.272045C106.038 0.388595 105.924 0.44687 105.83 0.466295C105.678 0.505146 105.507 0.505145 105.318 0.543996Z" fill="#00FF84"/>
<path d="M119.682 5.51683C119.265 5.55568 118.924 5.45855 118.583 5.4197C118.488 5.40028 118.394 5.38085 118.413 5.2643C118.432 5.12833 118.526 5.1089 118.64 5.12833C119.038 5.14775 119.436 5.16718 119.815 5.1866C119.948 5.1866 120.118 5.1866 120.118 5.36143C120.118 5.55568 119.948 5.55568 119.796 5.53625C119.739 5.51683 119.682 5.51683 119.682 5.51683Z" fill="#00FF84"/>
<path d="M127.149 3.45776C126.827 3.43834 126.486 3.39949 126.164 3.38006C126.031 3.36064 125.898 3.32179 125.898 3.16639C125.898 3.01099 126.05 3.03041 126.145 3.03041C126.562 2.99156 126.979 3.16639 127.396 3.16639C127.49 3.16639 127.585 3.22466 127.585 3.32179C127.585 3.45776 127.471 3.43834 127.377 3.45776C127.301 3.45776 127.225 3.45776 127.149 3.45776Z" fill="#00FF84"/>
<path d="M110.907 5.26429C110.546 5.18658 110.205 5.32256 109.864 5.24486C109.769 5.22543 109.637 5.26428 109.637 5.10888C109.637 4.99233 109.75 4.93406 109.845 4.93406C110.205 4.93406 110.565 4.79808 110.944 4.91463C111.058 4.95348 111.229 4.91463 111.191 5.08946C111.153 5.24486 111.02 5.26429 110.907 5.26429Z" fill="#00FF84"/>
<path d="M94.1539 0.777105C94.0781 0.777105 93.9075 0.777105 93.737 0.777105C93.6612 0.777105 93.5664 0.75768 93.5664 0.64113C93.5664 0.544005 93.6422 0.52458 93.737 0.505155C94.2108 0.40803 94.6846 0.52458 95.1395 0.44688C95.2153 0.427455 95.2721 0.48573 95.2911 0.56343C95.31 0.67998 95.2342 0.71883 95.1205 0.738255C94.8362 0.777105 94.5519 0.815955 94.1539 0.777105Z" fill="#00FF84"/>
<path d="M69.8188 1.57359C69.6672 1.49589 69.4777 1.53474 69.3071 1.57359C69.2124 1.59302 69.1365 1.55417 69.0607 1.49589C69.0039 1.45704 68.947 1.39877 68.9849 1.32107C69.0039 1.24337 69.0797 1.20452 69.1555 1.24337C69.5346 1.37934 69.8946 1.16567 70.2737 1.16567C70.4064 1.16567 70.5959 1.10739 70.5959 1.30164C70.5959 1.49589 70.4253 1.49589 70.2737 1.47647C70.1031 1.45704 69.9894 1.59302 69.8188 1.57359Z" fill="#00FF84"/>
<path d="M128.819 15.6566C128.572 15.6372 128.345 15.6566 128.137 15.5789C128.061 15.5595 128.004 15.5206 128.004 15.4235C128.004 15.3458 128.061 15.2875 128.137 15.2875C128.554 15.2487 128.952 15.3847 129.368 15.307C129.425 15.307 129.463 15.3458 129.463 15.4041C129.463 15.5012 129.425 15.5595 129.35 15.5983C129.179 15.7149 128.989 15.6566 128.819 15.6566Z" fill="#00FF84"/>
<path d="M113.126 1.22385C113.126 1.39868 113.012 1.43753 112.861 1.37925C112.728 1.32098 112.633 1.28213 112.576 1.47638C112.519 1.65121 112.387 1.61235 112.33 1.47638C112.273 1.3404 112.216 1.22385 112.046 1.20443C111.989 1.20443 111.951 1.14615 111.97 1.08788C111.97 1.04903 112.027 1.01018 112.046 1.01018C112.311 0.990754 112.576 0.951904 112.842 0.951904C112.993 0.951904 113.126 1.0296 113.126 1.22385Z" fill="#00FF84"/>
<path d="M126.923 10.1594C127.169 10.1983 127.454 10.2371 127.738 10.2954C127.814 10.3148 127.89 10.3537 127.89 10.4508C127.89 10.5674 127.776 10.5868 127.7 10.5868C127.378 10.5674 127.056 10.5285 126.752 10.4702C126.658 10.4508 126.506 10.412 126.525 10.276C126.544 10.1012 126.696 10.1594 126.809 10.14C126.847 10.1594 126.866 10.1594 126.923 10.1594Z" fill="#00FF84"/>
<path d="M113.39 1.2239C113.352 0.971378 113.466 0.874252 113.674 0.932528C113.883 0.990803 114.072 1.04908 114.281 1.12678C114.376 1.16563 114.451 1.2239 114.413 1.32103C114.395 1.41815 114.319 1.43758 114.224 1.43758C113.978 1.457 113.75 1.3793 113.485 1.43758C113.352 1.51528 113.409 1.32103 113.39 1.2239Z" fill="#00FF84"/>
<path d="M118.545 0.233154C118.773 0.233154 118.981 0.291429 119.171 0.272004C119.265 0.252579 119.322 0.310854 119.341 0.407979C119.36 0.505105 119.284 0.52453 119.228 0.56338C119.095 0.621655 118.962 0.699355 118.83 0.621655C118.697 0.543955 118.564 0.56338 118.432 0.621655C118.28 0.67993 118.109 0.660505 118.071 0.48568C118.015 0.252579 118.242 0.330279 118.356 0.291429C118.432 0.233154 118.507 0.233154 118.545 0.233154Z" fill="#00FF84"/>
<path d="M74.0826 1.41808C73.7983 1.39866 73.533 1.37923 73.2487 1.34038C73.1729 1.34038 73.0781 1.32096 73.0781 1.20441C73.0781 1.10728 73.1729 1.06843 73.2487 1.06843C73.3245 1.04901 73.4003 1.04901 73.4572 1.06843C73.7415 1.18498 74.0257 1.16556 74.31 1.06843C74.4427 1.02958 74.6322 1.01016 74.6512 1.20441C74.6701 1.37923 74.4806 1.35981 74.3669 1.37923C74.2532 1.41808 74.1584 1.39866 74.0826 1.41808C74.0826 1.39866 74.0826 1.39866 74.0826 1.41808Z" fill="#00FF84"/>
<path d="M99.2163 5.28368C98.9699 5.3031 98.7993 5.16713 98.5909 5.10885C98.534 5.08943 98.4961 5.03115 98.4961 4.97288C98.4961 4.89518 98.5529 4.87575 98.6098 4.85633C98.6477 4.8369 98.7046 4.81748 98.7235 4.8369C99.0268 4.97288 99.3111 5.07 99.6332 4.89518C99.7091 4.85633 99.8038 4.9923 99.8038 5.10885C99.8228 5.26425 99.709 5.2254 99.6143 5.2254C99.4627 5.20598 99.349 5.36138 99.2163 5.28368Z" fill="#00FF84"/>
<path d="M118.262 16.4531C118.016 16.4337 117.789 16.4337 117.561 16.4143C117.466 16.4143 117.391 16.3949 117.391 16.2977C117.391 16.1812 117.466 16.1423 117.561 16.1423C117.94 16.1618 118.338 16.1812 118.717 16.2006C118.812 16.2006 118.926 16.2006 118.926 16.3172C118.926 16.4531 118.793 16.4143 118.717 16.4337C118.566 16.4726 118.395 16.4726 118.262 16.4531Z" fill="#00FF84"/>
<path d="M130.617 16.1618C130.295 16.1229 129.954 16.1424 129.632 16.1229C129.518 16.1229 129.385 16.1035 129.404 15.9481C129.423 15.7927 129.556 15.8121 129.67 15.8316C130.03 15.8704 130.409 15.9093 130.769 15.9481C130.864 15.9675 131.015 15.9287 130.996 16.0647C130.996 16.2201 130.845 16.1424 130.769 16.1424C130.731 16.1618 130.674 16.1618 130.617 16.1618Z" fill="#00FF84"/>
<path d="M67.0524 1.26274C67.2419 1.30159 67.4693 1.20446 67.602 1.41814C67.6399 1.47641 67.6778 1.51526 67.6588 1.57354C67.6399 1.63181 67.5641 1.61239 67.5262 1.61239C67.2419 1.65124 66.9576 1.59296 66.6733 1.57354C66.5786 1.57354 66.4648 1.53469 66.4648 1.39871C66.4648 1.26274 66.5786 1.28216 66.6544 1.26274C66.787 1.24331 66.9197 1.24331 67.0524 1.26274Z" fill="#00FF84"/>
<path d="M109.242 16.5697C109.508 16.6086 109.773 16.628 110.038 16.6474C110.341 16.6668 110.379 16.9776 110.55 17.1525C110.588 17.1913 110.55 17.2496 110.493 17.269C110.436 17.2884 110.36 17.269 110.341 17.2107C110.266 16.9971 110.095 16.9776 109.924 16.9971C109.602 17.0359 109.508 16.6863 109.242 16.5697Z" fill="#00FF84"/>
<path d="M65.8564 1.63183C65.6669 1.63183 65.4774 1.63183 65.2878 1.63183C65.1741 1.63183 65.0415 1.59298 65.0604 1.43758C65.0794 1.30161 65.212 1.28218 65.3258 1.30161C65.4963 1.32103 65.6669 1.32103 65.8375 1.30161C66.008 1.28218 66.2355 1.24333 66.2355 1.47643C66.2355 1.70953 65.9891 1.61241 65.8564 1.63183Z" fill="#00FF84"/>
<path d="M121.862 16.6474C121.71 16.628 121.539 16.628 121.388 16.5891C121.293 16.5697 121.198 16.492 121.217 16.3755C121.236 16.2395 121.35 16.2783 121.426 16.2783C121.653 16.2978 121.881 16.2978 122.108 16.3172C122.222 16.3172 122.373 16.3366 122.354 16.492C122.335 16.6863 122.203 16.628 122.07 16.628C122.013 16.6474 121.937 16.628 121.862 16.6474Z" fill="#00FF84"/>
<path d="M128.762 3.57427C128.383 3.69082 128.326 3.3606 128.194 3.14692C128.175 3.10807 128.156 3.06922 128.194 3.03037C128.251 2.99152 128.307 2.99152 128.364 3.0498C128.459 3.14692 128.516 3.18577 128.63 3.06922C128.705 2.99152 128.781 3.03037 128.819 3.10807C128.838 3.14692 128.857 3.2052 128.895 3.24405C128.952 3.32175 129.141 3.34117 129.085 3.47715C129.028 3.63255 128.857 3.55485 128.762 3.57427Z" fill="#00FF84"/>
<path d="M104.465 18.4734C104.806 18.3568 105.109 18.3374 105.412 18.2985C105.545 18.2791 105.697 18.3374 105.697 18.4928C105.716 18.687 105.545 18.6482 105.431 18.6482C105.109 18.6676 104.787 18.7065 104.465 18.4734Z" fill="#00FF84"/>
<path d="M134.598 6.15784C134.807 6.17726 135.034 6.19669 135.262 6.23554C135.375 6.25496 135.47 6.33266 135.432 6.46864C135.394 6.58519 135.299 6.56576 135.205 6.54634C134.977 6.50749 134.75 6.54634 134.522 6.42979C134.447 6.39094 134.333 6.35209 134.371 6.23554C134.39 6.15784 134.485 6.15784 134.598 6.15784Z" fill="#00FF84"/>
<path d="M111.02 1.02966C111.039 1.02966 111.058 1.02966 111.077 1.02966C111.21 1.04909 111.4 0.990813 111.418 1.18506C111.437 1.39874 111.229 1.34046 111.096 1.35989C110.964 1.39874 110.85 1.39874 110.717 1.41816C110.604 1.43759 110.49 1.39874 110.471 1.26276C110.452 1.12679 110.566 1.06851 110.66 1.02966C110.774 1.02966 110.888 1.02966 111.02 1.02966Z" fill="#00FF84"/>
<path d="M123.701 3.04978C123.625 3.04978 123.512 3.04978 123.398 3.04978C123.303 3.04978 123.246 2.97208 123.265 2.87495C123.284 2.77783 123.341 2.73898 123.417 2.77783C123.72 2.89438 124.023 2.77783 124.327 2.87495C124.44 2.9138 124.573 2.89438 124.516 3.0692C124.478 3.18575 124.365 3.20518 124.27 3.1469C124.118 3.0692 123.929 3.08863 123.701 3.04978Z" fill="#00FF84"/>
<path d="M126.523 15.2681C126.997 15.2293 127.376 15.2099 127.755 15.171C127.831 15.171 127.888 15.2099 127.907 15.2876C127.926 15.4041 127.85 15.4818 127.755 15.4818C127.357 15.4818 126.959 15.5401 126.523 15.2681Z" fill="#00FF84"/>
<path d="M146.992 11.0724C147.296 11.0724 147.58 11.2861 147.902 11.3055C147.978 11.3055 148.016 11.3832 147.997 11.4609C147.978 11.5386 147.902 11.5774 147.826 11.558C147.466 11.4609 147.125 11.3638 146.784 11.2666C146.727 11.2472 146.689 11.2084 146.708 11.1501C146.765 11.0335 146.879 11.1112 146.992 11.0724Z" fill="#00FF84"/>
<path d="M90.2109 7.43987C90.4194 7.43987 90.6469 7.6147 90.8743 7.42045C90.9311 7.3816 91.007 7.43987 91.0449 7.51757C91.0828 7.59527 91.0638 7.6924 90.969 7.73125C90.8174 7.80895 90.6469 7.8478 90.4763 7.80895C90.3626 7.78952 90.2678 7.75067 90.1541 7.73125C90.0593 7.71182 89.8888 7.7701 89.9077 7.59527C89.9267 7.42045 90.0783 7.4593 90.2109 7.43987Z" fill="#00FF84"/>
</g>
<defs>
<clipPath id="clip0_2629_6487">
<rect width="148" height="25" fill="white"/>
</clipPath>
</defs>
</svg>
