<svg width="72" height="72" viewBox="0 0 72 72" fill="none" xmlns="http://www.w3.org/2000/svg">
<rect width="72" height="72" rx="6" fill="#EEEEEE"/>
<rect y="24" width="72" height="24" fill="#D9D9D9"/>
<path d="M18.656 42C18.536 42 18.476 41.934 18.476 41.802V30.408C18.476 30.276 18.536 30.21 18.656 30.21H21.77C23.246 30.21 24.35 30.528 25.082 31.164C25.826 31.788 26.198 32.712 26.198 33.936C26.198 35.148 25.826 36.072 25.082 36.708C24.338 37.332 23.234 37.644 21.77 37.644H20.186V41.802C20.186 41.934 20.126 42 20.006 42H18.656ZM20.186 36.186H21.734C22.682 36.186 23.372 36.012 23.804 35.664C24.248 35.304 24.47 34.746 24.47 33.99C24.47 33.174 24.242 32.586 23.786 32.226C23.342 31.854 22.646 31.668 21.698 31.668H20.186V36.186ZM28.5349 42C28.4149 42 28.3549 41.934 28.3549 41.802V30.408C28.3549 30.276 28.4149 30.21 28.5349 30.21H31.8289C33.6889 30.21 35.0749 30.642 35.9869 31.506C36.8989 32.358 37.3549 33.654 37.3549 35.394V36.348C37.3549 38.244 36.8989 39.66 35.9869 40.596C35.0749 41.532 33.6889 42 31.8289 42H28.5349ZM30.0649 40.542H31.7029C33.0589 40.542 34.0489 40.206 34.6729 39.534C35.3089 38.862 35.6269 37.824 35.6269 36.42V35.304C35.6269 34.068 35.3089 33.156 34.6729 32.568C34.0489 31.968 33.0589 31.668 31.7029 31.668H30.0649V40.542ZM40.1013 42C39.9813 42 39.9213 41.934 39.9213 41.802V30.408C39.9213 30.276 39.9813 30.21 40.1013 30.21H46.6533C46.7733 30.21 46.8333 30.276 46.8333 30.408V31.56C46.8333 31.692 46.7733 31.758 46.6533 31.758H41.6313V35.448H45.9693C46.0893 35.448 46.1493 35.514 46.1493 35.646V36.762C46.1493 36.882 46.0893 36.942 45.9693 36.942H41.6313V41.802C41.6313 41.934 41.5713 42 41.4513 42H40.1013Z" fill="#EDEDED"/>
</svg>
