<svg width="38" height="19" viewBox="0 0 38 19" fill="none" xmlns="http://www.w3.org/2000/svg">
<path d="M12.7186 18.5H24.881C26.4614 18.5 27.2516 17.9907 27.2516 16.9721C27.2516 16.3483 27.0581 15.683 26.671 14.9764C26.284 14.2697 25.7244 13.6029 24.9923 12.9758C24.2602 12.3488 23.3732 11.8379 22.3314 11.4432C21.2897 11.0485 20.1141 10.8511 18.8047 10.8511C17.4888 10.8511 16.3099 11.0485 15.2681 11.4432C14.2264 11.8379 13.3395 12.3488 12.6074 12.9758C11.8752 13.6029 11.3157 14.2697 10.9287 14.9764C10.5416 15.683 10.3481 16.3483 10.3481 16.9721C10.3481 17.9907 11.1383 18.5 12.7186 18.5ZM12.2639 17.0581C12.1349 17.0581 12.0429 17.039 11.9881 17.0008C11.9333 16.9626 11.9059 16.8925 11.9059 16.7907C11.9059 16.4024 12.0559 15.952 12.3558 15.4395C12.6558 14.927 13.0992 14.4321 13.6862 13.9546C14.2732 13.4771 14.9956 13.0808 15.8536 12.7657C16.7115 12.4506 17.6952 12.293 18.8047 12.293C19.9142 12.293 20.8963 12.4506 21.7509 12.7657C22.6056 13.0808 23.3265 13.4771 23.9134 13.9546C24.5004 14.4321 24.9439 14.927 25.2439 15.4395C25.5438 15.952 25.6938 16.4024 25.6938 16.7907C25.6938 16.8925 25.6664 16.9626 25.6115 17.0008C25.5567 17.039 25.468 17.0581 25.3454 17.0581H12.2639ZM18.8047 9.53339C19.5723 9.53339 20.2722 9.32967 20.9043 8.92225C21.5364 8.51482 22.0411 7.97211 22.4185 7.29413C22.7959 6.61614 22.9845 5.86654 22.9845 5.04533C22.9845 4.23047 22.7975 3.4936 22.4234 2.83472C22.0492 2.17583 21.5461 1.65222 20.914 1.26389C20.2819 0.875561 19.5788 0.681396 18.8047 0.681396C18.0371 0.681396 17.3372 0.878744 16.705 1.27344C16.0729 1.66813 15.5681 2.19651 15.1908 2.85859C14.8134 3.52065 14.6247 4.25593 14.6247 5.06442C14.6247 5.87928 14.8134 6.6257 15.1908 7.30368C15.5681 7.98167 16.0729 8.52278 16.705 8.92702C17.3372 9.33126 18.0371 9.53339 18.8047 9.53339ZM18.8047 8.09148C18.3338 8.09148 17.9 7.9562 17.5033 7.68564C17.1066 7.41508 16.7873 7.05063 16.5454 6.59227C16.3035 6.13392 16.1826 5.62463 16.1826 5.06442C16.1826 4.51058 16.3019 4.01243 16.5405 3.56999C16.7792 3.12755 17.0969 2.77583 17.4936 2.51482C17.8903 2.25381 18.3273 2.12331 18.8047 2.12331C19.2885 2.12331 19.7287 2.25063 20.1254 2.50527C20.5221 2.75991 20.8382 3.10846 21.0736 3.5509C21.3091 3.99334 21.4268 4.49148 21.4268 5.04533C21.4268 5.60553 21.3075 6.11641 21.0688 6.57795C20.8301 7.03949 20.5124 7.40713 20.1157 7.68087C19.719 7.95461 19.282 8.09148 18.8047 8.09148ZM2.26886 18.5H9.8643C9.63208 18.3727 9.4418 18.1785 9.29344 17.9175C9.14507 17.6565 9.08702 17.3795 9.11926 17.0867H2.03664C1.93344 17.0867 1.85926 17.066 1.8141 17.0246C1.76895 16.9832 1.74637 16.918 1.74637 16.8289C1.74637 16.2368 1.90279 15.6671 2.21564 15.1196C2.52849 14.5721 2.95906 14.0819 3.50735 13.6491C4.05564 13.2162 4.68456 12.874 5.39412 12.6226C6.10367 12.3711 6.85515 12.2453 7.64856 12.2453C8.05494 12.2453 8.4468 12.2772 8.82416 12.3408C9.20151 12.4045 9.56274 12.4968 9.90784 12.6178C10.2529 12.7387 10.5835 12.8915 10.8996 13.0761C11.048 12.8851 11.2125 12.7053 11.3931 12.5366C11.5736 12.3679 11.7736 12.2103 11.993 12.0639C11.5737 11.7901 11.1302 11.5625 10.6625 11.3811C10.1949 11.1997 9.70949 11.0628 9.20635 10.9705C8.70322 10.8782 8.18395 10.8321 7.64856 10.8321C6.63584 10.8321 5.686 10.9976 4.79906 11.3286C3.91212 11.6596 3.13161 12.1116 2.45753 12.6845C1.78346 13.2575 1.25613 13.9068 0.875555 14.6326C0.494977 15.3583 0.304688 16.1191 0.304688 16.9148C0.304688 17.4432 0.469175 17.8395 0.798149 18.1037C1.12712 18.3679 1.61736 18.5 2.26886 18.5ZM7.65824 9.74346C8.32263 9.74346 8.92897 9.5668 9.47727 9.21349C10.0256 8.86018 10.4642 8.38591 10.7931 7.79068C11.1221 7.19546 11.2866 6.53498 11.2866 5.80925C11.2866 5.10262 11.1238 4.45964 10.798 3.88033C10.4723 3.30103 10.0353 2.83949 9.48695 2.49572C8.93865 2.15195 8.32909 1.98007 7.65824 1.98007C6.99384 1.98007 6.38588 2.15354 5.83436 2.5005C5.28284 2.84744 4.8426 3.31375 4.51363 3.89943C4.18465 4.48511 4.02339 5.12808 4.02984 5.82835C4.02984 6.54771 4.19433 7.20341 4.5233 7.79546C4.85228 8.3875 5.29091 8.86018 5.8392 9.21349C6.38749 9.5668 6.99384 9.74346 7.65824 9.74346ZM7.65824 8.32066C7.26476 8.32066 6.90191 8.20925 6.56971 7.98644C6.23751 7.76362 5.97143 7.46283 5.77147 7.08405C5.5715 6.70527 5.47152 6.2867 5.47152 5.82835C5.47152 5.38272 5.56989 4.97529 5.76664 4.60607C5.96337 4.23683 6.22784 3.94399 6.56004 3.72755C6.89224 3.5111 7.25831 3.40288 7.65824 3.40288C8.06462 3.40288 8.4339 3.50951 8.7661 3.72278C9.0983 3.93604 9.36277 4.22411 9.55951 4.58697C9.75625 4.94983 9.85462 5.35726 9.85462 5.80925C9.85462 6.27397 9.75464 6.69732 9.55468 7.07928C9.35471 7.46124 9.08701 7.76362 8.75159 7.98644C8.41617 8.20925 8.05172 8.32066 7.65824 8.32066ZM35.3308 18.5C35.9888 18.5 36.4822 18.3679 36.8112 18.1037C37.1402 17.8395 37.3047 17.4432 37.3047 16.9148C37.3047 16.1191 37.1144 15.3583 36.7338 14.6326C36.3532 13.9068 35.8259 13.2575 35.1518 12.6845C34.4777 12.1116 33.6972 11.6596 32.8102 11.3286C31.9233 10.9976 30.9734 10.8321 29.9607 10.8321C29.4254 10.8321 28.9045 10.8782 28.3981 10.9705C27.8918 11.0628 27.4064 11.1997 26.942 11.3811C26.4775 11.5625 26.0356 11.7901 25.6164 12.0639C25.8357 12.2103 26.034 12.3679 26.2115 12.5366C26.3888 12.7053 26.5549 12.8851 26.7097 13.0761C27.0258 12.8915 27.3564 12.7387 27.7015 12.6178C28.0466 12.4968 28.4078 12.4045 28.7852 12.3408C29.1625 12.2772 29.5544 12.2453 29.9607 12.2453C30.7477 12.2453 31.496 12.3711 32.2056 12.6226C32.9151 12.874 33.544 13.2162 34.0923 13.6491C34.6406 14.0819 35.0728 14.5721 35.3889 15.1196C35.7049 15.6671 35.863 16.2368 35.863 16.8289C35.863 16.918 35.8388 16.9832 35.7904 17.0246C35.742 17.066 35.6694 17.0867 35.5727 17.0867H28.4901C28.5223 17.3795 28.4626 17.6565 28.3111 17.9175C28.1595 18.1785 27.9675 18.3727 27.7353 18.5H35.3308ZM29.9511 9.74346C30.6155 9.74346 31.2218 9.5668 31.7701 9.21349C32.3184 8.86018 32.757 8.3875 33.086 7.79546C33.415 7.20341 33.5795 6.54771 33.5795 5.82835C33.5795 5.12808 33.415 4.48511 33.086 3.89943C32.757 3.31375 32.3184 2.84744 31.7701 2.5005C31.2218 2.15354 30.6155 1.98007 29.9511 1.98007C29.2802 1.98007 28.6706 2.15195 28.1224 2.49572C27.5741 2.83949 27.1371 3.30103 26.8113 3.88033C26.4856 4.45964 26.3227 5.10262 26.3227 5.80925C26.3227 6.53498 26.4872 7.19546 26.8161 7.79068C27.1452 8.38591 27.5838 8.86018 28.132 9.21349C28.6803 9.5668 29.2867 9.74346 29.9511 9.74346ZM29.9511 8.32066C29.5576 8.32066 29.1932 8.20925 28.8578 7.98644C28.5223 7.76362 28.2546 7.46124 28.0546 7.07928C27.8547 6.69732 27.7547 6.27397 27.7547 5.80925C27.7547 5.35726 27.8531 4.94983 28.0498 4.58697C28.2466 4.22411 28.511 3.93604 28.8432 3.72278C29.1754 3.50951 29.5447 3.40288 29.9511 3.40288C30.351 3.40288 30.7171 3.5111 31.0493 3.72755C31.3815 3.94399 31.646 4.23683 31.8427 4.60607C32.0394 4.97529 32.1378 5.38272 32.1378 5.82835C32.1378 6.2867 32.0378 6.70527 31.8379 7.08405C31.6379 7.46283 31.3718 7.76362 31.0396 7.98644C30.7074 8.20925 30.3446 8.32066 29.9511 8.32066Z" fill="black" fill-opacity="0.85"/>
</svg>
