<svg width="32" height="36" viewBox="0 0 32 36" fill="none" xmlns="http://www.w3.org/2000/svg">
<g clip-path="url(#clip0_1724_49658)">
<path d="M2.5397 36C2.96297 36 3.36508 35.9257 3.74605 35.7771C4.127 35.6285 4.52911 35.4267 4.9524 35.1718L29.6297 20.8567C30.5186 20.3328 31.1359 19.8691 31.4816 19.4655C31.8272 19.062 32 18.577 32 18.0107C32 17.4443 31.8272 16.9593 31.4816 16.5558C31.1359 16.1522 30.5186 15.6956 29.6297 15.1859L4.9524 0.849562C4.52911 0.608853 4.127 0.414162 3.74605 0.265489C3.36508 0.116817 2.96297 0.0424805 2.5397 0.0424805C1.76368 0.0424805 1.14639 0.318588 0.687832 0.870802C0.229277 1.42301 0 2.1593 0 3.07966V32.9417C0 33.862 0.229277 34.6018 0.687832 35.1612C1.14639 35.7204 1.76368 36 2.5397 36Z" fill="white"/>
</g>
<defs>
<clipPath id="clip0_1724_49658">
<rect width="32" height="36" fill="white"/>
</clipPath>
</defs>
</svg>
