<svg width="32" height="36" viewBox="0 0 32 36" fill="none" xmlns="http://www.w3.org/2000/svg">
<g clip-path="url(#clip0_1724_49658)">
<path d="M3.48852 36H9.46882C10.6054 36 11.471 35.7496 12.0655 35.2487C12.6601 34.7477 12.9573 34.011 12.9573 33.0387V2.93923C12.9573 1.93739 12.6601 1.19705 12.0655 0.718233C11.471 0.239411 10.6054 0 9.46882 0H3.48852C2.33442 0 1.46448 0.25046 0.878685 0.751381C0.292895 1.2523 0 1.98158 0 2.93923V33.0387C0 34.011 0.292895 34.7477 0.878685 35.2487C1.46448 35.7496 2.33442 36 3.48852 36ZM22.5573 36H28.5113C29.6655 36 30.5355 35.7496 31.1212 35.2487C31.7071 34.7477 32 34.011 32 33.0387V2.93923C32 1.93739 31.7071 1.19705 31.1212 0.718233C30.5355 0.239411 29.6655 0 28.5113 0H22.5573C21.4032 0 20.5289 0.25046 19.9344 0.751381C19.3398 1.2523 19.0426 1.98158 19.0426 2.93923V33.0387C19.0426 34.011 19.3398 34.7477 19.9344 35.2487C20.5289 35.7496 21.4032 36 22.5573 36Z" fill="white"/>
</g>
<defs>
<clipPath id="clip0_1724_49658">
<rect width="32" height="36" fill="white"/>
</clipPath>
</defs>
</svg>
