<svg width="800" height="16" viewBox="0 0 1122 16" fill="none" xmlns="http://www.w3.org/2000/svg">
<path d="M0.666667 8C0.666666 10.9455 3.05448 13.3333 6 13.3333C8.94552 13.3333 11.3333 10.9455 11.3333 8C11.3333 5.05448 8.94552 2.66667 6 2.66667C3.05448 2.66667 0.666667 5.05448 0.666667 8ZM1121.71 8.7072C1122.1 8.31668 1122.1 7.68352 1121.71 7.29299L1115.34 0.929029C1114.95 0.538505 1114.32 0.538505 1113.93 0.929029C1113.54 1.31955 1113.54 1.95272 1113.93 2.34324L1119.59 8.0001L1113.93 13.657C1113.54 14.0475 1113.54 14.6806 1113.93 15.0712C1114.32 15.4617 1114.95 15.4617 1115.34 15.0712L1121.71 8.7072ZM6 9L1121 9.0001L1121 7.0001L6 7L6 9Z" fill="#4F23E2"/>
<path d="M398 7.5C398 10.5376 395.538 13 392.5 13C389.462 13 387 10.5376 387 7.5C387 4.46243 389.462 2 392.5 2C395.538 2 398 4.46243 398 7.5Z" fill="#4F23E2"/>
<path d="M780 7.5C780 10.5376 777.538 13 774.5 13C771.462 13 769 10.5376 769 7.5C769 4.46243 771.462 2 774.5 2C777.538 2 780 4.46243 780 7.5Z" fill="#4F23E2"/>
</svg>
