<svg width="16" height="16" viewBox="0 0 16 16" fill="none" xmlns="http://www.w3.org/2000/svg">
<path d="M11.7321 10.3183L10.5784 9.21648L10.7279 10.065C11.8541 8.75184 12.436 6.96032 12.1169 5.05624C11.6758 2.44869 9.4984 0.366394 6.87055 0.047485C2.90062 -0.440258 -0.440516 2.89892 0.0475128 6.86652C0.366609 9.49283 2.45013 11.6689 5.05921 12.1098C6.9644 12.4287 8.75698 11.8471 10.0709 10.7216L9.37927 10.7154L10.3243 11.7252L14.313 15.7116C14.6978 16.0961 15.3266 16.0961 15.7114 15.7116C16.0962 15.327 16.0962 14.6986 15.7114 14.314L11.7321 10.3183ZM6.10097 10.3183C3.76406 10.3183 1.87763 8.43293 1.87763 6.09739C1.87763 3.76185 3.76406 1.87653 6.10097 1.87653C8.43787 1.87653 10.3243 3.76185 10.3243 6.09739C10.3243 8.43293 8.43787 10.3183 6.10097 10.3183Z" fill="black"/>
</svg>
