<svg width="14" height="20" viewBox="0 0 14 20" fill="none" xmlns="http://www.w3.org/2000/svg">
<g clip-path="url(#clip0_1725_49694)">
<path d="M12.6716 20C13.0634 20 13.3828 19.8792 13.6296 19.6374C13.8765 19.3957 14 19.0935 14 18.731V1.34847C14 0.978305 13.8746 0.662912 13.6238 0.402288C13.3731 0.141664 13.0478 0.0113525 12.6481 0.0113525C12.3739 0.0113525 12.127 0.0717872 11.9076 0.192656C11.6882 0.313525 11.4296 0.513714 11.1318 0.793224L6.12424 5.3258C6.04588 5.39379 5.94792 5.42779 5.83037 5.42779H2.45676C1.66527 5.42779 1.05793 5.63742 0.634759 6.05669C0.211586 6.47595 0 7.09352 0 7.90939V12.1247C0 12.9481 0.211586 13.5676 0.634759 13.9831C1.05793 14.3985 1.66527 14.6063 2.45676 14.6063H5.83037C5.94792 14.6063 6.04588 14.6403 6.12424 14.7083L11.1318 19.2862C11.3982 19.5355 11.6529 19.7168 11.8958 19.83C12.1387 19.9434 12.3973 20 12.6716 20Z" fill="white"/>
</g>
<defs>
<clipPath id="clip0_1725_49694">
<rect width="14" height="20" fill="white"/>
</clipPath>
</defs>
</svg>
