<svg width="20" height="20" viewBox="0 0 20 20" fill="none" xmlns="http://www.w3.org/2000/svg">
<g clip-path="url(#clip0_1725_49694)">
<g clip-path="url(#clip1_1725_49694)">
<path d="M4.93555 13.3379H7.71875C7.8164 13.3379 7.89778 13.3672 7.96289 13.4258L12.1816 17.3711C12.4095 17.586 12.6243 17.7422 12.8262 17.8398C13.028 17.9375 13.2396 17.9863 13.4609 17.9863C13.7148 17.9863 13.9329 17.9212 14.1152 17.791C14.2975 17.6608 14.4278 17.4557 14.5059 17.1758L3.37305 6.05273C3.08659 6.37825 2.94336 6.86654 2.94336 7.51758V11.2578C2.94336 11.9609 3.10938 12.4834 3.44141 12.8252C3.77344 13.167 4.27148 13.3379 4.93555 13.3379ZM14.5742 11.9121V1.91211C14.5742 1.59309 14.47 1.32128 14.2617 1.09668C14.0534 0.872069 13.7832 0.759766 13.4512 0.759766C13.2233 0.759766 13.0182 0.813476 12.8359 0.920896C12.6536 1.02832 12.4355 1.19921 12.1816 1.43359L8.25586 5.07617C8.20377 5.12825 8.14843 5.1543 8.08984 5.1543H7.79688L14.5742 11.9121ZM17.9531 19.0117C18.0964 19.1614 18.2738 19.2363 18.4854 19.2363C18.6969 19.2363 18.8711 19.1614 19.0078 19.0117C19.1575 18.862 19.2324 18.6846 19.2324 18.4795C19.2324 18.2744 19.1575 18.097 19.0078 17.9473L2.28906 1.22852C2.13932 1.08528 1.96028 1.01204 1.75195 1.00879C1.54362 1.00553 1.36458 1.07878 1.21484 1.22852C1.07161 1.37174 1 1.54915 1 1.76074C1 1.97232 1.07161 2.14973 1.21484 2.29297L17.9531 19.0117Z" fill="white"/>
</g>
</g>
<defs>
<clipPath id="clip0_1725_49694">
<rect width="20" height="19" fill="white" transform="translate(0 0.5)"/>
</clipPath>
<clipPath id="clip1_1725_49694">
<rect width="18.2324" height="19.7363" fill="white" transform="translate(1 -0.5)"/>
</clipPath>
</defs>
</svg>
