<svg width="22" height="22" viewBox="0 0 22 22" fill="none" xmlns="http://www.w3.org/2000/svg">
<g clip-path="url(#clip0_1725_49740)">
<path d="M6.63234 16.3949C6.92712 16.3949 7.17695 16.2889 7.38185 16.0769C7.58675 15.8649 7.68921 15.6152 7.68921 15.3278C7.68921 15.0404 7.58675 14.7925 7.38185 14.5841C7.17695 14.3757 6.92712 14.2715 6.63234 14.2715C6.34476 14.2715 6.09672 14.3757 5.88823 14.5841C5.67973 14.7925 5.57549 15.0404 5.57549 15.3278C5.57549 15.6152 5.67973 15.8649 5.88823 16.0769C6.09672 16.2889 6.34476 16.3949 6.63234 16.3949ZM4.77744 12.051C5.07221 12.051 5.32385 11.9468 5.53235 11.7384C5.74084 11.53 5.84509 11.2821 5.84509 10.9946C5.84509 10.7 5.74084 10.4503 5.53235 10.2455C5.32385 10.0407 5.07221 9.93829 4.77744 9.93829C4.48987 9.93829 4.24183 10.0407 4.03332 10.2455C3.82483 10.4503 3.72058 10.7 3.72058 10.9946C3.72058 11.2821 3.82483 11.53 4.03332 11.7384C4.24183 11.9468 4.48987 12.051 4.77744 12.051ZM6.61078 7.7178C6.90555 7.7178 7.15538 7.6136 7.36029 7.4052C7.56519 7.19681 7.66764 6.9489 7.66764 6.66146C7.66764 6.36683 7.56519 6.11712 7.36029 5.91232C7.15538 5.70751 6.90555 5.6051 6.61078 5.6051C6.32319 5.6051 6.07515 5.70751 5.86666 5.91232C5.65816 6.11712 5.55392 6.36683 5.55392 6.66146C5.55392 6.9489 5.65816 7.19681 5.86666 7.4052C6.07515 7.6136 6.32319 7.7178 6.61078 7.7178ZM10.9892 5.82069C11.2768 5.82069 11.5248 5.71649 11.7333 5.50809C11.9418 5.2997 12.0461 5.05178 12.0461 4.76435C12.0461 4.46972 11.9418 4.2182 11.7333 4.0098C11.5248 3.80141 11.2768 3.69722 10.9892 3.69722C10.6944 3.69722 10.4446 3.80141 10.2397 4.0098C10.0348 4.2182 9.93234 4.46972 9.93234 4.76435C9.93234 5.05178 10.0348 5.2997 10.2397 5.50809C10.4446 5.71649 10.6944 5.82069 10.9892 5.82069ZM17.201 12.051C17.4886 12.051 17.7366 11.9468 17.9451 11.7384C18.1536 11.53 18.2578 11.2821 18.2578 10.9946C18.2578 10.7 18.1536 10.4503 17.9451 10.2455C17.7366 10.0407 17.4886 9.93829 17.201 9.93829C16.9062 9.93829 16.6564 10.0407 16.4515 10.2455C16.2465 10.4503 16.1441 10.7 16.1441 10.9946C16.1441 11.2821 16.2465 11.53 16.4515 11.7384C16.6564 11.9468 16.9062 12.051 17.201 12.051ZM15.3461 16.3949C15.6336 16.3949 15.8817 16.2889 16.0902 16.0769C16.2987 15.8649 16.4029 15.6152 16.4029 15.3278C16.4029 15.0404 16.2987 14.7925 16.0902 14.5841C15.8817 14.3757 15.6336 14.2715 15.3461 14.2715C15.0585 14.2715 14.8105 14.3757 14.602 14.5841C14.3935 14.7925 14.2892 15.0404 14.2892 15.3278C14.2892 15.6152 14.3935 15.8649 14.602 16.0769C14.8105 16.2889 15.0585 16.3949 15.3461 16.3949ZM9.2745 12.6546C9.56927 12.9421 9.88561 13.1145 10.2235 13.172C10.5614 13.2295 10.8921 13.1828 11.2156 13.0318C11.5392 12.881 11.8232 12.6367 12.0676 12.2989L16.2843 6.41354C16.4137 6.23389 16.4497 6.06502 16.3922 5.90692C16.3346 5.74883 16.2268 5.64284 16.0686 5.58894C15.9104 5.53504 15.7415 5.56917 15.5617 5.69134L9.6196 9.85205C9.28169 10.0892 9.03724 10.3712 8.88627 10.6982C8.73529 11.0252 8.69035 11.3593 8.75145 11.7007C8.81257 12.042 8.98692 12.36 9.2745 12.6546ZM11 21.9893C12.5026 21.9893 13.9172 21.7018 15.2436 21.1269C16.5701 20.5521 17.7402 19.758 18.7539 18.7447C19.7676 17.7316 20.5621 16.562 21.1372 15.2362C21.7124 13.9104 22 12.4965 22 10.9946C22 9.49275 21.7124 8.0789 21.1372 6.75307C20.5621 5.42725 19.7676 4.25773 18.7539 3.24449C17.7402 2.23126 16.5683 1.43721 15.2382 0.862324C13.9082 0.287441 12.4918 0 10.9892 0C9.48659 0 8.07205 0.287441 6.74558 0.862324C5.41911 1.43721 4.25081 2.23126 3.24068 3.24449C2.23055 4.25773 1.43791 5.42725 0.862744 6.75307C0.287581 8.0789 0 9.49275 0 10.9946C0 12.4965 0.287581 13.9104 0.862744 15.2362C1.43791 16.562 2.23235 17.7316 3.24607 18.7447C4.2598 19.758 5.4299 20.5521 6.75636 21.1269C8.08283 21.7018 9.49737 21.9893 11 21.9893ZM11 20.1568C9.72744 20.1568 8.53757 19.9197 7.43039 19.4454C6.3232 18.9712 5.35081 18.3155 4.51322 17.4783C3.67565 16.6411 3.0214 15.6692 2.55049 14.5625C2.07957 13.4559 1.84411 12.2666 1.84411 10.9946C1.84411 9.7227 2.07957 8.53342 2.55049 7.42677C3.0214 6.32012 3.67385 5.34641 4.50784 4.50564C5.34182 3.66487 6.31241 3.00915 7.4196 2.53846C8.52679 2.06778 9.71666 1.83244 10.9892 1.83244C12.2618 1.83244 13.4516 2.06778 14.5588 2.53846C15.666 3.00915 16.6402 3.66487 17.4814 4.50564C18.3226 5.34641 18.9804 6.32012 19.4549 7.42677C19.9294 8.53342 20.1666 9.7227 20.1666 10.9946C20.1666 12.2666 19.9312 13.4559 19.4603 14.5625C18.9893 15.6692 18.3351 16.6411 17.4975 17.4783C16.6599 18.3155 15.6857 18.9712 14.5749 19.4454C13.4642 19.9197 12.2726 20.1568 11 20.1568Z" fill="white"/>
</g>
<defs>
<clipPath id="clip0_1725_49740">
<rect width="22" height="22" fill="white"/>
</clipPath>
</defs>
</svg>
