<svg width="26" height="26" viewBox="0 0 26 26" fill="none" xmlns="http://www.w3.org/2000/svg">
<path d="M5.6875 17.3334C5.6875 16.8847 6.05127 16.5209 6.5 16.5209H10.8333C11.2821 16.5209 11.6458 16.8847 11.6458 17.3334C11.6458 17.7821 11.2821 18.1459 10.8333 18.1459H6.5C6.05127 18.1459 5.6875 17.7821 5.6875 17.3334Z" fill="white"/>
<path d="M19.4993 13.2709C19.9481 13.2709 20.3118 13.6347 20.3118 14.0834C20.3118 14.5321 19.9481 14.8959 19.4993 14.8959H15.166C14.7173 14.8959 14.3535 14.5321 14.3535 14.0834C14.3535 13.6347 14.7173 13.2709 15.166 13.2709H19.4993Z" fill="white"/>
<path d="M12.7285 17.3334C12.7285 16.8847 13.0923 16.5209 13.541 16.5209H15.166C15.6147 16.5209 15.9785 16.8847 15.9785 17.3334C15.9785 17.7821 15.6147 18.1459 15.166 18.1459H13.541C13.0923 18.1459 12.7285 17.7821 12.7285 17.3334Z" fill="white"/>
<path d="M12.4577 13.2709C12.9064 13.2709 13.2702 13.6347 13.2702 14.0834C13.2702 14.5321 12.9064 14.8959 12.4577 14.8959H10.291C9.84229 14.8959 9.47852 14.5321 9.47852 14.0834C9.47852 13.6347 9.84229 13.2709 10.291 13.2709H12.4577Z" fill="white"/>
<path d="M17.0625 17.3334C17.0625 16.8847 17.4263 16.5209 17.875 16.5209H19.5C19.9487 16.5209 20.3125 16.8847 20.3125 17.3334C20.3125 17.7821 19.9487 18.1459 19.5 18.1459H17.875C17.4263 18.1459 17.0625 17.7821 17.0625 17.3334Z" fill="white"/>
<path d="M7.58333 13.2709C8.03206 13.2709 8.39583 13.6347 8.39583 14.0834C8.39583 14.5321 8.03206 14.8959 7.58333 14.8959H6.5C6.05127 14.8959 5.6875 14.5321 5.6875 14.0834C5.6875 13.6347 6.05127 13.2709 6.5 13.2709H7.58333Z" fill="white"/>
<path fill-rule="evenodd" clip-rule="evenodd" d="M10.7716 3.52087H15.2271C17.2181 3.52085 18.795 3.52084 20.0291 3.68678C21.2992 3.85753 22.3273 4.21733 23.138 5.02805C23.9487 5.83879 24.3085 6.86681 24.4793 8.13694C24.6452 9.37107 24.6452 10.948 24.6452 12.9388V13.0611C24.6452 15.0521 24.6452 16.629 24.4793 17.8631C24.3085 19.1332 23.9487 20.1613 23.138 20.9721C22.3273 21.7827 21.2992 22.1425 20.0291 22.3134C18.795 22.4792 17.2181 22.4792 15.2272 22.4792H10.7716C8.78069 22.4792 7.20371 22.4792 5.96958 22.3134C4.69946 22.1425 3.67143 21.7827 2.86069 20.9721C2.04997 20.1613 1.69017 19.1332 1.51942 17.8631C1.35348 16.629 1.35349 15.0521 1.35352 13.0611V12.9389C1.35349 10.948 1.35348 9.37108 1.51942 8.13694C1.69017 6.86681 2.04997 5.83879 2.86069 5.02805C3.67143 4.21733 4.69946 3.85753 5.96958 3.68678C7.20372 3.52084 8.78066 3.52085 10.7716 3.52087ZM6.1861 5.29728C5.09617 5.44381 4.46822 5.71862 4.00974 6.1771C3.55126 6.63558 3.27645 7.26353 3.12992 8.35346C2.98024 9.46676 2.97852 10.9343 2.97852 13C2.97852 15.0657 2.98024 16.5333 3.12992 17.6467C3.27645 18.7365 3.55126 19.3645 4.00974 19.823C4.46822 20.2814 5.09617 20.5563 6.1861 20.7028C7.2994 20.8525 8.76696 20.8542 10.8327 20.8542H15.166C17.2317 20.8542 18.6993 20.8525 19.8126 20.7028C20.9025 20.5563 21.5305 20.2814 21.989 19.823C22.4474 19.3645 22.7223 18.7365 22.8687 17.6467C23.0184 16.5333 23.0202 15.0657 23.0202 13C23.0202 10.9343 23.0184 9.46676 22.8687 8.35346C22.7223 7.26353 22.4474 6.63558 21.989 6.1771C21.5305 5.71862 20.9025 5.44381 19.8126 5.29728C18.6993 5.1476 17.2317 5.14587 15.166 5.14587H10.8327C8.76696 5.14587 7.2994 5.1476 6.1861 5.29728Z" fill="white"/>
</svg>
