<svg width="16" height="20" viewBox="0 0 16 20" fill="none" xmlns="http://www.w3.org/2000/svg">
<path d="M4.21489 18.5197H11.7934C12.383 18.5197 12.8623 18.3423 13.2315 17.9875C13.6006 17.6327 13.799 17.1559 13.8265 16.5572L14.3967 4.4657H15.3885C15.5593 4.4657 15.7039 4.40333 15.8224 4.27859C15.9408 4.15385 16 4.00555 16 3.83368C16 3.66182 15.9394 3.51491 15.8182 3.39294C15.697 3.27097 15.5538 3.20998 15.3885 3.20998H0.619836C0.454547 3.20998 0.309918 3.27235 0.185951 3.3971C0.0619837 3.52183 0 3.66736 0 3.83368C0 4.00555 0.0619837 4.15385 0.185951 4.27859C0.309918 4.40333 0.454547 4.4657 0.619836 4.4657H1.61158L2.18182 16.5655C2.20937 17.1642 2.40634 17.6396 2.77274 17.9917C3.13913 18.3437 3.61984 18.5197 4.21489 18.5197ZM4.33059 17.264C4.09368 17.264 3.89533 17.1836 3.73554 17.0229C3.57577 16.8621 3.49037 16.6597 3.47935 16.4158L2.90083 4.4657H13.0662L12.5207 16.4158C12.5097 16.6653 12.4243 16.869 12.2645 17.027C12.1047 17.185 11.9036 17.264 11.6612 17.264H4.33059ZM5.55373 15.842C5.70801 15.842 5.83197 15.7963 5.92563 15.7048C6.0193 15.6133 6.06613 15.4955 6.06613 15.3513L5.80993 6.45323C5.80993 6.30908 5.76172 6.19266 5.66531 6.10396C5.56889 6.01525 5.4463 5.9709 5.29754 5.9709C5.14327 5.9709 5.01792 6.01664 4.9215 6.10811C4.82508 6.19959 4.77963 6.3174 4.78514 6.46155L5.03307 15.3513C5.03858 15.501 5.08817 15.6203 5.18183 15.709C5.2755 15.7977 5.39946 15.842 5.55373 15.842ZM8.00002 15.842C8.1598 15.842 8.28928 15.7963 8.38845 15.7048C8.48763 15.6133 8.53722 15.4955 8.53722 15.3513V6.46155C8.53722 6.3174 8.48763 6.19959 8.38845 6.10811C8.28928 6.01664 8.1598 5.9709 8.00002 5.9709C7.84575 5.9709 7.71903 6.01664 7.61986 6.10811C7.52068 6.19959 7.47109 6.3174 7.47109 6.46155V15.3513C7.47109 15.4955 7.52068 15.6133 7.61986 15.7048C7.71903 15.7963 7.84575 15.842 8.00002 15.842ZM10.4546 15.842C10.6033 15.842 10.7246 15.7977 10.8182 15.709C10.9119 15.6203 10.9615 15.501 10.967 15.3513L11.2149 6.46155C11.2204 6.3174 11.1763 6.19959 11.0827 6.10811C10.989 6.01664 10.8623 5.9709 10.7025 5.9709C10.5537 5.9709 10.4325 6.01525 10.3389 6.10396C10.2452 6.19266 10.1956 6.31186 10.1901 6.46155L9.94213 15.3513C9.93666 15.4955 9.98075 15.6133 10.0744 15.7048C10.1681 15.7963 10.2948 15.842 10.4546 15.842ZM4.37192 3.80042H5.68597V2.0208C5.68597 1.78794 5.76172 1.59945 5.91323 1.4553C6.06475 1.31116 6.26448 1.23909 6.51241 1.23909H9.47109C9.71905 1.23909 9.91878 1.31116 10.0703 1.4553C10.2218 1.59945 10.2976 1.78794 10.2976 2.0208V3.80042H11.6116V1.93763C11.6116 1.33888 11.4284 0.86625 11.062 0.519751C10.6956 0.17325 10.1956 0 9.56199 0H6.4215C5.78789 0 5.28789 0.17325 4.9215 0.519751C4.55511 0.86625 4.37192 1.33888 4.37192 1.93763V3.80042Z" fill="#FF3B30"/>
</svg>
