<svg width="32" height="30" viewBox="0 0 39 37" fill="none" xmlns="http://www.w3.org/2000/svg">
<g id="pfp logo">
<path id="Vector" opacity="0.4" d="M19.3284 37C30.003 37 38.6567 28.7174 38.6567 18.5C38.6567 8.28273 30.003 0 19.3284 0C8.6536 0 0 8.28273 0 18.5C0 28.7174 8.6536 37 19.3284 37Z" fill="#FFD2D5" fill-opacity="0.69"/>
<path id="Vector_2" d="M19.3282 9.12036C15.3272 9.12036 12.0801 12.2284 12.0801 16.0578C12.0801 19.8133 15.1533 22.8658 19.2316 22.9768C19.2896 22.9768 19.3669 22.9768 19.4055 22.9768C19.4442 22.9768 19.5022 22.9768 19.5408 22.9768C19.5602 22.9768 19.5795 22.9768 19.5795 22.9768C23.4838 22.8473 26.557 19.8133 26.5764 16.0578C26.5764 12.2284 23.3292 9.12036 19.3282 9.12036Z" fill="#FFD2D5" fill-opacity="0.69"/>
<path id="Vector_3" d="M32.4349 32.0974C28.9944 35.1314 24.3942 36.9999 19.3302 36.9999C14.2662 36.9999 9.66603 35.1314 6.22559 32.0974C6.68947 30.4139 7.94581 28.8784 9.78201 27.6944C15.0586 24.3274 23.6404 24.3274 28.8784 27.6944C30.734 28.8784 31.971 30.4139 32.4349 32.0974Z" fill="#FFD2D5" fill-opacity="0.69"/>
</g>
</svg>
