<svg width="20" height="21" viewBox="0 0 20 21" fill="none" xmlns="http://www.w3.org/2000/svg">
<g clip-path="url(#clip0_2142_9895)">
<path d="M12.1259 20.9551C12.5009 20.9551 12.8065 20.8342 13.0427 20.5925C13.279 20.3508 13.3971 20.0486 13.3971 19.686V2.30354C13.3971 1.93338 13.2771 1.61799 13.0372 1.35737C12.7972 1.09674 12.486 0.966431 12.1035 0.966431C11.841 0.966431 11.6048 1.02687 11.3948 1.14773C11.1848 1.2686 10.9374 1.46879 10.6524 1.7483L5.86051 6.28088C5.78552 6.34887 5.69178 6.38287 5.5793 6.38287H2.35096C1.59355 6.38287 1.01237 6.5925 0.607424 7.01177C0.202475 7.43103 0 8.0486 0 8.86447V13.0797C0 13.9032 0.202475 14.5227 0.607424 14.9381C1.01237 15.3536 1.59355 15.5614 2.35096 15.5614H5.5793C5.69178 15.5614 5.78552 15.5954 5.86051 15.6634L10.6524 20.2413C10.9074 20.4906 11.1511 20.6719 11.3836 20.7851C11.616 20.8984 11.8635 20.9551 12.1259 20.9551ZM17.4015 15.7766C17.5965 15.9051 17.8102 15.9485 18.0428 15.9069C18.2752 15.8654 18.4664 15.7351 18.6164 15.516C19.0513 14.9419 19.3907 14.2544 19.6344 13.4537C19.8781 12.653 20 11.8182 20 10.9494C20 10.0807 19.8781 9.24595 19.6344 8.4452C19.3907 7.64444 19.0513 6.95699 18.6164 6.38287C18.4664 6.16379 18.2752 6.03159 18.0428 5.98627C17.8102 5.94094 17.5965 5.98626 17.4015 6.12224C17.1766 6.28088 17.0473 6.48674 17.0135 6.73981C16.9798 6.99288 17.0529 7.23651 17.2328 7.47069C17.5628 7.92395 17.8159 8.45275 17.9921 9.05709C18.1683 9.66144 18.2564 10.2922 18.2564 10.9494C18.2564 11.6067 18.1664 12.2356 17.9864 12.8362C17.8065 13.4367 17.5553 13.9674 17.2328 14.4282C17.0603 14.6699 16.9891 14.9154 17.0191 15.1648C17.0491 15.4141 17.1766 15.618 17.4015 15.7766Z" fill="#FFFFFF" fill-opacity="0.85"/>
</g>
<defs>
<clipPath id="clip0_2142_9895">
<rect width="20" height="20" fill="white" transform="translate(0 0.955078)"/>
</clipPath>
</defs>
</svg>
