<svg width="29" height="21" viewBox="0 0 29 21" fill="none" xmlns="http://www.w3.org/2000/svg">
<g clip-path="url(#clip0_2142_9903)">
<path d="M11.7908 20.0845C12.1385 20.0845 12.422 19.9742 12.641 19.7535C12.8602 19.5328 12.9697 19.2569 12.9697 18.9258V3.05672C12.9697 2.71879 12.8584 2.43086 12.6359 2.19292C12.4133 1.95499 12.1247 1.83602 11.77 1.83602C11.5265 1.83602 11.3075 1.89119 11.1127 2.00154C10.918 2.11189 10.6885 2.29465 10.4242 2.54982L5.9801 6.6878C5.91055 6.74987 5.82362 6.7809 5.7193 6.7809H2.72526C2.02282 6.7809 1.48382 6.97229 1.10826 7.35505C0.732702 7.73781 0.544922 8.30161 0.544922 9.04645V12.8948C0.544922 13.6465 0.732702 14.212 1.10826 14.5913C1.48382 14.9706 2.02282 15.1603 2.72526 15.1603H5.7193C5.82362 15.1603 5.91055 15.1913 5.9801 15.2534L10.4242 19.4327C10.6607 19.6603 10.8867 19.8259 11.1023 19.9293C11.3179 20.0328 11.5474 20.0845 11.7908 20.0845ZM16.6835 15.3569C16.8643 15.4741 17.0626 15.5138 17.2782 15.4758C17.4938 15.4379 17.6711 15.319 17.8102 15.119C18.2136 14.5948 18.5283 13.9672 18.7543 13.2361C18.9804 12.5051 19.0934 11.743 19.0934 10.9499C19.0934 10.1568 18.9804 9.39473 18.7543 8.66368C18.5283 7.93264 18.2136 7.30505 17.8102 6.7809C17.6711 6.5809 17.4938 6.46021 17.2782 6.41883C17.0626 6.37745 16.8643 6.41883 16.6835 6.54297C16.4749 6.6878 16.355 6.87574 16.3236 7.10677C16.2924 7.3378 16.3602 7.56022 16.527 7.77402C16.833 8.18782 17.0678 8.67058 17.2312 9.22231C17.3947 9.77404 17.4764 10.3499 17.4764 10.9499C17.4764 11.5499 17.3929 12.124 17.226 12.6723C17.0591 13.2207 16.8261 13.7051 16.527 14.1258C16.3671 14.3465 16.301 14.5707 16.3289 14.7982C16.3567 15.0258 16.4749 15.212 16.6835 15.3569ZM20.5643 18.0569C20.7591 18.181 20.9642 18.2241 21.1798 18.1862C21.3954 18.1483 21.5728 18.0293 21.7119 17.8293C22.3796 16.919 22.8994 15.8638 23.2715 14.6638C23.6436 13.4638 23.8296 12.2258 23.8296 10.9499C23.8296 9.67404 23.6453 8.43264 23.2767 7.22574C22.9081 6.01883 22.3865 4.96709 21.7119 4.07052C21.5728 3.87052 21.3954 3.74983 21.1798 3.70846C20.9642 3.66707 20.7591 3.7119 20.5643 3.84294C20.3766 3.97398 20.267 4.14812 20.2357 4.36536C20.2044 4.5826 20.2653 4.79812 20.4183 5.01192C20.9886 5.81193 21.4302 6.72573 21.7432 7.75333C22.0561 8.78093 22.2126 9.84646 22.2126 10.9499C22.2126 12.0534 22.0544 13.1172 21.738 14.1413C21.4215 15.1655 20.9816 16.081 20.4183 16.8879C20.2722 17.1017 20.2131 17.3172 20.2409 17.5344C20.2688 17.7517 20.3766 17.9259 20.5643 18.0569ZM24.4764 20.7983C24.6572 20.9293 24.8589 20.9707 25.0815 20.9225C25.304 20.8741 25.4848 20.7466 25.624 20.5397C26.236 19.6638 26.7593 18.7172 27.194 17.7C27.6286 16.6828 27.9625 15.6086 28.1955 14.4775C28.4284 13.3465 28.5449 12.1706 28.5449 10.9499C28.5449 9.72921 28.4267 8.55334 28.1903 7.42229C27.9538 6.29124 27.6165 5.21709 27.1783 4.19985C26.7402 3.18259 26.2221 2.23603 25.624 1.36015C25.4848 1.14636 25.304 1.01705 25.0815 0.972218C24.8589 0.92739 24.6572 0.970494 24.4764 1.10153C24.2816 1.23257 24.1704 1.40843 24.1425 1.62912C24.1148 1.84981 24.1739 2.06706 24.32 2.28085C24.8554 3.07397 25.3197 3.92742 25.7127 4.84122C26.1056 5.75503 26.4098 6.72401 26.6255 7.74815C26.8411 8.7723 26.9488 9.83956 26.9488 10.9499C26.9488 12.0534 26.8411 13.1172 26.6255 14.1413C26.4098 15.1655 26.1056 16.1379 25.7127 17.0586C25.3197 17.9793 24.8554 18.8327 24.32 19.619C24.1739 19.8259 24.1148 20.0414 24.1425 20.2656C24.1704 20.4897 24.2816 20.6673 24.4764 20.7983Z" fill="white" fill-opacity="0.85"/>
</g>
<defs>
<clipPath id="clip0_2142_9903">
<rect width="28" height="20" fill="white" transform="translate(0.544922 0.955078)"/>
</clipPath>
</defs>
</svg>
