<svg width="26" height="21" viewBox="0 0 26 21" fill="none" xmlns="http://www.w3.org/2000/svg">
<g clip-path="url(#clip0_2142_9899)">
<path d="M12.4122 20.9551C12.7856 20.9551 13.0899 20.8342 13.3251 20.5925C13.5603 20.3508 13.678 20.0486 13.678 19.686V2.30354C13.678 1.93338 13.5585 1.61799 13.3196 1.35737C13.0806 1.09674 12.7707 0.966431 12.3898 0.966431C12.1285 0.966431 11.8951 1.02875 11.6898 1.1534C11.4845 1.27805 11.2362 1.47635 10.945 1.7483L6.17346 6.28088C6.09878 6.34887 6.00544 6.38287 5.89344 6.38287H2.67884C1.92466 6.38287 1.34596 6.5925 0.942729 7.01177C0.539503 7.43103 0.337891 8.0486 0.337891 8.86447V13.0797C0.337891 13.9032 0.539503 14.5227 0.942729 14.9381C1.34596 15.3536 1.92466 15.5614 2.67884 15.5614H5.89344C6.00544 15.5614 6.09878 15.5954 6.17346 15.6634L10.945 20.2413C11.1988 20.4906 11.4415 20.6719 11.673 20.7851C11.9044 20.8984 12.1508 20.9551 12.4122 20.9551ZM17.6766 15.7766C17.8707 15.9051 18.0835 15.9485 18.315 15.9069C18.5465 15.8654 18.737 15.7351 18.8863 15.516C19.3194 14.9419 19.6573 14.2544 19.9 13.4537C20.1426 12.653 20.2639 11.8182 20.2639 10.9494C20.2639 10.0807 20.1426 9.24595 19.9 8.4452C19.6573 7.64444 19.3194 6.95699 18.8863 6.38287C18.737 6.16379 18.5465 6.03159 18.315 5.98627C18.0835 5.94094 17.8707 5.98626 17.6766 6.12224C17.4526 6.28088 17.3238 6.48674 17.2902 6.73981C17.2565 6.99288 17.3293 7.23651 17.5086 7.47069C17.8371 7.92395 18.0892 8.45275 18.2646 9.05709C18.4401 9.66144 18.5279 10.2922 18.5279 10.9494C18.5279 11.6067 18.4382 12.2356 18.259 12.8362C18.0798 13.4367 17.8296 13.9674 17.5086 14.4282C17.3368 14.6699 17.2659 14.9154 17.2958 15.1648C17.3256 15.4141 17.4526 15.618 17.6766 15.7766ZM21.832 18.7342C22.0411 18.8701 22.2614 18.9173 22.4929 18.8758C22.7243 18.8342 22.9148 18.7039 23.0642 18.4848C23.781 17.4877 24.3392 16.3319 24.7386 15.0174C25.1381 13.703 25.3379 12.347 25.3379 10.9494C25.3379 9.5519 25.14 8.19213 24.7442 6.87013C24.3485 5.54812 23.7884 4.39609 23.0642 3.41403C22.9148 3.19495 22.7243 3.06275 22.4929 3.01742C22.2614 2.9721 22.0411 3.0212 21.832 3.16474C21.6304 3.30826 21.5128 3.49901 21.4792 3.73697C21.4456 3.97494 21.511 4.21101 21.6752 4.44519C22.2875 5.32149 22.7617 6.32243 23.0978 7.44802C23.4338 8.57362 23.6017 9.74076 23.6017 10.9494C23.6017 12.1582 23.4319 13.3234 23.0922 14.4452C22.7524 15.5671 22.28 16.5699 21.6752 17.4538C21.5184 17.6879 21.4549 17.924 21.4848 18.1619C21.5147 18.3999 21.6304 18.5906 21.832 18.7342Z" fill="white" fill-opacity="0.85"/>
</g>
<defs>
<clipPath id="clip0_2142_9899">
<rect width="25" height="20" fill="white" transform="translate(0.337891 0.955078)"/>
</clipPath>
</defs>
</svg>
